<?xml version="1.0" encoding="UTF-8"?>
<svg xmlns="http://www.w3.org/2000/svg" xmlns:xlink="http://www.w3.org/1999/xlink" width="24px" height="24px" viewBox="0 0 24 24" version="1.1">
<g id="surface1">
<path style=" stroke:none;fill-rule:nonzero;fill:rgb(94.509804%,72.156864%,7.843138%);fill-opacity:1;" d="M 19.011719 2.28125 C 21.449219 4.074219 23.179688 6.695312 23.769531 9.675781 C 24.019531 11.691406 24.109375 14.023438 22.921875 15.761719 C 22.441406 16.332031 21.957031 16.652344 21.28125 16.960938 C 21.121094 16.960938 20.964844 16.960938 20.800781 16.960938 C 20.746094 17.136719 20.746094 17.136719 20.691406 17.320312 C 20.429688 17.863281 20.191406 18.085938 19.679688 18.398438 C 19.171875 18.460938 19.171875 18.460938 18.71875 18.398438 C 18.613281 18.292969 18.507812 18.1875 18.398438 18.078125 C 18.429688 17.539062 18.527344 17.316406 18.890625 16.910156 C 18.992188 16.820312 19.09375 16.730469 19.199219 16.640625 C 18.6875 16.382812 18.285156 16.636719 17.761719 16.800781 C 17.496094 16.535156 17.230469 16.273438 16.960938 16 C 16.847656 16.082031 16.847656 16.082031 16.730469 16.167969 C 16.632812 16.242188 16.53125 16.316406 16.429688 16.390625 C 16.332031 16.460938 16.234375 16.535156 16.132812 16.609375 C 15.839844 16.800781 15.839844 16.800781 15.359375 16.960938 C 15.199219 17.238281 15.035156 17.519531 14.890625 17.808594 C 14.71875 18.078125 14.71875 18.078125 14.238281 18.398438 C 13.671875 18.441406 13.671875 18.441406 13.121094 18.398438 C 13.015625 18.292969 12.910156 18.1875 12.800781 18.078125 C 12.828125 17.539062 12.925781 17.316406 13.289062 16.910156 C 13.390625 16.820312 13.496094 16.730469 13.601562 16.640625 C 13.496094 16.535156 13.390625 16.429688 13.28125 16.320312 C 13.015625 16.476562 12.753906 16.636719 12.480469 16.800781 C 12.214844 16.640625 11.953125 16.484375 11.679688 16.320312 C 11.773438 15.835938 11.878906 15.359375 12 14.878906 C 11.9375 15.003906 11.875 15.128906 11.8125 15.257812 C 11.730469 15.421875 11.644531 15.582031 11.558594 15.75 C 11.4375 15.992188 11.4375 15.992188 11.3125 16.238281 C 11.039062 16.640625 11.039062 16.640625 10.707031 16.785156 C 10.398438 16.800781 10.398438 16.800781 10.078125 16.640625 C 9.976562 16.667969 9.875 16.691406 9.769531 16.71875 C 9.441406 16.800781 9.441406 16.800781 8.960938 16.640625 C 8.808594 16.667969 8.65625 16.691406 8.5 16.71875 C 7.996094 16.800781 7.691406 16.742188 7.199219 16.640625 C 7.03125 16.691406 7.03125 16.691406 6.859375 16.738281 C 6.558594 16.800781 6.558594 16.800781 6.269531 16.628906 C 6.078125 16.320312 6.078125 16.320312 6.109375 15.851562 C 6.222656 15.429688 6.34375 15.09375 6.558594 14.71875 C 6.035156 15.179688 5.867188 15.683594 5.625 16.328125 C 5.441406 16.640625 5.441406 16.640625 5.121094 16.773438 C 4.800781 16.800781 4.800781 16.800781 4.480469 16.640625 C 4.621094 15.605469 5.015625 14.777344 5.460938 13.839844 C 5.535156 13.675781 5.609375 13.515625 5.683594 13.34375 C 6.238281 12.175781 6.8125 11.394531 7.980469 10.808594 C 9.0625 10.613281 9.984375 10.894531 11.019531 11.21875 C 12.042969 11.53125 12.871094 11.554688 13.921875 11.359375 C 13.871094 11.738281 13.871094 11.738281 13.761719 12.160156 C 13.035156 12.640625 12.371094 12.570312 11.519531 12.480469 C 10.976562 12.335938 10.445312 12.164062 9.914062 11.984375 C 9.152344 11.753906 8.625 11.707031 7.878906 12.03125 C 7.386719 12.429688 7.160156 12.882812 6.878906 13.441406 C 7.007812 13.464844 7.136719 13.484375 7.269531 13.511719 C 7.679688 13.601562 7.679688 13.601562 7.839844 13.761719 C 7.777344 14.320312 7.699219 14.824219 7.519531 15.359375 C 7.59375 15.234375 7.667969 15.109375 7.742188 14.980469 C 7.890625 14.738281 7.890625 14.738281 8.039062 14.488281 C 8.136719 14.328125 8.234375 14.167969 8.332031 14 C 8.640625 13.601562 8.640625 13.601562 8.996094 13.464844 C 9.089844 13.457031 9.183594 13.449219 9.28125 13.441406 C 9.390625 13.703125 9.390625 13.703125 9.441406 14.078125 C 9.246094 14.527344 9.246094 14.527344 8.96875 15 C 8.878906 15.15625 8.789062 15.316406 8.695312 15.476562 C 8.625 15.597656 8.554688 15.714844 8.480469 15.839844 C 9.132812 15.261719 9.492188 14.6875 9.871094 13.902344 C 10.078125 13.601562 10.078125 13.601562 10.40625 13.46875 C 10.71875 13.441406 10.71875 13.441406 11.039062 13.601562 C 10.992188 13.71875 10.941406 13.835938 10.890625 13.960938 C 10.699219 14.425781 10.699219 14.425781 10.558594 15.039062 C 10.824219 14.511719 11.089844 13.984375 11.359375 13.441406 C 12.050781 13.441406 12.609375 13.445312 13.28125 13.601562 C 13.332031 13.652344 13.386719 13.707031 13.441406 13.761719 C 13.390625 14.132812 13.339844 14.507812 13.28125 14.878906 C 13.28125 14.984375 13.28125 15.089844 13.28125 15.199219 C 13.390625 15.027344 13.496094 14.855469 13.609375 14.679688 C 14.050781 14.074219 14.476562 13.667969 15.199219 13.441406 C 15.738281 13.390625 16.261719 13.402344 16.800781 13.441406 C 16.941406 13.835938 16.980469 14.023438 16.835938 14.421875 C 16.773438 14.535156 16.714844 14.644531 16.648438 14.761719 C 16.589844 14.871094 16.527344 14.984375 16.464844 15.101562 C 16.417969 15.1875 16.371094 15.273438 16.320312 15.359375 C 17.121094 14.53125 17.121094 14.53125 17.503906 13.480469 C 17.496094 13.054688 17.496094 13.054688 17.449219 12.652344 C 17.445312 12.542969 17.441406 12.433594 17.441406 12.320312 C 17.761719 12 17.761719 12 18.160156 11.960938 C 18.558594 12 18.558594 12 18.878906 12.320312 C 18.910156 12.730469 18.910156 12.730469 18.878906 13.121094 C 18.828125 13.171875 18.773438 13.226562 18.71875 13.28125 C 18.929688 13.4375 19.140625 13.597656 19.359375 13.761719 C 19.113281 14.320312 18.769531 14.78125 18.402344 15.265625 C 18.210938 15.515625 18.210938 15.515625 18.238281 15.839844 C 19.140625 15.136719 19.730469 14.414062 20.320312 13.441406 C 20.53125 13.492188 20.742188 13.546875 20.960938 13.601562 C 20.867188 14.203125 20.695312 14.644531 20.390625 15.171875 C 20.316406 15.296875 20.246094 15.421875 20.167969 15.554688 C 20.113281 15.648438 20.058594 15.742188 20 15.839844 C 20.703125 15.492188 20.957031 15.164062 21.289062 14.460938 C 21.683594 13.632812 21.683594 13.632812 22.097656 13.457031 C 22.199219 13.449219 22.296875 13.445312 22.398438 13.441406 C 22.453125 13.492188 22.503906 13.546875 22.558594 13.601562 C 23.226562 12.265625 22.714844 9.929688 22.300781 8.574219 C 21.253906 5.859375 19.367188 3.695312 16.71875 2.429688 C 13.816406 1.214844 10.878906 1.144531 7.941406 2.28125 C 7.023438 2.691406 6.234375 3.230469 5.441406 3.839844 C 5.273438 3.957031 5.109375 4.078125 4.941406 4.199219 C 2.953125 6.101562 1.8125 8.753906 1.695312 11.488281 C 1.644531 14.339844 2.621094 17.109375 4.597656 19.191406 C 6.691406 21.285156 9.285156 22.277344 12.21875 22.300781 C 13.585938 22.292969 14.839844 22.132812 16.160156 21.761719 C 16.175781 21.585938 16.191406 21.410156 16.207031 21.234375 C 16.347656 20.488281 16.550781 20.328125 17.125 19.886719 C 17.59375 19.582031 18.027344 19.378906 18.558594 19.199219 C 18.664062 19.253906 18.769531 19.304688 18.878906 19.359375 C 18.878906 19.570312 18.878906 19.78125 18.878906 20 C 18.535156 20.296875 18.535156 20.296875 18.089844 20.578125 C 17.507812 20.921875 17.507812 20.921875 17.121094 21.441406 C 17.238281 21.371094 17.359375 21.300781 17.484375 21.230469 C 17.640625 21.140625 17.796875 21.050781 17.960938 20.960938 C 18.117188 20.871094 18.273438 20.78125 18.433594 20.691406 C 18.878906 20.480469 18.878906 20.480469 19.519531 20.480469 C 19.472656 21 19.429688 21.21875 19.03125 21.566406 C 18.832031 21.6875 18.832031 21.6875 18.628906 21.808594 C 18.496094 21.890625 18.367188 21.972656 18.230469 22.058594 C 18.078125 22.148438 18.078125 22.148438 17.921875 22.238281 C 18.425781 22.152344 18.753906 22.0625 19.210938 21.808594 C 19.679688 21.601562 19.679688 21.601562 20.058594 21.730469 C 20.144531 21.792969 20.230469 21.855469 20.320312 21.921875 C 20.085938 22.625 19.609375 22.800781 18.984375 23.160156 C 18.433594 23.417969 18.039062 23.457031 17.441406 23.359375 C 17.332031 23.304688 17.222656 23.246094 17.109375 23.191406 C 16.449219 22.871094 15.714844 23.234375 15.050781 23.441406 C 12.105469 24.335938 8.921875 23.816406 6.222656 22.410156 C 3.257812 20.734375 1.394531 18.046875 0.464844 14.832031 C -0.3125 11.671875 0.304688 8.546875 1.878906 5.738281 C 3.65625 2.902344 6.273438 1.214844 9.441406 0.320312 C 12.746094 -0.425781 16.242188 0.382812 19.011719 2.28125 Z M 14.960938 14.449219 C 14.375 15.050781 14.375 15.050781 14.238281 15.839844 C 14.851562 15.753906 15.140625 15.523438 15.519531 15.039062 C 15.648438 14.535156 15.648438 14.535156 15.679688 14.078125 C 15.308594 14.042969 15.308594 14.042969 14.960938 14.449219 Z M 22.398438 14.078125 C 22.292969 14.257812 22.183594 14.4375 22.070312 14.621094 C 22.007812 14.71875 21.949219 14.820312 21.882812 14.921875 C 21.84375 15.015625 21.800781 15.105469 21.761719 15.199219 C 21.8125 15.304688 21.867188 15.410156 21.921875 15.519531 C 22.261719 15.070312 22.261719 15.070312 22.558594 14.558594 C 22.507812 14.402344 22.453125 14.242188 22.398438 14.078125 Z M 22.398438 14.078125 "/>
<path style=" stroke:none;fill-rule:nonzero;fill:rgb(94.117647%,72.156864%,7.450981%);fill-opacity:1;" d="M 6.078125 5.121094 C 6.34375 5.121094 6.609375 5.121094 6.878906 5.121094 C 6.785156 5.894531 6.5625 6.496094 6.238281 7.199219 C 6.367188 7.242188 6.492188 7.285156 6.621094 7.328125 C 7.039062 7.519531 7.039062 7.519531 7.359375 8 C 7.355469 8.4375 7.269531 8.84375 7.199219 9.28125 C 7.261719 9.195312 7.320312 9.109375 7.382812 9.023438 C 8.300781 7.757812 8.300781 7.757812 8.960938 7.359375 C 9.46875 7.300781 9.46875 7.300781 9.921875 7.359375 C 10.027344 7.464844 10.132812 7.570312 10.238281 7.679688 C 10.226562 8.363281 10.191406 8.691406 9.699219 9.179688 C 9.28125 9.441406 9.28125 9.441406 8.800781 9.601562 C 9.238281 9.585938 9.519531 9.515625 9.84375 9.214844 C 10.242188 8.753906 10.585938 8.289062 10.898438 7.769531 C 11 7.632812 11.097656 7.5 11.199219 7.359375 C 11.410156 7.359375 11.621094 7.359375 11.839844 7.359375 C 11.769531 8.296875 11.355469 8.972656 10.878906 9.761719 C 11.707031 9.183594 12.054688 8.621094 12.453125 7.699219 C 12.640625 7.359375 12.640625 7.359375 13.121094 7.199219 C 13.335938 7.25 13.546875 7.304688 13.761719 7.359375 C 13.902344 7.359375 14.042969 7.359375 14.191406 7.359375 C 14.3125 7.359375 14.433594 7.359375 14.558594 7.359375 C 14.71875 7.519531 14.71875 7.519531 14.761719 7.960938 C 14.714844 8.535156 14.566406 8.816406 14.238281 9.28125 C 14.617188 8.917969 14.957031 8.546875 15.28125 8.140625 C 15.65625 7.707031 15.804688 7.550781 16.320312 7.359375 C 16.800781 7.328125 16.800781 7.328125 17.320312 7.339844 C 17.492188 7.34375 17.664062 7.347656 17.84375 7.347656 C 18.039062 7.355469 18.039062 7.355469 18.238281 7.359375 C 18.113281 8.0625 17.890625 8.632812 17.601562 9.28125 C 17.8125 9.070312 18.023438 8.859375 18.238281 8.640625 C 18.476562 8.71875 18.476562 8.71875 18.71875 8.800781 C 18.632812 9.398438 18.40625 9.636719 17.949219 10.019531 C 17.839844 10.113281 17.730469 10.207031 17.617188 10.304688 C 17.28125 10.558594 17.28125 10.558594 16.9375 10.722656 C 16.472656 10.96875 16.285156 11.40625 16 11.839844 C 15.710938 12.148438 15.710938 12.148438 15.359375 12.320312 C 14.761719 12.269531 14.761719 12.269531 14.238281 12.160156 C 14.1875 11.894531 14.132812 11.632812 14.078125 11.359375 C 14.398438 11.097656 14.714844 10.832031 15.039062 10.558594 C 14.800781 10.402344 14.800781 10.402344 14.558594 10.238281 C 14.402344 10.34375 14.242188 10.453125 14.078125 10.558594 C 13.671875 10.601562 13.671875 10.601562 13.28125 10.558594 C 13.175781 10.453125 13.070312 10.347656 12.960938 10.238281 C 13.011719 9.640625 13.140625 9.164062 13.441406 8.640625 C 12.917969 9.101562 12.738281 9.609375 12.488281 10.246094 C 12.320312 10.558594 12.320312 10.558594 11.839844 10.71875 C 11.679688 10.667969 11.523438 10.613281 11.359375 10.558594 C 11.144531 10.554688 10.925781 10.554688 10.710938 10.558594 C 10.078125 10.558594 10.078125 10.558594 9.761719 10.398438 C 9.601562 10.480469 9.601562 10.480469 9.441406 10.558594 C 9.199219 10.578125 8.960938 10.589844 8.71875 10.589844 C 8.59375 10.59375 8.464844 10.59375 8.335938 10.597656 C 8 10.558594 8 10.558594 7.679688 10.238281 C 7.363281 10.28125 7.363281 10.28125 7.039062 10.398438 C 6.382812 10.617188 5.777344 10.5625 5.089844 10.550781 C 4.625 10.539062 4.625 10.539062 4.160156 10.71875 C 4.054688 10.667969 3.949219 10.613281 3.839844 10.558594 C 3.921875 9.742188 4.109375 9.121094 4.46875 8.386719 C 4.515625 8.292969 4.5625 8.195312 4.609375 8.101562 C 4.753906 7.800781 4.902344 7.507812 5.050781 7.210938 C 5.148438 7.007812 5.25 6.804688 5.347656 6.601562 C 5.589844 6.105469 5.835938 5.613281 6.078125 5.121094 Z M 15.839844 8.640625 C 15.566406 9.070312 15.519531 9.242188 15.519531 9.761719 C 16.007812 9.707031 16.160156 9.597656 16.511719 9.238281 C 16.796875 8.804688 16.902344 8.511719 16.960938 8 C 16.449219 8 16.210938 8.308594 15.839844 8.640625 Z M 5.839844 8.339844 C 5.402344 8.839844 5.324219 9.109375 5.28125 9.761719 C 5.582031 9.765625 5.582031 9.765625 5.921875 9.601562 C 6.203125 9.238281 6.363281 8.902344 6.558594 8.480469 C 6.507812 8.320312 6.453125 8.164062 6.398438 8 C 6.171875 7.984375 6.171875 7.984375 5.839844 8.339844 Z M 8.960938 8.160156 C 8.855469 8.371094 8.75 8.582031 8.640625 8.800781 C 9.140625 8.589844 9.140625 8.589844 9.441406 8.160156 C 9.28125 8.160156 9.125 8.160156 8.960938 8.160156 Z M 8.960938 8.160156 "/>
<path style=" stroke:none;fill-rule:nonzero;fill:rgb(94.509804%,72.156864%,7.450981%);fill-opacity:1;" d="M 12 6.078125 C 12.339844 6.140625 12.339844 6.140625 12.640625 6.238281 C 12.5 6.859375 12.5 6.859375 12.320312 7.039062 C 12.054688 7.046875 11.785156 7.046875 11.519531 7.039062 C 11.613281 6.582031 11.65625 6.421875 12 6.078125 Z M 12 6.078125 "/>
</g>
</svg>
