<?xml version="1.0" encoding="UTF-8"?>
<svg xmlns="http://www.w3.org/2000/svg" xmlns:xlink="http://www.w3.org/1999/xlink" width="24px" height="43px" viewBox="0 0 24 42" version="1.1">
<g id="surface1">
<path style=" stroke:none;fill-rule:nonzero;fill:rgb(19.607843%,16.078432%,16.470589%);fill-opacity:1;" d="M 12.023438 0.0078125 C 5.382812 0.0078125 0 5.3125 0 11.828125 C 0 18.359375 5.382812 23.652344 12.023438 23.652344 C 18.652344 23.652344 24.046875 18.359375 24.046875 11.828125 C 24.046875 5.3125 18.652344 0.0078125 12.023438 0.0078125 Z M 12.023438 0.0078125 "/>
<path style=" stroke:none;fill-rule:nonzero;fill:rgb(98.039216%,75.294119%,3.137255%);fill-opacity:1;" d="M 12.023438 1.183594 C 6.035156 1.183594 1.183594 5.953125 1.183594 11.828125 C 1.183594 17.71875 6.035156 22.492188 12.023438 22.492188 C 18 22.492188 22.851562 17.71875 22.851562 11.828125 C 22.851562 5.953125 18 1.183594 12.023438 1.183594 Z M 12.023438 1.183594 "/>
<path style=" stroke:none;fill-rule:nonzero;fill:rgb(19.607843%,16.078432%,16.470589%);fill-opacity:1;" d="M 18.898438 15.828125 C 18.921875 15.707031 18.886719 15.5625 18.761719 15.523438 C 18.28125 15.390625 17.9375 14.785156 18.074219 14 C 18.21875 13.1875 18.492188 11.902344 17.949219 11.25 C 17.949219 11.25 15.816406 10.21875 13.835938 9.273438 C 13.351562 9.273438 12.875 9.238281 12.527344 9.140625 C 12.613281 9.359375 12.835938 10 12.859375 10.425781 C 12.058594 10.460938 10.359375 9.878906 9.746094 9.140625 C 10.027344 8.476562 10.066406 7.953125 9.964844 7.527344 C 8.609375 7.261719 6.886719 7.855469 6.554688 9.308594 C 5.789062 8.765625 4.039062 8.730469 3.339844 9.988281 C 2.773438 11.019531 3.152344 12.871094 3.253906 13.355469 C 3.351562 13.804688 3.460938 14.144531 3.632812 14.335938 C 3.792969 14.519531 4.140625 14.605469 4.472656 14.628906 C 4.667969 15.597656 5.714844 15.574219 5.421875 16.433594 C 5.914062 16.25 6.074219 15.574219 5.863281 15.136719 C 6.046875 15.136719 6.367188 15.367188 6.269531 15.78125 C 6.863281 15.667969 6.675781 14.8125 7.007812 14.691406 C 7.195312 15.960938 8.476562 16.386719 8.105469 17.28125 C 8.390625 17.28125 8.734375 17.085938 8.746094 16.785156 C 8.746094 16.785156 9.238281 17.585938 9.089844 17.984375 L 8.488281 18.867188 L 10.125 18.867188 L 10.3125 18.117188 C 10.3125 18.117188 9.917969 17.0625 9.941406 16.457031 C 10.152344 16.421875 10.433594 16.675781 10.421875 16.90625 C 11 16.480469 10.066406 15.683594 10.285156 15.027344 C 10.410156 15.609375 10.964844 15.730469 11.027344 16.203125 C 12.464844 15.886719 14.007812 14.738281 15.03125 14.738281 C 15.03125 14.738281 15.707031 16.191406 17.507812 16.25 C 17.8125 16.773438 18 17.71875 17.910156 17.898438 L 17.332031 18.867188 L 18.910156 18.867188 L 19.144531 18.167969 C 18.871094 17.5625 18.6875 16.566406 18.898438 15.828125 Z M 18.898438 15.828125 "/>
<path style=" stroke:none;fill-rule:nonzero;fill:rgb(99.607843%,99.607843%,99.607843%);fill-opacity:1;" d="M 12.234375 3.109375 C 10.742188 3.882812 10.667969 5.035156 10.667969 5.035156 C 10.667969 5.035156 11.492188 4.742188 12.195312 4.757812 C 11.777344 5.398438 11.171875 5.832031 11.171875 5.832031 C 11.171875 5.832031 12.183594 5.824219 12.886719 6.101562 C 12.441406 6.5 11.640625 6.609375 11.640625 6.609375 C 11.640625 6.609375 11.914062 6.851562 12.160156 7.566406 C 11.445312 7.578125 10.953125 7.3125 10.953125 7.3125 C 10.953125 7.3125 11.011719 8.210938 10.605469 9.140625 C 10.839844 8.945312 11.234375 8.476562 11.296875 7.832031 C 11.8125 8.074219 12.726562 7.917969 12.726562 7.917969 C 12.726562 7.917969 12.589844 7.25 12.320312 6.914062 C 13.105469 6.792969 14.03125 5.980469 14.03125 5.980469 C 14.03125 5.980469 13.277344 5.519531 12.28125 5.46875 C 12.675781 5.15625 13.09375 4.320312 13.09375 4.320312 C 13.09375 4.320312 12.058594 4.199219 11.417969 4.453125 C 12.527344 3 15.214844 3.59375 15.804688 3.957031 C 15.238281 4.003906 14.328125 4.417969 14.082031 4.695312 C 16.210938 4.515625 18.269531 6.367188 18.933594 7.699219 C 17.8125 7.277344 15.679688 8.183594 13.945312 7.992188 C 14.425781 8.21875 14.929688 8.753906 15.128906 9.140625 C 14.402344 9.300781 13.195312 9.324219 12.527344 9.140625 C 12.613281 9.359375 12.835938 10 12.859375 10.425781 C 12.058594 10.460938 10.359375 9.878906 9.746094 9.140625 C 10.65625 6.996094 8.980469 6.402344 8.917969 5.300781 C 8.882812 4.5625 9.917969 3.410156 12.234375 3.109375 Z M 12.234375 3.109375 "/>
<path style=" stroke:none;fill-rule:nonzero;fill:rgb(99.607843%,99.607843%,99.607843%);fill-opacity:1;" d="M 5.640625 9.492188 C 6.195312 10.292969 5.605469 10.691406 5.101562 10.859375 C 5.015625 10.898438 4.855469 10.996094 4.855469 11.210938 C 4.855469 11.429688 5.027344 11.601562 5.234375 11.601562 C 5.320312 11.601562 5.40625 11.574219 5.445312 11.5625 C 6.910156 11.089844 6.417969 9.566406 5.640625 9.492188 Z M 5.640625 9.492188 "/>
<path style=" stroke:none;fill-rule:nonzero;fill:rgb(99.607843%,99.607843%,99.607843%);fill-opacity:1;" d="M 3.78125 12.121094 C 3.90625 11.804688 4.335938 11.734375 4.558594 11.902344 C 4.472656 12.15625 4.078125 12.277344 3.78125 12.121094 Z M 3.78125 12.121094 "/>
<path style=" stroke:none;fill-rule:nonzero;fill:rgb(19.607843%,16.078432%,16.470589%);fill-opacity:1;" d="M 7.613281 27.527344 C 7.613281 28.375 7.550781 29.09375 6.195312 29.09375 C 4.839844 29.09375 4.792969 28.375 4.792969 27.527344 C 4.792969 27.445312 4.792969 25.519531 4.792969 25.519531 L 5.726562 25.519531 L 5.726562 27.285156 C 5.726562 28.132812 5.714844 28.292969 6.195312 28.292969 C 6.6875 28.292969 6.675781 28.132812 6.675781 27.285156 L 6.675781 25.519531 L 7.613281 25.519531 Z M 7.613281 27.527344 "/>
<path style=" stroke:none;fill-rule:nonzero;fill:rgb(19.607843%,16.078432%,16.470589%);fill-opacity:1;" d="M 22.726562 27.035156 L 22.726562 27.527344 C 22.726562 28.375 22.667969 29.09375 21.261719 29.09375 C 19.859375 29.09375 19.796875 28.375 19.796875 27.527344 C 19.796875 27.445312 19.796875 27.117188 19.796875 27.035156 C 19.796875 26.183594 19.859375 25.46875 21.261719 25.46875 C 22.667969 25.46875 22.726562 26.183594 22.726562 27.035156 Z M 20.734375 27.058594 L 20.734375 27.519531 C 20.734375 28.171875 20.757812 28.28125 21.261719 28.28125 C 21.765625 28.28125 21.792969 28.171875 21.792969 27.519531 C 21.792969 27.445312 21.792969 27.128906 21.792969 27.058594 C 21.792969 26.390625 21.765625 26.28125 21.261719 26.28125 C 20.757812 26.28125 20.734375 26.390625 20.734375 27.058594 Z M 20.734375 27.058594 "/>
<path style=" stroke:none;fill-rule:nonzero;fill:rgb(19.607843%,16.078432%,16.470589%);fill-opacity:1;" d="M 10.558594 29.902344 L 12.246094 29.902344 L 12.246094 36.273438 L 10.558594 36.273438 Z M 10.558594 29.902344 "/>
<path style=" stroke:none;fill-rule:nonzero;fill:rgb(19.607843%,16.078432%,16.470589%);fill-opacity:1;" d="M 8.574219 37.160156 L 9.84375 37.160156 L 9.84375 41.945312 L 8.574219 41.945312 Z M 8.574219 37.160156 "/>
<path style=" stroke:none;fill-rule:nonzero;fill:rgb(19.607843%,16.078432%,16.470589%);fill-opacity:1;" d="M 18.664062 39.28125 C 18.664062 39.28125 17.910156 39.28125 17.480469 39.28125 C 16.558594 39.28125 16.507812 40.222656 16.507812 40.222656 L 17.417969 40.222656 L 17.417969 40.453125 C 17.394531 40.816406 17.199219 40.902344 16.765625 40.902344 C 16.074219 40.902344 16.050781 40.757812 16.050781 39.859375 C 16.050781 39.765625 16.050781 39.339844 16.050781 39.242188 C 16.050781 38.335938 16.074219 38.1875 16.765625 38.1875 C 17.246094 38.1875 17.359375 38.285156 17.394531 38.746094 L 18.613281 38.308594 C 18.492188 37.59375 18.085938 37.097656 16.765625 37.097656 C 14.855469 37.097656 14.785156 38.066406 14.785156 39.207031 L 14.785156 39.886719 C 14.785156 41.023438 14.855469 41.992188 16.765625 41.992188 C 17.925781 41.992188 18.402344 41.59375 18.578125 41.023438 C 18.699219 40.574219 18.527344 39.871094 18.664062 39.28125 Z M 18.664062 39.28125 "/>
<path style=" stroke:none;fill-rule:nonzero;fill:rgb(19.607843%,16.078432%,16.470589%);fill-opacity:1;" d="M 12.957031 37.160156 L 12.957031 39.425781 L 11.863281 37.160156 L 10.3125 37.160156 C 10.3125 37.160156 10.507812 37.472656 10.507812 38.007812 L 10.507812 41.945312 L 11.777344 41.945312 L 11.777344 39.667969 L 12.761719 41.691406 C 12.847656 41.859375 12.957031 41.945312 13.179688 41.945312 L 14.226562 41.945312 L 14.226562 37.160156 Z M 12.957031 37.160156 "/>
<path style=" stroke:none;fill-rule:nonzero;fill:rgb(19.607843%,16.078432%,16.470589%);fill-opacity:1;" d="M 20.894531 38.929688 C 20.398438 38.855469 20.289062 38.78125 20.289062 38.578125 C 20.289062 38.347656 20.4375 38.1875 20.796875 38.1875 C 21.199219 38.1875 21.300781 38.25 21.445312 38.613281 L 22.644531 38.175781 C 22.507812 37.414062 22.015625 37.085938 20.84375 37.085938 C 19.425781 37.085938 19.019531 37.667969 19.019531 38.566406 C 19.019531 39.523438 19.464844 39.921875 20.980469 40.128906 C 21.335938 40.175781 21.496094 40.25 21.496094 40.515625 C 21.496094 40.769531 21.386719 40.902344 20.96875 40.902344 C 20.523438 40.902344 20.449219 40.804688 20.339844 40.429688 L 19.042969 40.890625 C 19.207031 41.675781 19.773438 42.003906 20.878906 42.003906 C 22.25 42.003906 22.753906 41.386719 22.753906 40.550781 C 22.753906 39.558594 22.199219 39.132812 20.894531 38.929688 Z M 20.894531 38.929688 "/>
<path style=" stroke:none;fill-rule:nonzero;fill:rgb(19.607843%,16.078432%,16.470589%);fill-opacity:1;" d="M 22.890625 32.691406 C 22.890625 31.1875 22.777344 29.902344 20.179688 29.902344 L 17.703125 29.902344 C 17.703125 29.902344 17.875 30.023438 17.875 30.882812 L 17.875 36.273438 L 20.179688 36.273438 C 22.777344 36.273438 22.890625 34.980469 22.890625 33.5 C 22.890625 33.367188 22.890625 33.234375 22.890625 33.089844 C 22.890625 32.957031 22.890625 32.824219 22.890625 32.691406 Z M 21.1875 33.539062 C 21.1875 34.664062 21.140625 34.820312 20.179688 34.820312 L 19.5625 34.820312 L 19.5625 31.855469 C 19.5625 31.492188 19.339844 31.355469 19.339844 31.355469 L 20.179688 31.355469 C 21.140625 31.355469 21.1875 31.515625 21.1875 32.640625 Z M 21.1875 33.539062 "/>
<path style=" stroke:none;fill-rule:nonzero;fill:rgb(19.607843%,16.078432%,16.470589%);fill-opacity:1;" d="M 15.867188 34.820312 L 14.785156 34.820312 L 14.785156 29.902344 L 13.09375 29.902344 L 13.09375 36.273438 L 17.308594 36.273438 L 17.308594 34.519531 C 17.308594 34.519531 16.949219 34.820312 15.867188 34.820312 Z M 15.867188 34.820312 "/>
<path style=" stroke:none;fill-rule:nonzero;fill:rgb(19.607843%,16.078432%,16.470589%);fill-opacity:1;" d="M 18.699219 28.246094 L 18.097656 28.246094 L 18.097656 25.519531 L 17.160156 25.519531 L 17.160156 29.054688 L 19.5 29.054688 L 19.5 28.074219 C 19.5 28.074219 19.304688 28.246094 18.699219 28.246094 Z M 18.699219 28.246094 "/>
<path style=" stroke:none;fill-rule:nonzero;fill:rgb(19.607843%,16.078432%,16.470589%);fill-opacity:1;" d="M 3.746094 27.164062 C 4.054688 27.09375 4.226562 26.914062 4.226562 26.351562 C 4.226562 25.589844 3.792969 25.503906 2.980469 25.503906 L 1.441406 25.503906 C 1.441406 25.503906 1.601562 25.699219 1.601562 26.230469 L 1.601562 29.054688 L 2.933594 29.054688 C 3.84375 29.042969 4.324219 28.972656 4.324219 28.085938 C 4.324219 27.445312 4.125 27.238281 3.746094 27.164062 Z M 2.4375 26.28125 L 2.785156 26.28125 C 3.203125 26.28125 3.300781 26.28125 3.300781 26.574219 C 3.300781 26.800781 3.238281 26.839844 2.980469 26.851562 L 2.539062 26.851562 L 2.539062 26.511719 C 2.539062 26.34375 2.4375 26.28125 2.4375 26.28125 Z M 2.734375 28.28125 L 2.539062 28.28125 L 2.539062 27.527344 L 2.96875 27.527344 C 3.300781 27.527344 3.386719 27.578125 3.386719 27.90625 C 3.386719 28.292969 3.265625 28.28125 2.734375 28.28125 Z M 2.734375 28.28125 "/>
<path style=" stroke:none;fill-rule:nonzero;fill:rgb(19.607843%,16.078432%,16.470589%);fill-opacity:1;" d="M 15.632812 25.519531 L 14.191406 25.519531 C 14.191406 25.519531 14.316406 25.808594 14.242188 26.027344 L 13.292969 29.054688 L 14.253906 29.054688 L 14.5 28.207031 L 15.546875 28.207031 L 15.78125 29.054688 L 16.753906 29.054688 Z M 14.710938 27.445312 L 15.015625 26.367188 L 15.335938 27.445312 Z M 14.710938 27.445312 "/>
<path style=" stroke:none;fill-rule:nonzero;fill:rgb(19.607843%,16.078432%,16.470589%);fill-opacity:1;" d="M 8.253906 29.902344 L 7.429688 34.289062 L 6.726562 30.339844 C 6.652344 29.988281 6.394531 29.902344 6.183594 29.902344 L 4.839844 29.902344 C 5.074219 30.328125 4.753906 30.800781 4.054688 34.289062 L 3.226562 29.902344 L 1.21875 29.902344 C 1.21875 29.902344 1.550781 30.207031 1.675781 30.738281 L 2.796875 36.273438 L 4.621094 36.273438 C 4.964844 36.273438 5.160156 35.960938 5.210938 35.707031 L 5.742188 33.003906 L 6.382812 36.273438 L 8.214844 36.273438 C 8.523438 36.273438 8.734375 36.03125 8.796875 35.753906 L 9.976562 29.902344 Z M 8.253906 29.902344 "/>
<path style=" stroke:none;fill-rule:nonzero;fill:rgb(19.607843%,16.078432%,16.470589%);fill-opacity:1;" d="M 6.835938 37.160156 L 6.222656 40.441406 L 5.691406 37.488281 C 5.640625 37.21875 5.445312 37.160156 5.285156 37.160156 L 4.273438 37.160156 C 4.445312 37.472656 4.214844 37.835938 3.683594 40.441406 L 3.066406 37.160156 L 1.550781 37.160156 C 1.550781 37.160156 1.8125 37.390625 1.898438 37.789062 L 2.734375 41.945312 L 4.101562 41.945312 C 4.359375 41.945312 4.507812 41.703125 4.546875 41.507812 L 4.953125 39.484375 L 5.433594 41.945312 L 6.8125 41.945312 C 7.035156 41.945312 7.195312 41.75 7.242188 41.542969 L 8.117188 37.160156 Z M 6.835938 37.160156 "/>
<path style=" stroke:none;fill-rule:nonzero;fill:rgb(19.607843%,16.078432%,16.470589%);fill-opacity:1;" d="M 11.125 25.519531 L 11.125 29.054688 L 12.058594 29.054688 L 12.058594 27.722656 L 12.554688 27.722656 C 12.898438 27.722656 13.03125 27.519531 13.195312 26.914062 L 12.058594 26.914062 L 12.058594 26.316406 L 13.09375 26.316406 C 13.402344 26.316406 13.539062 26.4375 13.539062 26.4375 L 13.539062 25.519531 Z M 11.125 25.519531 "/>
<path style=" stroke:none;fill-rule:nonzero;fill:rgb(19.607843%,16.078432%,16.470589%);fill-opacity:1;" d="M 8.203125 25.519531 L 8.203125 29.054688 L 9.140625 29.054688 L 9.140625 27.722656 L 9.632812 27.722656 C 9.976562 27.722656 10.125 27.519531 10.273438 26.914062 L 9.140625 26.914062 L 9.140625 26.316406 L 10.175781 26.316406 C 10.484375 26.316406 10.617188 26.4375 10.617188 26.4375 L 10.617188 25.519531 Z M 8.203125 25.519531 "/>
<path style=" stroke:none;fill-rule:nonzero;fill:rgb(19.607843%,16.078432%,16.470589%);fill-opacity:1;" d="M 23.851562 41.570312 C 23.851562 41.796875 23.652344 41.992188 23.40625 41.992188 C 23.171875 41.992188 22.972656 41.796875 22.972656 41.570312 C 22.972656 41.328125 23.171875 41.132812 23.40625 41.132812 C 23.652344 41.132812 23.851562 41.328125 23.851562 41.570312 Z M 23.035156 41.570312 C 23.035156 41.761719 23.210938 41.933594 23.40625 41.933594 C 23.613281 41.933594 23.777344 41.761719 23.777344 41.570312 C 23.777344 41.363281 23.613281 41.207031 23.40625 41.207031 C 23.210938 41.207031 23.035156 41.363281 23.035156 41.570312 Z M 23.382812 41.328125 C 23.480469 41.328125 23.566406 41.3125 23.566406 41.460938 C 23.566406 41.542969 23.53125 41.570312 23.46875 41.582031 L 23.578125 41.796875 L 23.515625 41.796875 L 23.40625 41.582031 L 23.320312 41.582031 L 23.320312 41.796875 L 23.257812 41.796875 L 23.257812 41.328125 Z M 23.320312 41.53125 L 23.382812 41.53125 C 23.46875 41.53125 23.503906 41.53125 23.503906 41.460938 C 23.503906 41.375 23.46875 41.375 23.382812 41.375 L 23.320312 41.375 Z M 23.320312 41.53125 "/>
</g>
</svg>
