<?xml version="1.0" encoding="UTF-8"?>
<svg xmlns="http://www.w3.org/2000/svg" xmlns:xlink="http://www.w3.org/1999/xlink" width="24px" height="24px" viewBox="0 0 24 24" version="1.1">
<g id="surface1">
<path style=" stroke:none;fill-rule:nonzero;fill:rgb(99.607843%,99.215686%,99.215686%);fill-opacity:1;" d="M 0 0 C 7.921875 0 15.839844 0 24 0 C 24 7.921875 24 15.839844 24 24 C 16.078125 24 8.160156 24 0 24 C 0 16.078125 0 8.160156 0 0 Z M 0 0 "/>
<path style=" stroke:none;fill-rule:nonzero;fill:rgb(100%,44.705883%,0.784314%);fill-opacity:1;" d="M 13.519531 4.539062 C 13.632812 4.609375 13.730469 4.6875 13.832031 4.777344 C 13.886719 4.820312 13.941406 4.867188 13.996094 4.914062 C 14.9375 5.75 15.527344 7.28125 15.890625 8.492188 C 15.90625 8.550781 15.925781 8.609375 15.941406 8.671875 C 16.117188 9.351562 16.203125 10.191406 15.90625 10.84375 C 15.847656 10.945312 15.785156 11.046875 15.722656 11.144531 C 15.683594 11.210938 15.640625 11.273438 15.601562 11.339844 C 14.933594 12.019531 14.128906 12.234375 13.226562 12.21875 C 12.632812 12.195312 12.101562 11.996094 11.664062 11.5625 C 11.28125 11.125 11.183594 10.765625 11.199219 10.171875 C 11.257812 9.648438 11.507812 9.332031 11.875 9 C 12.242188 8.726562 12.621094 8.753906 13.054688 8.785156 C 13.300781 8.835938 13.460938 8.917969 13.636719 9.113281 C 13.785156 9.359375 13.804688 9.558594 13.777344 9.847656 C 13.667969 10.183594 13.46875 10.394531 13.171875 10.550781 C 12.914062 10.664062 12.667969 10.707031 12.390625 10.730469 C 12.460938 10.78125 12.53125 10.828125 12.601562 10.875 C 12.640625 10.902344 12.679688 10.929688 12.71875 10.957031 C 13.015625 11.140625 13.335938 11.117188 13.667969 11.085938 C 14.058594 10.960938 14.308594 10.597656 14.492188 10.230469 C 14.628906 9.796875 14.648438 9.21875 14.453125 8.804688 C 14.414062 8.738281 14.375 8.675781 14.332031 8.609375 C 14.316406 8.570312 14.300781 8.527344 14.285156 8.488281 C 14.207031 8.34375 14.140625 8.320312 14 8.253906 C 13.957031 8.226562 13.917969 8.195312 13.875 8.167969 C 13.296875 7.792969 12.613281 7.792969 11.960938 7.953125 C 11.269531 8.230469 10.820312 8.742188 10.5 9.433594 C 10.292969 10.042969 10.28125 10.878906 10.503906 11.484375 C 10.945312 12.402344 11.667969 12.863281 12.558594 13.21875 C 12.871094 13.308594 13.195312 13.285156 13.515625 13.28125 C 13.578125 13.28125 13.644531 13.285156 13.710938 13.285156 C 14.714844 13.28125 15.53125 13.003906 16.28125 12.273438 C 16.558594 11.960938 16.722656 11.59375 16.890625 11.203125 C 16.925781 11.203125 16.960938 11.203125 17 11.203125 C 17.492188 11.910156 17.6875 12.5625 17.609375 13.445312 C 17.492188 14.046875 17.078125 14.488281 16.628906 14.84375 C 16.023438 15.265625 15.363281 15.46875 14.667969 15.625 C 14.625 15.636719 14.578125 15.648438 14.535156 15.660156 C 14.210938 15.734375 13.898438 15.765625 13.566406 15.761719 C 13.492188 15.761719 13.492188 15.761719 13.414062 15.761719 C 12.863281 15.753906 12.320312 15.671875 11.777344 15.566406 C 11.683594 15.550781 11.683594 15.550781 11.585938 15.53125 C 10.683594 15.332031 9.699219 14.722656 9.167969 13.917969 C 9.019531 13.648438 8.894531 13.371094 8.777344 13.089844 C 8.757812 13.042969 8.734375 12.996094 8.714844 12.945312 C 8.277344 11.597656 8.761719 9.972656 9.3125 8.75 C 9.820312 7.667969 10.445312 6.65625 11.167969 5.71875 C 11.203125 5.671875 11.238281 5.621094 11.277344 5.570312 C 11.789062 4.921875 12.667969 4.167969 13.519531 4.539062 Z M 13.519531 4.539062 "/>
<path style=" stroke:none;fill-rule:nonzero;fill:rgb(14.901961%,12.941177%,13.333334%);fill-opacity:1;" d="M 10.867188 4.648438 C 11.007812 4.730469 11.113281 4.828125 11.222656 4.953125 C 11.160156 5.152344 11.113281 5.191406 10.960938 5.320312 C 10.734375 5.523438 10.554688 5.742188 10.378906 5.992188 C 10.347656 6.035156 10.316406 6.078125 10.285156 6.121094 C 9.183594 7.707031 8.257812 9.558594 8.167969 11.558594 C 8.160156 11.667969 8.160156 11.667969 8.152344 11.78125 C 8.121094 12.769531 8.402344 13.703125 9.015625 14.457031 C 9.746094 15.277344 10.648438 15.75 11.667969 16.039062 C 11.667969 16.058594 11.667969 16.078125 11.667969 16.097656 C 10.015625 16.148438 10.015625 16.148438 9.445312 15.863281 C 9.410156 15.847656 9.375 15.828125 9.339844 15.8125 C 8.355469 15.339844 7.539062 14.695312 7 13.679688 C 6.960938 13.609375 6.960938 13.609375 6.921875 13.535156 C 6.246094 12.226562 6.441406 10.613281 6.8125 9.242188 C 6.894531 8.964844 7 8.699219 7.109375 8.433594 C 7.132812 8.382812 7.152344 8.332031 7.175781 8.28125 C 7.734375 6.945312 8.445312 5.273438 9.75 4.585938 C 10.105469 4.46875 10.53125 4.472656 10.867188 4.648438 Z M 10.867188 4.648438 "/>
<path style=" stroke:none;fill-rule:nonzero;fill:rgb(100%,45.09804%,1.960784%);fill-opacity:1;" d="M 21.050781 18.148438 C 21.207031 18.246094 21.296875 18.351562 21.390625 18.515625 C 21.417969 18.5625 21.417969 18.5625 21.449219 18.613281 C 21.523438 18.820312 21.511719 19.023438 21.511719 19.238281 C 21.511719 19.285156 21.511719 19.332031 21.511719 19.382812 C 21.507812 19.53125 21.507812 19.679688 21.507812 19.828125 C 21.507812 19.929688 21.507812 20.03125 21.503906 20.132812 C 21.503906 20.378906 21.503906 20.628906 21.5 20.875 C 21.242188 20.875 20.988281 20.875 20.722656 20.875 C 20.722656 20.777344 20.722656 20.679688 20.722656 20.578125 C 20.6875 20.578125 20.648438 20.578125 20.609375 20.578125 C 20.59375 20.636719 20.574219 20.695312 20.554688 20.757812 C 20.277344 20.960938 19.996094 20.984375 19.667969 20.933594 C 19.425781 20.839844 19.242188 20.699219 19.109375 20.460938 C 19.035156 20.222656 19.019531 20.003906 19.054688 19.753906 C 19.246094 19.433594 19.457031 19.28125 19.796875 19.1875 C 20.074219 19.121094 20.328125 19.09375 20.609375 19.105469 C 20.558594 18.949219 20.558594 18.949219 20.445312 18.8125 C 20.097656 18.761719 19.820312 18.855469 19.5 18.988281 C 19.453125 18.902344 19.40625 18.820312 19.359375 18.734375 C 19.332031 18.6875 19.304688 18.640625 19.277344 18.589844 C 19.222656 18.457031 19.222656 18.457031 19.277344 18.28125 C 19.84375 17.917969 20.449219 17.859375 21.050781 18.148438 Z M 21.050781 18.148438 "/>
<path style=" stroke:none;fill-rule:nonzero;fill:rgb(100%,45.09804%,1.568628%);fill-opacity:1;" d="M 13.578125 18.113281 C 13.789062 18.238281 13.929688 18.355469 14.054688 18.574219 C 14.085938 18.625 14.121094 18.675781 14.152344 18.726562 C 14.222656 18.929688 14.222656 18.929688 14.222656 19.636719 C 13.652344 19.636719 13.085938 19.636719 12.5 19.636719 C 12.675781 19.96875 12.675781 19.96875 12.945312 20.109375 C 13.257812 20.140625 13.445312 20.070312 13.722656 19.929688 C 13.777344 19.910156 13.832031 19.890625 13.890625 19.871094 C 13.9375 19.957031 13.984375 20.039062 14.03125 20.121094 C 14.058594 20.167969 14.085938 20.214844 14.109375 20.265625 C 14.167969 20.402344 14.167969 20.402344 14.164062 20.527344 C 14.058594 20.742188 13.84375 20.792969 13.640625 20.875 C 13.207031 21.003906 12.777344 21.011719 12.359375 20.8125 C 11.988281 20.578125 11.757812 20.285156 11.636719 19.839844 C 11.5625 19.433594 11.554688 19.046875 11.757812 18.683594 C 12.203125 18.054688 12.882812 17.769531 13.578125 18.113281 Z M 13.578125 18.113281 "/>
<path style=" stroke:none;fill-rule:nonzero;fill:rgb(100%,45.490196%,2.352941%);fill-opacity:1;" d="M 16.832031 18.222656 C 16.90625 18.300781 16.980469 18.375 17.054688 18.457031 C 16.945312 18.652344 16.835938 18.847656 16.722656 19.046875 C 16.648438 19.007812 16.574219 18.96875 16.5 18.929688 C 16.257812 18.84375 16.03125 18.832031 15.777344 18.871094 C 15.59375 18.972656 15.59375 18.972656 15.5 19.164062 C 15.457031 19.421875 15.472656 19.628906 15.570312 19.867188 C 15.734375 20.074219 15.839844 20.101562 16.09375 20.132812 C 16.382812 20.128906 16.597656 19.976562 16.832031 19.8125 C 16.882812 19.894531 16.929688 19.980469 16.976562 20.0625 C 17.003906 20.109375 17.027344 20.15625 17.054688 20.203125 C 17.109375 20.34375 17.109375 20.34375 17.101562 20.472656 C 17.003906 20.695312 16.738281 20.78125 16.535156 20.878906 C 16.144531 21.023438 15.660156 20.980469 15.277344 20.816406 C 14.898438 20.609375 14.707031 20.339844 14.550781 19.921875 C 14.4375 19.535156 14.457031 19.226562 14.609375 18.859375 C 14.820312 18.460938 15.128906 18.148438 15.542969 18.011719 C 16.003906 17.914062 16.425781 17.972656 16.832031 18.222656 Z M 16.832031 18.222656 "/>
<path style=" stroke:none;fill-rule:nonzero;fill:rgb(100%,45.490196%,2.352941%);fill-opacity:1;" d="M 22.277344 17.277344 C 22.570312 17.277344 22.863281 17.277344 23.167969 17.277344 C 23.167969 17.550781 23.167969 17.824219 23.167969 18.101562 C 23.351562 18.101562 23.535156 18.101562 23.722656 18.101562 C 23.722656 18.355469 23.722656 18.609375 23.722656 18.871094 C 23.539062 18.871094 23.355469 18.871094 23.167969 18.871094 C 23.171875 19.035156 23.179688 19.199219 23.1875 19.363281 C 23.191406 19.433594 23.191406 19.433594 23.191406 19.503906 C 23.195312 19.777344 23.195312 19.777344 23.332031 19.988281 C 23.480469 20.023438 23.628906 20.035156 23.777344 20.050781 C 23.777344 20.320312 23.777344 20.59375 23.777344 20.875 C 22.925781 20.910156 22.925781 20.910156 22.609375 20.640625 C 22.398438 20.417969 22.285156 20.230469 22.269531 19.914062 C 22.273438 19.84375 22.273438 19.84375 22.273438 19.769531 C 22.273438 19.714844 22.273438 19.664062 22.273438 19.609375 C 22.273438 19.554688 22.273438 19.5 22.273438 19.445312 C 22.273438 19.390625 22.273438 19.335938 22.273438 19.277344 C 22.277344 19.140625 22.277344 19.003906 22.277344 18.871094 C 22.167969 18.871094 22.058594 18.871094 21.945312 18.871094 C 21.945312 18.617188 21.945312 18.363281 21.945312 18.101562 C 22.054688 18.101562 22.164062 18.101562 22.277344 18.101562 C 22.277344 17.832031 22.277344 17.558594 22.277344 17.277344 Z M 22.277344 17.277344 "/>
<path style=" stroke:none;fill-rule:nonzero;fill:rgb(18.039216%,16.078432%,16.470589%);fill-opacity:1;" d="M 4.6875 18.113281 C 4.90625 18.277344 5.082031 18.417969 5.167969 18.691406 C 5.171875 18.859375 5.171875 19.023438 5.171875 19.1875 C 5.171875 19.234375 5.171875 19.285156 5.171875 19.332031 C 5.171875 19.488281 5.171875 19.640625 5.171875 19.792969 C 5.167969 19.898438 5.167969 20.003906 5.167969 20.109375 C 5.167969 20.363281 5.167969 20.617188 5.167969 20.875 C 5.058594 20.875 4.945312 20.875 4.832031 20.875 C 4.816406 20.757812 4.796875 20.640625 4.777344 20.519531 C 4.738281 20.558594 4.738281 20.558594 4.695312 20.597656 C 4.660156 20.628906 4.625 20.660156 4.589844 20.695312 C 4.554688 20.726562 4.519531 20.757812 4.484375 20.792969 C 4.246094 21 3.960938 20.964844 3.667969 20.933594 C 3.445312 20.859375 3.308594 20.742188 3.171875 20.539062 C 3.09375 20.289062 3.066406 20.074219 3.109375 19.8125 C 3.308594 19.464844 3.59375 19.289062 3.960938 19.1875 C 4.140625 19.160156 4.308594 19.160156 4.488281 19.160156 C 4.554688 19.160156 4.617188 19.160156 4.683594 19.164062 C 4.734375 19.164062 4.78125 19.164062 4.832031 19.164062 C 4.777344 18.789062 4.777344 18.789062 4.554688 18.515625 C 4.15625 18.375 3.820312 18.460938 3.445312 18.632812 C 3.40625 18.59375 3.371094 18.554688 3.332031 18.515625 C 3.339844 18.398438 3.339844 18.398438 3.390625 18.28125 C 3.761719 17.984375 4.261719 17.953125 4.6875 18.113281 Z M 4.6875 18.113281 "/>
<path style=" stroke:none;fill-rule:nonzero;fill:rgb(17.647059%,15.686275%,16.078432%);fill-opacity:1;" d="M 8.765625 18.023438 C 9.050781 18.027344 9.277344 18.148438 9.5 18.339844 C 9.800781 18.730469 9.832031 18.996094 9.832031 19.519531 C 9.171875 19.519531 8.511719 19.519531 7.832031 19.519531 C 7.964844 20.085938 7.964844 20.085938 8.320312 20.46875 C 8.605469 20.589844 8.964844 20.578125 9.25 20.46875 C 9.355469 20.410156 9.453125 20.347656 9.554688 20.285156 C 9.59375 20.285156 9.628906 20.285156 9.667969 20.285156 C 9.703125 20.382812 9.738281 20.480469 9.777344 20.578125 C 9.695312 20.628906 9.617188 20.675781 9.535156 20.722656 C 9.488281 20.75 9.445312 20.777344 9.398438 20.804688 C 9.078125 20.992188 8.722656 20.984375 8.367188 20.90625 C 8.019531 20.777344 7.761719 20.570312 7.59375 20.21875 C 7.410156 19.796875 7.382812 19.390625 7.511719 18.945312 C 7.660156 18.523438 7.902344 18.296875 8.277344 18.101562 C 8.441406 18.050781 8.59375 18.039062 8.765625 18.023438 Z M 8.765625 18.023438 "/>
<path style=" stroke:none;fill-rule:nonzero;fill:rgb(100%,45.09804%,1.960784%);fill-opacity:1;" d="M 17.554688 16.984375 C 17.847656 16.984375 18.140625 16.984375 18.445312 16.984375 C 18.460938 17.976562 18.480469 18.96875 18.5 19.988281 C 18.589844 20.007812 18.683594 20.027344 18.777344 20.050781 C 18.777344 20.320312 18.777344 20.59375 18.777344 20.875 C 18.117188 20.902344 18.117188 20.902344 17.855469 20.777344 C 17.613281 20.523438 17.546875 20.300781 17.535156 19.941406 C 17.535156 19.804688 17.539062 19.664062 17.539062 19.527344 C 17.539062 19.457031 17.539062 19.382812 17.539062 19.308594 C 17.539062 19.074219 17.542969 18.84375 17.546875 18.613281 C 17.546875 18.453125 17.546875 18.296875 17.546875 18.140625 C 17.550781 17.753906 17.550781 17.367188 17.554688 16.984375 Z M 17.554688 16.984375 "/>
<path style=" stroke:none;fill-rule:nonzero;fill:rgb(18.431373%,16.470589%,16.862746%);fill-opacity:1;" d="M 2.609375 18.398438 C 2.574219 18.476562 2.539062 18.554688 2.5 18.632812 C 2.277344 18.632812 2.277344 18.632812 2.132812 18.546875 C 1.851562 18.414062 1.566406 18.390625 1.273438 18.5 C 1.023438 18.640625 0.847656 18.835938 0.722656 19.105469 C 0.683594 19.527344 0.667969 19.90625 0.917969 20.253906 C 1.140625 20.5 1.351562 20.53125 1.664062 20.546875 C 1.972656 20.539062 2.132812 20.460938 2.390625 20.285156 C 2.519531 20.289062 2.519531 20.289062 2.609375 20.34375 C 2.628906 20.402344 2.648438 20.460938 2.667969 20.519531 C 2.277344 20.882812 1.964844 20.96875 1.453125 20.953125 C 1.066406 20.910156 0.808594 20.714844 0.554688 20.402344 C 0.300781 20.003906 0.21875 19.644531 0.277344 19.164062 C 0.414062 18.710938 0.65625 18.390625 1.046875 18.160156 C 1.632812 17.890625 2.082031 18.074219 2.609375 18.398438 Z M 2.609375 18.398438 "/>
<path style=" stroke:none;fill-rule:nonzero;fill:rgb(15.294118%,13.333334%,13.725491%);fill-opacity:1;" d="M 7.167969 16.984375 C 7.167969 17.097656 7.167969 17.214844 7.167969 17.335938 C 7 17.375 7 17.375 6.835938 17.410156 C 6.699219 17.460938 6.640625 17.511719 6.554688 17.632812 C 6.511719 17.765625 6.511719 17.765625 6.488281 17.90625 C 6.476562 17.992188 6.460938 18.074219 6.445312 18.164062 C 6.664062 18.164062 6.882812 18.164062 7.109375 18.164062 C 7.109375 18.257812 7.109375 18.355469 7.109375 18.457031 C 6.890625 18.457031 6.671875 18.457031 6.445312 18.457031 C 6.445312 19.253906 6.445312 20.050781 6.445312 20.875 C 6.335938 20.875 6.222656 20.875 6.109375 20.875 C 6.109375 20.078125 6.109375 19.277344 6.109375 18.457031 C 6 18.457031 5.890625 18.457031 5.777344 18.457031 C 5.777344 18.359375 5.777344 18.261719 5.777344 18.164062 C 5.886719 18.164062 5.996094 18.164062 6.109375 18.164062 C 6.109375 18.101562 6.105469 18.042969 6.101562 17.980469 C 6.113281 17.691406 6.167969 17.464844 6.355469 17.246094 C 6.628906 16.992188 6.816406 16.972656 7.167969 16.984375 Z M 7.167969 16.984375 "/>
<path style=" stroke:none;fill-rule:nonzero;fill:rgb(95.294118%,94.901961%,95.294118%);fill-opacity:1;" d="M 16.777344 5.542969 C 16.953125 5.640625 17.070312 5.78125 17.191406 5.945312 C 17.242188 6.152344 17.226562 6.34375 17.167969 6.546875 C 17.066406 6.71875 16.953125 6.863281 16.777344 6.957031 C 16.511719 6.988281 16.292969 7 16.054688 6.859375 C 15.886719 6.652344 15.84375 6.496094 15.804688 6.226562 C 15.84375 5.941406 15.96875 5.792969 16.167969 5.601562 C 16.359375 5.5 16.566406 5.507812 16.777344 5.542969 Z M 16.777344 5.542969 "/>
<path style=" stroke:none;fill-rule:nonzero;fill:rgb(97.254902%,97.254902%,97.254902%);fill-opacity:1;" d="M 4.402344 19.511719 C 4.445312 19.511719 4.484375 19.511719 4.527344 19.511719 C 4.628906 19.515625 4.730469 19.515625 4.832031 19.519531 C 4.851562 19.964844 4.734375 20.191406 4.457031 20.515625 C 4.253906 20.621094 4.058594 20.660156 3.832031 20.640625 C 3.667969 20.5625 3.621094 20.496094 3.5 20.34375 C 3.433594 20.136719 3.433594 20.136719 3.445312 19.929688 C 3.722656 19.554688 3.96875 19.5 4.402344 19.511719 Z M 4.402344 19.511719 "/>
<path style=" stroke:none;fill-rule:nonzero;fill:rgb(96.862745%,96.862745%,96.862745%);fill-opacity:1;" d="M 9.167969 18.46875 C 9.296875 18.59375 9.371094 18.695312 9.445312 18.871094 C 9.445312 18.988281 9.445312 19.101562 9.445312 19.222656 C 8.914062 19.222656 8.382812 19.222656 7.832031 19.222656 C 7.890625 18.859375 7.933594 18.769531 8.167969 18.515625 C 8.460938 18.320312 8.851562 18.335938 9.167969 18.46875 Z M 9.167969 18.46875 "/>
<path style=" stroke:none;fill-rule:nonzero;fill:rgb(100%,46.27451%,4.705882%);fill-opacity:1;" d="M 13 16.984375 C 13.292969 16.984375 13.585938 16.984375 13.890625 16.984375 C 13.808594 17.097656 13.726562 17.210938 13.640625 17.324219 C 13.546875 17.460938 13.546875 17.460938 13.46875 17.660156 C 13.332031 17.808594 13.332031 17.808594 13.160156 17.828125 C 12.976562 17.832031 12.792969 17.824219 12.609375 17.808594 C 12.714844 17.515625 12.855469 17.253906 13 16.984375 Z M 13 16.984375 "/>
<path style=" stroke:none;fill-rule:nonzero;fill:rgb(28.627452%,27.058825%,27.450982%);fill-opacity:1;" d="M 16.777344 5.542969 C 16.953125 5.640625 17.070312 5.78125 17.191406 5.945312 C 17.242188 6.152344 17.226562 6.34375 17.167969 6.546875 C 17.066406 6.71875 16.953125 6.863281 16.777344 6.957031 C 16.511719 6.988281 16.292969 7 16.054688 6.859375 C 15.886719 6.652344 15.84375 6.496094 15.804688 6.226562 C 15.84375 5.941406 15.96875 5.792969 16.167969 5.601562 C 16.359375 5.5 16.566406 5.507812 16.777344 5.542969 Z M 16.054688 5.835938 C 15.925781 5.996094 15.945312 6.09375 15.949219 6.304688 C 15.976562 6.492188 16.011719 6.558594 16.113281 6.722656 C 16.285156 6.847656 16.402344 6.882812 16.609375 6.867188 C 16.828125 6.8125 16.910156 6.734375 17.054688 6.546875 C 17.113281 6.28125 17.085938 6.078125 16.972656 5.835938 C 16.675781 5.585938 16.363281 5.609375 16.054688 5.835938 Z M 16.054688 5.835938 "/>
<path style=" stroke:none;fill-rule:nonzero;fill:rgb(99.607843%,96.078432%,93.725491%);fill-opacity:1;" d="M 14.222656 6.839844 C 14.433594 6.9375 14.503906 7.035156 14.609375 7.253906 C 14.449219 7.601562 14.300781 7.847656 14 8.078125 C 13.890625 7.902344 13.890625 7.902344 13.902344 7.769531 C 13.953125 7.574219 14.019531 7.390625 14.085938 7.207031 C 14.125 7.101562 14.125 7.101562 14.164062 6.996094 C 14.183594 6.945312 14.203125 6.894531 14.222656 6.839844 Z M 14.222656 6.839844 "/>
<path style=" stroke:none;fill-rule:nonzero;fill:rgb(28.627452%,27.058825%,27.058825%);fill-opacity:1;" d="M 14.667969 22.46875 C 14.722656 22.648438 14.722656 22.746094 14.707031 22.933594 C 14.703125 22.984375 14.699219 23.035156 14.695312 23.085938 C 14.664062 23.253906 14.601562 23.34375 14.5 23.46875 C 14.371094 23.449219 14.242188 23.429688 14.109375 23.410156 C 14.109375 23.351562 14.109375 23.292969 14.109375 23.234375 C 14.238281 23.273438 14.367188 23.3125 14.5 23.351562 C 14.519531 23.214844 14.535156 23.078125 14.554688 22.9375 C 14.5 22.976562 14.445312 23.015625 14.390625 23.054688 C 14.316406 23.054688 14.242188 23.054688 14.167969 23.054688 C 14.148438 22.84375 14.144531 22.738281 14.261719 22.5625 C 14.410156 22.449219 14.488281 22.445312 14.667969 22.46875 Z M 14.667969 22.46875 "/>
<path style=" stroke:none;fill-rule:nonzero;fill:rgb(27.843139%,26.274511%,26.666668%);fill-opacity:1;" d="M 11.054688 21.996094 C 11.09375 22.015625 11.128906 22.035156 11.167969 22.054688 C 11.148438 22.230469 11.128906 22.40625 11.109375 22.585938 C 11.167969 22.527344 11.222656 22.46875 11.277344 22.40625 C 11.398438 22.425781 11.398438 22.425781 11.5 22.46875 C 11.484375 22.691406 11.46875 22.839844 11.34375 23.027344 C 11.222656 23.117188 11.222656 23.117188 11.101562 23.109375 C 11 23.054688 11 23.054688 10.945312 22.9375 C 10.949219 22.789062 10.953125 22.640625 10.964844 22.492188 C 10.96875 22.453125 10.96875 22.410156 10.972656 22.367188 C 10.992188 22.0625 10.992188 22.0625 11.054688 21.996094 Z M 11.054688 21.996094 "/>
<path style=" stroke:none;fill-rule:nonzero;fill:rgb(30.588236%,29.019609%,29.411766%);fill-opacity:1;" d="M 16.222656 5.898438 C 16.386719 5.898438 16.550781 5.898438 16.722656 5.898438 C 16.757812 6.03125 16.757812 6.03125 16.777344 6.191406 C 16.722656 6.277344 16.722656 6.277344 16.667969 6.367188 C 16.722656 6.464844 16.777344 6.5625 16.832031 6.664062 C 16.777344 6.664062 16.722656 6.664062 16.667969 6.664062 C 16.609375 6.566406 16.554688 6.46875 16.5 6.367188 C 16.445312 6.347656 16.390625 6.328125 16.332031 6.308594 C 16.332031 6.425781 16.332031 6.542969 16.332031 6.664062 C 16.296875 6.664062 16.261719 6.664062 16.222656 6.664062 C 16.222656 6.410156 16.222656 6.15625 16.222656 5.898438 Z M 16.222656 5.898438 "/>
<path style=" stroke:none;fill-rule:nonzero;fill:rgb(31.764707%,30.19608%,30.588236%);fill-opacity:1;" d="M 7.667969 22.171875 C 7.703125 22.171875 7.738281 22.171875 7.777344 22.171875 C 7.757812 22.523438 7.703125 22.796875 7.554688 23.117188 C 7.5 23.097656 7.445312 23.078125 7.390625 23.054688 C 7.351562 22.960938 7.3125 22.859375 7.277344 22.761719 C 7.242188 22.742188 7.203125 22.722656 7.167969 22.703125 C 7.148438 22.75 7.132812 22.796875 7.113281 22.84375 C 7.054688 22.996094 7.054688 22.996094 7 23.117188 C 6.945312 23.097656 6.890625 23.078125 6.832031 23.054688 C 6.777344 22.914062 6.777344 22.914062 6.734375 22.738281 C 6.722656 22.683594 6.707031 22.625 6.691406 22.566406 C 6.667969 22.40625 6.667969 22.40625 6.722656 22.230469 C 6.914062 22.660156 6.914062 22.660156 6.890625 22.9375 C 6.925781 22.9375 6.960938 22.9375 7 22.9375 C 7.015625 22.882812 7.035156 22.828125 7.050781 22.769531 C 7.109375 22.585938 7.109375 22.585938 7.167969 22.46875 C 7.332031 22.527344 7.332031 22.527344 7.425781 22.707031 C 7.449219 22.761719 7.476562 22.820312 7.5 22.878906 C 7.554688 22.644531 7.609375 22.414062 7.667969 22.171875 Z M 7.667969 22.171875 "/>
<path style=" stroke:none;fill-rule:nonzero;fill:rgb(99.607843%,96.862745%,94.901961%);fill-opacity:1;" d="M 20.398438 19.6875 C 20.503906 19.691406 20.503906 19.691406 20.609375 19.695312 C 20.585938 20.015625 20.585938 20.015625 20.457031 20.160156 C 20.308594 20.238281 20.21875 20.25 20.054688 20.226562 C 20.019531 20.1875 19.980469 20.148438 19.945312 20.109375 C 19.953125 19.960938 19.953125 19.960938 20 19.8125 C 20.171875 19.691406 20.207031 19.679688 20.398438 19.6875 Z M 20.398438 19.6875 "/>
<path style=" stroke:none;fill-rule:nonzero;fill:rgb(30.980393%,29.019609%,29.411766%);fill-opacity:1;" d="M 22.609375 22.230469 C 22.648438 22.230469 22.683594 22.230469 22.722656 22.230469 C 22.722656 22.308594 22.722656 22.386719 22.722656 22.46875 C 22.796875 22.484375 22.867188 22.503906 22.945312 22.527344 C 22.851562 22.527344 22.761719 22.527344 22.667969 22.527344 C 22.648438 22.679688 22.628906 22.835938 22.609375 22.996094 C 22.703125 22.976562 22.792969 22.957031 22.890625 22.9375 C 22.832031 23.027344 22.832031 23.027344 22.777344 23.117188 C 22.703125 23.097656 22.632812 23.078125 22.554688 23.054688 C 22.554688 22.902344 22.554688 22.746094 22.554688 22.585938 C 22.363281 22.601562 22.363281 22.601562 22.167969 22.644531 C 22.058594 22.816406 22.03125 22.917969 22 23.117188 C 21.945312 23.097656 21.890625 23.078125 21.832031 23.054688 C 21.832031 22.863281 21.832031 22.667969 21.832031 22.46875 C 21.871094 22.46875 21.90625 22.46875 21.945312 22.46875 C 21.960938 22.523438 21.980469 22.582031 22 22.644531 C 22.035156 22.585938 22.074219 22.527344 22.109375 22.46875 C 22.230469 22.449219 22.230469 22.449219 22.367188 22.457031 C 22.414062 22.457031 22.457031 22.457031 22.503906 22.460938 C 22.558594 22.464844 22.558594 22.464844 22.609375 22.46875 C 22.609375 22.390625 22.609375 22.3125 22.609375 22.230469 Z M 22.609375 22.230469 "/>
<path style=" stroke:none;fill-rule:nonzero;fill:rgb(27.450982%,25.882354%,25.882354%);fill-opacity:1;" d="M 21.554688 22.40625 C 21.574219 22.492188 21.59375 22.578125 21.613281 22.664062 C 21.625 22.710938 21.636719 22.757812 21.648438 22.804688 C 21.667969 22.9375 21.667969 22.9375 21.609375 23.117188 C 21.554688 23.078125 21.5 23.039062 21.445312 22.996094 C 21.40625 23.035156 21.371094 23.074219 21.332031 23.117188 C 21.214844 23.09375 21.214844 23.09375 21.109375 23.054688 C 21.136719 22.683594 21.136719 22.683594 21.269531 22.5 C 21.390625 22.40625 21.390625 22.40625 21.554688 22.40625 Z M 21.554688 22.40625 "/>
<path style=" stroke:none;fill-rule:nonzero;fill:rgb(21.176471%,19.215687%,19.607843%);fill-opacity:1;" d="M 19.445312 22.40625 C 19.554688 22.449219 19.554688 22.449219 19.667969 22.527344 C 19.699219 22.667969 19.699219 22.667969 19.707031 22.828125 C 19.710938 22.882812 19.714844 22.933594 19.71875 22.992188 C 19.71875 23.050781 19.71875 23.050781 19.722656 23.117188 C 19.6875 23.117188 19.648438 23.117188 19.609375 23.117188 C 19.574219 23.078125 19.539062 23.039062 19.5 22.996094 C 19.410156 23.035156 19.316406 23.074219 19.222656 23.117188 C 19.167969 23.054688 19.167969 23.054688 19.144531 22.894531 C 19.171875 22.644531 19.269531 22.566406 19.445312 22.40625 Z M 19.445312 22.40625 "/>
<path style=" stroke:none;fill-rule:nonzero;fill:rgb(26.666668%,24.705882%,25.098041%);fill-opacity:1;" d="M 12.054688 22.40625 C 12.0625 22.445312 12.070312 22.480469 12.078125 22.519531 C 12.085938 22.566406 12.097656 22.613281 12.109375 22.664062 C 12.117188 22.710938 12.128906 22.757812 12.136719 22.804688 C 12.167969 22.945312 12.167969 22.945312 12.222656 23.117188 C 12.085938 23.058594 12.085938 23.058594 11.945312 22.996094 C 11.925781 23.015625 11.90625 23.035156 11.890625 23.054688 C 11.796875 23.058594 11.703125 23.058594 11.609375 23.054688 C 11.636719 22.683594 11.636719 22.683594 11.769531 22.5 C 11.890625 22.40625 11.890625 22.40625 12.054688 22.40625 Z M 12.054688 22.40625 "/>
<path style=" stroke:none;fill-rule:nonzero;fill:rgb(99.607843%,96.862745%,95.294118%);fill-opacity:1;" d="M 13.109375 18.691406 C 13.332031 18.933594 13.332031 18.933594 13.332031 19.105469 C 13.078125 19.105469 12.820312 19.105469 12.554688 19.105469 C 12.679688 18.78125 12.773438 18.632812 13.109375 18.691406 Z M 13.109375 18.691406 "/>
<path style=" stroke:none;fill-rule:nonzero;fill:rgb(18.431373%,16.470589%,16.862746%);fill-opacity:1;" d="M 8.890625 17.042969 C 9.015625 17.042969 9.144531 17.042969 9.277344 17.042969 C 9.195312 17.316406 9.082031 17.492188 8.890625 17.691406 C 8.777344 17.691406 8.667969 17.691406 8.554688 17.691406 C 8.664062 17.476562 8.777344 17.261719 8.890625 17.042969 Z M 8.890625 17.042969 "/>
<path style=" stroke:none;fill-rule:nonzero;fill:rgb(34.509805%,32.941177%,33.333334%);fill-opacity:1;" d="M 12.390625 22.054688 C 12.425781 22.054688 12.460938 22.054688 12.5 22.054688 C 12.5 22.269531 12.5 22.480469 12.5 22.703125 C 12.574219 22.625 12.648438 22.546875 12.722656 22.46875 C 12.777344 22.484375 12.832031 22.503906 12.890625 22.527344 C 12.816406 22.585938 12.742188 22.640625 12.667969 22.703125 C 12.710938 22.820312 12.710938 22.820312 12.777344 22.9375 C 12.832031 22.957031 12.886719 22.976562 12.945312 22.996094 C 12.945312 23.035156 12.945312 23.074219 12.945312 23.117188 C 12.757812 23.082031 12.644531 23.007812 12.5 22.878906 C 12.480469 22.957031 12.464844 23.035156 12.445312 23.117188 C 12.40625 23.117188 12.371094 23.117188 12.332031 23.117188 C 12.332031 22.960938 12.332031 22.804688 12.328125 22.652344 C 12.328125 22.605469 12.328125 22.5625 12.328125 22.519531 C 12.328125 22.183594 12.328125 22.183594 12.390625 22.054688 Z M 12.390625 22.054688 "/>
<path style=" stroke:none;fill-rule:nonzero;fill:rgb(24.705882%,22.745098%,23.137255%);fill-opacity:1;" d="M 16.777344 5.542969 C 16.953125 5.640625 17.070312 5.78125 17.191406 5.945312 C 17.242188 6.152344 17.199219 6.335938 17.167969 6.546875 C 17.113281 6.546875 17.058594 6.546875 17 6.546875 C 17 6.511719 17.003906 6.472656 17.007812 6.4375 C 17.011719 6.230469 17.019531 6.0625 16.945312 5.867188 C 16.800781 5.753906 16.671875 5.746094 16.496094 5.734375 C 16.367188 5.71875 16.277344 5.675781 16.167969 5.601562 C 16.359375 5.5 16.566406 5.507812 16.777344 5.542969 Z M 16.777344 5.542969 "/>
<path style=" stroke:none;fill-rule:nonzero;fill:rgb(24.313726%,22.352941%,22.745098%);fill-opacity:1;" d="M 7.945312 22.113281 C 7.980469 22.113281 8.019531 22.113281 8.054688 22.113281 C 8.054688 22.308594 8.054688 22.503906 8.054688 22.703125 C 8.148438 22.625 8.238281 22.546875 8.332031 22.46875 C 8.496094 22.640625 8.503906 22.816406 8.554688 23.054688 C 8.5 23.035156 8.445312 23.019531 8.390625 22.996094 C 8.371094 22.878906 8.351562 22.765625 8.332031 22.644531 C 8.183594 22.789062 8.082031 22.917969 8 23.117188 C 7.964844 23.117188 7.925781 23.117188 7.890625 23.117188 C 7.90625 22.785156 7.925781 22.453125 7.945312 22.113281 Z M 7.945312 22.113281 "/>
<path style=" stroke:none;fill-rule:nonzero;fill:rgb(40.784314%,39.215687%,39.607844%);fill-opacity:1;" d="M 8.953125 22.425781 C 8.988281 22.441406 9.019531 22.453125 9.054688 22.46875 C 8.984375 22.699219 8.894531 22.835938 8.722656 22.996094 C 8.851562 22.957031 8.980469 22.917969 9.109375 22.878906 C 9.09375 22.9375 9.074219 22.996094 9.054688 23.054688 C 8.894531 23.09375 8.894531 23.09375 8.722656 23.117188 C 8.6875 23.078125 8.648438 23.039062 8.609375 22.996094 C 8.621094 22.792969 8.632812 22.640625 8.738281 22.46875 C 8.832031 22.40625 8.832031 22.40625 8.953125 22.425781 Z M 8.953125 22.425781 "/>
<path style=" stroke:none;fill-rule:nonzero;fill:rgb(25.098041%,23.137255%,23.529412%);fill-opacity:1;" d="M 10.175781 22.425781 C 10.210938 22.441406 10.242188 22.453125 10.277344 22.46875 C 10.203125 22.699219 10.117188 22.835938 9.945312 22.996094 C 10.074219 22.957031 10.199219 22.917969 10.332031 22.878906 C 10.316406 22.9375 10.296875 22.996094 10.277344 23.054688 C 10.117188 23.09375 10.117188 23.09375 9.945312 23.117188 C 9.90625 23.078125 9.871094 23.039062 9.832031 22.996094 C 9.84375 22.792969 9.855469 22.640625 9.960938 22.46875 C 10.054688 22.40625 10.054688 22.40625 10.175781 22.425781 Z M 10.175781 22.425781 "/>
<path style=" stroke:none;fill-rule:nonzero;fill:rgb(30.980393%,29.411766%,29.411766%);fill-opacity:1;" d="M 19.890625 22.46875 C 19.925781 22.46875 19.960938 22.46875 20 22.46875 C 20.019531 22.523438 20.035156 22.582031 20.054688 22.644531 C 20.09375 22.605469 20.128906 22.566406 20.167969 22.527344 C 20.285156 22.546875 20.285156 22.546875 20.390625 22.585938 C 20.40625 22.703125 20.425781 22.816406 20.445312 22.9375 C 20.480469 22.9375 20.519531 22.9375 20.554688 22.9375 C 20.554688 22.976562 20.554688 23.015625 20.554688 23.054688 C 20.5 23.054688 20.445312 23.054688 20.390625 23.054688 C 20.371094 23 20.355469 22.941406 20.339844 22.882812 C 20.296875 22.695312 20.296875 22.695312 20.167969 22.644531 C 20.152344 22.699219 20.136719 22.757812 20.121094 22.816406 C 20.101562 22.875 20.078125 22.9375 20.054688 22.996094 C 20 23.015625 19.945312 23.035156 19.890625 23.054688 C 19.890625 22.863281 19.890625 22.667969 19.890625 22.46875 Z M 19.890625 22.46875 "/>
<path style=" stroke:none;fill-rule:nonzero;fill:rgb(30.980393%,29.411766%,29.803923%);fill-opacity:1;" d="M 13.390625 22.46875 C 13.425781 22.46875 13.460938 22.46875 13.5 22.46875 C 13.519531 22.523438 13.535156 22.582031 13.554688 22.644531 C 13.59375 22.605469 13.628906 22.566406 13.667969 22.527344 C 13.785156 22.546875 13.785156 22.546875 13.890625 22.585938 C 13.90625 22.703125 13.925781 22.816406 13.945312 22.9375 C 13.980469 22.9375 14.019531 22.9375 14.054688 22.9375 C 14.054688 22.976562 14.054688 23.015625 14.054688 23.054688 C 14 23.054688 13.945312 23.054688 13.890625 23.054688 C 13.871094 23 13.855469 22.941406 13.839844 22.882812 C 13.796875 22.695312 13.796875 22.695312 13.667969 22.644531 C 13.652344 22.699219 13.636719 22.757812 13.621094 22.816406 C 13.601562 22.875 13.578125 22.9375 13.554688 22.996094 C 13.5 23.015625 13.445312 23.035156 13.390625 23.054688 C 13.390625 22.863281 13.390625 22.667969 13.390625 22.46875 Z M 13.390625 22.46875 "/>
<path style=" stroke:none;fill-rule:nonzero;fill:rgb(27.058825%,25.490198%,25.490198%);fill-opacity:1;" d="M 17.277344 22.230469 C 17.3125 22.230469 17.351562 22.230469 17.390625 22.230469 C 17.371094 22.308594 17.351562 22.386719 17.332031 22.46875 C 17.425781 22.46875 17.515625 22.46875 17.609375 22.46875 C 17.59375 22.503906 17.574219 22.542969 17.554688 22.585938 C 17.464844 22.585938 17.371094 22.585938 17.277344 22.585938 C 17.277344 22.722656 17.277344 22.855469 17.277344 22.996094 C 17.371094 22.957031 17.460938 22.917969 17.554688 22.878906 C 17.519531 22.957031 17.480469 23.035156 17.445312 23.117188 C 17.351562 23.097656 17.261719 23.078125 17.167969 23.054688 C 17.167969 22.902344 17.167969 22.746094 17.167969 22.585938 C 17.128906 22.585938 17.09375 22.585938 17.054688 22.585938 C 17.054688 22.546875 17.054688 22.507812 17.054688 22.46875 C 17.109375 22.449219 17.164062 22.429688 17.222656 22.40625 C 17.242188 22.347656 17.257812 22.292969 17.277344 22.230469 Z M 17.277344 22.230469 "/>
<path style=" stroke:none;fill-rule:nonzero;fill:rgb(30.980393%,29.411766%,29.803923%);fill-opacity:1;" d="M 17 22.40625 C 17 22.445312 17 22.484375 17 22.527344 C 16.925781 22.546875 16.851562 22.566406 16.777344 22.585938 C 16.777344 22.625 16.777344 22.664062 16.777344 22.703125 C 16.851562 22.742188 16.925781 22.78125 17 22.820312 C 16.953125 23.050781 16.953125 23.050781 16.890625 23.117188 C 16.777344 23.117188 16.667969 23.117188 16.554688 23.117188 C 16.554688 23.078125 16.554688 23.039062 16.554688 22.996094 C 16.664062 22.996094 16.777344 22.996094 16.890625 22.996094 C 16.890625 22.957031 16.890625 22.917969 16.890625 22.878906 C 16.75 22.820312 16.75 22.820312 16.609375 22.761719 C 16.632812 22.617188 16.632812 22.617188 16.667969 22.46875 C 16.777344 22.40625 16.777344 22.40625 17 22.40625 Z M 17 22.40625 "/>
<path style=" stroke:none;fill-rule:nonzero;fill:rgb(26.666668%,25.098041%,25.490198%);fill-opacity:1;" d="M 11.277344 22.40625 C 11.351562 22.425781 11.425781 22.445312 11.5 22.46875 C 11.484375 22.691406 11.46875 22.839844 11.34375 23.027344 C 11.222656 23.117188 11.222656 23.117188 11.097656 23.101562 C 11.050781 23.078125 11.050781 23.078125 11 23.054688 C 10.980469 22.980469 10.964844 22.902344 10.945312 22.820312 C 11 22.78125 11.054688 22.742188 11.109375 22.703125 C 11.09375 22.800781 11.074219 22.898438 11.054688 22.996094 C 11.195312 22.929688 11.195312 22.929688 11.332031 22.820312 C 11.382812 22.667969 11.382812 22.667969 11.390625 22.527344 C 11.351562 22.527344 11.316406 22.527344 11.277344 22.527344 C 11.277344 22.488281 11.277344 22.449219 11.277344 22.40625 Z M 11.277344 22.40625 "/>
<path style=" stroke:none;fill-rule:nonzero;fill:rgb(25.098041%,23.529412%,23.921569%);fill-opacity:1;" d="M 9.277344 22.46875 C 9.3125 22.46875 9.351562 22.46875 9.390625 22.46875 C 9.40625 22.503906 9.425781 22.542969 9.445312 22.585938 C 9.480469 22.546875 9.519531 22.507812 9.554688 22.46875 C 9.628906 22.46875 9.703125 22.46875 9.777344 22.46875 C 9.777344 22.503906 9.777344 22.542969 9.777344 22.585938 C 9.703125 22.585938 9.632812 22.585938 9.554688 22.585938 C 9.5 22.761719 9.445312 22.933594 9.390625 23.117188 C 9.351562 23.117188 9.316406 23.117188 9.277344 23.117188 C 9.277344 22.902344 9.277344 22.6875 9.277344 22.46875 Z M 9.277344 22.46875 "/>
<path style=" stroke:none;fill-rule:nonzero;fill:rgb(30.588236%,28.627452%,29.019609%);fill-opacity:1;" d="M 18.109375 22.054688 C 18.148438 22.054688 18.183594 22.054688 18.222656 22.054688 C 18.203125 22.40625 18.1875 22.753906 18.167969 23.117188 C 18.128906 23.117188 18.09375 23.117188 18.054688 23.117188 C 18.054688 22.960938 18.054688 22.804688 18.050781 22.652344 C 18.050781 22.605469 18.050781 22.5625 18.050781 22.519531 C 18.050781 22.183594 18.050781 22.183594 18.109375 22.054688 Z M 18.109375 22.054688 "/>
<path style=" stroke:none;fill-rule:nonzero;fill:rgb(20%,18.039216%,18.431373%);fill-opacity:1;" d="M 22.609375 22.230469 C 22.648438 22.230469 22.683594 22.230469 22.722656 22.230469 C 22.722656 22.308594 22.722656 22.386719 22.722656 22.46875 C 22.796875 22.484375 22.867188 22.503906 22.945312 22.527344 C 22.851562 22.527344 22.761719 22.527344 22.667969 22.527344 C 22.648438 22.679688 22.628906 22.835938 22.609375 22.996094 C 22.703125 22.976562 22.792969 22.957031 22.890625 22.9375 C 22.832031 23.027344 22.832031 23.027344 22.777344 23.117188 C 22.703125 23.097656 22.632812 23.078125 22.554688 23.054688 C 22.554688 22.902344 22.554688 22.746094 22.554688 22.585938 C 22.519531 22.566406 22.480469 22.546875 22.445312 22.527344 C 22.480469 22.507812 22.519531 22.488281 22.554688 22.46875 C 22.589844 22.347656 22.589844 22.347656 22.609375 22.230469 Z M 22.609375 22.230469 "/>
<path style=" stroke:none;fill-rule:nonzero;fill:rgb(28.235295%,26.666668%,26.666668%);fill-opacity:1;" d="M 18.445312 22.054688 C 18.480469 22.054688 18.519531 22.054688 18.554688 22.054688 C 18.539062 22.40625 18.519531 22.753906 18.5 23.117188 C 18.464844 23.117188 18.425781 23.117188 18.390625 23.117188 C 18.386719 22.984375 18.386719 22.851562 18.386719 22.71875 C 18.386719 22.644531 18.382812 22.570312 18.382812 22.492188 C 18.386719 22.332031 18.398438 22.207031 18.445312 22.054688 Z M 18.445312 22.054688 "/>
<path style=" stroke:none;fill-rule:nonzero;fill:rgb(14.901961%,12.941177%,13.333334%);fill-opacity:1;" d="M 16.222656 5.898438 C 16.351562 5.898438 16.480469 5.898438 16.609375 5.898438 C 16.609375 5.917969 16.609375 5.9375 16.609375 5.957031 C 16.519531 5.957031 16.429688 5.957031 16.332031 5.957031 C 16.332031 6.054688 16.332031 6.148438 16.332031 6.25 C 16.40625 6.25 16.480469 6.25 16.554688 6.25 C 16.539062 6.289062 16.519531 6.328125 16.5 6.367188 C 16.445312 6.347656 16.390625 6.328125 16.332031 6.308594 C 16.332031 6.425781 16.332031 6.542969 16.332031 6.664062 C 16.296875 6.664062 16.261719 6.664062 16.222656 6.664062 C 16.222656 6.410156 16.222656 6.15625 16.222656 5.898438 Z M 16.222656 5.898438 "/>
<path style=" stroke:none;fill-rule:nonzero;fill:rgb(25.490198%,23.921569%,23.921569%);fill-opacity:1;" d="M 6.667969 22.230469 C 6.78125 22.332031 6.828125 22.386719 6.863281 22.542969 C 6.863281 22.589844 6.867188 22.636719 6.871094 22.683594 C 6.875 22.730469 6.878906 22.78125 6.882812 22.828125 C 6.882812 22.863281 6.886719 22.902344 6.890625 22.9375 C 6.925781 22.9375 6.960938 22.9375 7 22.9375 C 7.019531 22.878906 7.035156 22.820312 7.054688 22.761719 C 7.074219 22.800781 7.09375 22.839844 7.109375 22.878906 C 7.058594 23.003906 7.058594 23.003906 7 23.117188 C 6.945312 23.097656 6.890625 23.078125 6.832031 23.054688 C 6.78125 22.914062 6.78125 22.914062 6.738281 22.738281 C 6.726562 22.683594 6.710938 22.625 6.695312 22.566406 C 6.667969 22.40625 6.667969 22.40625 6.667969 22.230469 Z M 6.667969 22.230469 "/>
<path style=" stroke:none;fill-rule:nonzero;fill:rgb(92.54902%,92.156863%,92.156863%);fill-opacity:1;" d="M 11.390625 22.527344 C 11.410156 22.789062 11.410156 22.789062 11.316406 22.925781 C 11.222656 22.996094 11.222656 22.996094 11.054688 22.996094 C 11.078125 22.832031 11.09375 22.726562 11.191406 22.597656 C 11.277344 22.527344 11.277344 22.527344 11.390625 22.527344 Z M 11.390625 22.527344 "/>
<path style=" stroke:none;fill-rule:nonzero;fill:rgb(21.568628%,20%,20.392157%);fill-opacity:1;" d="M 16.109375 5.660156 C 16.167969 5.679688 16.222656 5.699219 16.277344 5.71875 C 16.246094 5.75 16.210938 5.777344 16.175781 5.808594 C 16.015625 6.003906 15.964844 6.183594 15.890625 6.425781 C 15.871094 6.425781 15.851562 6.425781 15.832031 6.425781 C 15.800781 6.070312 15.800781 6.070312 15.894531 5.910156 C 15.964844 5.824219 16.039062 5.742188 16.109375 5.660156 Z M 16.109375 5.660156 "/>
<path style=" stroke:none;fill-rule:nonzero;fill:rgb(23.137255%,21.568628%,21.960784%);fill-opacity:1;" d="M 12.722656 22.46875 C 12.777344 22.484375 12.832031 22.503906 12.890625 22.527344 C 12.816406 22.585938 12.742188 22.640625 12.667969 22.703125 C 12.710938 22.820312 12.710938 22.820312 12.777344 22.9375 C 12.832031 22.957031 12.886719 22.976562 12.945312 22.996094 C 12.945312 23.035156 12.945312 23.074219 12.945312 23.117188 C 12.734375 23.082031 12.640625 22.984375 12.5 22.820312 C 12.5625 22.675781 12.613281 22.582031 12.722656 22.46875 Z M 12.722656 22.46875 "/>
<path style=" stroke:none;fill-rule:nonzero;fill:rgb(30.588236%,29.019609%,29.411766%);fill-opacity:1;" d="M 17.054688 5.898438 C 17.222656 6.074219 17.222656 6.074219 17.226562 6.195312 C 17.207031 6.3125 17.1875 6.429688 17.167969 6.546875 C 17.113281 6.546875 17.058594 6.546875 17 6.546875 C 17.019531 6.332031 17.035156 6.117188 17.054688 5.898438 Z M 17.054688 5.898438 "/>
<path style=" stroke:none;fill-rule:nonzero;fill:rgb(91.37255%,90.980393%,90.980393%);fill-opacity:1;" d="M 19.554688 22.527344 C 19.542969 22.695312 19.542969 22.695312 19.5 22.878906 C 19.386719 22.960938 19.386719 22.960938 19.277344 22.996094 C 19.257812 22.730469 19.257812 22.730469 19.355469 22.597656 C 19.445312 22.527344 19.445312 22.527344 19.554688 22.527344 Z M 19.554688 22.527344 "/>
<path style=" stroke:none;fill-rule:nonzero;fill:rgb(91.37255%,91.37255%,91.37255%);fill-opacity:1;" d="M 11.890625 22.527344 C 11.925781 22.527344 11.960938 22.527344 12 22.527344 C 12.019531 22.792969 12.019531 22.792969 11.921875 22.925781 C 11.832031 22.996094 11.832031 22.996094 11.722656 22.996094 C 11.765625 22.660156 11.765625 22.660156 11.890625 22.527344 Z M 11.890625 22.527344 "/>
<path style=" stroke:none;fill-rule:nonzero;fill:rgb(47.058824%,45.882353%,45.882353%);fill-opacity:1;" d="M 10.054688 22.40625 C 10.128906 22.425781 10.203125 22.445312 10.277344 22.46875 C 10.179688 22.753906 10.179688 22.753906 10.054688 22.820312 C 10.019531 22.800781 9.980469 22.78125 9.945312 22.761719 C 9.980469 22.644531 10.019531 22.527344 10.054688 22.40625 Z M 10.054688 22.40625 "/>
<path style=" stroke:none;fill-rule:nonzero;fill:rgb(92.941177%,92.941177%,92.941177%);fill-opacity:1;" d="M 21.390625 22.527344 C 21.425781 22.527344 21.460938 22.527344 21.5 22.527344 C 21.484375 22.695312 21.484375 22.695312 21.445312 22.878906 C 21.328125 22.960938 21.328125 22.960938 21.222656 22.996094 C 21.265625 22.660156 21.265625 22.660156 21.390625 22.527344 Z M 21.390625 22.527344 "/>
<path style=" stroke:none;fill-rule:nonzero;fill:rgb(93.725491%,93.333334%,93.333334%);fill-opacity:1;" d="M 14.445312 22.527344 C 14.480469 22.527344 14.519531 22.527344 14.554688 22.527344 C 14.515625 22.804688 14.515625 22.804688 14.390625 22.9375 C 14.332031 22.9375 14.277344 22.9375 14.222656 22.9375 C 14.28125 22.765625 14.320312 22.65625 14.445312 22.527344 Z M 14.445312 22.527344 "/>
<path style=" stroke:none;fill-rule:nonzero;fill:rgb(22.745098%,21.176471%,21.568628%);fill-opacity:1;" d="M 16.945312 6.605469 C 17 6.625 17.054688 6.644531 17.109375 6.664062 C 16.832031 6.953125 16.832031 6.953125 16.5625 6.976562 C 16.503906 6.96875 16.449219 6.964844 16.390625 6.957031 C 16.417969 6.945312 16.449219 6.929688 16.480469 6.914062 C 16.621094 6.839844 16.621094 6.839844 16.78125 6.710938 C 16.835938 6.675781 16.890625 6.640625 16.945312 6.605469 Z M 16.945312 6.605469 "/>
<path style=" stroke:none;fill-rule:nonzero;fill:rgb(25.882354%,23.921569%,24.313726%);fill-opacity:1;" d="M 20.167969 22.527344 C 20.28125 22.550781 20.28125 22.550781 20.390625 22.585938 C 20.40625 22.703125 20.425781 22.816406 20.445312 22.9375 C 20.480469 22.9375 20.519531 22.9375 20.554688 22.9375 C 20.554688 22.976562 20.554688 23.015625 20.554688 23.054688 C 20.5 23.054688 20.445312 23.054688 20.390625 23.054688 C 20.375 23 20.359375 22.945312 20.34375 22.886719 C 20.292969 22.6875 20.292969 22.6875 20.109375 22.585938 C 20.128906 22.566406 20.148438 22.546875 20.167969 22.527344 Z M 20.167969 22.527344 "/>
<path style=" stroke:none;fill-rule:nonzero;fill:rgb(25.882354%,23.921569%,24.313726%);fill-opacity:1;" d="M 13.667969 22.527344 C 13.78125 22.550781 13.78125 22.550781 13.890625 22.585938 C 13.90625 22.703125 13.925781 22.816406 13.945312 22.9375 C 13.980469 22.9375 14.019531 22.9375 14.054688 22.9375 C 14.054688 22.976562 14.054688 23.015625 14.054688 23.054688 C 14 23.054688 13.945312 23.054688 13.890625 23.054688 C 13.875 23 13.859375 22.945312 13.84375 22.886719 C 13.792969 22.6875 13.792969 22.6875 13.609375 22.585938 C 13.628906 22.566406 13.648438 22.546875 13.667969 22.527344 Z M 13.667969 22.527344 "/>
<path style=" stroke:none;fill-rule:nonzero;fill:rgb(32.941177%,31.764707%,31.764707%);fill-opacity:1;" d="M 17.167969 22.585938 C 17.246094 22.742188 17.277344 22.8125 17.277344 22.996094 C 17.371094 22.957031 17.460938 22.917969 17.554688 22.878906 C 17.519531 22.957031 17.480469 23.035156 17.445312 23.117188 C 17.351562 23.097656 17.261719 23.078125 17.167969 23.054688 C 17.167969 22.902344 17.167969 22.746094 17.167969 22.585938 Z M 17.167969 22.585938 "/>
<path style=" stroke:none;fill-rule:nonzero;fill:rgb(69.01961%,68.235296%,68.235296%);fill-opacity:1;" d="M 23.167969 22.113281 C 23.285156 22.136719 23.285156 22.136719 23.390625 22.171875 C 23.371094 22.25 23.351562 22.328125 23.332031 22.40625 C 23.261719 22.40625 23.1875 22.40625 23.109375 22.40625 C 23.09375 22.347656 23.074219 22.292969 23.054688 22.230469 C 23.09375 22.191406 23.128906 22.152344 23.167969 22.113281 Z M 23.167969 22.113281 "/>
<path style=" stroke:none;fill-rule:nonzero;fill:rgb(32.156864%,30.588236%,30.980393%);fill-opacity:1;" d="M 19.167969 22.703125 C 19.277344 22.820312 19.277344 22.820312 19.277344 22.996094 C 19.332031 22.957031 19.386719 22.917969 19.445312 22.878906 C 19.5 22.878906 19.554688 22.878906 19.609375 22.878906 C 19.554688 22.996094 19.554688 22.996094 19.386719 23.0625 C 19.304688 23.089844 19.304688 23.089844 19.222656 23.117188 C 19.167969 23.054688 19.167969 23.054688 19.164062 22.875 C 19.164062 22.820312 19.164062 22.761719 19.167969 22.703125 Z M 19.167969 22.703125 "/>
<path style=" stroke:none;fill-rule:nonzero;fill:rgb(32.941177%,31.37255%,31.764707%);fill-opacity:1;" d="M 21.109375 22.761719 C 21.148438 22.839844 21.183594 22.917969 21.222656 22.996094 C 21.277344 22.957031 21.332031 22.917969 21.390625 22.878906 C 21.445312 22.878906 21.5 22.878906 21.554688 22.878906 C 21.5 22.996094 21.5 22.996094 21.332031 23.117188 C 21.210938 23.09375 21.210938 23.09375 21.109375 23.054688 C 21.109375 22.960938 21.109375 22.863281 21.109375 22.761719 Z M 21.109375 22.761719 "/>
<path style=" stroke:none;fill-rule:nonzero;fill:rgb(23.921569%,22.352941%,22.352941%);fill-opacity:1;" d="M 8.832031 22.40625 C 8.953125 22.429688 8.953125 22.429688 9.054688 22.46875 C 9.039062 22.542969 9.019531 22.621094 9 22.703125 C 8.964844 22.683594 8.925781 22.664062 8.890625 22.644531 C 8.90625 22.605469 8.925781 22.566406 8.945312 22.527344 C 8.769531 22.632812 8.769531 22.632812 8.667969 22.820312 C 8.707031 22.539062 8.707031 22.539062 8.832031 22.40625 Z M 8.832031 22.40625 "/>
<path style=" stroke:none;fill-rule:nonzero;fill:rgb(29.019609%,27.450982%,27.843139%);fill-opacity:1;" d="M 16.535156 5.539062 C 16.601562 5.539062 16.601562 5.539062 16.671875 5.539062 C 16.722656 5.542969 16.722656 5.542969 16.777344 5.542969 C 16.597656 5.667969 16.488281 5.699219 16.277344 5.71875 C 16.242188 5.679688 16.203125 5.640625 16.167969 5.601562 C 16.300781 5.53125 16.386719 5.535156 16.535156 5.539062 Z M 16.535156 5.539062 "/>
<path style=" stroke:none;fill-rule:nonzero;fill:rgb(93.725491%,93.725491%,93.725491%);fill-opacity:1;" d="M 16.332031 6.015625 C 16.441406 6.015625 16.554688 6.015625 16.667969 6.015625 C 16.667969 6.074219 16.667969 6.132812 16.667969 6.191406 C 16.558594 6.191406 16.445312 6.191406 16.332031 6.191406 C 16.332031 6.132812 16.332031 6.074219 16.332031 6.015625 Z M 16.332031 6.015625 "/>
<path style=" stroke:none;fill-rule:nonzero;fill:rgb(19.215687%,17.254902%,17.647059%);fill-opacity:1;" d="M 21.554688 22.527344 C 21.574219 22.527344 21.59375 22.527344 21.609375 22.527344 C 21.628906 22.71875 21.648438 22.914062 21.667969 23.117188 C 21.628906 23.097656 21.59375 23.078125 21.554688 23.054688 C 21.554688 23 21.554688 22.941406 21.554688 22.878906 C 21.519531 22.878906 21.480469 22.878906 21.445312 22.878906 C 21.480469 22.761719 21.519531 22.644531 21.554688 22.527344 Z M 21.554688 22.527344 "/>
</g>
</svg>
