<?xml version="1.0" encoding="UTF-8"?>
<svg xmlns="http://www.w3.org/2000/svg" xmlns:xlink="http://www.w3.org/1999/xlink" width="24px" height="24px" viewBox="0 0 24 24" version="1.1">
<g id="surface1">
<path style=" stroke:none;fill-rule:nonzero;fill:rgb(91.37255%,19.215687%,21.568628%);fill-opacity:1;" d="M 0 0 C 7.921875 0 15.839844 0 24 0 C 24 7.921875 24 15.839844 24 24 C 16.078125 24 8.160156 24 0 24 C 0 16.078125 0 8.160156 0 0 Z M 0 0 "/>
<path style=" stroke:none;fill-rule:nonzero;fill:rgb(97.647059%,95.294118%,95.294118%);fill-opacity:1;" d="M 8.261719 10.707031 C 8.46875 10.703125 8.46875 10.703125 8.679688 10.703125 C 9.164062 10.789062 9.296875 10.929688 9.601562 11.308594 C 9.667969 11.644531 9.667969 11.644531 9.671875 12.015625 C 9.671875 12.152344 9.671875 12.289062 9.671875 12.425781 C 9.671875 12.566406 9.667969 12.707031 9.667969 12.851562 C 9.667969 13.0625 9.667969 13.0625 9.671875 13.28125 C 9.671875 13.414062 9.671875 13.550781 9.671875 13.691406 C 9.671875 13.8125 9.667969 13.9375 9.667969 14.0625 C 9.578125 14.5 9.410156 14.660156 9.066406 14.933594 C 8.679688 15 8.679688 15 8.261719 14.992188 C 8.121094 14.992188 7.984375 14.992188 7.839844 14.992188 C 7.402344 14.921875 7.304688 14.851562 7.039062 14.507812 C 6.984375 14.171875 6.984375 14.171875 6.984375 13.785156 C 6.984375 13.574219 6.984375 13.574219 6.980469 13.359375 C 6.984375 13.285156 6.984375 13.210938 6.984375 13.136719 C 6.988281 12.914062 6.984375 12.691406 6.980469 12.46875 C 6.980469 12.328125 6.984375 12.1875 6.984375 12.042969 C 6.984375 11.914062 6.984375 11.785156 6.984375 11.652344 C 7.109375 10.867188 7.511719 10.699219 8.261719 10.707031 Z M 8.261719 10.707031 "/>
<path style=" stroke:none;fill-rule:nonzero;fill:rgb(97.647059%,94.901961%,94.509804%);fill-opacity:1;" d="M 3.519531 10.773438 C 3.902344 10.761719 4.285156 10.753906 4.667969 10.746094 C 4.773438 10.742188 4.882812 10.738281 4.996094 10.734375 C 5.78125 10.726562 5.78125 10.726562 6.152344 10.929688 C 6.359375 11.328125 6.351562 11.671875 6.339844 12.113281 C 6.339844 12.195312 6.339844 12.277344 6.34375 12.363281 C 6.335938 12.964844 6.335938 12.964844 6.128906 13.203125 C 6.078125 13.246094 6.027344 13.289062 5.972656 13.332031 C 5.957031 13.554688 5.957031 13.554688 6.007812 13.78125 C 6.042969 13.980469 6.042969 13.980469 6.078125 14.1875 C 6.1875 14.1875 6.292969 14.1875 6.398438 14.1875 C 6.398438 14.433594 6.398438 14.679688 6.398438 14.933594 C 6.117188 14.933594 5.835938 14.933594 5.546875 14.933594 C 5.199219 13.929688 5.199219 13.929688 5.121094 13.441406 C 4.945312 13.441406 4.769531 13.441406 4.585938 13.441406 C 4.585938 13.6875 4.585938 13.933594 4.585938 14.1875 C 4.691406 14.1875 4.796875 14.1875 4.90625 14.1875 C 4.90625 14.433594 4.90625 14.679688 4.90625 14.933594 C 4.449219 14.933594 3.992188 14.933594 3.519531 14.933594 C 3.519531 14.6875 3.519531 14.441406 3.519531 14.1875 C 3.625 14.1875 3.730469 14.1875 3.839844 14.1875 C 3.839844 13.308594 3.839844 12.425781 3.839844 11.519531 C 3.734375 11.519531 3.628906 11.519531 3.519531 11.519531 C 3.519531 11.273438 3.519531 11.027344 3.519531 10.773438 Z M 3.519531 10.773438 "/>
<path style=" stroke:none;fill-rule:nonzero;fill:rgb(98.039216%,95.686275%,95.294118%);fill-opacity:1;" d="M 11.566406 10.707031 C 11.773438 10.703125 11.773438 10.703125 11.984375 10.703125 C 12.460938 10.789062 12.621094 10.921875 12.90625 11.308594 C 12.957031 11.570312 12.957031 11.570312 12.941406 11.820312 C 12.933594 11.945312 12.933594 11.945312 12.925781 12.074219 C 12.917969 12.136719 12.914062 12.203125 12.90625 12.265625 C 12.660156 12.265625 12.414062 12.265625 12.160156 12.265625 C 12.125 12.054688 12.089844 11.84375 12.054688 11.625 C 11.773438 11.625 11.488281 11.625 11.199219 11.625 C 11.199219 12.4375 11.199219 13.246094 11.199219 14.078125 C 11.480469 14.078125 11.761719 14.078125 12.054688 14.078125 C 12.089844 13.832031 12.125 13.585938 12.160156 13.332031 C 12.054688 13.332031 11.949219 13.332031 11.839844 13.332031 C 11.839844 13.085938 11.839844 12.839844 11.839844 12.585938 C 12.191406 12.585938 12.542969 12.585938 12.90625 12.585938 C 12.921875 12.878906 12.933594 13.167969 12.941406 13.460938 C 12.945312 13.542969 12.949219 13.625 12.953125 13.707031 C 12.964844 14.148438 12.941406 14.347656 12.6875 14.722656 C 12.289062 14.988281 12.042969 15.003906 11.566406 15 C 11.359375 15.003906 11.359375 15.003906 11.144531 15.003906 C 10.773438 14.933594 10.773438 14.933594 10.539062 14.707031 C 10.308594 14.339844 10.292969 14.125 10.289062 13.691406 C 10.289062 13.554688 10.289062 13.417969 10.289062 13.28125 C 10.289062 13.140625 10.292969 13 10.292969 12.851562 C 10.292969 12.710938 10.289062 12.570312 10.289062 12.425781 C 10.289062 12.292969 10.289062 12.15625 10.289062 12.015625 C 10.289062 11.894531 10.289062 11.769531 10.292969 11.644531 C 10.417969 10.863281 10.828125 10.699219 11.566406 10.707031 Z M 11.566406 10.707031 "/>
<path style=" stroke:none;fill-rule:nonzero;fill:rgb(98.823529%,97.647059%,97.647059%);fill-opacity:1;" d="M 13.761719 10.878906 C 14.148438 10.878906 14.535156 10.878906 14.933594 10.878906 C 14.933594 11.089844 14.933594 11.300781 14.933594 11.519531 C 14.863281 11.519531 14.792969 11.519531 14.71875 11.519531 C 14.753906 12.363281 14.789062 13.210938 14.828125 14.078125 C 15.109375 14.078125 15.390625 14.078125 15.679688 14.078125 C 15.714844 13.234375 15.75 12.390625 15.785156 11.519531 C 15.714844 11.519531 15.644531 11.519531 15.574219 11.519531 C 15.574219 11.308594 15.574219 11.097656 15.574219 10.878906 C 15.960938 10.878906 16.347656 10.878906 16.746094 10.878906 C 16.746094 11.089844 16.746094 11.300781 16.746094 11.519531 C 16.675781 11.519531 16.605469 11.519531 16.535156 11.519531 C 16.535156 11.605469 16.539062 11.6875 16.542969 11.777344 C 16.554688 12.160156 16.558594 12.542969 16.566406 12.925781 C 16.570312 13.058594 16.574219 13.191406 16.582031 13.328125 C 16.59375 14.304688 16.59375 14.304688 16.3125 14.753906 C 15.933594 14.972656 15.6875 15.003906 15.253906 15 C 15.0625 15.003906 15.0625 15.003906 14.867188 15.003906 C 14.507812 14.933594 14.507812 14.933594 14.195312 14.753906 C 13.835938 14.179688 13.917969 13.589844 13.941406 12.925781 C 13.941406 12.792969 13.945312 12.65625 13.949219 12.519531 C 13.953125 12.183594 13.960938 11.851562 13.972656 11.519531 C 13.902344 11.519531 13.832031 11.519531 13.761719 11.519531 C 13.761719 11.308594 13.761719 11.097656 13.761719 10.878906 Z M 13.761719 10.878906 "/>
<path style=" stroke:none;fill-rule:nonzero;fill:rgb(98.039216%,96.078432%,95.686275%);fill-opacity:1;" d="M 17.492188 10.878906 C 18.375 10.878906 19.253906 10.878906 20.160156 10.878906 C 20.160156 11.195312 20.160156 11.511719 20.160156 11.839844 C 19.914062 11.839844 19.667969 11.839844 19.414062 11.839844 C 19.414062 11.734375 19.414062 11.628906 19.414062 11.519531 C 19.097656 11.519531 18.78125 11.519531 18.453125 11.519531 C 18.453125 11.835938 18.453125 12.152344 18.453125 12.480469 C 18.769531 12.480469 19.085938 12.480469 19.414062 12.480469 C 19.414062 12.691406 19.414062 12.902344 19.414062 13.121094 C 19.097656 13.121094 18.78125 13.121094 18.453125 13.121094 C 18.453125 13.472656 18.453125 13.824219 18.453125 14.1875 C 18.769531 14.1875 19.085938 14.1875 19.414062 14.1875 C 19.414062 14.082031 19.414062 13.976562 19.414062 13.867188 C 19.660156 13.867188 19.90625 13.867188 20.160156 13.867188 C 20.160156 14.21875 20.160156 14.570312 20.160156 14.933594 C 19.28125 14.933594 18.398438 14.933594 17.492188 14.933594 C 17.492188 14.6875 17.492188 14.441406 17.492188 14.1875 C 17.5625 14.1875 17.632812 14.1875 17.707031 14.1875 C 17.707031 13.308594 17.707031 12.425781 17.707031 11.519531 C 17.636719 11.519531 17.566406 11.519531 17.492188 11.519531 C 17.492188 11.308594 17.492188 11.097656 17.492188 10.878906 Z M 17.492188 10.878906 "/>
<path style=" stroke:none;fill-rule:nonzero;fill:rgb(96.862745%,93.333334%,92.941177%);fill-opacity:1;" d="M 14.613281 5.226562 C 15.175781 5.226562 15.738281 5.226562 16.320312 5.226562 C 16.640625 5.546875 16.640625 5.546875 16.679688 5.800781 C 16.675781 5.890625 16.675781 5.984375 16.671875 6.078125 C 16.671875 6.171875 16.671875 6.265625 16.671875 6.359375 C 16.640625 6.613281 16.640625 6.613281 16.425781 6.933594 C 16.496094 7.003906 16.566406 7.074219 16.640625 7.148438 C 16.671875 7.386719 16.671875 7.386719 16.671875 7.667969 C 16.675781 7.804688 16.675781 7.804688 16.679688 7.945312 C 16.640625 8.214844 16.640625 8.214844 16.320312 8.640625 C 15.757812 8.640625 15.195312 8.640625 14.613281 8.640625 C 14.613281 7.511719 14.613281 6.386719 14.613281 5.226562 Z M 14.613281 5.226562 "/>
<path style=" stroke:none;fill-rule:nonzero;fill:rgb(97.647059%,95.294118%,94.509804%);fill-opacity:1;" d="M 9.066406 15.679688 C 9.347656 15.628906 9.347656 15.628906 9.707031 15.679688 C 9.964844 15.925781 10.148438 16.21875 10.339844 16.519531 C 10.394531 16.601562 10.449219 16.683594 10.507812 16.769531 C 10.617188 16.933594 10.726562 17.101562 10.835938 17.265625 C 11.03125 17.558594 11.234375 17.84375 11.441406 18.125 C 11.734375 18.535156 11.734375 18.535156 11.734375 18.773438 C 11.804688 18.773438 11.875 18.773438 11.945312 18.773438 C 11.976562 18.710938 12.003906 18.652344 12.035156 18.589844 C 12.164062 18.339844 12.308594 18.117188 12.46875 17.882812 C 12.527344 17.796875 12.589844 17.710938 12.652344 17.621094 C 12.746094 17.484375 12.746094 17.484375 12.839844 17.347656 C 12.964844 17.167969 13.085938 16.988281 13.210938 16.8125 C 13.296875 16.683594 13.296875 16.683594 13.386719 16.554688 C 13.523438 16.351562 13.652344 16.148438 13.78125 15.9375 C 13.84375 15.851562 13.910156 15.769531 13.972656 15.679688 C 14.320312 15.640625 14.320312 15.640625 14.613281 15.679688 C 14.472656 16.078125 14.296875 16.378906 14.039062 16.714844 C 13.570312 17.34375 13.136719 17.992188 12.707031 18.644531 C 12.65625 18.726562 12.601562 18.804688 12.546875 18.886719 C 12.5 18.957031 12.453125 19.027344 12.40625 19.101562 C 12.109375 19.539062 12.109375 19.539062 11.945312 19.734375 C 11.875 19.734375 11.804688 19.734375 11.734375 19.734375 C 11.601562 19.574219 11.601562 19.574219 11.449219 19.351562 C 11.394531 19.265625 11.339844 19.183594 11.28125 19.097656 C 11.222656 19.007812 11.160156 18.917969 11.101562 18.828125 C 10.976562 18.640625 10.851562 18.457031 10.726562 18.269531 C 10.632812 18.128906 10.632812 18.128906 10.535156 17.984375 C 10.359375 17.722656 10.179688 17.460938 9.996094 17.203125 C 9.945312 17.125 9.890625 17.050781 9.835938 16.96875 C 9.734375 16.824219 9.632812 16.679688 9.53125 16.53125 C 9.332031 16.25 9.175781 16.007812 9.066406 15.679688 Z M 9.066406 15.679688 "/>
<path style=" stroke:none;fill-rule:nonzero;fill:rgb(98.431373%,97.254902%,96.862745%);fill-opacity:1;" d="M 11.839844 5.226562 C 12.15625 5.226562 12.472656 5.226562 12.800781 5.226562 C 12.800781 5.4375 12.800781 5.648438 12.800781 5.867188 C 12.730469 5.867188 12.660156 5.867188 12.585938 5.867188 C 12.621094 6.535156 12.65625 7.203125 12.691406 7.894531 C 12.90625 7.894531 13.117188 7.894531 13.332031 7.894531 C 13.367188 7.1875 13.402344 6.484375 13.441406 5.761719 C 13.371094 5.761719 13.300781 5.761719 13.226562 5.761719 C 13.226562 5.585938 13.226562 5.40625 13.226562 5.226562 C 13.507812 5.226562 13.789062 5.226562 14.078125 5.226562 C 14.078125 5.402344 14.078125 5.578125 14.078125 5.761719 C 14.007812 5.761719 13.9375 5.761719 13.867188 5.761719 C 13.867188 5.832031 13.867188 5.90625 13.871094 5.980469 C 13.875 6.308594 13.878906 6.636719 13.878906 6.964844 C 13.882812 7.082031 13.882812 7.195312 13.886719 7.3125 C 13.886719 7.421875 13.886719 7.53125 13.886719 7.644531 C 13.886719 7.746094 13.890625 7.847656 13.890625 7.953125 C 13.867188 8.214844 13.867188 8.214844 13.652344 8.535156 C 13.363281 8.574219 13.363281 8.574219 13.019531 8.574219 C 12.90625 8.574219 12.792969 8.574219 12.675781 8.574219 C 12.375 8.535156 12.375 8.535156 12.195312 8.40625 C 12.003906 8.148438 12.015625 7.988281 12.023438 7.667969 C 12.023438 7.5625 12.023438 7.460938 12.023438 7.351562 C 12.027344 7.242188 12.03125 7.132812 12.035156 7.019531 C 12.035156 6.910156 12.035156 6.800781 12.039062 6.683594 C 12.042969 6.414062 12.046875 6.140625 12.054688 5.867188 C 11.984375 5.867188 11.914062 5.867188 11.839844 5.867188 C 11.839844 5.65625 11.839844 5.445312 11.839844 5.226562 Z M 11.839844 5.226562 "/>
<path style=" stroke:none;fill-rule:nonzero;fill:rgb(97.254902%,93.725491%,93.333334%);fill-opacity:1;" d="M 7.660156 5.171875 C 7.773438 5.171875 7.882812 5.171875 8 5.171875 C 8.167969 5.171875 8.167969 5.171875 8.339844 5.171875 C 8.640625 5.226562 8.640625 5.226562 8.839844 5.417969 C 9.007812 5.75 8.980469 6.035156 8.960938 6.398438 C 8.785156 6.398438 8.609375 6.398438 8.425781 6.398438 C 8.425781 6.222656 8.425781 6.046875 8.425781 5.867188 C 8.144531 5.867188 7.863281 5.867188 7.574219 5.867188 C 7.609375 6.535156 7.644531 7.203125 7.679688 7.894531 C 7.890625 7.894531 8.101562 7.894531 8.320312 7.894531 C 8.355469 7.71875 8.390625 7.542969 8.425781 7.359375 C 8.601562 7.359375 8.777344 7.359375 8.960938 7.359375 C 9.011719 8.121094 9.011719 8.121094 8.8125 8.480469 C 8.386719 8.722656 7.941406 8.742188 7.464844 8.640625 C 7.1875 8.417969 7.054688 8.292969 6.988281 7.9375 C 6.988281 7.835938 6.988281 7.730469 6.988281 7.625 C 6.988281 7.515625 6.988281 7.402344 6.988281 7.285156 C 6.988281 7.171875 6.992188 7.054688 6.992188 6.933594 C 6.992188 6.816406 6.992188 6.699219 6.992188 6.578125 C 7 5.292969 7 5.292969 7.660156 5.171875 Z M 7.660156 5.171875 "/>
<path style=" stroke:none;fill-rule:nonzero;fill:rgb(98.039216%,95.294118%,94.901961%);fill-opacity:1;" d="M 17.28125 6.71875 C 18.441406 6.71875 19.601562 6.71875 20.800781 6.71875 C 20.398438 7.386719 20.003906 8.035156 19.558594 8.671875 C 19.484375 8.78125 19.484375 8.78125 19.410156 8.890625 C 18.828125 9.734375 18.828125 9.734375 18.558594 10.027344 C 18.214844 10.058594 18.214844 10.058594 17.921875 10.027344 C 18.246094 9.40625 18.605469 8.832031 19.015625 8.261719 C 19.222656 7.964844 19.425781 7.664062 19.625 7.359375 C 18.851562 7.324219 18.078125 7.289062 17.28125 7.253906 C 17.28125 7.078125 17.28125 6.902344 17.28125 6.71875 Z M 17.28125 6.71875 "/>
<path style=" stroke:none;fill-rule:nonzero;fill:rgb(98.039216%,95.686275%,95.294118%);fill-opacity:1;" d="M 2.878906 6.71875 C 4.042969 6.71875 5.203125 6.71875 6.398438 6.71875 C 6.398438 6.894531 6.398438 7.070312 6.398438 7.253906 C 5.625 7.253906 4.851562 7.253906 4.054688 7.253906 C 4.5625 8.054688 5.070312 8.84375 5.628906 9.613281 C 5.761719 9.8125 5.761719 9.8125 5.761719 10.027344 C 5.464844 10.054688 5.464844 10.054688 5.121094 10.027344 C 4.914062 9.835938 4.914062 9.835938 4.734375 9.558594 C 4.664062 9.453125 4.589844 9.351562 4.519531 9.242188 C 4.460938 9.152344 4.460938 9.152344 4.398438 9.058594 C 4.246094 8.824219 4.089844 8.589844 3.929688 8.355469 C 3.703125 8.015625 3.472656 7.675781 3.246094 7.332031 C 3.199219 7.261719 3.152344 7.1875 3.101562 7.113281 C 2.988281 6.933594 2.988281 6.933594 2.878906 6.71875 Z M 2.878906 6.71875 "/>
<path style=" stroke:none;fill-rule:nonzero;fill:rgb(98.431373%,96.862745%,96.470588%);fill-opacity:1;" d="M 9.492188 5.226562 C 9.808594 5.226562 10.125 5.226562 10.453125 5.226562 C 10.453125 5.4375 10.453125 5.648438 10.453125 5.867188 C 10.382812 5.867188 10.3125 5.867188 10.238281 5.867188 C 10.238281 6.570312 10.238281 7.273438 10.238281 8 C 10.453125 8 10.664062 8 10.878906 8 C 10.878906 7.929688 10.878906 7.859375 10.878906 7.785156 C 11.019531 7.785156 11.160156 7.785156 11.308594 7.785156 C 11.308594 8.03125 11.308594 8.28125 11.308594 8.535156 C 10.707031 8.535156 10.109375 8.535156 9.492188 8.535156 C 9.492188 8.355469 9.492188 8.179688 9.492188 8 C 9.5625 8 9.632812 8 9.707031 8 C 9.707031 7.296875 9.707031 6.59375 9.707031 5.867188 C 9.636719 5.867188 9.566406 5.867188 9.492188 5.867188 C 9.492188 5.65625 9.492188 5.445312 9.492188 5.226562 Z M 9.492188 5.226562 "/>
<path style=" stroke:none;fill-rule:nonzero;fill:rgb(89.803922%,21.176471%,23.137255%);fill-opacity:1;" d="M 8.085938 11.503906 C 8.164062 11.507812 8.242188 11.507812 8.320312 11.507812 C 8.398438 11.507812 8.472656 11.507812 8.554688 11.503906 C 8.746094 11.519531 8.746094 11.519531 8.851562 11.625 C 8.863281 11.808594 8.867188 11.988281 8.867188 12.171875 C 8.867188 12.335938 8.867188 12.335938 8.867188 12.503906 C 8.867188 12.617188 8.867188 12.734375 8.867188 12.851562 C 8.867188 12.96875 8.867188 13.085938 8.867188 13.203125 C 8.867188 13.3125 8.867188 13.421875 8.867188 13.535156 C 8.867188 13.636719 8.867188 13.738281 8.867188 13.84375 C 8.851562 14.078125 8.851562 14.078125 8.746094 14.1875 C 8.554688 14.199219 8.554688 14.199219 8.320312 14.199219 C 8.242188 14.199219 8.164062 14.199219 8.085938 14.199219 C 7.894531 14.1875 7.894531 14.1875 7.785156 14.078125 C 7.777344 13.898438 7.773438 13.71875 7.773438 13.535156 C 7.773438 13.371094 7.773438 13.371094 7.773438 13.203125 C 7.773438 13.089844 7.773438 12.972656 7.773438 12.851562 C 7.773438 12.738281 7.773438 12.621094 7.773438 12.503906 C 7.773438 12.394531 7.773438 12.28125 7.773438 12.171875 C 7.773438 12.070312 7.773438 11.96875 7.773438 11.863281 C 7.789062 11.574219 7.796875 11.527344 8.085938 11.503906 Z M 8.085938 11.503906 "/>
<path style=" stroke:none;fill-rule:nonzero;fill:rgb(88.627452%,26.274511%,27.843139%);fill-opacity:1;" d="M 13.011719 5.226562 C 13.082031 5.226562 13.152344 5.226562 13.226562 5.226562 C 13.226562 5.402344 13.226562 5.578125 13.226562 5.761719 C 13.296875 5.761719 13.367188 5.761719 13.441406 5.761719 C 13.441406 6.113281 13.445312 6.464844 13.445312 6.820312 C 13.449219 6.921875 13.449219 7.023438 13.449219 7.125 C 13.449219 7.222656 13.449219 7.316406 13.449219 7.417969 C 13.449219 7.503906 13.453125 7.59375 13.453125 7.683594 C 13.441406 7.894531 13.441406 7.894531 13.332031 8 C 13.011719 8.011719 13.011719 8.011719 12.691406 8 C 12.585938 7.894531 12.585938 7.894531 12.574219 7.695312 C 12.574219 7.609375 12.574219 7.527344 12.578125 7.441406 C 12.578125 7.347656 12.578125 7.257812 12.578125 7.164062 C 12.578125 7.066406 12.578125 6.972656 12.578125 6.875 C 12.582031 6.777344 12.582031 6.679688 12.582031 6.582031 C 12.582031 6.34375 12.585938 6.105469 12.585938 5.867188 C 12.691406 5.867188 12.796875 5.867188 12.90625 5.867188 C 12.90625 5.78125 12.902344 5.695312 12.898438 5.605469 C 12.90625 5.332031 12.90625 5.332031 13.011719 5.226562 Z M 13.011719 5.226562 "/>
<path style=" stroke:none;fill-rule:nonzero;fill:rgb(88.627452%,21.176471%,23.137255%);fill-opacity:1;" d="M 4.585938 11.519531 C 4.902344 11.519531 5.21875 11.519531 5.546875 11.519531 C 5.550781 11.714844 5.550781 11.90625 5.554688 12.101562 C 5.554688 12.207031 5.554688 12.316406 5.558594 12.425781 C 5.546875 12.691406 5.546875 12.691406 5.441406 12.800781 C 5.15625 12.816406 4.871094 12.804688 4.585938 12.800781 C 4.585938 12.378906 4.585938 11.957031 4.585938 11.519531 Z M 4.585938 11.519531 "/>
<path style=" stroke:none;fill-rule:nonzero;fill:rgb(87.450981%,21.176471%,23.529412%);fill-opacity:1;" d="M 15.359375 7.148438 C 15.574219 7.140625 15.785156 7.140625 16 7.148438 C 16.105469 7.253906 16.105469 7.253906 16.121094 7.574219 C 16.105469 7.894531 16.105469 7.894531 16 8 C 15.785156 8.003906 15.574219 8.003906 15.359375 8 C 15.359375 7.71875 15.359375 7.4375 15.359375 7.148438 Z M 15.359375 7.148438 "/>
<path style=" stroke:none;fill-rule:nonzero;fill:rgb(87.843138%,20.392157%,21.960784%);fill-opacity:1;" d="M 15.359375 5.867188 C 15.605469 5.867188 15.851562 5.867188 16.105469 5.867188 C 16.109375 6.078125 16.109375 6.292969 16.105469 6.507812 C 16 6.613281 16 6.613281 15.671875 6.621094 C 15.519531 6.617188 15.519531 6.617188 15.359375 6.613281 C 15.359375 6.367188 15.359375 6.121094 15.359375 5.867188 Z M 15.359375 5.867188 "/>
</g>
</svg>
