<?xml version="1.0" encoding="UTF-8"?>
<svg xmlns="http://www.w3.org/2000/svg" xmlns:xlink="http://www.w3.org/1999/xlink" width="24px" height="24px" viewBox="0 0 24 24" version="1.1">
<g id="surface1">
<path style=" stroke:none;fill-rule:nonzero;fill:rgb(100%,100%,100%);fill-opacity:1;" d="M 7.734375 7.730469 L 15.042969 0.46875 C 15.585938 -0.0742188 16.207031 -0.175781 16.871094 0.46875 L 23.660156 7.21875 C 24.148438 7.703125 24.101562 8.433594 23.660156 8.875 L 8.882812 23.546875 C 8.355469 24.074219 7.660156 24.160156 7.042969 23.546875 L 0.398438 16.941406 C -0.132812 16.414062 -0.0898438 15.582031 0.398438 15.097656 Z M 7.734375 7.730469 "/>
<path style=" stroke:none;fill-rule:nonzero;fill:rgb(0%,39.215687%,56.862748%);fill-opacity:1;" d="M 7.851562 8.476562 L 15.5 16.078125 L 8.546875 22.988281 C 8.117188 23.414062 7.675781 23.429688 7.234375 22.988281 L 0.871094 16.664062 C 0.472656 16.269531 0.5 15.828125 0.871094 15.464844 Z M 7.851562 8.476562 "/>
<path style=" stroke:none;fill-rule:nonzero;fill:rgb(89.019608%,9.411765%,21.568628%);fill-opacity:1;" d="M 15.984375 15.625 L 8.339844 8.023438 L 15.292969 1.113281 C 15.71875 0.6875 16.160156 0.671875 16.605469 1.113281 L 22.96875 7.4375 C 23.367188 7.835938 23.335938 8.273438 22.96875 8.640625 Z M 15.984375 15.625 "/>
<path style=" stroke:none;fill-rule:nonzero;fill:rgb(100%,100%,100%);fill-opacity:1;" d="M 17.828125 8.039062 C 17.828125 7.003906 16.984375 6.164062 15.941406 6.164062 C 14.898438 6.164062 14.054688 7.003906 14.054688 8.039062 C 14.054688 9.074219 14.898438 9.914062 15.941406 9.914062 C 16.984375 9.914062 17.828125 9.074219 17.828125 8.039062 Z M 17.828125 8.039062 "/>
<path style=" stroke:none;fill-rule:nonzero;fill:rgb(100%,100%,100%);fill-opacity:1;" d="M 12.539062 16.078125 C 12.539062 15.042969 11.695312 14.203125 10.652344 14.203125 C 9.609375 14.203125 8.765625 15.042969 8.765625 16.078125 C 8.765625 17.113281 9.609375 17.953125 10.652344 17.953125 C 11.695312 17.953125 12.539062 17.113281 12.539062 16.078125 Z M 12.539062 16.078125 "/>
<path style=" stroke:none;fill-rule:nonzero;fill:rgb(100%,100%,100%);fill-opacity:1;" d="M 7.027344 16.078125 C 7.027344 15.042969 6.183594 14.203125 5.140625 14.203125 C 4.101562 14.203125 3.257812 15.042969 3.257812 16.078125 C 3.257812 17.113281 4.101562 17.953125 5.140625 17.953125 C 6.183594 17.953125 7.027344 17.113281 7.027344 16.078125 Z M 7.027344 16.078125 "/>
</g>
</svg>
