<?xml version="1.0" encoding="UTF-8"?>
<svg xmlns="http://www.w3.org/2000/svg" xmlns:xlink="http://www.w3.org/1999/xlink" width="24px" height="12px" viewBox="0 0 24 12" version="1.1">
<g id="surface1">
<path style=" stroke:none;fill-rule:nonzero;fill:rgb(23.529412%,49.019608%,13.725491%);fill-opacity:1;" d="M 3.976562 2.230469 C 4.003906 2.230469 4.035156 2.230469 4.0625 2.230469 C 4.15625 2.230469 4.25 2.230469 4.34375 2.230469 C 4.414062 2.230469 4.480469 2.230469 4.550781 2.230469 C 4.738281 2.226562 4.925781 2.226562 5.113281 2.226562 C 5.316406 2.226562 5.519531 2.226562 5.71875 2.226562 C 6.117188 2.226562 6.511719 2.226562 6.910156 2.226562 C 7.230469 2.226562 7.554688 2.226562 7.878906 2.226562 C 8.792969 2.226562 9.707031 2.226562 10.621094 2.226562 C 10.695312 2.226562 10.695312 2.226562 10.773438 2.226562 C 10.847656 2.226562 10.847656 2.226562 10.921875 2.226562 C 11.722656 2.226562 12.519531 2.222656 13.320312 2.222656 C 14.140625 2.222656 14.964844 2.222656 15.785156 2.222656 C 16.246094 2.222656 16.707031 2.222656 17.167969 2.21875 C 17.558594 2.21875 17.953125 2.21875 18.347656 2.21875 C 18.546875 2.21875 18.746094 2.21875 18.945312 2.21875 C 19.128906 2.21875 19.3125 2.21875 19.496094 2.21875 C 19.5625 2.21875 19.628906 2.21875 19.695312 2.21875 C 20.371094 2.214844 21 2.320312 21.601562 2.640625 C 21.636719 2.65625 21.671875 2.675781 21.710938 2.691406 C 22.125 2.898438 22.46875 3.203125 22.761719 3.558594 C 22.792969 3.59375 22.828125 3.625 22.863281 3.660156 C 23.46875 4.28125 23.671875 5.191406 23.664062 6.03125 C 23.664062 6.0625 23.664062 6.089844 23.664062 6.121094 C 23.660156 6.605469 23.609375 7.039062 23.398438 7.480469 C 23.386719 7.507812 23.375 7.535156 23.363281 7.5625 C 22.949219 8.445312 22.214844 9.136719 21.320312 9.519531 C 21.164062 9.574219 21.011719 9.613281 20.851562 9.648438 C 20.722656 9.675781 20.722656 9.675781 20.609375 9.722656 C 20.464844 9.765625 20.339844 9.769531 20.1875 9.769531 C 20.160156 9.769531 20.128906 9.769531 20.101562 9.769531 C 20.003906 9.769531 19.910156 9.769531 19.8125 9.769531 C 19.742188 9.769531 19.675781 9.769531 19.605469 9.769531 C 19.414062 9.773438 19.222656 9.773438 19.03125 9.773438 C 18.824219 9.773438 18.617188 9.773438 18.414062 9.773438 C 18.007812 9.773438 17.605469 9.773438 17.199219 9.773438 C 16.871094 9.773438 16.542969 9.773438 16.214844 9.773438 C 15.285156 9.773438 14.351562 9.773438 13.421875 9.773438 C 13.34375 9.773438 13.34375 9.773438 13.269531 9.773438 C 13.21875 9.773438 13.167969 9.773438 13.117188 9.773438 C 12.300781 9.773438 11.488281 9.777344 10.671875 9.777344 C 9.835938 9.777344 9 9.777344 8.164062 9.777344 C 7.691406 9.777344 7.222656 9.777344 6.753906 9.78125 C 6.355469 9.78125 5.953125 9.78125 5.554688 9.78125 C 5.351562 9.78125 5.144531 9.78125 4.941406 9.78125 C 4.753906 9.78125 4.566406 9.78125 4.382812 9.78125 C 4.3125 9.78125 4.246094 9.78125 4.179688 9.78125 C 3.574219 9.785156 3.035156 9.683594 2.484375 9.410156 C 2.449219 9.394531 2.414062 9.375 2.375 9.355469 C 2.113281 9.226562 1.894531 9.082031 1.679688 8.878906 C 1.636719 8.847656 1.59375 8.8125 1.550781 8.78125 C 1.40625 8.652344 1.285156 8.511719 1.160156 8.359375 C 1.140625 8.335938 1.121094 8.3125 1.101562 8.289062 C 0.582031 7.644531 0.335938 6.859375 0.335938 6.042969 C 0.335938 6.015625 0.335938 5.988281 0.335938 5.960938 C 0.34375 4.953125 0.71875 4.035156 1.4375 3.324219 C 1.515625 3.25 1.597656 3.183594 1.679688 3.121094 C 1.710938 3.09375 1.742188 3.070312 1.773438 3.042969 C 2.257812 2.671875 2.769531 2.453125 3.359375 2.320312 C 3.410156 2.304688 3.460938 2.292969 3.511719 2.277344 C 3.667969 2.238281 3.8125 2.230469 3.976562 2.230469 Z M 3.976562 2.230469 "/>
<path style=" stroke:none;fill-rule:nonzero;fill:rgb(74.117649%,62.7451%,29.803923%);fill-opacity:1;" d="M 3.976562 2.230469 C 4.003906 2.230469 4.035156 2.230469 4.0625 2.230469 C 4.15625 2.230469 4.25 2.230469 4.34375 2.230469 C 4.414062 2.230469 4.480469 2.230469 4.550781 2.230469 C 4.738281 2.226562 4.925781 2.226562 5.113281 2.226562 C 5.316406 2.226562 5.519531 2.226562 5.71875 2.226562 C 6.117188 2.226562 6.511719 2.226562 6.910156 2.226562 C 7.230469 2.226562 7.554688 2.226562 7.878906 2.226562 C 8.792969 2.226562 9.707031 2.226562 10.621094 2.226562 C 10.695312 2.226562 10.695312 2.226562 10.773438 2.226562 C 10.847656 2.226562 10.847656 2.226562 10.921875 2.226562 C 11.722656 2.226562 12.519531 2.222656 13.320312 2.222656 C 14.140625 2.222656 14.964844 2.222656 15.785156 2.222656 C 16.246094 2.222656 16.707031 2.222656 17.167969 2.21875 C 17.558594 2.21875 17.953125 2.21875 18.347656 2.21875 C 18.546875 2.21875 18.746094 2.21875 18.945312 2.21875 C 19.128906 2.21875 19.3125 2.21875 19.496094 2.21875 C 19.5625 2.21875 19.628906 2.21875 19.695312 2.21875 C 20.371094 2.214844 21 2.320312 21.601562 2.640625 C 21.636719 2.65625 21.671875 2.675781 21.710938 2.691406 C 22.125 2.898438 22.46875 3.203125 22.761719 3.558594 C 22.792969 3.59375 22.828125 3.625 22.863281 3.660156 C 23.46875 4.28125 23.671875 5.191406 23.664062 6.03125 C 23.664062 6.0625 23.664062 6.089844 23.664062 6.121094 C 23.660156 6.605469 23.609375 7.039062 23.398438 7.480469 C 23.386719 7.507812 23.375 7.535156 23.363281 7.5625 C 22.949219 8.445312 22.214844 9.136719 21.320312 9.519531 C 21.164062 9.574219 21.011719 9.613281 20.851562 9.648438 C 20.722656 9.675781 20.722656 9.675781 20.609375 9.722656 C 20.464844 9.765625 20.339844 9.769531 20.1875 9.769531 C 20.160156 9.769531 20.128906 9.769531 20.101562 9.769531 C 20.003906 9.769531 19.910156 9.769531 19.8125 9.769531 C 19.742188 9.769531 19.675781 9.769531 19.605469 9.769531 C 19.414062 9.773438 19.222656 9.773438 19.03125 9.773438 C 18.824219 9.773438 18.617188 9.773438 18.414062 9.773438 C 18.007812 9.773438 17.605469 9.773438 17.199219 9.773438 C 16.871094 9.773438 16.542969 9.773438 16.214844 9.773438 C 15.285156 9.773438 14.351562 9.773438 13.421875 9.773438 C 13.34375 9.773438 13.34375 9.773438 13.269531 9.773438 C 13.21875 9.773438 13.167969 9.773438 13.117188 9.773438 C 12.300781 9.773438 11.488281 9.777344 10.671875 9.777344 C 9.835938 9.777344 9 9.777344 8.164062 9.777344 C 7.691406 9.777344 7.222656 9.777344 6.753906 9.78125 C 6.355469 9.78125 5.953125 9.78125 5.554688 9.78125 C 5.351562 9.78125 5.144531 9.78125 4.941406 9.78125 C 4.753906 9.78125 4.566406 9.78125 4.382812 9.78125 C 4.3125 9.78125 4.246094 9.78125 4.179688 9.78125 C 3.574219 9.785156 3.035156 9.683594 2.484375 9.410156 C 2.449219 9.394531 2.414062 9.375 2.375 9.355469 C 2.113281 9.226562 1.894531 9.082031 1.679688 8.878906 C 1.636719 8.847656 1.59375 8.8125 1.550781 8.78125 C 1.40625 8.652344 1.285156 8.511719 1.160156 8.359375 C 1.140625 8.335938 1.121094 8.3125 1.101562 8.289062 C 0.582031 7.644531 0.335938 6.859375 0.335938 6.042969 C 0.335938 6.015625 0.335938 5.988281 0.335938 5.960938 C 0.34375 4.953125 0.71875 4.035156 1.4375 3.324219 C 1.515625 3.25 1.597656 3.183594 1.679688 3.121094 C 1.710938 3.09375 1.742188 3.070312 1.773438 3.042969 C 2.257812 2.671875 2.769531 2.453125 3.359375 2.320312 C 3.410156 2.304688 3.460938 2.292969 3.511719 2.277344 C 3.667969 2.238281 3.8125 2.230469 3.976562 2.230469 Z M 1.613281 3.871094 C 1.152344 4.425781 0.898438 5.082031 0.839844 5.800781 C 0.835938 5.832031 0.835938 5.867188 0.832031 5.898438 C 0.796875 6.683594 1.089844 7.425781 1.558594 8.039062 C 1.582031 8.070312 1.601562 8.101562 1.625 8.132812 C 1.644531 8.15625 1.660156 8.175781 1.679688 8.199219 C 1.707031 8.199219 1.734375 8.199219 1.761719 8.199219 C 1.773438 8.234375 1.773438 8.234375 1.789062 8.269531 C 2.082031 8.78125 2.828125 9.015625 3.359375 9.179688 C 3.550781 9.230469 3.726562 9.246094 3.925781 9.246094 C 3.953125 9.246094 3.980469 9.246094 4.011719 9.246094 C 4.105469 9.246094 4.199219 9.246094 4.296875 9.246094 C 4.363281 9.246094 4.433594 9.246094 4.503906 9.246094 C 4.691406 9.246094 4.882812 9.246094 5.070312 9.246094 C 5.277344 9.246094 5.480469 9.246094 5.683594 9.246094 C 6.179688 9.25 6.671875 9.25 7.164062 9.25 C 7.398438 9.25 7.628906 9.25 7.863281 9.25 C 8.636719 9.25 9.40625 9.25 10.179688 9.25 C 10.382812 9.25 10.582031 9.25 10.78125 9.25 C 10.859375 9.25 10.859375 9.25 10.933594 9.25 C 11.742188 9.253906 12.546875 9.253906 13.355469 9.253906 C 14.183594 9.253906 15.011719 9.257812 15.84375 9.257812 C 16.308594 9.257812 16.773438 9.257812 17.238281 9.257812 C 17.636719 9.257812 18.03125 9.257812 18.429688 9.257812 C 18.628906 9.257812 18.832031 9.257812 19.035156 9.257812 C 19.21875 9.261719 19.40625 9.261719 19.589844 9.257812 C 19.65625 9.257812 19.722656 9.257812 19.789062 9.261719 C 20.761719 9.265625 21.570312 8.941406 22.273438 8.261719 C 22.863281 7.648438 23.183594 6.855469 23.214844 6 C 23.1875 5.113281 22.847656 4.308594 22.246094 3.664062 C 21.886719 3.328125 21.445312 3.039062 20.976562 2.894531 C 20.949219 2.886719 20.925781 2.878906 20.898438 2.871094 C 20.421875 2.722656 19.9375 2.707031 19.445312 2.710938 C 19.375 2.710938 19.308594 2.710938 19.242188 2.710938 C 19.058594 2.707031 18.875 2.707031 18.691406 2.707031 C 18.492188 2.710938 18.296875 2.707031 18.097656 2.707031 C 17.710938 2.707031 17.320312 2.707031 16.933594 2.707031 C 16.617188 2.707031 16.304688 2.707031 15.988281 2.707031 C 15.945312 2.707031 15.898438 2.707031 15.851562 2.707031 C 15.761719 2.707031 15.667969 2.707031 15.578125 2.707031 C 14.722656 2.707031 13.867188 2.707031 13.011719 2.707031 C 12.230469 2.707031 11.449219 2.707031 10.667969 2.707031 C 9.863281 2.707031 9.058594 2.707031 8.253906 2.707031 C 7.804688 2.707031 7.351562 2.707031 6.902344 2.703125 C 6.519531 2.703125 6.136719 2.703125 5.75 2.703125 C 5.554688 2.703125 5.359375 2.707031 5.164062 2.703125 C 4.984375 2.703125 4.804688 2.703125 4.625 2.703125 C 4.5625 2.703125 4.496094 2.703125 4.433594 2.703125 C 3.320312 2.699219 2.382812 3.042969 1.613281 3.871094 Z M 1.613281 3.871094 "/>
<path style=" stroke:none;fill-rule:nonzero;fill:rgb(88.235295%,76.47059%,44.313726%);fill-opacity:1;" d="M 3.976562 2.230469 C 4.003906 2.230469 4.035156 2.230469 4.0625 2.230469 C 4.15625 2.230469 4.25 2.230469 4.34375 2.230469 C 4.414062 2.230469 4.480469 2.230469 4.550781 2.230469 C 4.738281 2.226562 4.925781 2.226562 5.113281 2.226562 C 5.316406 2.226562 5.519531 2.226562 5.71875 2.226562 C 6.117188 2.226562 6.511719 2.226562 6.910156 2.226562 C 7.230469 2.226562 7.554688 2.226562 7.878906 2.226562 C 8.792969 2.226562 9.707031 2.226562 10.621094 2.226562 C 10.695312 2.226562 10.695312 2.226562 10.773438 2.226562 C 10.847656 2.226562 10.847656 2.226562 10.921875 2.226562 C 11.722656 2.226562 12.519531 2.222656 13.320312 2.222656 C 14.140625 2.222656 14.964844 2.222656 15.785156 2.222656 C 16.246094 2.222656 16.707031 2.222656 17.167969 2.21875 C 17.558594 2.21875 17.953125 2.21875 18.347656 2.21875 C 18.546875 2.21875 18.746094 2.21875 18.945312 2.21875 C 19.128906 2.21875 19.3125 2.21875 19.496094 2.21875 C 19.5625 2.21875 19.628906 2.21875 19.695312 2.21875 C 20.371094 2.214844 21 2.320312 21.601562 2.640625 C 21.636719 2.65625 21.671875 2.675781 21.710938 2.691406 C 22.125 2.898438 22.46875 3.203125 22.761719 3.558594 C 22.792969 3.59375 22.828125 3.625 22.863281 3.660156 C 22.972656 3.773438 23.046875 3.886719 23.128906 4.023438 C 23.15625 4.066406 23.179688 4.113281 23.210938 4.15625 C 23.234375 4.199219 23.257812 4.238281 23.28125 4.28125 C 23.296875 4.308594 23.3125 4.339844 23.332031 4.367188 C 23.359375 4.441406 23.359375 4.441406 23.320312 4.558594 C 23.203125 4.527344 23.203125 4.527344 23.078125 4.480469 C 23.066406 4.441406 23.054688 4.402344 23.039062 4.359375 C 23.015625 4.46875 23 4.566406 23 4.679688 C 22.84375 4.628906 22.832031 4.566406 22.753906 4.421875 C 22.34375 3.699219 21.703125 3.152344 20.90625 2.90625 C 20.410156 2.78125 19.929688 2.742188 19.425781 2.746094 C 19.355469 2.746094 19.289062 2.746094 19.222656 2.746094 C 19.039062 2.742188 18.855469 2.742188 18.671875 2.746094 C 18.476562 2.746094 18.277344 2.746094 18.078125 2.742188 C 17.691406 2.742188 17.304688 2.742188 16.917969 2.742188 C 16.601562 2.742188 16.289062 2.742188 15.972656 2.742188 C 15.929688 2.742188 15.882812 2.742188 15.835938 2.742188 C 15.746094 2.742188 15.65625 2.742188 15.5625 2.742188 C 14.710938 2.742188 13.855469 2.742188 13 2.746094 C 12.269531 2.746094 11.535156 2.746094 10.804688 2.746094 C 9.953125 2.742188 9.101562 2.742188 8.25 2.742188 C 8.15625 2.742188 8.066406 2.742188 7.976562 2.742188 C 7.929688 2.742188 7.886719 2.742188 7.839844 2.742188 C 7.527344 2.742188 7.210938 2.742188 6.898438 2.742188 C 6.515625 2.742188 6.132812 2.742188 5.746094 2.742188 C 5.550781 2.746094 5.355469 2.746094 5.160156 2.742188 C 4.984375 2.742188 4.804688 2.742188 4.625 2.746094 C 4.558594 2.746094 4.496094 2.746094 4.429688 2.746094 C 3.402344 2.738281 2.503906 3.027344 1.761719 3.761719 C 1.515625 4.003906 1.34375 4.308594 1.160156 4.601562 C 1.121094 4.519531 1.121094 4.519531 1.121094 4.398438 C 1.0625 4.417969 1.0625 4.417969 1 4.441406 C 0.988281 4.480469 0.972656 4.519531 0.960938 4.558594 C 0.921875 4.546875 0.878906 4.535156 0.839844 4.519531 C 0.828125 4.492188 0.8125 4.46875 0.800781 4.441406 C 0.691406 4.605469 0.625 4.773438 0.558594 4.960938 C 0.535156 4.945312 0.507812 4.933594 0.480469 4.921875 C 0.722656 4.214844 1.085938 3.585938 1.679688 3.121094 C 1.710938 3.09375 1.742188 3.070312 1.773438 3.042969 C 2.257812 2.671875 2.769531 2.453125 3.359375 2.320312 C 3.410156 2.304688 3.460938 2.292969 3.511719 2.277344 C 3.667969 2.238281 3.8125 2.230469 3.976562 2.230469 Z M 3.976562 2.230469 "/>
<path style=" stroke:none;fill-rule:nonzero;fill:rgb(92.156863%,94.901961%,91.37255%);fill-opacity:1;" d="M 15.640625 4.199219 C 15.667969 4.199219 15.691406 4.199219 15.71875 4.199219 C 15.679688 4.328125 15.636719 4.449219 15.582031 4.570312 C 15.515625 4.71875 15.488281 4.863281 15.460938 5.019531 C 15.449219 5.074219 15.441406 5.132812 15.429688 5.1875 C 15.425781 5.214844 15.421875 5.242188 15.414062 5.273438 C 15.390625 5.414062 15.359375 5.558594 15.332031 5.699219 C 15.324219 5.75 15.3125 5.800781 15.300781 5.851562 C 15.292969 5.886719 15.289062 5.921875 15.28125 5.960938 C 15.425781 5.960938 15.570312 5.960938 15.71875 5.960938 C 15.5625 6.117188 15.492188 6.101562 15.28125 6.121094 C 15.277344 6.152344 15.273438 6.183594 15.269531 6.21875 C 15.15625 7.035156 15.15625 7.035156 14.878906 7.28125 C 14.898438 7.203125 14.898438 7.203125 14.917969 7.125 C 14.964844 6.917969 14.984375 6.710938 15.003906 6.496094 C 15.011719 6.441406 15.011719 6.441406 15.015625 6.386719 C 15.023438 6.296875 15.03125 6.207031 15.039062 6.121094 C 15.011719 6.121094 14.984375 6.121094 14.953125 6.121094 C 14.738281 6.125 14.53125 6.117188 14.320312 6.078125 C 14.3125 6.113281 14.300781 6.144531 14.292969 6.179688 C 14.164062 6.527344 13.933594 6.84375 13.605469 7.023438 C 13.257812 7.171875 12.933594 7.253906 12.554688 7.253906 C 12.523438 7.257812 12.492188 7.257812 12.460938 7.257812 C 12.242188 7.257812 12.128906 7.21875 11.960938 7.078125 C 11.921875 7.039062 11.921875 7.039062 11.90625 6.890625 C 11.910156 6.742188 11.941406 6.648438 12.050781 6.535156 C 12.328125 6.308594 12.640625 6.1875 12.980469 6.085938 C 13.019531 6.074219 13.058594 6.0625 13.097656 6.050781 C 13.480469 5.9375 13.84375 5.914062 14.238281 5.921875 C 14.234375 5.78125 14.226562 5.644531 14.222656 5.503906 C 14.222656 5.464844 14.21875 5.429688 14.21875 5.386719 C 14.214844 5.347656 14.214844 5.3125 14.210938 5.273438 C 14.210938 5.234375 14.210938 5.195312 14.207031 5.15625 C 14.199219 5.007812 14.175781 4.867188 14.152344 4.722656 C 14.160156 4.640625 14.160156 4.640625 14.234375 4.570312 C 14.320312 4.519531 14.320312 4.519531 14.398438 4.519531 C 14.484375 4.6875 14.449219 4.902344 14.449219 5.085938 C 14.449219 5.128906 14.449219 5.175781 14.449219 5.21875 C 14.449219 5.265625 14.449219 5.308594 14.449219 5.351562 C 14.449219 5.390625 14.449219 5.433594 14.449219 5.472656 C 14.441406 5.601562 14.441406 5.601562 14.359375 5.921875 C 14.597656 5.921875 14.835938 5.921875 15.078125 5.921875 C 15.089844 5.828125 15.097656 5.738281 15.105469 5.644531 C 15.160156 5.164062 15.292969 4.558594 15.640625 4.199219 Z M 15.640625 4.199219 "/>
<path style=" stroke:none;fill-rule:nonzero;fill:rgb(80.784315%,69.01961%,36.470589%);fill-opacity:1;" d="M 1.039062 4.359375 C 1.078125 4.375 1.121094 4.386719 1.160156 4.398438 C 1.152344 4.617188 1.125 4.808594 1.042969 5.011719 C 0.734375 5.796875 0.882812 6.632812 1.191406 7.390625 C 1.238281 7.519531 1.238281 7.519531 1.238281 7.640625 C 1.160156 7.507812 1.078125 7.375 1 7.238281 C 0.988281 7.304688 0.972656 7.371094 0.960938 7.441406 C 0.988281 7.453125 1.011719 7.464844 1.039062 7.480469 C 1.039062 7.515625 1.035156 7.546875 1.035156 7.582031 C 1.042969 7.761719 1.082031 7.921875 1.160156 8.078125 C 1.121094 8.101562 1.121094 8.101562 1.078125 8.121094 C 1.066406 8.144531 1.054688 8.171875 1.039062 8.199219 C 0.582031 7.574219 0.335938 6.871094 0.34375 6.097656 C 0.34375 6.015625 0.34375 5.933594 0.34375 5.851562 C 0.34375 5.546875 0.367188 5.285156 0.480469 5 C 0.492188 4.972656 0.5 4.949219 0.511719 4.921875 C 0.539062 4.855469 0.570312 4.785156 0.601562 4.71875 C 0.621094 4.675781 0.644531 4.632812 0.664062 4.585938 C 0.71875 4.480469 0.71875 4.480469 0.800781 4.398438 C 0.851562 4.453125 0.90625 4.503906 0.960938 4.558594 C 0.964844 4.535156 0.972656 4.507812 0.976562 4.484375 C 1 4.398438 1 4.398438 1.039062 4.359375 Z M 1.039062 4.359375 "/>
<path style=" stroke:none;fill-rule:nonzero;fill:rgb(81.176472%,69.01961%,35.686275%);fill-opacity:1;" d="M 23.039062 4.28125 C 23.054688 4.28125 23.066406 4.28125 23.078125 4.28125 C 23.078125 4.347656 23.078125 4.410156 23.078125 4.480469 C 23.117188 4.484375 23.152344 4.488281 23.191406 4.492188 C 23.332031 4.523438 23.355469 4.53125 23.441406 4.640625 C 23.632812 5.082031 23.675781 5.515625 23.667969 5.992188 C 23.667969 6.023438 23.667969 6.054688 23.667969 6.085938 C 23.660156 6.769531 23.53125 7.335938 23.160156 7.921875 C 23.148438 7.921875 23.132812 7.921875 23.121094 7.921875 C 23.101562 7.800781 23.101562 7.800781 23.078125 7.679688 C 23.105469 7.667969 23.132812 7.65625 23.15625 7.644531 C 23.246094 7.605469 23.246094 7.605469 23.28125 7.519531 C 23.242188 7.53125 23.242188 7.53125 23.207031 7.546875 C 23.121094 7.558594 23.121094 7.558594 23 7.480469 C 22.988281 7.441406 22.972656 7.402344 22.960938 7.359375 C 22.949219 7.335938 22.941406 7.3125 22.933594 7.285156 C 22.914062 7.167969 22.949219 7.09375 22.992188 6.980469 C 23.242188 6.269531 23.230469 5.480469 22.90625 4.792969 C 22.894531 4.757812 22.894531 4.757812 22.878906 4.71875 C 22.894531 4.695312 22.90625 4.667969 22.921875 4.640625 C 22.945312 4.652344 22.972656 4.667969 23 4.679688 C 22.992188 4.636719 22.984375 4.59375 22.976562 4.546875 C 22.960938 4.398438 22.960938 4.398438 23.039062 4.28125 Z M 23.039062 4.28125 "/>
<path style=" stroke:none;fill-rule:nonzero;fill:rgb(24.705882%,49.803922%,15.294118%);fill-opacity:1;" d="M 14.199219 6.078125 C 14.148438 6.390625 13.960938 6.589844 13.71875 6.78125 C 13.335938 7.023438 12.867188 7.050781 12.425781 7.050781 C 12.394531 7.050781 12.359375 7.054688 12.328125 7.054688 C 12.089844 7.050781 12.089844 7.050781 12 6.960938 C 11.984375 6.84375 11.984375 6.785156 12.050781 6.6875 C 12.671875 6.15625 13.402344 6.042969 14.199219 6.078125 Z M 14.199219 6.078125 "/>
<path style=" stroke:none;fill-rule:nonzero;fill:rgb(25.098041%,49.803922%,15.686275%);fill-opacity:1;" d="M 17.003906 6.199219 C 17.109375 6.363281 17.113281 6.488281 17.078125 6.679688 C 16.996094 6.945312 16.84375 7.101562 16.605469 7.246094 C 16.449219 7.308594 16.285156 7.300781 16.121094 7.28125 C 16.003906 7.207031 15.941406 7.164062 15.878906 7.039062 C 15.847656 6.777344 15.929688 6.605469 16.078125 6.398438 C 16.324219 6.140625 16.671875 5.988281 17.003906 6.199219 Z M 17.003906 6.199219 "/>
<path style=" stroke:none;fill-rule:nonzero;fill:rgb(96.078432%,97.254902%,95.294118%);fill-opacity:1;" d="M 10.664062 6.203125 C 10.730469 6.292969 10.746094 6.355469 10.738281 6.46875 C 10.695312 6.679688 10.605469 6.878906 10.519531 7.078125 C 10.652344 7.066406 10.785156 7.054688 10.921875 7.039062 C 10.859375 7.140625 10.859375 7.140625 10.761719 7.238281 C 10.617188 7.261719 10.527344 7.269531 10.402344 7.1875 C 10.359375 7.121094 10.359375 7.121094 10.359375 7 C 10.328125 7.027344 10.328125 7.027344 10.292969 7.050781 C 10.097656 7.195312 9.960938 7.265625 9.71875 7.261719 C 9.617188 7.234375 9.582031 7.203125 9.519531 7.121094 C 9.488281 6.886719 9.523438 6.75 9.65625 6.554688 C 9.914062 6.246094 10.261719 6.035156 10.664062 6.203125 Z M 10.664062 6.203125 "/>
<path style=" stroke:none;fill-rule:nonzero;fill:rgb(91.37255%,94.117647%,90.196079%);fill-opacity:1;" d="M 4.960938 4.671875 C 5.410156 4.640625 5.75 4.6875 6.113281 4.980469 C 6.28125 5.160156 6.265625 5.390625 6.257812 5.628906 C 6.222656 5.898438 6.085938 6.0625 5.871094 6.226562 C 5.578125 6.4375 5.273438 6.429688 4.921875 6.398438 C 4.820312 6.359375 4.820312 6.359375 4.761719 6.320312 C 4.78125 6.28125 4.78125 6.28125 4.800781 6.238281 C 4.824219 6.238281 4.847656 6.238281 4.875 6.238281 C 4.984375 6.234375 5.09375 6.230469 5.203125 6.226562 C 5.261719 6.226562 5.261719 6.226562 5.320312 6.226562 C 5.589844 6.214844 5.78125 6.183594 5.976562 5.976562 C 6.078125 5.761719 6.085938 5.566406 6.007812 5.339844 C 5.894531 5.113281 5.75 4.988281 5.519531 4.878906 C 5.363281 4.828125 5.21875 4.835938 5.054688 4.835938 C 5.023438 4.835938 4.988281 4.835938 4.957031 4.835938 C 4.332031 4.839844 3.710938 4.953125 3.238281 5.398438 C 3.179688 5.519531 3.1875 5.585938 3.199219 5.71875 C 3.230469 5.785156 3.265625 5.847656 3.300781 5.910156 C 3.414062 6.117188 3.421875 6.289062 3.398438 6.519531 C 3.265625 6.394531 3.195312 6.25 3.113281 6.085938 C 3.097656 6.058594 3.082031 6.03125 3.066406 6.003906 C 2.984375 5.835938 2.929688 5.710938 2.960938 5.519531 C 3.179688 5.113281 3.660156 4.949219 4.074219 4.824219 C 4.367188 4.742188 4.660156 4.699219 4.960938 4.671875 Z M 4.960938 4.671875 "/>
<path style=" stroke:none;fill-rule:nonzero;fill:rgb(94.901961%,96.470588%,94.117647%);fill-opacity:1;" d="M 5 5.121094 C 5.027344 5.132812 5.054688 5.144531 5.078125 5.160156 C 5.050781 5.199219 5.023438 5.238281 4.992188 5.28125 C 4.792969 5.597656 4.710938 5.992188 4.621094 6.351562 C 4.539062 6.652344 4.421875 6.953125 4.152344 7.125 C 3.976562 7.21875 3.832031 7.246094 3.632812 7.242188 C 3.582031 7.242188 3.535156 7.242188 3.484375 7.242188 C 3.410156 7.242188 3.410156 7.242188 3.332031 7.242188 C 3.257812 7.242188 3.257812 7.242188 3.179688 7.242188 C 3.050781 7.242188 2.925781 7.242188 2.800781 7.238281 C 2.921875 7.097656 3.046875 7.046875 3.234375 7.03125 C 3.273438 7.03125 3.3125 7.03125 3.355469 7.03125 C 3.421875 7.03125 3.421875 7.03125 3.488281 7.027344 C 3.578125 7.027344 3.671875 7.027344 3.765625 7.027344 C 3.828125 7.027344 3.828125 7.027344 3.898438 7.027344 C 3.9375 7.023438 3.976562 7.023438 4.019531 7.023438 C 4.128906 7.007812 4.128906 7.007812 4.191406 6.910156 C 4.234375 6.808594 4.265625 6.722656 4.285156 6.617188 C 4.296875 6.566406 4.296875 6.566406 4.308594 6.511719 C 4.320312 6.457031 4.320312 6.457031 4.328125 6.402344 C 4.441406 5.910156 4.59375 5.449219 5 5.121094 Z M 5 5.121094 "/>
<path style=" stroke:none;fill-rule:nonzero;fill:rgb(91.764706%,94.117647%,90.588236%);fill-opacity:1;" d="M 9.039062 5.320312 C 9.066406 5.320312 9.09375 5.320312 9.121094 5.320312 C 9.070312 5.601562 9.015625 5.878906 8.960938 6.160156 C 9.09375 6.160156 9.222656 6.160156 9.359375 6.160156 C 9.359375 6.199219 9.359375 6.238281 9.359375 6.28125 C 9.203125 6.28125 9.042969 6.28125 8.878906 6.28125 C 8.863281 6.359375 8.863281 6.359375 8.851562 6.4375 C 8.804688 6.636719 8.730469 6.816406 8.640625 7 C 8.714844 7 8.792969 7 8.871094 7.003906 C 8.914062 7.003906 8.957031 7.003906 9 7.003906 C 9.101562 7 9.183594 6.988281 9.28125 6.960938 C 9.089844 7.195312 9.089844 7.195312 9 7.238281 C 8.898438 7.242188 8.796875 7.242188 8.695312 7.242188 C 8.597656 7.242188 8.5 7.242188 8.398438 7.238281 C 8.480469 6.921875 8.558594 6.605469 8.640625 6.28125 C 8.601562 6.28125 8.5625 6.28125 8.519531 6.28125 C 8.519531 6.242188 8.519531 6.199219 8.519531 6.160156 C 8.585938 6.160156 8.652344 6.160156 8.71875 6.160156 C 8.722656 6.128906 8.726562 6.097656 8.730469 6.066406 C 8.78125 5.804688 8.859375 5.523438 9.039062 5.320312 Z M 9.039062 5.320312 "/>
<path style=" stroke:none;fill-rule:nonzero;fill:rgb(90.196079%,93.333334%,88.627452%);fill-opacity:1;" d="M 17.480469 6.039062 C 17.558594 6.09375 17.558594 6.09375 17.640625 6.199219 C 17.679688 6.472656 17.628906 6.765625 17.601562 7.039062 C 17.648438 7.035156 17.699219 7.035156 17.75 7.03125 C 17.777344 7.027344 17.804688 7.027344 17.835938 7.023438 C 17.957031 6.988281 18.003906 6.941406 18.078125 6.839844 C 18.121094 6.730469 18.144531 6.621094 18.171875 6.511719 C 18.175781 6.480469 18.183594 6.449219 18.191406 6.417969 C 18.207031 6.347656 18.222656 6.273438 18.238281 6.199219 C 18.292969 6.199219 18.34375 6.199219 18.398438 6.199219 C 18.421875 6.53125 18.386719 6.78125 18.238281 7.078125 C 18.296875 7.066406 18.355469 7.054688 18.414062 7.042969 C 18.449219 7.035156 18.480469 7.027344 18.511719 7.019531 C 18.601562 7.003906 18.601562 7.003906 18.679688 6.960938 C 18.628906 7.074219 18.585938 7.167969 18.480469 7.238281 C 18.339844 7.257812 18.339844 7.257812 18.199219 7.238281 C 18.121094 7.160156 18.121094 7.160156 18.078125 7.078125 C 17.988281 7.125 17.90625 7.167969 17.824219 7.226562 C 17.71875 7.28125 17.71875 7.28125 17.597656 7.28125 C 17.441406 7.226562 17.394531 7.183594 17.320312 7.039062 C 17.308594 6.824219 17.371094 6.636719 17.453125 6.441406 C 17.496094 6.304688 17.488281 6.179688 17.480469 6.039062 Z M 17.480469 6.039062 "/>
<path style=" stroke:none;fill-rule:nonzero;fill:rgb(25.490198%,50.196081%,16.078432%);fill-opacity:1;" d="M 10.347656 6.234375 C 10.394531 6.234375 10.394531 6.234375 10.441406 6.234375 C 10.519531 6.238281 10.519531 6.238281 10.558594 6.28125 C 10.554688 6.5625 10.460938 6.746094 10.28125 6.960938 C 10.171875 7.058594 10.101562 7.097656 9.953125 7.09375 C 9.800781 7.078125 9.800781 7.078125 9.71875 7 C 9.703125 6.785156 9.734375 6.605469 9.871094 6.441406 C 10.015625 6.289062 10.140625 6.230469 10.347656 6.234375 Z M 10.347656 6.234375 "/>
<path style=" stroke:none;fill-rule:nonzero;fill:rgb(93.333334%,95.294118%,92.156863%);fill-opacity:1;" d="M 17.003906 6.199219 C 17.109375 6.363281 17.113281 6.488281 17.078125 6.679688 C 16.996094 6.945312 16.84375 7.101562 16.605469 7.246094 C 16.449219 7.308594 16.285156 7.300781 16.121094 7.28125 C 16.003906 7.207031 15.941406 7.164062 15.878906 7.039062 C 15.847656 6.777344 15.929688 6.605469 16.078125 6.398438 C 16.324219 6.140625 16.671875 5.988281 17.003906 6.199219 Z M 16.164062 6.449219 C 16.070312 6.601562 16.050781 6.746094 16.078125 6.921875 C 16.121094 7.011719 16.121094 7.011719 16.199219 7.078125 C 16.3125 7.105469 16.3125 7.105469 16.433594 7.101562 C 16.496094 7.101562 16.496094 7.101562 16.558594 7.101562 C 16.710938 7.074219 16.777344 7.035156 16.878906 6.921875 C 16.910156 6.796875 16.910156 6.796875 16.898438 6.660156 C 16.898438 6.613281 16.898438 6.570312 16.898438 6.523438 C 16.878906 6.390625 16.859375 6.332031 16.761719 6.238281 C 16.492188 6.164062 16.320312 6.230469 16.164062 6.449219 Z M 16.164062 6.449219 "/>
<path style=" stroke:none;fill-rule:nonzero;fill:rgb(92.156863%,94.509804%,90.980393%);fill-opacity:1;" d="M 20.871094 6.148438 C 20.898438 6.152344 20.925781 6.152344 20.953125 6.152344 C 21.023438 6.152344 21.089844 6.15625 21.160156 6.160156 C 21.148438 6.226562 21.132812 6.292969 21.121094 6.359375 C 21.03125 6.386719 21.03125 6.386719 20.921875 6.398438 C 20.851562 6.359375 20.785156 6.320312 20.71875 6.28125 C 20.609375 6.289062 20.609375 6.289062 20.519531 6.320312 C 20.53125 6.371094 20.546875 6.425781 20.558594 6.480469 C 20.738281 6.519531 20.738281 6.519531 20.921875 6.558594 C 20.90625 6.613281 20.894531 6.664062 20.878906 6.71875 C 20.851562 6.722656 20.824219 6.730469 20.796875 6.734375 C 20.757812 6.738281 20.722656 6.746094 20.683594 6.753906 C 20.648438 6.757812 20.613281 6.765625 20.574219 6.769531 C 20.464844 6.792969 20.464844 6.792969 20.398438 6.921875 C 20.398438 6.960938 20.398438 7 20.398438 7.039062 C 20.5 7.042969 20.601562 7.046875 20.703125 7.046875 C 20.746094 7.050781 20.746094 7.050781 20.792969 7.050781 C 20.984375 7.054688 21.109375 7.023438 21.28125 6.921875 C 21.234375 7.0625 21.152344 7.140625 21.023438 7.210938 C 20.878906 7.253906 20.738281 7.253906 20.589844 7.253906 C 20.5625 7.253906 20.535156 7.253906 20.503906 7.253906 C 20.355469 7.253906 20.285156 7.246094 20.160156 7.160156 C 20.175781 6.90625 20.175781 6.90625 20.296875 6.78125 C 20.398438 6.71875 20.398438 6.71875 20.480469 6.71875 C 20.460938 6.699219 20.4375 6.675781 20.417969 6.65625 C 20.359375 6.558594 20.359375 6.558594 20.363281 6.441406 C 20.449219 6.167969 20.605469 6.136719 20.871094 6.148438 Z M 20.871094 6.148438 "/>
<path style=" stroke:none;fill-rule:nonzero;fill:rgb(94.509804%,96.470588%,93.725491%);fill-opacity:1;" d="M 14.078125 6.480469 C 14.042969 6.699219 13.890625 6.828125 13.71875 6.960938 C 13.351562 7.15625 12.972656 7.253906 12.554688 7.253906 C 12.523438 7.257812 12.492188 7.257812 12.460938 7.257812 C 12.246094 7.257812 12.125 7.226562 11.960938 7.078125 C 11.960938 7.039062 11.960938 7 11.960938 6.960938 C 12 6.972656 12.039062 6.988281 12.078125 7 C 12.691406 7.03125 13.335938 7.035156 13.839844 6.640625 C 13.867188 6.609375 13.898438 6.582031 13.925781 6.550781 C 14 6.480469 14 6.480469 14.078125 6.480469 Z M 14.078125 6.480469 "/>
<path style=" stroke:none;fill-rule:nonzero;fill:rgb(93.725491%,96.078432%,92.941177%);fill-opacity:1;" d="M 19.550781 6.089844 C 19.59375 6.105469 19.59375 6.105469 19.640625 6.121094 C 19.640625 6.144531 19.640625 6.171875 19.640625 6.199219 C 19.5625 6.238281 19.5625 6.238281 19.480469 6.28125 C 19.496094 6.394531 19.507812 6.464844 19.585938 6.554688 C 19.640625 6.640625 19.640625 6.640625 19.632812 6.78125 C 19.601562 6.921875 19.601562 6.921875 19.519531 7.039062 C 19.742188 7.011719 19.742188 7.011719 19.960938 6.960938 C 19.851562 7.113281 19.78125 7.1875 19.601562 7.238281 C 19.480469 7.25 19.367188 7.246094 19.246094 7.246094 C 19.199219 7.246094 19.199219 7.246094 19.152344 7.242188 C 19.074219 7.242188 18.996094 7.242188 18.921875 7.238281 C 18.933594 7.1875 18.945312 7.132812 18.960938 7.078125 C 19.007812 7.070312 19.007812 7.070312 19.054688 7.0625 C 19.09375 7.058594 19.136719 7.050781 19.175781 7.042969 C 19.21875 7.035156 19.257812 7.027344 19.300781 7.019531 C 19.398438 7.011719 19.398438 7.011719 19.441406 6.960938 C 19.457031 6.804688 19.453125 6.738281 19.363281 6.609375 C 19.289062 6.519531 19.289062 6.519531 19.199219 6.480469 C 19.1875 6.503906 19.179688 6.53125 19.167969 6.558594 C 19.121094 6.640625 19.121094 6.640625 19 6.679688 C 19.054688 6.511719 19.136719 6.398438 19.253906 6.265625 C 19.28125 6.230469 19.3125 6.195312 19.34375 6.15625 C 19.441406 6.078125 19.441406 6.078125 19.550781 6.089844 Z M 19.550781 6.089844 "/>
<path style=" stroke:none;fill-rule:nonzero;fill:rgb(93.333334%,95.686275%,92.54902%);fill-opacity:1;" d="M 4.648438 4.71875 C 4.722656 4.71875 4.722656 4.71875 4.800781 4.71875 C 4.738281 4.792969 4.699219 4.835938 4.605469 4.855469 C 4.578125 4.859375 4.550781 4.859375 4.519531 4.859375 C 4.042969 4.898438 3.589844 5.070312 3.238281 5.398438 C 3.179688 5.519531 3.1875 5.585938 3.199219 5.71875 C 3.230469 5.785156 3.265625 5.847656 3.300781 5.910156 C 3.414062 6.117188 3.421875 6.289062 3.398438 6.519531 C 3.265625 6.394531 3.195312 6.25 3.113281 6.085938 C 3.097656 6.058594 3.082031 6.03125 3.066406 6.003906 C 2.984375 5.835938 2.929688 5.710938 2.960938 5.519531 C 3.183594 5.101562 3.675781 4.949219 4.101562 4.824219 C 4.171875 4.800781 4.246094 4.78125 4.320312 4.761719 C 4.347656 4.75 4.378906 4.742188 4.410156 4.734375 C 4.492188 4.71875 4.566406 4.714844 4.648438 4.71875 Z M 4.648438 4.71875 "/>
<path style=" stroke:none;fill-rule:nonzero;fill:rgb(57.647061%,71.764708%,51.764709%);fill-opacity:1;" d="M 21.121094 5.160156 C 21.238281 5.246094 21.238281 5.246094 21.320312 5.359375 C 21.324219 5.519531 21.304688 5.605469 21.214844 5.738281 C 21.078125 5.828125 21 5.824219 20.839844 5.800781 C 20.703125 5.703125 20.648438 5.644531 20.617188 5.480469 C 20.644531 5.332031 20.695312 5.265625 20.800781 5.160156 C 20.921875 5.101562 20.992188 5.125 21.121094 5.160156 Z M 21.121094 5.160156 "/>
<path style=" stroke:none;fill-rule:nonzero;fill:rgb(91.764706%,94.509804%,90.980393%);fill-opacity:1;" d="M 7.871094 6.085938 C 7.902344 6.097656 7.929688 6.109375 7.960938 6.121094 C 7.960938 6.144531 7.960938 6.171875 7.960938 6.199219 C 7.878906 6.238281 7.878906 6.238281 7.800781 6.28125 C 7.820312 6.382812 7.84375 6.445312 7.90625 6.53125 C 7.980469 6.675781 7.957031 6.765625 7.921875 6.921875 C 7.894531 6.960938 7.867188 7 7.839844 7.039062 C 7.972656 7.027344 8.105469 7.011719 8.238281 7 C 8.019531 7.234375 8.019531 7.234375 7.84375 7.246094 C 7.816406 7.246094 7.789062 7.242188 7.757812 7.242188 C 7.714844 7.242188 7.714844 7.242188 7.667969 7.242188 C 7.636719 7.242188 7.605469 7.242188 7.574219 7.242188 C 7.539062 7.242188 7.507812 7.242188 7.476562 7.242188 C 7.398438 7.242188 7.320312 7.242188 7.238281 7.238281 C 7.253906 7.1875 7.265625 7.132812 7.28125 7.078125 C 7.332031 7.070312 7.332031 7.070312 7.382812 7.0625 C 7.429688 7.058594 7.472656 7.050781 7.515625 7.042969 C 7.5625 7.035156 7.605469 7.027344 7.652344 7.019531 C 7.757812 7.011719 7.757812 7.011719 7.800781 6.960938 C 7.820312 6.851562 7.816406 6.785156 7.753906 6.695312 C 7.707031 6.632812 7.652344 6.578125 7.601562 6.519531 C 7.535156 6.574219 7.46875 6.625 7.398438 6.679688 C 7.375 6.667969 7.347656 6.652344 7.320312 6.640625 C 7.679688 6.074219 7.679688 6.074219 7.871094 6.085938 Z M 7.871094 6.085938 "/>
<path style=" stroke:none;fill-rule:nonzero;fill:rgb(92.54902%,94.901961%,91.764706%);fill-opacity:1;" d="M 18.238281 6.199219 C 18.292969 6.199219 18.34375 6.199219 18.398438 6.199219 C 18.421875 6.53125 18.386719 6.78125 18.238281 7.078125 C 18.296875 7.066406 18.355469 7.054688 18.414062 7.042969 C 18.449219 7.035156 18.480469 7.027344 18.511719 7.019531 C 18.601562 7.003906 18.601562 7.003906 18.679688 6.960938 C 18.628906 7.074219 18.585938 7.167969 18.480469 7.238281 C 18.339844 7.257812 18.339844 7.257812 18.199219 7.238281 C 18.121094 7.164062 18.121094 7.164062 18.078125 7.078125 C 18.078125 7.054688 18.078125 7.027344 18.078125 7 C 18.054688 6.988281 18.027344 6.972656 18 6.960938 C 18.027344 6.90625 18.027344 6.90625 18.050781 6.851562 C 18.144531 6.640625 18.1875 6.421875 18.238281 6.199219 Z M 18.238281 6.199219 "/>
<path style=" stroke:none;fill-rule:nonzero;fill:rgb(93.725491%,95.686275%,92.54902%);fill-opacity:1;" d="M 6.558594 6.199219 C 6.625 6.199219 6.691406 6.199219 6.761719 6.199219 C 6.730469 6.394531 6.664062 6.570312 6.597656 6.753906 C 6.585938 6.785156 6.574219 6.816406 6.5625 6.847656 C 6.535156 6.925781 6.507812 7.003906 6.480469 7.078125 C 6.636719 7.066406 6.796875 7.054688 6.960938 7.039062 C 6.921875 7.160156 6.921875 7.160156 6.855469 7.207031 C 6.722656 7.253906 6.617188 7.253906 6.480469 7.238281 C 6.398438 7.179688 6.363281 7.140625 6.339844 7.039062 C 6.335938 6.730469 6.4375 6.480469 6.558594 6.199219 Z M 6.558594 6.199219 "/>
<path style=" stroke:none;fill-rule:nonzero;fill:rgb(94.901961%,96.470588%,94.117647%);fill-opacity:1;" d="M 14.398438 4.519531 C 14.484375 4.6875 14.449219 4.90625 14.449219 5.085938 C 14.449219 5.132812 14.449219 5.175781 14.449219 5.222656 C 14.449219 5.457031 14.449219 5.664062 14.359375 5.878906 C 14.320312 5.898438 14.320312 5.898438 14.28125 5.921875 C 14.277344 5.875 14.277344 5.832031 14.273438 5.785156 C 14.257812 5.484375 14.242188 5.1875 14.171875 4.890625 C 14.15625 4.78125 14.167969 4.703125 14.199219 4.601562 C 14.320312 4.519531 14.320312 4.519531 14.398438 4.519531 Z M 14.398438 4.519531 "/>
<path style=" stroke:none;fill-rule:nonzero;fill:rgb(93.333334%,95.686275%,92.54902%);fill-opacity:1;" d="M 16.121094 6.441406 C 16.132812 6.464844 16.144531 6.492188 16.160156 6.519531 C 16.148438 6.546875 16.132812 6.574219 16.121094 6.601562 C 16.101562 6.835938 16.101562 6.835938 16.199219 7.039062 C 16.304688 7.070312 16.304688 7.070312 16.425781 7.085938 C 16.484375 7.097656 16.484375 7.097656 16.546875 7.105469 C 16.59375 7.113281 16.59375 7.113281 16.640625 7.121094 C 16.601562 7.238281 16.601562 7.238281 16.519531 7.28125 C 16.324219 7.300781 16.167969 7.308594 15.996094 7.203125 C 15.898438 7.097656 15.882812 7.058594 15.867188 6.914062 C 15.882812 6.722656 15.933594 6.636719 16.039062 6.480469 C 16.066406 6.46875 16.09375 6.453125 16.121094 6.441406 Z M 16.121094 6.441406 "/>
<path style=" stroke:none;fill-rule:nonzero;fill:rgb(87.450981%,91.37255%,85.882354%);fill-opacity:1;" d="M 14.238281 5.238281 C 14.253906 5.238281 14.265625 5.238281 14.28125 5.238281 C 14.28125 5.285156 14.285156 5.332031 14.289062 5.378906 C 14.289062 5.4375 14.292969 5.496094 14.296875 5.554688 C 14.300781 5.585938 14.300781 5.613281 14.300781 5.644531 C 14.308594 5.808594 14.308594 5.808594 14.359375 5.960938 C 14.398438 5.972656 14.4375 5.988281 14.480469 6 C 14.425781 6.011719 14.375 6.027344 14.320312 6.039062 C 14.316406 6.089844 14.316406 6.089844 14.308594 6.140625 C 14.273438 6.308594 14.210938 6.414062 14.121094 6.558594 C 14.074219 6.492188 14.074219 6.492188 14.039062 6.398438 C 14.078125 6.269531 14.140625 6.160156 14.199219 6.039062 C 14.054688 6.039062 13.910156 6.039062 13.761719 6.039062 C 13.800781 5.980469 13.800781 5.980469 13.839844 5.921875 C 13.933594 5.910156 13.933594 5.910156 14.046875 5.914062 C 14.109375 5.914062 14.171875 5.917969 14.238281 5.921875 C 14.238281 5.695312 14.238281 5.472656 14.238281 5.238281 Z M 14.238281 5.238281 "/>
<path style=" stroke:none;fill-rule:nonzero;fill:rgb(98.039216%,98.431373%,97.647059%);fill-opacity:1;" d="M 3.382812 7.074219 C 3.425781 7.078125 3.46875 7.078125 3.511719 7.078125 C 3.554688 7.078125 3.601562 7.078125 3.648438 7.078125 C 3.714844 7.078125 3.714844 7.078125 3.785156 7.078125 C 3.894531 7.078125 4.007812 7.078125 4.121094 7.078125 C 4.039062 7.167969 4 7.199219 3.878906 7.238281 C 3.585938 7.253906 3.292969 7.246094 3 7.199219 C 3.078125 7.046875 3.230469 7.074219 3.382812 7.074219 Z M 3.382812 7.074219 "/>
<path style=" stroke:none;fill-rule:nonzero;fill:rgb(94.901961%,96.470588%,94.117647%);fill-opacity:1;" d="M 9.199219 6.960938 C 9.226562 6.972656 9.253906 6.988281 9.28125 7 C 9.140625 7.164062 9.066406 7.234375 8.847656 7.257812 C 8.699219 7.257812 8.550781 7.25 8.398438 7.238281 C 8.46875 7.046875 8.46875 7.046875 8.558594 7 C 8.558594 7.027344 8.558594 7.054688 8.558594 7.078125 C 8.652344 7.066406 8.742188 7.054688 8.835938 7.042969 C 8.910156 7.03125 8.910156 7.03125 8.988281 7.019531 C 9.113281 7.007812 9.113281 7.007812 9.199219 6.960938 Z M 9.199219 6.960938 "/>
<path style=" stroke:none;fill-rule:nonzero;fill:rgb(24.313726%,49.411765%,14.509805%);fill-opacity:1;" d="M 20.878906 6.679688 C 20.894531 6.707031 20.90625 6.734375 20.921875 6.761719 C 20.839844 6.785156 20.761719 6.8125 20.679688 6.839844 C 20.71875 6.867188 20.757812 6.894531 20.800781 6.921875 C 20.785156 6.933594 20.773438 6.945312 20.761719 6.960938 C 20.800781 6.972656 20.839844 6.988281 20.878906 7 C 20.878906 7.027344 20.878906 7.054688 20.878906 7.078125 C 20.722656 7.078125 20.5625 7.078125 20.398438 7.078125 C 20.359375 6.921875 20.359375 6.921875 20.40625 6.832031 C 20.496094 6.742188 20.558594 6.730469 20.6875 6.710938 C 20.722656 6.703125 20.757812 6.699219 20.796875 6.691406 C 20.839844 6.6875 20.839844 6.6875 20.878906 6.679688 Z M 20.878906 6.679688 "/>
<path style=" stroke:none;fill-rule:nonzero;fill:rgb(85.490197%,90.196079%,83.137256%);fill-opacity:1;" d="M 10.480469 6.199219 C 10.480469 6.214844 10.480469 6.226562 10.480469 6.238281 C 10.453125 6.242188 10.425781 6.246094 10.398438 6.25 C 10.109375 6.300781 10.109375 6.300781 9.878906 6.480469 C 9.792969 6.652344 9.742188 6.808594 9.71875 7 C 9.667969 6.945312 9.613281 6.894531 9.558594 6.839844 C 9.558594 6.933594 9.558594 7.023438 9.558594 7.121094 C 9.546875 7.121094 9.535156 7.121094 9.519531 7.121094 C 9.496094 6.847656 9.546875 6.691406 9.71875 6.480469 C 9.957031 6.234375 10.132812 6.132812 10.480469 6.199219 Z M 10.480469 6.199219 "/>
<path style=" stroke:none;fill-rule:nonzero;fill:rgb(85.882354%,90.588236%,83.92157%);fill-opacity:1;" d="M 20.867188 6.152344 C 20.894531 6.152344 20.921875 6.152344 20.953125 6.152344 C 21.023438 6.15625 21.089844 6.15625 21.160156 6.160156 C 21.148438 6.226562 21.132812 6.292969 21.121094 6.359375 C 21.03125 6.386719 21.03125 6.386719 20.921875 6.398438 C 20.851562 6.359375 20.785156 6.320312 20.71875 6.28125 C 20.613281 6.28125 20.613281 6.28125 20.519531 6.320312 C 20.492188 6.359375 20.46875 6.398438 20.441406 6.441406 C 20.441406 6.28125 20.441406 6.28125 20.480469 6.210938 C 20.601562 6.132812 20.726562 6.148438 20.867188 6.152344 Z M 20.867188 6.152344 "/>
<path style=" stroke:none;fill-rule:nonzero;fill:rgb(70.588237%,65.490198%,35.686275%);fill-opacity:1;" d="M 21.878906 8.558594 C 21.90625 8.574219 21.933594 8.585938 21.960938 8.601562 C 21.902344 8.734375 21.835938 8.828125 21.71875 8.921875 C 21.625 8.933594 21.535156 8.949219 21.441406 8.960938 C 21.355469 8.996094 21.277344 9.039062 21.195312 9.082031 C 21.007812 9.175781 20.851562 9.210938 20.640625 9.199219 C 20.75 9.125 20.851562 9.085938 20.976562 9.042969 C 21.296875 8.929688 21.636719 8.804688 21.878906 8.558594 Z M 21.878906 8.558594 "/>
<path style=" stroke:none;fill-rule:nonzero;fill:rgb(94.117647%,96.078432%,93.333334%);fill-opacity:1;" d="M 19.441406 7.039062 C 19.441406 7.066406 19.441406 7.09375 19.441406 7.121094 C 19.519531 7.121094 19.597656 7.121094 19.679688 7.121094 C 19.679688 7.144531 19.679688 7.171875 19.679688 7.199219 C 19.546875 7.265625 19.398438 7.242188 19.253906 7.242188 C 19.222656 7.242188 19.191406 7.242188 19.15625 7.242188 C 19.078125 7.242188 19 7.242188 18.921875 7.238281 C 18.933594 7.1875 18.945312 7.132812 18.960938 7.078125 C 19.125 7.058594 19.273438 7.039062 19.441406 7.039062 Z M 19.441406 7.039062 "/>
<path style=" stroke:none;fill-rule:nonzero;fill:rgb(94.901961%,96.470588%,94.117647%);fill-opacity:1;" d="M 7.761719 7.039062 C 7.761719 7.066406 7.761719 7.09375 7.761719 7.121094 C 7.839844 7.121094 7.917969 7.121094 8 7.121094 C 8 7.144531 8 7.171875 8 7.199219 C 7.867188 7.265625 7.71875 7.242188 7.574219 7.242188 C 7.542969 7.242188 7.511719 7.242188 7.476562 7.242188 C 7.398438 7.242188 7.320312 7.242188 7.238281 7.238281 C 7.253906 7.1875 7.265625 7.132812 7.28125 7.078125 C 7.335938 7.074219 7.394531 7.066406 7.453125 7.058594 C 7.484375 7.054688 7.515625 7.050781 7.550781 7.046875 C 7.640625 7.039062 7.640625 7.039062 7.761719 7.039062 Z M 7.761719 7.039062 "/>
<path style=" stroke:none;fill-rule:nonzero;fill:rgb(84.313726%,89.803922%,82.745099%);fill-opacity:1;" d="M 4.199219 6.839844 C 4.238281 6.894531 4.277344 6.945312 4.320312 7 C 4.171875 7.101562 4.074219 7.132812 3.894531 7.128906 C 3.851562 7.128906 3.808594 7.128906 3.765625 7.128906 C 3.722656 7.128906 3.679688 7.125 3.636719 7.125 C 3.546875 7.125 3.460938 7.121094 3.375 7.121094 C 3.335938 7.121094 3.296875 7.117188 3.257812 7.117188 C 3.15625 7.117188 3.15625 7.117188 3.039062 7.160156 C 3.132812 7.171875 3.226562 7.1875 3.320312 7.199219 C 3.320312 7.214844 3.320312 7.226562 3.320312 7.238281 C 3.148438 7.238281 2.976562 7.238281 2.800781 7.238281 C 2.976562 7.066406 3.113281 7.03125 3.359375 7.023438 C 3.425781 7.019531 3.425781 7.019531 3.492188 7.019531 C 3.539062 7.015625 3.585938 7.015625 3.632812 7.015625 C 3.703125 7.011719 3.703125 7.011719 3.773438 7.011719 C 3.890625 7.007812 4.003906 7.003906 4.121094 7 C 4.144531 6.945312 4.171875 6.894531 4.199219 6.839844 Z M 4.199219 6.839844 "/>
<path style=" stroke:none;fill-rule:nonzero;fill:rgb(80.392158%,87.058824%,78.039217%);fill-opacity:1;" d="M 4.800781 4.71875 C 4.738281 4.792969 4.699219 4.835938 4.605469 4.855469 C 4.578125 4.859375 4.550781 4.859375 4.519531 4.859375 C 4.226562 4.882812 3.949219 4.96875 3.679688 5.078125 C 3.652344 5.054688 3.628906 5.027344 3.601562 5 C 4.398438 4.707031 4.398438 4.707031 4.800781 4.71875 Z M 4.800781 4.71875 "/>
<path style=" stroke:none;fill-rule:nonzero;fill:rgb(96.470588%,98.039216%,96.470588%);fill-opacity:1;" d="M 4.800781 6.238281 C 5.042969 6.234375 5.277344 6.238281 5.519531 6.28125 C 5.507812 6.320312 5.492188 6.359375 5.480469 6.398438 C 5.390625 6.402344 5.300781 6.402344 5.210938 6.40625 C 5.160156 6.40625 5.109375 6.40625 5.058594 6.40625 C 4.929688 6.402344 4.867188 6.386719 4.761719 6.320312 C 4.773438 6.292969 4.785156 6.265625 4.800781 6.238281 Z M 4.800781 6.238281 "/>
<path style=" stroke:none;fill-rule:nonzero;fill:rgb(89.803922%,93.333334%,88.627452%);fill-opacity:1;" d="M 6.800781 5.519531 C 6.867188 5.53125 6.933594 5.546875 7 5.558594 C 6.980469 5.734375 6.875 5.835938 6.761719 5.960938 C 6.734375 5.960938 6.707031 5.960938 6.679688 5.960938 C 6.664062 5.703125 6.664062 5.703125 6.738281 5.582031 C 6.761719 5.5625 6.78125 5.542969 6.800781 5.519531 Z M 6.800781 5.519531 "/>
<path style=" stroke:none;fill-rule:nonzero;fill:rgb(28.235295%,51.764709%,18.431373%);fill-opacity:1;" d="M 14.199219 6.078125 C 14.1875 6.121094 14.171875 6.160156 14.160156 6.199219 C 14.121094 6.199219 14.078125 6.199219 14.039062 6.199219 C 13.984375 6.199219 13.929688 6.199219 13.878906 6.199219 C 13.824219 6.195312 13.773438 6.195312 13.71875 6.195312 C 13.523438 6.199219 13.34375 6.21875 13.160156 6.28125 C 13.160156 6.253906 13.160156 6.226562 13.160156 6.199219 C 13.132812 6.1875 13.105469 6.171875 13.078125 6.160156 C 13.460938 6.09375 13.816406 6.070312 14.199219 6.078125 Z M 14.199219 6.078125 "/>
<path style=" stroke:none;fill-rule:nonzero;fill:rgb(86.274511%,90.588236%,84.313726%);fill-opacity:1;" d="M 20.839844 5.28125 C 20.90625 5.28125 20.972656 5.28125 21.039062 5.28125 C 21.046875 5.308594 21.050781 5.339844 21.058594 5.371094 C 21.074219 5.460938 21.097656 5.550781 21.121094 5.640625 C 21.039062 5.601562 20.960938 5.558594 20.878906 5.519531 C 20.867188 5.558594 20.855469 5.597656 20.839844 5.640625 C 20.839844 5.519531 20.839844 5.402344 20.839844 5.28125 Z M 20.839844 5.28125 "/>
<path style=" stroke:none;fill-rule:nonzero;fill:rgb(73.725492%,66.274512%,34.901962%);fill-opacity:1;" d="M 22.878906 7.28125 C 22.933594 7.304688 22.984375 7.332031 23.039062 7.359375 C 23.019531 7.390625 23.003906 7.417969 22.984375 7.449219 C 22.917969 7.550781 22.917969 7.550781 22.90625 7.644531 C 22.859375 7.78125 22.722656 7.820312 22.601562 7.878906 C 22.609375 7.859375 22.621094 7.835938 22.632812 7.8125 C 22.6875 7.707031 22.734375 7.597656 22.785156 7.488281 C 22.804688 7.449219 22.820312 7.410156 22.839844 7.371094 C 22.851562 7.339844 22.867188 7.3125 22.878906 7.28125 Z M 22.878906 7.28125 "/>
<path style=" stroke:none;fill-rule:nonzero;fill:rgb(33.725491%,55.29412%,25.490198%);fill-opacity:1;" d="M 20.800781 6.28125 C 20.742188 6.339844 20.742188 6.339844 20.679688 6.398438 C 20.691406 6.441406 20.707031 6.480469 20.71875 6.519531 C 20.785156 6.519531 20.851562 6.519531 20.921875 6.519531 C 20.921875 6.53125 20.921875 6.546875 20.921875 6.558594 C 20.664062 6.574219 20.664062 6.574219 20.542969 6.5 C 20.523438 6.480469 20.5 6.460938 20.480469 6.441406 C 20.496094 6.363281 20.496094 6.363281 20.519531 6.28125 C 20.625 6.226562 20.6875 6.253906 20.800781 6.28125 Z M 20.800781 6.28125 "/>
<path style=" stroke:none;fill-rule:nonzero;fill:rgb(28.627452%,52.156866%,19.215687%);fill-opacity:1;" d="M 8.878906 6.28125 C 9.050781 6.28125 9.222656 6.28125 9.398438 6.28125 C 9.386719 6.304688 9.375 6.332031 9.359375 6.359375 C 9.277344 6.367188 9.199219 6.375 9.117188 6.382812 C 9.03125 6.394531 9.03125 6.394531 8.960938 6.484375 C 8.945312 6.507812 8.933594 6.535156 8.921875 6.558594 C 8.894531 6.546875 8.867188 6.535156 8.839844 6.519531 C 8.851562 6.441406 8.867188 6.363281 8.878906 6.28125 Z M 8.878906 6.28125 "/>
<path style=" stroke:none;fill-rule:nonzero;fill:rgb(87.450981%,91.764706%,85.09804%);fill-opacity:1;" d="M 3.679688 5.078125 C 3.652344 5.097656 3.621094 5.117188 3.59375 5.136719 C 3.394531 5.261719 3.195312 5.386719 3 5.519531 C 3.054688 5.394531 3.113281 5.320312 3.214844 5.234375 C 3.238281 5.214844 3.261719 5.195312 3.285156 5.175781 C 3.425781 5.070312 3.507812 5.019531 3.679688 5.078125 Z M 3.679688 5.078125 "/>
<path style=" stroke:none;fill-rule:nonzero;fill:rgb(34.117648%,55.686277%,25.490198%);fill-opacity:1;" d="M 20.800781 5.320312 C 20.8125 5.320312 20.828125 5.320312 20.839844 5.320312 C 20.84375 5.351562 20.84375 5.382812 20.847656 5.414062 C 20.871094 5.527344 20.871094 5.527344 20.976562 5.574219 C 21.082031 5.605469 21.082031 5.605469 21.199219 5.601562 C 21.160156 5.660156 21.160156 5.660156 21.121094 5.71875 C 21.042969 5.730469 21.042969 5.730469 20.953125 5.726562 C 20.878906 5.722656 20.878906 5.722656 20.800781 5.71875 C 20.734375 5.589844 20.777344 5.464844 20.800781 5.320312 Z M 20.800781 5.320312 "/>
<path style=" stroke:none;fill-rule:nonzero;fill:rgb(86.666667%,76.47059%,47.843137%);fill-opacity:1;" d="M 23.160156 4.160156 C 23.253906 4.246094 23.316406 4.320312 23.359375 4.441406 C 23.347656 4.480469 23.332031 4.519531 23.320312 4.558594 C 23.242188 4.535156 23.160156 4.507812 23.078125 4.480469 C 23.078125 4.414062 23.078125 4.347656 23.078125 4.28125 C 23.105469 4.265625 23.132812 4.253906 23.160156 4.238281 C 23.160156 4.214844 23.160156 4.1875 23.160156 4.160156 Z M 23.160156 4.160156 "/>
<path style=" stroke:none;fill-rule:nonzero;fill:rgb(89.019608%,92.941177%,87.450981%);fill-opacity:1;" d="M 19.441406 6.078125 C 19.492188 6.09375 19.546875 6.105469 19.601562 6.121094 C 19.570312 6.136719 19.539062 6.152344 19.511719 6.171875 C 19.402344 6.238281 19.324219 6.308594 19.238281 6.398438 C 19.253906 6.425781 19.265625 6.453125 19.28125 6.480469 C 19.253906 6.480469 19.226562 6.480469 19.199219 6.480469 C 19.1875 6.503906 19.179688 6.53125 19.167969 6.558594 C 19.121094 6.640625 19.121094 6.640625 19 6.679688 C 19.058594 6.507812 19.140625 6.398438 19.265625 6.265625 C 19.296875 6.230469 19.332031 6.195312 19.363281 6.160156 C 19.402344 6.121094 19.402344 6.121094 19.441406 6.078125 Z M 19.441406 6.078125 "/>
<path style=" stroke:none;fill-rule:nonzero;fill:rgb(91.37255%,94.901961%,89.803922%);fill-opacity:1;" d="M 5 5.121094 C 5.027344 5.132812 5.054688 5.144531 5.078125 5.160156 C 5.042969 5.21875 5.007812 5.277344 4.972656 5.335938 C 4.953125 5.367188 4.933594 5.398438 4.910156 5.433594 C 4.828125 5.535156 4.761719 5.5625 4.640625 5.601562 C 4.699219 5.386719 4.84375 5.265625 5 5.121094 Z M 5 5.121094 "/>
<path style=" stroke:none;fill-rule:nonzero;fill:rgb(80.392158%,87.058824%,77.254903%);fill-opacity:1;" d="M 19.480469 6.800781 C 19.507812 6.839844 19.53125 6.878906 19.558594 6.921875 C 19.546875 6.960938 19.535156 7 19.519531 7.039062 C 19.742188 7.011719 19.742188 7.011719 19.960938 6.960938 C 19.816406 7.15625 19.816406 7.15625 19.679688 7.199219 C 19.679688 7.171875 19.679688 7.148438 19.679688 7.121094 C 19.601562 7.121094 19.523438 7.121094 19.441406 7.121094 C 19.390625 6.976562 19.417969 6.933594 19.480469 6.800781 Z M 19.480469 6.800781 "/>
<path style=" stroke:none;fill-rule:nonzero;fill:rgb(26.274511%,50.588238%,16.470589%);fill-opacity:1;" d="M 8 6.839844 C 8.011719 6.867188 8.027344 6.894531 8.039062 6.921875 C 8.066406 6.921875 8.09375 6.921875 8.121094 6.921875 C 8.132812 6.894531 8.144531 6.867188 8.160156 6.839844 C 8.160156 6.867188 8.160156 6.894531 8.160156 6.921875 C 8.1875 6.933594 8.210938 6.945312 8.238281 6.960938 C 8.085938 7.066406 7.988281 7.09375 7.800781 7.078125 C 7.855469 6.953125 7.878906 6.921875 8 6.839844 Z M 8 6.839844 "/>
<path style=" stroke:none;fill-rule:nonzero;fill:rgb(27.058825%,51.372552%,17.254902%);fill-opacity:1;" d="M 6.679688 6.839844 C 6.691406 6.894531 6.707031 6.945312 6.71875 7 C 6.757812 7 6.800781 7 6.839844 7 C 6.851562 6.972656 6.867188 6.945312 6.878906 6.921875 C 6.894531 6.960938 6.90625 7 6.921875 7.039062 C 6.878906 7.078125 6.878906 7.078125 6.789062 7.082031 C 6.734375 7.082031 6.734375 7.082031 6.675781 7.082031 C 6.640625 7.082031 6.605469 7.082031 6.566406 7.082031 C 6.539062 7.082031 6.507812 7.082031 6.480469 7.078125 C 6.507812 7.027344 6.53125 6.972656 6.558594 6.921875 C 6.585938 6.921875 6.613281 6.921875 6.640625 6.921875 C 6.652344 6.894531 6.667969 6.867188 6.679688 6.839844 Z M 6.679688 6.839844 "/>
<path style=" stroke:none;fill-rule:nonzero;fill:rgb(85.490197%,75.686276%,48.627451%);fill-opacity:1;" d="M 0.398438 5.320312 C 0.414062 5.320312 0.425781 5.320312 0.441406 5.320312 C 0.445312 5.378906 0.453125 5.433594 0.460938 5.492188 C 0.464844 5.523438 0.46875 5.554688 0.472656 5.589844 C 0.480469 5.679688 0.480469 5.679688 0.480469 5.800781 C 0.421875 5.867188 0.421875 5.867188 0.359375 5.921875 C 0.359375 5.835938 0.359375 5.75 0.359375 5.664062 C 0.355469 5.617188 0.355469 5.570312 0.355469 5.523438 C 0.359375 5.398438 0.359375 5.398438 0.398438 5.320312 Z M 0.398438 5.320312 "/>
<path style=" stroke:none;fill-rule:nonzero;fill:rgb(78.823531%,85.490197%,76.078433%);fill-opacity:1;" d="M 16.652344 6.179688 C 16.6875 6.191406 16.6875 6.191406 16.71875 6.199219 C 16.71875 6.214844 16.71875 6.226562 16.71875 6.238281 C 16.695312 6.242188 16.671875 6.242188 16.648438 6.242188 C 16.464844 6.253906 16.382812 6.261719 16.238281 6.382812 C 16.199219 6.429688 16.199219 6.429688 16.160156 6.480469 C 16.121094 6.46875 16.082031 6.453125 16.039062 6.441406 C 16.234375 6.226562 16.359375 6.121094 16.652344 6.179688 Z M 16.652344 6.179688 "/>
<path style=" stroke:none;fill-rule:nonzero;fill:rgb(26.274511%,50.588238%,17.254902%);fill-opacity:1;" d="M 15.480469 6.199219 C 15.457031 6.320312 15.429688 6.375 15.359375 6.480469 C 15.332031 6.480469 15.308594 6.480469 15.28125 6.480469 C 15.265625 6.386719 15.253906 6.296875 15.238281 6.199219 C 15.339844 6.148438 15.375 6.167969 15.480469 6.199219 Z M 15.480469 6.199219 "/>
<path style=" stroke:none;fill-rule:nonzero;fill:rgb(84.313726%,75.294119%,50.588238%);fill-opacity:1;" d="M 23.359375 7.359375 C 23.398438 7.480469 23.398438 7.480469 23.351562 7.589844 C 23.328125 7.628906 23.304688 7.667969 23.28125 7.707031 C 23.261719 7.746094 23.238281 7.785156 23.214844 7.828125 C 23.1875 7.875 23.1875 7.875 23.160156 7.921875 C 23.148438 7.921875 23.132812 7.921875 23.121094 7.921875 C 23.105469 7.839844 23.09375 7.761719 23.078125 7.679688 C 23.105469 7.671875 23.128906 7.664062 23.152344 7.65625 C 23.273438 7.578125 23.304688 7.488281 23.359375 7.359375 Z M 23.359375 7.359375 "/>
<path style=" stroke:none;fill-rule:nonzero;fill:rgb(96.862745%,98.039216%,96.862745%);fill-opacity:1;" d="M 6.160156 5.398438 C 6.1875 5.398438 6.210938 5.398438 6.238281 5.398438 C 6.238281 5.519531 6.238281 5.636719 6.238281 5.761719 C 6.199219 5.761719 6.160156 5.761719 6.121094 5.761719 C 6.09375 5.625 6.09375 5.625 6.078125 5.480469 C 6.105469 5.453125 6.132812 5.425781 6.160156 5.398438 Z M 6.160156 5.398438 "/>
<path style=" stroke:none;fill-rule:nonzero;fill:rgb(74.901962%,61.960787%,26.666668%);fill-opacity:1;" d="M 1.960938 9 C 2.078125 9 2.199219 9 2.320312 9 C 2.332031 9.027344 2.347656 9.054688 2.359375 9.078125 C 2.332031 9.078125 2.308594 9.078125 2.28125 9.078125 C 2.304688 9.132812 2.332031 9.1875 2.359375 9.238281 C 2.273438 9.21875 2.199219 9.199219 2.121094 9.160156 C 2.132812 9.132812 2.144531 9.105469 2.160156 9.078125 C 2.105469 9.078125 2.054688 9.078125 2 9.078125 C 1.988281 9.054688 1.972656 9.027344 1.960938 9 Z M 1.960938 9 "/>
<path style=" stroke:none;fill-rule:nonzero;fill:rgb(89.803922%,93.333334%,88.627452%);fill-opacity:1;" d="M 9.71875 6.640625 C 9.71875 6.757812 9.71875 6.878906 9.71875 7 C 9.667969 6.945312 9.613281 6.894531 9.558594 6.839844 C 9.558594 6.933594 9.558594 7.023438 9.558594 7.121094 C 9.546875 7.121094 9.535156 7.121094 9.519531 7.121094 C 9.5 6.824219 9.5 6.824219 9.597656 6.699219 C 9.679688 6.640625 9.679688 6.640625 9.71875 6.640625 Z M 9.71875 6.640625 "/>
<path style=" stroke:none;fill-rule:nonzero;fill:rgb(81.176472%,88.235295%,79.607844%);fill-opacity:1;" d="M 15.640625 4.199219 C 15.667969 4.199219 15.691406 4.199219 15.71875 4.199219 C 15.667969 4.359375 15.613281 4.519531 15.558594 4.679688 C 15.535156 4.652344 15.507812 4.628906 15.480469 4.601562 C 15.441406 4.621094 15.441406 4.621094 15.398438 4.640625 C 15.457031 4.476562 15.535156 4.339844 15.640625 4.199219 Z M 15.640625 4.199219 "/>
<path style=" stroke:none;fill-rule:nonzero;fill:rgb(93.333334%,95.294118%,92.54902%);fill-opacity:1;" d="M 13.160156 6.078125 C 13.160156 6.105469 13.160156 6.132812 13.160156 6.160156 C 13.097656 6.179688 13.03125 6.203125 12.96875 6.222656 C 12.933594 6.234375 12.894531 6.246094 12.859375 6.257812 C 12.761719 6.28125 12.761719 6.28125 12.640625 6.238281 C 12.695312 6.214844 12.753906 6.1875 12.808594 6.160156 C 12.855469 6.136719 12.855469 6.136719 12.90625 6.113281 C 13 6.078125 13 6.078125 13.160156 6.078125 Z M 13.160156 6.078125 "/>
<path style=" stroke:none;fill-rule:nonzero;fill:rgb(30.980393%,53.333336%,22.352941%);fill-opacity:1;" d="M 4.640625 6.121094 C 4.652344 6.160156 4.667969 6.199219 4.679688 6.238281 C 4.71875 6.253906 4.757812 6.265625 4.800781 6.28125 C 4.773438 6.359375 4.746094 6.4375 4.71875 6.519531 C 4.707031 6.492188 4.695312 6.46875 4.679688 6.441406 C 4.652344 6.441406 4.628906 6.441406 4.601562 6.441406 C 4.613281 6.335938 4.625 6.230469 4.640625 6.121094 Z M 4.640625 6.121094 "/>
<path style=" stroke:none;fill-rule:nonzero;fill:rgb(89.019608%,78.823531%,52.156866%);fill-opacity:1;" d="M 22.441406 3.238281 C 22.484375 3.277344 22.53125 3.316406 22.578125 3.351562 C 22.601562 3.375 22.628906 3.394531 22.65625 3.414062 C 22.71875 3.480469 22.71875 3.480469 22.761719 3.601562 C 22.71875 3.601562 22.679688 3.601562 22.640625 3.601562 C 22.597656 3.535156 22.558594 3.46875 22.519531 3.398438 C 22.480469 3.386719 22.441406 3.375 22.398438 3.359375 C 22.414062 3.320312 22.425781 3.28125 22.441406 3.238281 Z M 22.441406 3.238281 "/>
<path style=" stroke:none;fill-rule:nonzero;fill:rgb(26.666668%,50.588238%,17.254902%);fill-opacity:1;" d="M 10.359375 7 C 10.375 7.066406 10.386719 7.132812 10.398438 7.199219 C 10.359375 7.214844 10.320312 7.226562 10.28125 7.238281 C 10.191406 7.183594 10.191406 7.183594 10.121094 7.121094 C 10.269531 7 10.269531 7 10.359375 7 Z M 10.359375 7 "/>
<path style=" stroke:none;fill-rule:nonzero;fill:rgb(33.333334%,54.901963%,24.705882%);fill-opacity:1;" d="M 7.71875 6.679688 C 7.78125 6.71875 7.78125 6.71875 7.839844 6.761719 C 7.855469 6.859375 7.855469 6.859375 7.839844 6.960938 C 7.800781 6.988281 7.761719 7.011719 7.71875 7.039062 C 7.675781 6.769531 7.675781 6.769531 7.71875 6.679688 Z M 7.71875 6.679688 "/>
<path style=" stroke:none;fill-rule:nonzero;fill:rgb(27.058825%,50.980395%,17.254902%);fill-opacity:1;" d="M 19.199219 6.121094 C 19.238281 6.132812 19.277344 6.144531 19.320312 6.160156 C 19.261719 6.292969 19.1875 6.378906 19.078125 6.480469 C 19.109375 6.210938 19.109375 6.210938 19.199219 6.121094 Z M 19.199219 6.121094 "/>
<path style=" stroke:none;fill-rule:nonzero;fill:rgb(89.019608%,80.000001%,55.29412%);fill-opacity:1;" d="M 1.359375 3.398438 C 1.386719 3.398438 1.414062 3.398438 1.441406 3.398438 C 1.441406 3.453125 1.441406 3.503906 1.441406 3.558594 C 1.367188 3.621094 1.367188 3.621094 1.28125 3.679688 C 1.238281 3.71875 1.199219 3.757812 1.160156 3.800781 C 1.132812 3.785156 1.105469 3.773438 1.078125 3.761719 C 1.125 3.699219 1.167969 3.640625 1.214844 3.578125 C 1.238281 3.546875 1.265625 3.511719 1.289062 3.480469 C 1.3125 3.453125 1.335938 3.425781 1.359375 3.398438 Z M 1.359375 3.398438 "/>
<path style=" stroke:none;fill-rule:nonzero;fill:rgb(77.64706%,68.627453%,38.82353%);fill-opacity:1;" d="M 2.480469 9.359375 C 2.515625 9.363281 2.515625 9.363281 2.554688 9.367188 C 2.601562 9.375 2.601562 9.375 2.648438 9.378906 C 2.679688 9.382812 2.714844 9.386719 2.746094 9.390625 C 2.851562 9.402344 2.851562 9.402344 3 9.398438 C 2.960938 9.414062 2.921875 9.425781 2.878906 9.441406 C 2.878906 9.480469 2.878906 9.519531 2.878906 9.558594 C 2.722656 9.515625 2.605469 9.464844 2.480469 9.359375 Z M 2.480469 9.359375 "/>
<path style=" stroke:none;fill-rule:nonzero;fill:rgb(86.274511%,91.37255%,85.09804%);fill-opacity:1;" d="M 12.601562 6.199219 C 12.625 6.214844 12.652344 6.226562 12.679688 6.238281 C 12.679688 6.265625 12.679688 6.292969 12.679688 6.320312 C 12.546875 6.386719 12.546875 6.386719 12.398438 6.441406 C 12.359375 6.414062 12.320312 6.386719 12.28125 6.359375 C 12.332031 6.332031 12.382812 6.304688 12.433594 6.277344 C 12.464844 6.261719 12.492188 6.246094 12.523438 6.230469 C 12.546875 6.222656 12.574219 6.210938 12.601562 6.199219 Z M 12.601562 6.199219 "/>
<path style=" stroke:none;fill-rule:nonzero;fill:rgb(89.803922%,79.607844%,52.156866%);fill-opacity:1;" d="M 20.238281 2.238281 C 20.386719 2.265625 20.53125 2.292969 20.679688 2.320312 C 20.53125 2.394531 20.488281 2.410156 20.328125 2.40625 C 20.296875 2.402344 20.265625 2.402344 20.234375 2.402344 C 20.210938 2.402344 20.183594 2.402344 20.160156 2.398438 C 20.1875 2.347656 20.210938 2.292969 20.238281 2.238281 Z M 20.238281 2.238281 "/>
<path style=" stroke:none;fill-rule:nonzero;fill:rgb(83.529413%,74.117649%,48.627451%);fill-opacity:1;" d="M 23.039062 8 C 23.039062 8.136719 23.019531 8.164062 22.941406 8.265625 C 22.921875 8.292969 22.902344 8.316406 22.882812 8.34375 C 22.871094 8.363281 22.855469 8.378906 22.839844 8.398438 C 22.78125 8.285156 22.816406 8.203125 22.839844 8.078125 C 22.867188 8.074219 22.890625 8.070312 22.917969 8.0625 C 23 8.046875 23 8.046875 23.039062 8 Z M 23.039062 8 "/>
<path style=" stroke:none;fill-rule:nonzero;fill:rgb(80.000001%,86.666667%,78.039217%);fill-opacity:1;" d="M 16.800781 6.960938 C 16.8125 7 16.828125 7.039062 16.839844 7.078125 C 16.742188 7.140625 16.742188 7.140625 16.640625 7.199219 C 16.640625 7.171875 16.640625 7.148438 16.640625 7.121094 C 16.535156 7.121094 16.429688 7.121094 16.320312 7.121094 C 16.320312 7.105469 16.320312 7.09375 16.320312 7.078125 C 16.34375 7.078125 16.371094 7.074219 16.394531 7.074219 C 16.425781 7.070312 16.460938 7.066406 16.492188 7.066406 C 16.523438 7.0625 16.554688 7.058594 16.589844 7.054688 C 16.691406 7.042969 16.691406 7.042969 16.800781 6.960938 Z M 16.800781 6.960938 "/>
<path style=" stroke:none;fill-rule:nonzero;fill:rgb(83.137256%,88.627452%,81.176472%);fill-opacity:1;" d="M 5.238281 6.238281 C 5.410156 6.238281 5.582031 6.238281 5.761719 6.238281 C 5.648438 6.351562 5.625 6.375 5.480469 6.398438 C 5.480469 6.375 5.480469 6.347656 5.480469 6.320312 C 5.359375 6.300781 5.359375 6.300781 5.238281 6.28125 C 5.238281 6.265625 5.238281 6.253906 5.238281 6.238281 Z M 5.238281 6.238281 "/>
<path style=" stroke:none;fill-rule:nonzero;fill:rgb(29.019609%,52.941179%,20%);fill-opacity:1;" d="M 14.320312 6.078125 C 14.414062 6.078125 14.503906 6.078125 14.601562 6.078125 C 14.566406 6.09375 14.566406 6.09375 14.53125 6.105469 C 14.410156 6.179688 14.355469 6.28125 14.28125 6.398438 C 14.253906 6.398438 14.226562 6.398438 14.199219 6.398438 C 14.273438 6.171875 14.273438 6.171875 14.320312 6.078125 Z M 14.320312 6.078125 "/>
<path style=" stroke:none;fill-rule:nonzero;fill:rgb(26.666668%,50.588238%,16.078432%);fill-opacity:1;" d="M 1.71875 3.761719 C 1.71875 3.90625 1.683594 3.960938 1.601562 4.078125 C 1.511719 4.132812 1.511719 4.132812 1.441406 4.160156 C 1.605469 3.855469 1.605469 3.855469 1.71875 3.761719 Z M 1.71875 3.761719 "/>
<path style=" stroke:none;fill-rule:nonzero;fill:rgb(78.823531%,69.411767%,41.568628%);fill-opacity:1;" d="M 22.078125 9 C 22.105469 9.011719 22.132812 9.027344 22.160156 9.039062 C 21.960938 9.160156 21.960938 9.160156 21.761719 9.28125 C 21.746094 9.242188 21.734375 9.199219 21.71875 9.160156 C 21.777344 9.132812 21.835938 9.105469 21.894531 9.078125 C 21.945312 9.054688 21.945312 9.054688 21.992188 9.03125 C 22.023438 9.019531 22.050781 9.011719 22.078125 9 Z M 22.078125 9 "/>
<path style=" stroke:none;fill-rule:nonzero;fill:rgb(97.647059%,98.431373%,96.862745%);fill-opacity:1;" d="M 11.960938 6.960938 C 12.191406 7.03125 12.191406 7.03125 12.28125 7.121094 C 12.164062 7.144531 12.164062 7.144531 12.039062 7.160156 C 12.011719 7.132812 11.988281 7.105469 11.960938 7.078125 C 11.960938 7.039062 11.960938 7 11.960938 6.960938 Z M 11.960938 6.960938 "/>
<path style=" stroke:none;fill-rule:nonzero;fill:rgb(69.01961%,65.490198%,36.470589%);fill-opacity:1;" d="M 22.558594 7.878906 C 22.574219 7.90625 22.585938 7.933594 22.601562 7.960938 C 22.625 7.972656 22.652344 7.988281 22.679688 8 C 22.632812 8.027344 22.632812 8.027344 22.585938 8.050781 C 22.496094 8.109375 22.429688 8.160156 22.359375 8.238281 C 22.332031 8.226562 22.308594 8.214844 22.28125 8.199219 C 22.371094 8.09375 22.464844 7.988281 22.558594 7.878906 Z M 22.558594 7.878906 "/>
<path style=" stroke:none;fill-rule:nonzero;fill:rgb(27.058825%,51.372552%,17.647059%);fill-opacity:1;" d="M 10.199219 6.121094 C 10.199219 6.144531 10.199219 6.171875 10.199219 6.199219 C 10.0625 6.257812 10.0625 6.257812 9.921875 6.320312 C 9.878906 6.28125 9.839844 6.242188 9.800781 6.199219 C 10.066406 6.121094 10.066406 6.121094 10.199219 6.121094 Z M 10.199219 6.121094 "/>
<path style=" stroke:none;fill-rule:nonzero;fill:rgb(28.235295%,51.372552%,19.215687%);fill-opacity:1;" d="M 5.121094 5.121094 C 5.039062 5.160156 4.960938 5.199219 4.878906 5.238281 C 4.839844 5.214844 4.800781 5.1875 4.761719 5.160156 C 4.800781 5.078125 4.800781 5.078125 4.871094 5.050781 C 4.980469 5.039062 5.027344 5.066406 5.121094 5.121094 Z M 5.121094 5.121094 "/>
<path style=" stroke:none;fill-rule:nonzero;fill:rgb(86.666667%,90.980393%,84.705883%);fill-opacity:1;" d="M 8.238281 7.039062 C 8.175781 7.09375 8.109375 7.144531 8.039062 7.199219 C 8.027344 7.171875 8.011719 7.148438 8 7.121094 C 7.933594 7.121094 7.867188 7.121094 7.800781 7.121094 C 7.800781 7.105469 7.800781 7.09375 7.800781 7.078125 C 8.105469 6.996094 8.105469 6.996094 8.238281 7.039062 Z M 8.238281 7.039062 "/>
<path style=" stroke:none;fill-rule:nonzero;fill:rgb(87.450981%,90.980393%,85.490197%);fill-opacity:1;" d="M 10.441406 6.800781 C 10.425781 6.90625 10.414062 7.011719 10.398438 7.121094 C 10.386719 7.082031 10.375 7.039062 10.359375 7 C 10.28125 7.039062 10.28125 7.039062 10.199219 7.078125 C 10.1875 7.054688 10.171875 7.027344 10.160156 7 C 10.351562 6.800781 10.351562 6.800781 10.441406 6.800781 Z M 10.441406 6.800781 "/>
<path style=" stroke:none;fill-rule:nonzero;fill:rgb(30.588236%,52.941179%,21.176471%);fill-opacity:1;" d="M 10.320312 6.238281 C 10.386719 6.238281 10.453125 6.238281 10.519531 6.238281 C 10.558594 6.28125 10.558594 6.28125 10.5625 6.382812 C 10.5625 6.414062 10.5625 6.445312 10.558594 6.480469 C 10.535156 6.441406 10.507812 6.402344 10.480469 6.359375 C 10.441406 6.375 10.402344 6.386719 10.359375 6.398438 C 10.347656 6.347656 10.332031 6.292969 10.320312 6.238281 Z M 10.320312 6.238281 "/>
<path style=" stroke:none;fill-rule:nonzero;fill:rgb(58.039218%,71.764708%,52.156866%);fill-opacity:1;" d="M 20.839844 5.28125 C 20.90625 5.28125 20.972656 5.28125 21.039062 5.28125 C 21.054688 5.332031 21.066406 5.386719 21.078125 5.441406 C 21.015625 5.441406 20.949219 5.441406 20.878906 5.441406 C 20.867188 5.386719 20.855469 5.335938 20.839844 5.28125 Z M 20.839844 5.28125 "/>
<path style=" stroke:none;fill-rule:nonzero;fill:rgb(71.764708%,64.705884%,30.588236%);fill-opacity:1;" d="M 22.878906 7.28125 C 22.933594 7.304688 22.984375 7.332031 23.039062 7.359375 C 22.980469 7.460938 22.980469 7.460938 22.921875 7.558594 C 22.894531 7.546875 22.867188 7.535156 22.839844 7.519531 C 22.851562 7.441406 22.867188 7.363281 22.878906 7.28125 Z M 22.878906 7.28125 "/>
<path style=" stroke:none;fill-rule:nonzero;fill:rgb(27.450982%,51.764709%,18.039216%);fill-opacity:1;" d="M 17.398438 6.039062 C 17.425781 6.039062 17.453125 6.039062 17.480469 6.039062 C 17.535156 6.152344 17.527344 6.238281 17.519531 6.359375 C 17.492188 6.386719 17.46875 6.414062 17.441406 6.441406 C 17.425781 6.308594 17.414062 6.175781 17.398438 6.039062 Z M 17.398438 6.039062 "/>
<path style=" stroke:none;fill-rule:nonzero;fill:rgb(89.803922%,80.000001%,53.333336%);fill-opacity:1;" d="M 2.679688 2.601562 C 2.667969 2.625 2.652344 2.652344 2.640625 2.679688 C 2.574219 2.679688 2.507812 2.679688 2.441406 2.679688 C 2.441406 2.707031 2.441406 2.734375 2.441406 2.761719 C 2.386719 2.746094 2.335938 2.734375 2.28125 2.71875 C 2.546875 2.554688 2.546875 2.554688 2.679688 2.601562 Z M 2.679688 2.601562 "/>
<path style=" stroke:none;fill-rule:nonzero;fill:rgb(78.039217%,65.882355%,34.901962%);fill-opacity:1;" d="M 22.199219 8.679688 C 22.214844 8.707031 22.226562 8.734375 22.238281 8.761719 C 22.304688 8.761719 22.371094 8.761719 22.441406 8.761719 C 22.386719 8.8125 22.335938 8.867188 22.28125 8.921875 C 22.265625 8.894531 22.253906 8.867188 22.238281 8.839844 C 22.214844 8.839844 22.1875 8.839844 22.160156 8.839844 C 22.171875 8.789062 22.1875 8.734375 22.199219 8.679688 Z M 22.199219 8.679688 "/>
<path style=" stroke:none;fill-rule:nonzero;fill:rgb(34.117648%,54.901963%,25.098041%);fill-opacity:1;" d="M 16.960938 6.878906 C 16.988281 6.917969 17.011719 6.960938 17.039062 7 C 16.949219 7.101562 16.949219 7.101562 16.839844 7.199219 C 16.746094 7.191406 16.746094 7.191406 16.679688 7.160156 C 16.742188 7.109375 16.800781 7.0625 16.863281 7.011719 C 16.925781 6.960938 16.925781 6.960938 16.960938 6.878906 Z M 16.960938 6.878906 "/>
<path style=" stroke:none;fill-rule:nonzero;fill:rgb(38.82353%,58.039218%,30.980393%);fill-opacity:1;" d="M 20.878906 6.679688 C 20.894531 6.707031 20.90625 6.734375 20.921875 6.761719 C 20.753906 6.8125 20.613281 6.851562 20.441406 6.839844 C 20.453125 6.8125 20.464844 6.789062 20.480469 6.761719 C 20.570312 6.734375 20.570312 6.734375 20.683594 6.714844 C 20.71875 6.707031 20.757812 6.703125 20.792969 6.695312 C 20.824219 6.691406 20.851562 6.683594 20.878906 6.679688 Z M 20.878906 6.679688 "/>
<path style=" stroke:none;fill-rule:nonzero;fill:rgb(85.490197%,90.588236%,83.529413%);fill-opacity:1;" d="M 19.121094 6.441406 C 19.203125 6.457031 19.203125 6.457031 19.28125 6.480469 C 19.253906 6.480469 19.226562 6.480469 19.199219 6.480469 C 19.1875 6.503906 19.179688 6.53125 19.167969 6.558594 C 19.121094 6.640625 19.121094 6.640625 19 6.679688 C 19.074219 6.484375 19.074219 6.484375 19.121094 6.441406 Z M 19.121094 6.441406 "/>
<path style=" stroke:none;fill-rule:nonzero;fill:rgb(89.803922%,93.333334%,89.019608%);fill-opacity:1;" d="M 3.289062 5.253906 C 3.3125 5.261719 3.335938 5.269531 3.359375 5.28125 C 3.179688 5.398438 3.179688 5.398438 3 5.519531 C 3.128906 5.230469 3.128906 5.230469 3.289062 5.253906 Z M 3.289062 5.253906 "/>
<path style=" stroke:none;fill-rule:nonzero;fill:rgb(84.705883%,73.725492%,43.137255%);fill-opacity:1;" d="M 0.480469 5 C 0.519531 5.054688 0.558594 5.105469 0.601562 5.160156 C 0.574219 5.210938 0.546875 5.265625 0.519531 5.320312 C 0.492188 5.320312 0.46875 5.320312 0.441406 5.320312 C 0.453125 5.214844 0.464844 5.109375 0.480469 5 Z M 0.480469 5 "/>
<path style=" stroke:none;fill-rule:nonzero;fill:rgb(20.784314%,46.666667%,9.803922%);fill-opacity:1;" d="M 6.238281 5.199219 C 6.28125 5.199219 6.320312 5.199219 6.359375 5.199219 C 6.347656 5.359375 6.332031 5.515625 6.320312 5.679688 C 6.308594 5.679688 6.292969 5.679688 6.28125 5.679688 C 6.265625 5.523438 6.253906 5.363281 6.238281 5.199219 Z M 6.238281 5.199219 "/>
<path style=" stroke:none;fill-rule:nonzero;fill:rgb(70.980394%,69.411767%,40.000001%);fill-opacity:1;" d="M 1.078125 4.601562 C 1.105469 4.613281 1.132812 4.625 1.160156 4.640625 C 1.121094 4.757812 1.082031 4.878906 1.039062 5 C 1.027344 5 1.011719 5 1 5 C 0.992188 4.84375 0.996094 4.734375 1.078125 4.601562 Z M 1.078125 4.601562 "/>
</g>
</svg>
