<?xml version="1.0" encoding="UTF-8"?>
<svg xmlns="http://www.w3.org/2000/svg" xmlns:xlink="http://www.w3.org/1999/xlink" width="24px" height="24px" viewBox="0 0 24 24" version="1.1">
<g id="surface1">
<path style=" stroke:none;fill-rule:evenodd;fill:rgb(96.470588%,97.254902%,96.862745%);fill-opacity:1;" d="M 11.667969 1.449219 L 11.355469 2.167969 L 10.640625 2.21875 C 10.246094 2.246094 9.890625 2.273438 9.851562 2.277344 C 9.785156 2.285156 9.820312 2.320312 10.363281 2.796875 C 10.683594 3.074219 10.945312 3.3125 10.945312 3.320312 C 10.945312 3.351562 10.4375 4.65625 10.417969 4.675781 C 10.410156 4.6875 10.335938 4.636719 10.257812 4.570312 C 9.714844 4.089844 9.167969 3.808594 8.425781 3.625 C 8.195312 3.570312 7.703125 3.480469 7.6875 3.492188 C 7.683594 3.496094 7.742188 3.585938 7.816406 3.699219 C 8.101562 4.140625 8.359375 4.640625 8.570312 5.164062 C 8.710938 5.511719 8.710938 5.5 8.53125 5.367188 C 7.996094 4.96875 7.386719 4.746094 6.546875 4.636719 C 6.429688 4.621094 6.425781 4.613281 6.644531 4.902344 C 7.039062 5.429688 7.324219 5.890625 7.625 6.476562 C 7.851562 6.925781 7.824219 6.914062 8.210938 6.742188 C 10.644531 5.640625 13.320312 5.644531 15.785156 6.746094 C 16.144531 6.910156 16.136719 6.914062 16.304688 6.558594 C 16.535156 6.074219 16.925781 5.445312 17.335938 4.902344 L 17.542969 4.625 L 17.429688 4.636719 C 16.621094 4.734375 15.960938 4.976562 15.421875 5.382812 C 15.265625 5.5 15.265625 5.507812 15.40625 5.164062 C 15.617188 4.632812 15.859375 4.167969 16.171875 3.6875 C 16.238281 3.582031 16.292969 3.496094 16.289062 3.496094 C 16.273438 3.480469 15.789062 3.566406 15.546875 3.625 C 14.84375 3.800781 14.253906 4.097656 13.765625 4.527344 C 13.660156 4.617188 13.566406 4.683594 13.558594 4.675781 C 13.519531 4.628906 13.03125 3.3125 13.046875 3.296875 C 13.058594 3.285156 13.324219 3.054688 13.636719 2.78125 L 14.203125 2.28125 L 14.03125 2.269531 C 13.9375 2.261719 13.582031 2.234375 13.242188 2.214844 L 12.628906 2.171875 L 12.320312 1.472656 C 12.152344 1.085938 12.007812 0.761719 12 0.75 C 11.992188 0.742188 11.84375 1.054688 11.667969 1.449219 M 12.640625 4.578125 C 12.988281 4.839844 13.269531 5.066406 13.265625 5.082031 C 13.253906 5.117188 13.15625 5.113281 12.816406 5.070312 C 12.421875 5.023438 11.476562 5.027344 11.082031 5.082031 C 10.792969 5.121094 10.714844 5.117188 10.734375 5.070312 C 10.738281 5.054688 11.972656 4.105469 11.996094 4.101562 C 12 4.101562 12.289062 4.316406 12.640625 4.578125 M 2.554688 5.824219 C 2.523438 5.855469 2.515625 5.898438 2.527344 6.042969 C 2.605469 7.359375 1.949219 8.785156 0.582031 10.28125 C 0.285156 10.605469 0.285156 10.597656 0.675781 10.613281 C 1.089844 10.632812 1.328125 10.5625 2.125 10.203125 C 3.125 9.753906 3.761719 9.636719 4.332031 9.808594 C 4.425781 9.835938 4.5 9.855469 4.5 9.851562 C 4.8125 9.308594 5.839844 8.269531 6.753906 7.578125 L 6.824219 7.523438 L 6.621094 7.457031 C 5.824219 7.203125 4.808594 7.328125 4.082031 7.769531 L 3.964844 7.84375 L 3.925781 7.671875 C 3.777344 7.019531 3.460938 6.472656 2.976562 6.035156 C 2.703125 5.785156 2.628906 5.75 2.554688 5.824219 M 21.136719 5.921875 C 20.632812 6.320312 20.242188 6.945312 20.085938 7.605469 C 20.027344 7.855469 20.039062 7.847656 19.855469 7.742188 C 19.125 7.320312 18.167969 7.214844 17.347656 7.464844 C 17.144531 7.527344 17.140625 7.515625 17.410156 7.710938 C 18.074219 8.191406 18.878906 9.015625 19.367188 9.714844 C 19.453125 9.835938 19.480469 9.859375 19.523438 9.84375 C 20.210938 9.628906 20.726562 9.707031 21.867188 10.207031 C 22.691406 10.566406 22.816406 10.601562 23.230469 10.605469 C 23.679688 10.609375 23.6875 10.601562 23.484375 10.378906 C 22.128906 8.929688 21.496094 7.652344 21.460938 6.304688 C 21.445312 5.707031 21.433594 5.691406 21.136719 5.921875 M 11.5 6.507812 C 10.640625 6.660156 9.925781 7.191406 9.71875 7.832031 C 9.679688 7.960938 9.707031 7.972656 9.921875 7.902344 C 10.441406 7.742188 11.066406 7.84375 11.429688 8.152344 C 11.570312 8.277344 11.617188 8.445312 11.617188 8.859375 C 11.617188 9.367188 11.558594 9.453125 11.328125 9.300781 C 11.191406 9.210938 11.082031 9.207031 10.851562 9.277344 C 10.582031 9.359375 10.363281 9.359375 10.164062 9.277344 C 9.757812 9.101562 9.660156 9.195312 9.660156 9.753906 C 9.664062 10.941406 10.664062 12.347656 11.671875 12.585938 C 12.550781 12.789062 13.566406 12.035156 14.097656 10.792969 C 14.480469 9.890625 14.382812 8.996094 13.925781 9.25 C 13.726562 9.363281 13.449219 9.371094 13.164062 9.277344 C 12.894531 9.191406 12.855469 9.203125 12.742188 9.414062 C 12.648438 9.597656 12.5625 9.695312 12.503906 9.695312 C 12.378906 9.695312 12.296875 8.886719 12.382812 8.476562 C 12.484375 7.96875 13.382812 7.675781 14.082031 7.917969 C 14.324219 8 14.335938 7.96875 14.167969 7.636719 C 13.753906 6.808594 12.582031 6.3125 11.5 6.507812 M 9.660156 6.902344 C 8.570312 7.765625 8.140625 9.332031 8.628906 10.652344 C 8.671875 10.773438 8.78125 11.039062 8.875 11.246094 C 9.566406 12.8125 9.515625 13.3125 8.542969 14.519531 C 7.632812 15.652344 7.625 16.273438 8.5 17.589844 C 9.480469 19.066406 9.523438 19.402344 8.886719 20.644531 C 8.4375 21.515625 8.378906 21.632812 8.292969 21.84375 C 8.054688 22.421875 7.988281 23.050781 8.15625 23.113281 C 8.257812 23.152344 8.835938 23.324219 8.914062 23.335938 L 8.988281 23.351562 L 8.988281 22.988281 C 8.992188 22.429688 9.054688 22.230469 9.574219 21.167969 C 10.398438 19.484375 10.386719 19.148438 9.433594 17.71875 C 8.417969 16.199219 8.402344 15.746094 9.3125 14.609375 C 10.257812 13.429688 10.304688 12.816406 9.5625 11.140625 C 9.070312 10.019531 8.972656 9.589844 9.046875 8.851562 C 9.117188 8.171875 9.328125 7.625 9.730469 7.066406 C 9.832031 6.929688 9.910156 6.804688 9.90625 6.792969 C 9.886719 6.738281 9.835938 6.761719 9.660156 6.902344 M 14.113281 6.789062 C 14.113281 6.808594 14.175781 6.910156 14.253906 7.015625 C 14.757812 7.6875 14.980469 8.375 14.984375 9.257812 C 14.984375 9.832031 14.894531 10.164062 14.488281 11.070312 C 13.710938 12.8125 13.746094 13.40625 14.691406 14.589844 C 15.609375 15.738281 15.597656 16.195312 14.625 17.660156 C 13.636719 19.136719 13.617188 19.476562 14.410156 21.097656 C 14.941406 22.175781 15.023438 22.421875 15.039062 22.980469 C 15.042969 23.175781 15.054688 23.335938 15.058594 23.34375 C 15.070312 23.351562 15.457031 23.246094 15.742188 23.15625 L 15.964844 23.082031 L 15.953125 22.792969 C 15.929688 22.28125 15.808594 21.941406 15.300781 20.96875 C 14.492188 19.414062 14.5 19.136719 15.402344 17.769531 C 16.429688 16.214844 16.433594 15.726562 15.410156 14.4375 C 14.523438 13.320312 14.472656 12.789062 15.097656 11.355469 C 15.363281 10.746094 15.417969 10.59375 15.492188 10.3125 C 15.789062 9.175781 15.453125 7.972656 14.605469 7.121094 C 14.3125 6.828125 14.113281 6.695312 14.113281 6.789062 M 8.734375 7.152344 C 8.109375 7.5625 7.53125 8.5 7.378906 9.363281 C 7.253906 10.070312 7.320312 10.5625 7.679688 11.613281 C 8.148438 12.988281 8.109375 13.242188 7.257812 14.328125 C 6.179688 15.707031 6.167969 16.167969 7.152344 17.742188 C 7.96875 19.046875 7.972656 19.230469 7.203125 20.75 C 6.738281 21.65625 6.601562 22.035156 6.601562 22.367188 L 6.601562 22.472656 L 6.871094 22.601562 C 7.261719 22.78125 7.238281 22.78125 7.246094 22.632812 C 7.257812 22.257812 7.382812 21.898438 7.699219 21.285156 C 8.445312 19.855469 8.480469 19.769531 8.480469 19.292969 C 8.480469 18.816406 8.34375 18.484375 7.789062 17.636719 C 6.835938 16.175781 6.839844 15.734375 7.824219 14.507812 C 8.75 13.347656 8.808594 12.886719 8.210938 11.296875 C 7.589844 9.648438 7.753906 8.472656 8.773438 7.222656 C 8.925781 7.039062 8.917969 7.03125 8.734375 7.152344 M 15.273438 7.257812 C 15.917969 8.085938 16.164062 8.757812 16.164062 9.695312 C 16.164062 10.296875 16.121094 10.484375 15.734375 11.507812 C 15.226562 12.855469 15.304688 13.386719 16.175781 14.484375 C 16.78125 15.242188 16.925781 15.542969 16.925781 16.011719 C 16.925781 16.476562 16.8125 16.730469 16.105469 17.824219 C 15.335938 19.023438 15.335938 19.476562 16.101562 20.867188 C 16.539062 21.660156 16.699219 22.050781 16.753906 22.464844 C 16.789062 22.726562 16.789062 22.730469 16.835938 22.730469 C 16.9375 22.730469 17.445312 22.464844 17.4375 22.414062 C 17.429688 22.386719 17.421875 22.308594 17.414062 22.242188 C 17.375 21.898438 17.238281 21.5625 16.789062 20.679688 C 16.054688 19.242188 16.058594 19.046875 16.867188 17.75 C 17.863281 16.152344 17.847656 15.75 16.730469 14.292969 C 15.914062 13.226562 15.871094 12.9375 16.339844 11.601562 C 16.75 10.425781 16.796875 9.726562 16.523438 8.890625 C 16.292969 8.203125 15.863281 7.582031 15.351562 7.203125 C 15.101562 7.019531 15.09375 7.027344 15.273438 7.257812 M 16.273438 7.667969 C 17.226562 8.894531 17.4375 10.019531 16.992188 11.496094 C 16.527344 13.035156 16.566406 13.289062 17.460938 14.4375 C 17.800781 14.875 17.875 14.976562 18 15.191406 C 18.363281 15.8125 18.328125 16.328125 17.859375 17.265625 L 17.671875 17.636719 L 17.820312 17.773438 C 18.375 18.285156 19.242188 18.679688 19.816406 18.683594 C 20.09375 18.683594 20.15625 18.636719 20.289062 18.324219 L 20.375 18.121094 L 20.496094 18.125 C 20.722656 18.132812 20.921875 18.253906 21.3125 18.621094 C 21.5 18.796875 21.660156 18.9375 21.667969 18.9375 C 21.6875 18.9375 22.011719 18.488281 22.023438 18.441406 C 22.03125 18.421875 22.003906 18.386719 21.957031 18.359375 C 21.914062 18.335938 21.792969 18.238281 21.6875 18.148438 C 21.339844 17.839844 21.253906 17.777344 21.070312 17.683594 C 20.96875 17.636719 20.816406 17.582031 20.726562 17.566406 C 20.59375 17.539062 20.566406 17.527344 20.582031 17.496094 C 20.589844 17.476562 20.632812 17.320312 20.675781 17.15625 L 20.757812 16.851562 L 20.652344 16.851562 C 20.199219 16.851562 19.515625 16.609375 19.070312 16.28125 C 18.75 16.054688 18.769531 16.078125 18.773438 15.878906 C 18.78125 15.433594 18.597656 15.078125 17.921875 14.21875 C 17.097656 13.167969 17.066406 13.027344 17.410156 11.828125 C 17.761719 10.605469 17.734375 9.816406 17.300781 8.914062 C 17.042969 8.378906 16.648438 7.871094 16.273438 7.601562 L 16.164062 7.527344 L 16.273438 7.667969 M 7.652344 7.691406 C 7.132812 8.113281 6.6875 8.84375 6.492188 9.589844 C 6.316406 10.257812 6.355469 10.894531 6.636719 11.867188 C 6.96875 13.019531 6.933594 13.183594 6.140625 14.1875 C 5.460938 15.046875 5.28125 15.386719 5.265625 15.847656 L 5.261719 16.058594 L 5.167969 16.136719 C 4.695312 16.542969 4.019531 16.8125 3.355469 16.859375 L 3.269531 16.863281 L 3.363281 17.195312 C 3.414062 17.378906 3.453125 17.527344 3.449219 17.53125 C 3.445312 17.53125 3.367188 17.550781 3.269531 17.570312 C 2.964844 17.640625 2.777344 17.753906 2.34375 18.136719 C 2.007812 18.433594 2.042969 18.429688 1.886719 18.1875 C 1.816406 18.074219 1.695312 17.875 1.625 17.75 L 1.492188 17.519531 L 1.609375 17.492188 C 1.746094 17.460938 1.945312 17.339844 2.144531 17.164062 C 2.507812 16.847656 2.695312 16.746094 3.011719 16.703125 C 3.214844 16.675781 3.21875 16.675781 3.210938 16.617188 C 3.203125 16.582031 3.179688 16.441406 3.15625 16.300781 L 3.113281 16.046875 L 2.957031 16.046875 C 2.605469 16.046875 2.332031 16.167969 1.894531 16.507812 C 1.640625 16.707031 1.492188 16.796875 1.34375 16.839844 C 1.167969 16.890625 1.164062 16.890625 1.121094 16.789062 C 0.835938 16.109375 0.769531 15.945312 0.769531 15.9375 C 0.769531 15.933594 0.808594 15.929688 0.859375 15.929688 C 1.148438 15.925781 1.402344 15.824219 1.855469 15.53125 C 2.351562 15.203125 2.558594 15.113281 2.859375 15.082031 L 3.023438 15.070312 L 3.023438 14.769531 C 3.023438 14.605469 3.03125 14.429688 3.039062 14.378906 L 3.054688 14.285156 L 2.878906 14.300781 C 2.496094 14.335938 2.234375 14.4375 1.746094 14.738281 C 1.183594 15.089844 0.976562 15.167969 0.65625 15.171875 L 0.507812 15.171875 L 0.46875 15.039062 C 0.433594 14.921875 0.265625 14.238281 0.265625 14.21875 C 0.265625 14.214844 0.378906 14.207031 0.523438 14.207031 C 0.957031 14.207031 1.203125 14.121094 1.859375 13.746094 C 2.355469 13.464844 2.5625 13.378906 2.894531 13.324219 L 3.152344 13.285156 L 3.207031 13.023438 C 3.234375 12.882812 3.277344 12.699219 3.296875 12.617188 C 3.355469 12.398438 3.367188 12.410156 3.109375 12.429688 C 2.710938 12.457031 2.332031 12.59375 1.777344 12.910156 C 1.144531 13.273438 0.90625 13.351562 0.453125 13.355469 C 0.285156 13.355469 0.140625 13.351562 0.132812 13.34375 C 0.113281 13.324219 0.046875 12.757812 0.046875 12.609375 L 0.046875 12.5 L 0.328125 12.5 C 0.847656 12.496094 1.101562 12.417969 1.882812 12.027344 C 2.6875 11.625 2.929688 11.546875 3.402344 11.539062 L 3.652344 11.53125 L 3.765625 11.265625 C 3.832031 11.117188 3.933594 10.90625 3.996094 10.796875 C 4.144531 10.53125 4.152344 10.535156 3.664062 10.535156 C 3.066406 10.539062 2.882812 10.59375 1.921875 11.066406 C 1.300781 11.371094 1.070312 11.457031 0.707031 11.511719 C 0.496094 11.542969 0.0625 11.542969 0.03125 11.511719 C 0.0195312 11.5 0.0625 10.804688 0.0859375 10.546875 C 0.09375 10.464844 0.0976562 10.398438 0.0898438 10.40625 C 0.0195312 10.46875 -0.0234375 12.121094 0.0234375 12.753906 C 0.195312 14.914062 0.914062 16.90625 2.164062 18.679688 C 2.367188 18.964844 2.410156 19.015625 2.394531 18.972656 C 2.390625 18.957031 2.542969 18.800781 2.730469 18.621094 C 3.105469 18.273438 3.304688 18.148438 3.539062 18.121094 L 3.660156 18.105469 L 3.742188 18.304688 C 3.886719 18.652344 3.933594 18.6875 4.234375 18.683594 C 4.800781 18.675781 5.640625 18.292969 6.226562 17.769531 L 6.371094 17.644531 L 6.1875 17.277344 C 5.578125 16.066406 5.632812 15.648438 6.566406 14.460938 C 7.445312 13.335938 7.511719 12.980469 7.109375 11.679688 C 6.597656 10.046875 6.753906 9.015625 7.703125 7.75 C 7.875 7.527344 7.863281 7.515625 7.652344 7.691406 M 10.027344 8.226562 C 9.734375 8.273438 9.632812 8.492188 9.804688 8.695312 L 9.867188 8.769531 L 9.949219 8.710938 C 10.132812 8.589844 10.550781 8.570312 10.90625 8.671875 C 11.09375 8.726562 11.097656 8.722656 11.078125 8.644531 C 11.027344 8.445312 10.429688 8.15625 10.15625 8.203125 C 10.148438 8.207031 10.089844 8.214844 10.027344 8.226562 M 13.445312 8.261719 C 13.164062 8.335938 12.984375 8.472656 12.984375 8.609375 C 12.984375 8.703125 12.988281 8.703125 13.050781 8.691406 C 13.085938 8.683594 13.1875 8.660156 13.273438 8.640625 C 13.582031 8.570312 13.882812 8.597656 14.046875 8.710938 C 14.144531 8.773438 14.179688 8.757812 14.230469 8.621094 C 14.347656 8.3125 13.949219 8.128906 13.445312 8.261719 M 0.132812 10.039062 C 0.121094 10.109375 0.121094 10.175781 0.125 10.183594 C 0.132812 10.1875 0.144531 10.132812 0.152344 10.058594 C 0.160156 9.984375 0.164062 9.921875 0.160156 9.914062 C 0.152344 9.910156 0.140625 9.964844 0.132812 10.039062 M 0.101562 10.289062 C 0.101562 10.332031 0.105469 10.351562 0.113281 10.328125 C 0.117188 10.304688 0.117188 10.269531 0.113281 10.246094 C 0.105469 10.222656 0.101562 10.242188 0.101562 10.289062 M 12 10.246094 C 12.046875 10.246094 12.140625 10.238281 12.207031 10.226562 C 12.402344 10.199219 12.632812 10.304688 12.582031 10.398438 C 12.5625 10.429688 12.378906 10.503906 12.15625 10.574219 C 11.914062 10.648438 11.335938 10.457031 11.414062 10.332031 C 11.457031 10.261719 11.625 10.214844 11.773438 10.230469 C 11.851562 10.238281 11.953125 10.246094 12 10.246094 M 20.21875 10.539062 C 20.179688 10.542969 20.089844 10.554688 20.023438 10.5625 L 19.898438 10.574219 L 20.039062 10.839844 C 20.113281 10.984375 20.21875 11.203125 20.269531 11.324219 L 20.363281 11.542969 L 20.597656 11.542969 C 21.0625 11.542969 21.308594 11.621094 22.09375 12.015625 C 22.894531 12.417969 23.289062 12.53125 23.839844 12.507812 L 24 12.503906 L 23.996094 12.019531 L 23.988281 11.535156 L 23.722656 11.539062 C 23.1875 11.550781 22.890625 11.46875 22.0625 11.058594 C 21.179688 10.625 20.675781 10.480469 20.21875 10.539062 M 11.648438 11.046875 C 11.992188 11.078125 12.320312 11.066406 12.792969 11.007812 C 13.007812 10.980469 12.941406 11.097656 12.539062 11.476562 C 12.222656 11.777344 11.753906 11.777344 11.4375 11.476562 C 11.035156 11.101562 10.972656 10.980469 11.195312 11.007812 C 11.25 11.011719 11.453125 11.03125 11.648438 11.046875 M 20.6875 12.445312 C 20.6875 12.460938 20.714844 12.574219 20.746094 12.699219 C 20.777344 12.828125 20.816406 12.996094 20.832031 13.074219 C 20.875 13.300781 20.871094 13.292969 21.007812 13.308594 C 21.410156 13.359375 21.621094 13.4375 22.179688 13.753906 C 22.824219 14.121094 23.058594 14.203125 23.527344 14.210938 C 23.765625 14.214844 23.808594 14.210938 23.816406 14.175781 C 23.832031 14.128906 23.917969 13.632812 23.941406 13.480469 C 23.949219 13.417969 23.945312 13.367188 23.933594 13.367188 C 23.925781 13.363281 23.769531 13.359375 23.59375 13.359375 C 23.105469 13.347656 22.90625 13.277344 22.082031 12.824219 C 21.53125 12.523438 20.6875 12.292969 20.6875 12.445312 M 10.855469 13.15625 C 10.777344 13.1875 10.734375 13.265625 10.695312 13.453125 C 10.601562 13.894531 10.507812 14.058594 9.933594 14.800781 C 9.199219 15.753906 9.25 16.269531 10.222656 17.726562 C 11.179688 19.160156 11.210938 19.46875 10.535156 20.863281 C 9.972656 22.019531 9.855469 22.398438 9.851562 23.0625 C 9.851562 23.582031 9.832031 23.546875 10.144531 23.59375 C 11.445312 23.785156 12.851562 23.773438 14.050781 23.566406 L 14.148438 23.550781 L 14.167969 23.371094 C 14.242188 22.699219 14.09375 22.132812 13.554688 21.011719 C 12.796875 19.449219 12.816406 19.1875 13.800781 17.71875 C 14.535156 16.621094 14.699219 16.132812 14.519531 15.5625 C 14.421875 15.25 14.355469 15.148438 13.757812 14.375 C 13.570312 14.136719 13.402344 13.78125 13.34375 13.511719 C 13.25 13.089844 13.207031 13.070312 12.578125 13.238281 C 12.144531 13.351562 11.792969 13.34375 11.296875 13.203125 C 11.042969 13.128906 10.945312 13.121094 10.855469 13.15625 M 21 14.683594 L 21 15.074219 L 21.101562 15.074219 C 21.363281 15.074219 21.695312 15.214844 22.152344 15.511719 C 22.609375 15.8125 22.777344 15.886719 23.125 15.925781 C 23.230469 15.9375 23.316406 15.945312 23.320312 15.945312 C 23.324219 15.941406 23.378906 15.777344 23.449219 15.574219 C 23.585938 15.164062 23.589844 15.171875 23.371094 15.171875 C 23.066406 15.167969 22.789062 15.0625 22.320312 14.765625 C 21.824219 14.453125 21.554688 14.347656 21.160156 14.304688 L 21 14.289062 L 21 14.683594 M 20.917969 16.074219 C 20.914062 16.09375 20.890625 16.214844 20.871094 16.34375 C 20.847656 16.476562 20.824219 16.605469 20.816406 16.628906 C 20.804688 16.671875 20.824219 16.679688 21.015625 16.703125 C 21.304688 16.742188 21.496094 16.84375 21.839844 17.125 C 22.199219 17.425781 22.324219 17.492188 22.558594 17.523438 C 22.582031 17.527344 22.648438 17.425781 22.757812 17.222656 L 22.917969 16.914062 L 22.851562 16.882812 C 22.816406 16.867188 22.765625 16.855469 22.738281 16.855469 C 22.644531 16.851562 22.398438 16.714844 22.15625 16.527344 C 21.851562 16.289062 21.679688 16.183594 21.480469 16.117188 C 21.289062 16.050781 20.933594 16.023438 20.917969 16.074219 M 6.785156 18.453125 C 6.894531 19.054688 6.75 19.449219 6.074219 20.386719 C 5.621094 21.011719 5.429688 21.378906 5.394531 21.691406 C 5.382812 21.773438 5.382812 21.773438 5.621094 21.921875 C 5.753906 22.003906 5.863281 22.066406 5.867188 22.0625 C 5.867188 22.058594 5.886719 21.976562 5.910156 21.875 C 5.972656 21.578125 6.09375 21.324219 6.402344 20.8125 C 7.117188 19.640625 7.207031 19.234375 6.886719 18.59375 C 6.792969 18.40625 6.773438 18.378906 6.785156 18.453125 M 17.164062 18.527344 C 16.828125 19.191406 16.910156 19.652344 17.535156 20.664062 C 17.898438 21.25 18.066406 21.609375 18.109375 21.882812 C 18.140625 22.082031 18.152344 22.082031 18.425781 21.910156 L 18.667969 21.757812 L 18.621094 21.574219 C 18.527344 21.21875 18.390625 20.976562 17.871094 20.265625 C 17.324219 19.519531 17.136719 19.015625 17.226562 18.535156 C 17.257812 18.363281 17.25 18.363281 17.164062 18.527344 M 3.886719 18.902344 C 3.621094 19 3 19.554688 3 19.695312 C 3 19.742188 3.648438 20.417969 3.832031 20.5625 C 3.894531 20.613281 3.820312 20.535156 3.664062 20.386719 C 3.332031 20.070312 3.347656 20.125 3.535156 19.894531 C 3.78125 19.597656 4.027344 19.390625 4.1875 19.351562 C 4.261719 19.332031 4.261719 19.316406 4.191406 19.207031 C 4.160156 19.15625 4.105469 19.058594 4.070312 18.992188 C 4 18.855469 4.007812 18.859375 3.886719 18.902344 M 19.957031 18.992188 C 19.917969 19.0625 19.863281 19.160156 19.832031 19.214844 L 19.773438 19.316406 L 19.910156 19.382812 C 20.070312 19.457031 20.316406 19.679688 20.527344 19.933594 L 20.675781 20.109375 L 20.859375 19.910156 C 21.085938 19.671875 21.089844 19.722656 20.839844 19.449219 C 20.59375 19.175781 20.414062 19.03125 20.214844 18.9375 C 20.023438 18.847656 20.035156 18.847656 19.957031 18.992188 M 19.132812 20.246094 L 18.984375 20.433594 L 19.125 20.566406 C 19.207031 20.636719 19.332031 20.785156 19.40625 20.894531 C 19.484375 21.007812 19.550781 21.097656 19.5625 21.097656 C 19.59375 21.097656 19.945312 20.800781 19.945312 20.773438 C 19.945312 20.714844 19.535156 20.257812 19.367188 20.121094 L 19.277344 20.054688 L 19.132812 20.246094 M 4.59375 20.167969 C 4.425781 20.296875 4.105469 20.695312 4.105469 20.773438 C 4.105469 20.808594 4.457031 21.121094 4.496094 21.121094 C 4.511719 21.121094 4.511719 21.113281 4.503906 21.105469 C 4.480469 21.082031 4.730469 20.742188 4.890625 20.582031 L 5.039062 20.433594 L 4.902344 20.257812 C 4.742188 20.046875 4.75 20.050781 4.59375 20.167969 "/>
<path style=" stroke:none;fill-rule:evenodd;fill:rgb(48.627451%,70.588237%,61.176473%);fill-opacity:1;" d="M 10.175781 4.488281 C 10.175781 4.492188 10.210938 4.527344 10.253906 4.5625 L 10.332031 4.632812 L 10.261719 4.558594 C 10.195312 4.484375 10.175781 4.46875 10.175781 4.488281 M 3 6.050781 C 3.058594 6.113281 3.109375 6.164062 3.113281 6.164062 C 3.132812 6.164062 3.113281 6.140625 3.007812 6.042969 L 2.890625 5.9375 L 3 6.050781 M 2.527344 6.234375 C 2.527344 6.28125 2.53125 6.296875 2.535156 6.277344 C 2.542969 6.253906 2.542969 6.214844 2.535156 6.191406 C 2.53125 6.167969 2.527344 6.1875 2.527344 6.234375 M 13.8125 7.160156 C 13.863281 7.210938 13.910156 7.253906 13.917969 7.253906 C 13.925781 7.253906 13.886719 7.210938 13.835938 7.160156 C 13.785156 7.105469 13.738281 7.0625 13.730469 7.0625 C 13.722656 7.0625 13.761719 7.105469 13.8125 7.160156 M 18.300781 8.484375 C 18.417969 8.601562 18.519531 8.699219 18.527344 8.699219 C 18.535156 8.699219 18.441406 8.601562 18.324219 8.484375 C 18.207031 8.367188 18.105469 8.273438 18.097656 8.273438 C 18.089844 8.273438 18.183594 8.367188 18.300781 8.484375 M 9.03125 9.042969 C 9.03125 9.09375 9.035156 9.113281 9.039062 9.085938 C 9.046875 9.054688 9.046875 9.011719 9.039062 8.988281 C 9.035156 8.964844 9.03125 8.992188 9.03125 9.042969 M 14.980469 9.148438 C 14.980469 9.195312 14.988281 9.214844 14.992188 9.191406 C 15 9.167969 15 9.132812 14.992188 9.109375 C 14.988281 9.085938 14.980469 9.105469 14.980469 9.148438 M 8.40625 9.503906 C 8.40625 9.550781 8.410156 9.570312 8.417969 9.546875 C 8.421875 9.523438 8.421875 9.488281 8.417969 9.464844 C 8.410156 9.441406 8.40625 9.460938 8.40625 9.503906 M 9.628906 9.683594 C 9.628906 9.734375 9.636719 9.753906 9.640625 9.722656 C 9.648438 9.695312 9.648438 9.652344 9.640625 9.628906 C 9.632812 9.605469 9.628906 9.628906 9.628906 9.683594 M 16.6875 10.121094 C 16.6875 10.167969 16.691406 10.1875 16.695312 10.164062 C 16.703125 10.140625 16.703125 10.101562 16.695312 10.078125 C 16.691406 10.058594 16.6875 10.074219 16.6875 10.121094 M 0.714844 10.636719 C 0.742188 10.640625 0.789062 10.640625 0.808594 10.636719 C 0.832031 10.628906 0.808594 10.625 0.757812 10.625 C 0.703125 10.625 0.683594 10.628906 0.714844 10.636719 M 0.03125 11.355469 C 0.03125 11.398438 0.0351562 11.417969 0.0390625 11.394531 C 0.046875 11.371094 0.046875 11.335938 0.0390625 11.3125 C 0.0351562 11.289062 0.03125 11.308594 0.03125 11.355469 M 0.402344 11.535156 C 0.433594 11.542969 0.480469 11.542969 0.511719 11.535156 C 0.539062 11.53125 0.515625 11.527344 0.457031 11.527344 C 0.398438 11.527344 0.371094 11.53125 0.402344 11.535156 M 10.667969 11.992188 C 10.71875 12.046875 10.765625 12.089844 10.773438 12.089844 C 10.78125 12.089844 10.742188 12.046875 10.691406 11.992188 C 10.640625 11.941406 10.59375 11.898438 10.585938 11.898438 C 10.578125 11.898438 10.617188 11.941406 10.667969 11.992188 M 16.039062 12.871094 C 16.039062 12.929688 16.042969 12.953125 16.050781 12.925781 C 16.054688 12.894531 16.054688 12.847656 16.050781 12.816406 C 16.042969 12.789062 16.039062 12.8125 16.039062 12.871094 M 15.414062 12.894531 C 15.414062 12.953125 15.417969 12.976562 15.425781 12.949219 C 15.429688 12.917969 15.429688 12.871094 15.425781 12.839844 C 15.417969 12.8125 15.414062 12.835938 15.414062 12.894531 M 3.070312 13.296875 L 2.988281 13.316406 L 3.066406 13.316406 C 3.105469 13.320312 3.148438 13.3125 3.15625 13.296875 C 3.164062 13.285156 3.167969 13.277344 3.164062 13.277344 C 3.160156 13.277344 3.117188 13.289062 3.070312 13.296875 M 3.03125 14.554688 C 3.03125 14.640625 3.035156 14.671875 3.042969 14.632812 C 3.046875 14.589844 3.046875 14.519531 3.042969 14.476562 C 3.035156 14.433594 3.03125 14.46875 3.03125 14.554688 M 16.925781 16 C 16.925781 16.046875 16.929688 16.0625 16.9375 16.042969 C 16.941406 16.019531 16.941406 15.980469 16.9375 15.957031 C 16.929688 15.9375 16.925781 15.953125 16.925781 16 M 3.15625 16.6875 L 3.085938 16.707031 L 3.148438 16.707031 C 3.183594 16.710938 3.21875 16.699219 3.226562 16.6875 C 3.234375 16.675781 3.238281 16.664062 3.234375 16.667969 C 3.230469 16.667969 3.195312 16.675781 3.15625 16.6875 M 20.851562 16.703125 C 20.878906 16.710938 20.929688 16.710938 20.957031 16.703125 C 20.988281 16.699219 20.964844 16.695312 20.902344 16.695312 C 20.84375 16.695312 20.820312 16.699219 20.851562 16.703125 M 2.753906 19.425781 C 2.777344 19.457031 2.808594 19.488281 2.828125 19.496094 C 2.84375 19.503906 2.835938 19.476562 2.804688 19.4375 C 2.738281 19.355469 2.691406 19.339844 2.753906 19.425781 M 3.382812 20.089844 C 3.382812 20.113281 3.515625 20.246094 3.597656 20.304688 C 3.660156 20.351562 3.640625 20.324219 3.539062 20.222656 C 3.398438 20.078125 3.382812 20.066406 3.382812 20.089844 M 19.535156 20.273438 C 19.59375 20.335938 19.644531 20.386719 19.648438 20.386719 C 19.667969 20.386719 19.648438 20.363281 19.542969 20.265625 L 19.429688 20.160156 L 19.535156 20.273438 M 3.90625 20.609375 C 3.929688 20.640625 3.957031 20.667969 3.96875 20.667969 C 3.980469 20.667969 3.96875 20.644531 3.9375 20.609375 C 3.863281 20.535156 3.847656 20.535156 3.90625 20.609375 "/>
<path style=" stroke:none;fill-rule:evenodd;fill:rgb(31.37255%,57.254905%,45.882353%);fill-opacity:1;" d="M 17.28125 1.222656 C 17.359375 1.265625 17.402344 1.265625 17.339844 1.21875 C 17.316406 1.199219 17.277344 1.183594 17.257812 1.1875 C 17.234375 1.1875 17.242188 1.199219 17.28125 1.222656 M 20.554688 3.554688 C 20.609375 3.609375 20.65625 3.648438 20.660156 3.648438 C 20.667969 3.648438 20.632812 3.609375 20.578125 3.554688 C 20.527344 3.503906 20.480469 3.460938 20.472656 3.460938 C 20.46875 3.460938 20.503906 3.503906 20.554688 3.554688 M 21.253906 4.328125 C 21.277344 4.359375 21.300781 4.382812 21.304688 4.375 C 21.320312 4.359375 21.265625 4.265625 21.238281 4.265625 C 21.226562 4.265625 21.234375 4.292969 21.253906 4.328125 M 21.554688 4.6875 C 21.554688 4.722656 21.671875 4.84375 21.6875 4.828125 C 21.695312 4.820312 21.691406 4.8125 21.675781 4.8125 C 21.660156 4.8125 21.648438 4.796875 21.648438 4.78125 C 21.648438 4.765625 21.625 4.734375 21.601562 4.710938 C 21.574219 4.6875 21.550781 4.679688 21.554688 4.6875 M 21.695312 4.875 C 21.699219 4.910156 21.769531 4.988281 21.769531 4.957031 C 21.769531 4.941406 21.75 4.910156 21.730469 4.890625 C 21.710938 4.871094 21.695312 4.863281 21.695312 4.875 M 21.875 5.132812 C 22.003906 5.339844 22.089844 5.453125 22.113281 5.449219 C 22.128906 5.449219 22.128906 5.441406 22.109375 5.4375 C 22.09375 5.429688 22.078125 5.410156 22.078125 5.390625 C 22.078125 5.371094 22.070312 5.355469 22.054688 5.355469 C 22.042969 5.355469 22.03125 5.339844 22.03125 5.320312 C 22.03125 5.300781 22.019531 5.285156 22.007812 5.285156 C 21.996094 5.285156 21.984375 5.269531 21.984375 5.25 C 21.984375 5.230469 21.972656 5.214844 21.960938 5.214844 C 21.945312 5.214844 21.9375 5.203125 21.9375 5.191406 C 21.9375 5.175781 21.914062 5.140625 21.882812 5.113281 L 21.832031 5.0625 L 21.875 5.132812 M 22.257812 5.71875 C 22.292969 5.773438 22.332031 5.824219 22.347656 5.828125 C 22.371094 5.832031 22.371094 5.828125 22.355469 5.816406 C 22.339844 5.804688 22.304688 5.753906 22.273438 5.707031 C 22.246094 5.65625 22.214844 5.617188 22.207031 5.617188 C 22.203125 5.617188 22.222656 5.664062 22.257812 5.71875 M 11.488281 5.941406 C 11.519531 5.949219 11.566406 5.949219 11.597656 5.941406 C 11.628906 5.9375 11.601562 5.933594 11.542969 5.933594 C 11.484375 5.933594 11.460938 5.9375 11.488281 5.941406 M 12.402344 5.941406 C 12.433594 5.949219 12.480469 5.949219 12.511719 5.941406 C 12.539062 5.9375 12.515625 5.933594 12.457031 5.933594 C 12.398438 5.933594 12.371094 5.9375 12.402344 5.941406 M 22.53125 6.152344 C 22.519531 6.164062 22.648438 6.421875 22.667969 6.421875 C 22.683594 6.421875 22.578125 6.199219 22.554688 6.191406 C 22.546875 6.1875 22.542969 6.171875 22.550781 6.160156 C 22.5625 6.136719 22.550781 6.132812 22.53125 6.152344 M 11.8125 6.464844 C 11.835938 6.46875 11.875 6.46875 11.898438 6.464844 C 11.921875 6.457031 11.902344 6.453125 11.855469 6.453125 C 11.808594 6.453125 11.789062 6.457031 11.8125 6.464844 M 12.066406 6.464844 C 12.09375 6.46875 12.144531 6.46875 12.175781 6.464844 C 12.203125 6.457031 12.179688 6.453125 12.121094 6.453125 C 12.0625 6.453125 12.035156 6.457031 12.066406 6.464844 M 23.082031 7.335938 C 23.101562 7.382812 23.125 7.414062 23.128906 7.410156 C 23.140625 7.398438 23.078125 7.253906 23.058594 7.253906 C 23.050781 7.253906 23.058594 7.289062 23.082031 7.335938 M 5.644531 7.316406 C 5.695312 7.324219 5.777344 7.324219 5.824219 7.316406 C 5.875 7.3125 5.835938 7.308594 5.734375 7.308594 C 5.636719 7.308594 5.597656 7.3125 5.644531 7.316406 M 18.222656 7.316406 C 18.246094 7.324219 18.28125 7.324219 18.304688 7.316406 C 18.328125 7.3125 18.308594 7.304688 18.265625 7.304688 C 18.21875 7.304688 18.199219 7.3125 18.222656 7.316406 M 8.363281 7.449219 L 8.242188 7.574219 L 8.371094 7.457031 C 8.4375 7.390625 8.496094 7.335938 8.496094 7.332031 C 8.496094 7.3125 8.472656 7.332031 8.363281 7.449219 M 23.203125 7.636719 C 23.214844 7.664062 23.238281 7.691406 23.253906 7.695312 C 23.269531 7.699219 23.269531 7.695312 23.257812 7.6875 C 23.242188 7.679688 23.230469 7.660156 23.230469 7.644531 C 23.230469 7.625 23.222656 7.605469 23.207031 7.597656 C 23.191406 7.589844 23.191406 7.601562 23.203125 7.636719 M 23.296875 7.890625 C 23.316406 7.945312 23.34375 7.980469 23.359375 7.972656 C 23.371094 7.964844 23.371094 7.953125 23.355469 7.941406 C 23.339844 7.933594 23.324219 7.902344 23.320312 7.871094 C 23.316406 7.839844 23.300781 7.808594 23.285156 7.804688 C 23.269531 7.796875 23.273438 7.832031 23.296875 7.890625 M 10.386719 7.839844 C 10.429688 7.84375 10.496094 7.84375 10.53125 7.839844 C 10.566406 7.832031 10.53125 7.828125 10.453125 7.828125 C 10.371094 7.828125 10.34375 7.835938 10.386719 7.839844 M 13.710938 8.21875 C 13.746094 8.222656 13.804688 8.222656 13.84375 8.21875 C 13.878906 8.214844 13.847656 8.207031 13.777344 8.207031 C 13.703125 8.207031 13.671875 8.214844 13.710938 8.21875 M 5.867188 8.300781 L 5.796875 8.378906 L 5.875 8.308594 C 5.945312 8.246094 5.964844 8.226562 5.945312 8.226562 C 5.941406 8.226562 5.90625 8.261719 5.867188 8.300781 M 23.425781 8.242188 C 23.425781 8.304688 23.480469 8.4375 23.5 8.425781 C 23.515625 8.414062 23.511719 8.398438 23.496094 8.378906 C 23.480469 8.359375 23.476562 8.34375 23.484375 8.34375 C 23.496094 8.34375 23.492188 8.332031 23.480469 8.316406 C 23.464844 8.300781 23.457031 8.277344 23.464844 8.257812 C 23.472656 8.238281 23.464844 8.226562 23.449219 8.226562 C 23.4375 8.226562 23.425781 8.234375 23.425781 8.242188 M 5.363281 8.800781 L 5.269531 8.902344 L 5.371094 8.808594 C 5.464844 8.71875 5.484375 8.699219 5.464844 8.699219 C 5.460938 8.699219 5.414062 8.746094 5.363281 8.800781 M 23.59375 8.832031 C 23.59375 8.859375 23.601562 8.890625 23.609375 8.898438 C 23.621094 8.90625 23.628906 8.929688 23.628906 8.945312 C 23.632812 8.960938 23.632812 8.992188 23.636719 9.015625 C 23.636719 9.039062 23.652344 9.050781 23.664062 9.042969 C 23.679688 9.03125 23.683594 9.015625 23.667969 9 C 23.65625 8.984375 23.644531 8.957031 23.644531 8.9375 C 23.640625 8.835938 23.59375 8.742188 23.59375 8.832031 M 9.03125 9.195312 C 9.03125 9.242188 9.035156 9.261719 9.039062 9.238281 C 9.046875 9.214844 9.046875 9.179688 9.039062 9.15625 C 9.035156 9.132812 9.03125 9.152344 9.03125 9.195312 M 14.980469 9.292969 C 14.980469 9.335938 14.988281 9.355469 14.992188 9.332031 C 15 9.308594 15 9.273438 14.992188 9.25 C 14.988281 9.226562 14.980469 9.246094 14.980469 9.292969 M 8.40625 9.351562 C 8.40625 9.402344 8.410156 9.421875 8.417969 9.390625 C 8.421875 9.363281 8.421875 9.320312 8.417969 9.296875 C 8.410156 9.273438 8.40625 9.300781 8.40625 9.351562 M 15.609375 9.46875 C 15.609375 9.546875 15.613281 9.578125 15.617188 9.535156 C 15.621094 9.492188 15.621094 9.429688 15.617188 9.390625 C 15.613281 9.355469 15.605469 9.390625 15.609375 9.46875 M 8.40625 9.648438 C 8.40625 9.691406 8.410156 9.710938 8.417969 9.6875 C 8.421875 9.667969 8.421875 9.628906 8.417969 9.605469 C 8.410156 9.582031 8.40625 9.601562 8.40625 9.648438 M 16.15625 9.882812 C 16.15625 9.929688 16.164062 9.949219 16.167969 9.925781 C 16.175781 9.902344 16.175781 9.867188 16.167969 9.84375 C 16.164062 9.820312 16.15625 9.839844 16.15625 9.882812 M 23.847656 10.0625 C 23.867188 10.175781 23.871094 10.183594 23.886719 10.125 C 23.890625 10.101562 23.882812 10.054688 23.863281 10.023438 C 23.832031 9.972656 23.832031 9.972656 23.847656 10.0625 M 17.214844 10.203125 C 17.214844 10.28125 17.21875 10.3125 17.226562 10.269531 C 17.230469 10.226562 17.230469 10.164062 17.226562 10.128906 C 17.21875 10.089844 17.214844 10.125 17.214844 10.203125 M 23.917969 10.570312 C 23.925781 10.625 23.929688 10.699219 23.929688 10.734375 C 23.933594 10.789062 23.9375 10.785156 23.953125 10.714844 C 23.964844 10.667969 23.964844 10.621094 23.953125 10.609375 C 23.941406 10.59375 23.925781 10.558594 23.921875 10.523438 C 23.914062 10.492188 23.914062 10.511719 23.917969 10.570312 M 11.945312 10.589844 C 11.976562 10.59375 12.019531 10.59375 12.042969 10.589844 C 12.066406 10.582031 12.039062 10.578125 11.988281 10.578125 C 11.933594 10.578125 11.917969 10.582031 11.945312 10.589844 M 23.15625 10.636719 C 23.183594 10.640625 23.226562 10.640625 23.25 10.636719 C 23.273438 10.628906 23.25 10.625 23.195312 10.625 C 23.144531 10.625 23.125 10.628906 23.15625 10.636719 M 0.0546875 10.976562 C 0.0546875 11.019531 0.0585938 11.039062 0.0664062 11.015625 C 0.0703125 10.992188 0.0703125 10.957031 0.0664062 10.933594 C 0.0585938 10.910156 0.0546875 10.929688 0.0546875 10.976562 M 23.957031 11.09375 C 23.957031 11.140625 23.960938 11.15625 23.96875 11.136719 C 23.972656 11.113281 23.972656 11.074219 23.96875 11.050781 C 23.960938 11.027344 23.957031 11.046875 23.957031 11.09375 M 23.984375 11.292969 C 23.984375 11.359375 23.988281 11.382812 23.992188 11.347656 C 24 11.3125 24 11.257812 23.992188 11.230469 C 23.988281 11.199219 23.984375 11.230469 23.984375 11.292969 M 14.695312 12.753906 C 14.695312 12.796875 14.699219 12.816406 14.703125 12.792969 C 14.710938 12.769531 14.710938 12.734375 14.703125 12.710938 C 14.699219 12.6875 14.695312 12.707031 14.695312 12.753906 M 8.597656 12.8125 C 8.597656 12.863281 8.601562 12.882812 8.609375 12.851562 C 8.613281 12.824219 8.613281 12.78125 8.609375 12.757812 C 8.601562 12.734375 8.597656 12.757812 8.597656 12.8125 M 16.6875 12.800781 C 16.6875 12.84375 16.691406 12.863281 16.695312 12.839844 C 16.703125 12.820312 16.703125 12.78125 16.695312 12.757812 C 16.691406 12.734375 16.6875 12.753906 16.6875 12.800781 M 9.320312 12.882812 C 9.320312 12.949219 9.324219 12.972656 9.328125 12.9375 C 9.335938 12.898438 9.335938 12.847656 9.328125 12.816406 C 9.324219 12.789062 9.320312 12.816406 9.320312 12.882812 M 6.820312 12.90625 C 6.824219 12.957031 6.828125 12.976562 6.832031 12.949219 C 6.839844 12.917969 6.839844 12.875 6.832031 12.851562 C 6.828125 12.832031 6.820312 12.855469 6.820312 12.90625 M 11.921875 13.316406 C 11.964844 13.320312 12.035156 13.320312 12.078125 13.316406 C 12.121094 13.308594 12.085938 13.304688 12 13.304688 C 11.914062 13.304688 11.878906 13.308594 11.921875 13.316406 M 0.390625 13.363281 C 0.425781 13.367188 0.480469 13.367188 0.511719 13.363281 C 0.539062 13.355469 0.511719 13.351562 0.445312 13.351562 C 0.378906 13.351562 0.355469 13.355469 0.390625 13.363281 M 23.503906 13.363281 C 23.539062 13.367188 23.597656 13.367188 23.632812 13.363281 C 23.671875 13.355469 23.640625 13.351562 23.566406 13.351562 C 23.496094 13.351562 23.464844 13.355469 23.503906 13.363281 M 20.980469 14.449219 C 20.980469 14.5 20.988281 14.519531 20.992188 14.488281 C 21 14.460938 21 14.417969 20.992188 14.394531 C 20.988281 14.371094 20.980469 14.394531 20.980469 14.449219 M 3.03125 14.886719 C 3.03125 14.996094 3.035156 15.042969 3.042969 14.988281 C 3.046875 14.929688 3.046875 14.839844 3.042969 14.785156 C 3.035156 14.730469 3.03125 14.773438 3.03125 14.886719 M 20.980469 15.003906 C 20.980469 15.050781 20.988281 15.070312 20.992188 15.046875 C 21 15.023438 21 14.984375 20.992188 14.964844 C 20.988281 14.941406 20.980469 14.957031 20.980469 15.003906 M 2.957031 16.039062 C 2.996094 16.046875 3.050781 16.046875 3.078125 16.039062 C 3.109375 16.035156 3.078125 16.03125 3.011719 16.03125 C 2.945312 16.03125 2.921875 16.035156 2.957031 16.039062 M 20.980469 16.039062 C 21.019531 16.046875 21.074219 16.046875 21.101562 16.039062 C 21.132812 16.035156 21.101562 16.03125 21.035156 16.03125 C 20.96875 16.03125 20.945312 16.035156 20.980469 16.039062 M 23.191406 16.085938 C 23.183594 16.105469 23.1875 16.132812 23.203125 16.148438 C 23.222656 16.164062 23.226562 16.15625 23.214844 16.117188 C 23.203125 16.078125 23.207031 16.070312 23.230469 16.082031 C 23.253906 16.09375 23.257812 16.09375 23.246094 16.074219 C 23.222656 16.039062 23.210938 16.039062 23.191406 16.085938 M 23.132812 16.230469 C 23.121094 16.265625 23.070312 16.386719 23.023438 16.492188 C 22.976562 16.601562 22.945312 16.695312 22.953125 16.703125 C 22.960938 16.710938 22.96875 16.699219 22.96875 16.679688 C 22.96875 16.65625 22.980469 16.644531 22.992188 16.652344 C 23.003906 16.660156 23.007812 16.648438 23 16.625 C 22.988281 16.597656 22.992188 16.589844 23.011719 16.601562 C 23.03125 16.613281 23.035156 16.605469 23.023438 16.578125 C 23.015625 16.550781 23.015625 16.542969 23.035156 16.554688 C 23.046875 16.5625 23.058594 16.554688 23.058594 16.539062 C 23.054688 16.464844 23.066406 16.425781 23.085938 16.4375 C 23.101562 16.445312 23.105469 16.4375 23.09375 16.414062 C 23.085938 16.386719 23.089844 16.378906 23.105469 16.386719 C 23.121094 16.398438 23.125 16.386719 23.117188 16.351562 C 23.109375 16.320312 23.113281 16.304688 23.128906 16.316406 C 23.144531 16.324219 23.152344 16.316406 23.152344 16.300781 C 23.152344 16.222656 23.160156 16.1875 23.1875 16.203125 C 23.203125 16.214844 23.207031 16.210938 23.199219 16.191406 C 23.171875 16.152344 23.160156 16.160156 23.132812 16.230469 M 20.621094 16.847656 C 20.644531 16.851562 20.683594 16.851562 20.707031 16.847656 C 20.730469 16.839844 20.710938 16.835938 20.664062 16.835938 C 20.617188 16.835938 20.597656 16.839844 20.621094 16.847656 M 21.371094 18.703125 C 21.421875 18.753906 21.472656 18.796875 21.476562 18.796875 C 21.484375 18.796875 21.449219 18.753906 21.394531 18.703125 C 21.34375 18.648438 21.296875 18.605469 21.289062 18.605469 C 21.285156 18.605469 21.320312 18.648438 21.371094 18.703125 M 7.0625 19.222656 C 7.0625 19.28125 7.066406 19.304688 7.074219 19.277344 C 7.078125 19.246094 7.078125 19.199219 7.074219 19.171875 C 7.066406 19.140625 7.0625 19.164062 7.0625 19.222656 M 15.511719 19.308594 C 15.511719 19.359375 15.515625 19.378906 15.519531 19.347656 C 15.527344 19.320312 15.527344 19.277344 15.519531 19.253906 C 15.515625 19.230469 15.507812 19.253906 15.511719 19.308594 M 3.636719 20.359375 C 3.675781 20.402344 3.742188 20.460938 3.78125 20.488281 L 3.851562 20.535156 L 3.804688 20.480469 C 3.777344 20.453125 3.710938 20.394531 3.660156 20.355469 L 3.5625 20.28125 L 3.636719 20.359375 M 3.984375 20.667969 C 3.984375 20.679688 4.011719 20.707031 4.042969 20.726562 C 4.078125 20.75 4.105469 20.761719 4.105469 20.757812 C 4.105469 20.753906 4.078125 20.726562 4.042969 20.699219 C 4.011719 20.667969 3.984375 20.65625 3.984375 20.667969 M 8.046875 22.828125 C 8.046875 22.871094 8.050781 22.890625 8.054688 22.867188 C 8.0625 22.84375 8.0625 22.808594 8.054688 22.785156 C 8.050781 22.761719 8.046875 22.78125 8.046875 22.828125 "/>
<path style=" stroke:none;fill-rule:evenodd;fill:rgb(1.568628%,39.215687%,23.529412%);fill-opacity:1;" d="M 11.0625 0.0234375 C 7.304688 0.347656 4.039062 2.246094 1.988281 5.304688 C 1.867188 5.484375 1.761719 5.65625 1.746094 5.6875 C 1.734375 5.722656 1.714844 5.753906 1.707031 5.757812 C 1.679688 5.777344 1.484375 6.109375 1.480469 6.144531 C 1.476562 6.164062 1.453125 6.210938 1.429688 6.25 C 1.402344 6.285156 1.386719 6.320312 1.386719 6.324219 C 1.390625 6.328125 1.378906 6.34375 1.359375 6.363281 C 1.339844 6.382812 1.28125 6.507812 1.222656 6.640625 C 1.167969 6.777344 1.101562 6.914062 1.078125 6.945312 C 1.054688 6.976562 1.027344 7.042969 1.015625 7.085938 C 1 7.132812 0.953125 7.261719 0.90625 7.371094 C 0.433594 8.472656 0.128906 9.855469 0.0585938 11.171875 C 0.0390625 11.539062 0.0234375 11.519531 0.351562 11.519531 C 0.84375 11.519531 1.175781 11.421875 1.933594 11.042969 C 2.871094 10.574219 3.308594 10.457031 3.886719 10.523438 C 4.167969 10.554688 4.152344 10.527344 4.015625 10.789062 C 3.953125 10.910156 3.84375 11.132812 3.777344 11.28125 L 3.65625 11.554688 L 3.503906 11.546875 C 3.0625 11.523438 2.707031 11.628906 1.957031 12.007812 C 1.125 12.425781 0.828125 12.515625 0.308594 12.515625 L 0.046875 12.515625 L 0.0585938 12.628906 C 0.0664062 12.691406 0.0820312 12.871094 0.0976562 13.03125 L 0.128906 13.320312 L 0.210938 13.335938 C 0.625 13.414062 1.074219 13.285156 1.78125 12.890625 C 2.398438 12.546875 2.652344 12.457031 3.082031 12.421875 C 3.40625 12.394531 3.378906 12.359375 3.292969 12.722656 C 3.25 12.886719 3.207031 13.089844 3.191406 13.171875 L 3.164062 13.316406 L 2.980469 13.328125 C 2.640625 13.355469 2.386719 13.457031 1.699219 13.847656 C 1.222656 14.121094 0.976562 14.199219 0.582031 14.21875 C 0.378906 14.226562 0.289062 14.238281 0.289062 14.257812 C 0.289062 14.296875 0.5 15.128906 0.515625 15.140625 C 0.546875 15.171875 0.867188 15.144531 1.019531 15.097656 C 1.234375 15.03125 1.3125 14.992188 1.703125 14.75 C 2.230469 14.417969 2.5625 14.292969 2.894531 14.292969 L 3.046875 14.292969 L 3.046875 15.074219 L 2.933594 15.085938 C 2.546875 15.132812 2.363281 15.210938 1.882812 15.527344 C 1.425781 15.824219 1.191406 15.925781 0.949219 15.929688 C 0.777344 15.929688 0.777344 15.933594 0.949219 16.34375 C 1.035156 16.554688 1.117188 16.753906 1.132812 16.789062 C 1.183594 16.929688 1.488281 16.8125 1.882812 16.5 C 2.304688 16.167969 2.535156 16.0625 2.917969 16.03125 L 3.117188 16.015625 L 3.132812 16.109375 C 3.140625 16.160156 3.167969 16.308594 3.195312 16.4375 C 3.21875 16.570312 3.238281 16.683594 3.238281 16.691406 C 3.238281 16.703125 3.175781 16.710938 3.097656 16.710938 C 2.808594 16.710938 2.574219 16.820312 2.214844 17.121094 C 1.910156 17.375 1.78125 17.457031 1.632812 17.496094 L 1.511719 17.527344 L 1.597656 17.679688 C 1.648438 17.765625 1.761719 17.957031 1.851562 18.105469 L 2.019531 18.371094 L 2.085938 18.332031 C 2.121094 18.3125 2.257812 18.199219 2.390625 18.082031 C 2.777344 17.734375 3.117188 17.542969 3.355469 17.542969 C 3.449219 17.539062 3.449219 17.554688 3.347656 17.199219 C 3.234375 16.804688 3.222656 16.839844 3.496094 16.820312 C 4.039062 16.785156 4.695312 16.515625 5.125 16.152344 L 5.25 16.046875 L 5.25 15.863281 C 5.253906 15.425781 5.449219 15.042969 6.105469 14.210938 C 6.9375 13.160156 6.960938 13.027344 6.589844 11.757812 C 6.222656 10.507812 6.324219 9.523438 6.929688 8.519531 C 7.136719 8.183594 7.507812 7.765625 7.769531 7.578125 C 7.921875 7.472656 7.925781 7.484375 7.792969 7.65625 C 6.804688 8.898438 6.613281 10.011719 7.105469 11.632812 C 7.527344 13.011719 7.472656 13.300781 6.585938 14.449219 C 5.636719 15.675781 5.585938 16.066406 6.214844 17.300781 L 6.386719 17.644531 L 6.238281 17.777344 C 5.632812 18.3125 4.8125 18.6875 4.230469 18.6875 C 3.898438 18.691406 3.839844 18.636719 3.675781 18.179688 C 3.605469 17.988281 3.152344 18.222656 2.636719 18.714844 L 2.40625 18.933594 L 2.554688 19.125 C 2.636719 19.230469 2.761719 19.382812 2.832031 19.464844 C 2.902344 19.546875 2.96875 19.625 2.976562 19.632812 C 2.984375 19.644531 3.074219 19.558594 3.171875 19.449219 C 3.425781 19.15625 3.847656 18.84375 3.992188 18.84375 C 4.003906 18.84375 4.277344 19.320312 4.265625 19.328125 C 4.261719 19.332031 4.191406 19.367188 4.101562 19.40625 C 3.933594 19.488281 3.753906 19.648438 3.535156 19.914062 L 3.398438 20.085938 L 3.742188 20.410156 L 4.085938 20.738281 L 4.222656 20.554688 C 4.378906 20.347656 4.691406 20.046875 4.738281 20.058594 C 4.757812 20.0625 4.835938 20.148438 4.914062 20.25 L 5.058594 20.4375 L 4.898438 20.59375 C 4.625 20.859375 4.460938 21.144531 4.574219 21.144531 C 4.59375 21.144531 4.617188 21.167969 4.628906 21.195312 C 4.640625 21.226562 4.660156 21.246094 4.671875 21.246094 C 4.683594 21.242188 4.691406 21.25 4.691406 21.261719 C 4.691406 21.273438 4.703125 21.289062 4.714844 21.300781 C 4.726562 21.3125 4.726562 21.308594 4.71875 21.292969 C 4.707031 21.277344 4.710938 21.261719 4.726562 21.261719 C 4.742188 21.261719 4.753906 21.273438 4.753906 21.285156 C 4.753906 21.300781 4.769531 21.308594 4.789062 21.308594 C 4.808594 21.308594 4.835938 21.332031 4.847656 21.363281 C 4.867188 21.421875 5.0625 21.570312 5.117188 21.570312 C 5.136719 21.570312 5.171875 21.597656 5.195312 21.628906 C 5.222656 21.675781 5.246094 21.6875 5.285156 21.675781 C 5.320312 21.664062 5.328125 21.667969 5.316406 21.6875 C 5.304688 21.703125 5.3125 21.726562 5.332031 21.738281 C 5.355469 21.753906 5.371094 21.726562 5.390625 21.621094 C 5.453125 21.3125 5.648438 20.941406 5.976562 20.503906 C 6.558594 19.722656 6.738281 19.382812 6.796875 18.960938 C 6.820312 18.785156 6.8125 18.710938 6.753906 18.371094 C 6.734375 18.242188 6.917969 18.574219 7 18.808594 C 7.175781 19.320312 7.066406 19.742188 6.535156 20.617188 C 6.085938 21.351562 5.964844 21.617188 5.90625 21.96875 L 5.886719 22.089844 L 5.992188 22.152344 C 6.050781 22.1875 6.207031 22.269531 6.335938 22.339844 L 6.574219 22.464844 L 6.578125 22.378906 C 6.578125 22.058594 6.75 21.605469 7.214844 20.691406 C 7.964844 19.21875 7.957031 19.058594 7.09375 17.683594 C 6.160156 16.203125 6.183594 15.679688 7.234375 14.339844 C 8.105469 13.230469 8.140625 13 7.644531 11.554688 C 7.382812 10.789062 7.34375 10.605469 7.328125 10.0625 C 7.292969 8.894531 7.867188 7.710938 8.753906 7.128906 C 8.964844 6.988281 8.964844 6.996094 8.753906 7.269531 C 7.746094 8.570312 7.605469 9.664062 8.234375 11.324219 C 8.820312 12.875 8.761719 13.351562 7.839844 14.507812 C 6.863281 15.726562 6.851562 16.167969 7.78125 17.601562 C 8.746094 19.089844 8.75 19.378906 7.828125 21.066406 C 7.4375 21.78125 7.28125 22.214844 7.265625 22.609375 L 7.261719 22.785156 L 7.429688 22.855469 C 7.570312 22.914062 8.03125 23.085938 8.046875 23.085938 C 8.050781 23.085938 8.054688 22.972656 8.054688 22.832031 C 8.058594 22.324219 8.21875 21.875 8.734375 20.914062 C 9.503906 19.46875 9.488281 19.125 8.601562 17.777344 C 7.582031 16.234375 7.574219 15.722656 8.566406 14.472656 C 9.210938 13.65625 9.332031 13.378906 9.304688 12.765625 C 9.285156 12.296875 9.21875 12.082031 8.855469 11.246094 C 8.183594 9.710938 8.261719 8.566406 9.113281 7.449219 C 9.574219 6.84375 10.1875 6.460938 9.765625 7.039062 C 9.238281 7.765625 9.027344 8.457031 9.054688 9.363281 C 9.074219 9.929688 9.144531 10.175781 9.59375 11.175781 C 10.285156 12.726562 10.261719 13.402344 9.46875 14.425781 C 9.363281 14.5625 9.207031 14.761719 9.125 14.871094 C 8.433594 15.765625 8.507812 16.332031 9.507812 17.808594 C 10.386719 19.105469 10.398438 19.511719 9.613281 21.121094 C 9.246094 21.871094 9.152344 22.089844 9.074219 22.386719 C 8.980469 22.765625 8.96875 22.945312 9.011719 23.351562 C 9.015625 23.382812 9.042969 23.394531 9.425781 23.476562 C 9.894531 23.578125 9.898438 23.578125 9.859375 23.507812 C 9.8125 23.421875 9.820312 22.808594 9.871094 22.554688 C 9.964844 22.085938 10.105469 21.71875 10.488281 20.929688 C 11.214844 19.4375 11.1875 19.179688 10.132812 17.625 C 9.203125 16.253906 9.1875 15.726562 10.058594 14.613281 C 10.476562 14.074219 10.609375 13.828125 10.679688 13.460938 C 10.742188 13.117188 10.847656 13.0625 11.246094 13.175781 C 11.839844 13.335938 12.15625 13.339844 12.703125 13.191406 C 13.1875 13.058594 13.257812 13.089844 13.34375 13.472656 C 13.433594 13.875 13.5625 14.105469 14.070312 14.757812 C 14.835938 15.746094 14.792969 16.257812 13.824219 17.707031 C 12.855469 19.152344 12.824219 19.460938 13.480469 20.824219 C 14.085938 22.074219 14.195312 22.445312 14.179688 23.175781 L 14.171875 23.5625 L 14.265625 23.546875 C 14.316406 23.539062 14.507812 23.5 14.695312 23.457031 L 15.035156 23.382812 L 15.03125 23.0625 C 15.027344 22.496094 14.933594 22.203125 14.4375 21.191406 C 13.589844 19.460938 13.605469 19.167969 14.640625 17.613281 C 15.414062 16.449219 15.519531 15.917969 15.113281 15.207031 C 15.023438 15.050781 14.953125 14.953125 14.488281 14.355469 C 13.757812 13.410156 13.753906 12.660156 14.46875 11.089844 C 14.835938 10.28125 14.949219 9.898438 14.96875 9.40625 C 15.007812 8.5 14.761719 7.710938 14.21875 7 C 14.058594 6.789062 14.050781 6.652344 14.207031 6.761719 C 15.058594 7.351562 15.609375 8.421875 15.609375 9.492188 C 15.609375 10.070312 15.519531 10.429688 15.175781 11.207031 C 14.800781 12.066406 14.738281 12.277344 14.71875 12.753906 C 14.691406 13.410156 14.785156 13.613281 15.636719 14.703125 C 16.425781 15.71875 16.382812 16.3125 15.40625 17.789062 C 14.515625 19.140625 14.507812 19.386719 15.324219 20.984375 C 15.851562 22.023438 15.957031 22.332031 15.96875 22.839844 C 15.96875 22.960938 15.980469 23.066406 15.988281 23.074219 C 16.003906 23.089844 16.265625 23.003906 16.574219 22.875 L 16.820312 22.777344 L 16.785156 22.710938 C 16.765625 22.675781 16.753906 22.613281 16.753906 22.570312 C 16.75 22.304688 16.589844 21.839844 16.320312 21.320312 C 16.21875 21.125 16.035156 20.777344 15.917969 20.550781 C 15.484375 19.726562 15.417969 19.296875 15.628906 18.707031 C 15.746094 18.378906 15.8125 18.257812 16.355469 17.410156 C 17.101562 16.25 17.105469 15.710938 16.386719 14.785156 C 16.28125 14.652344 16.097656 14.414062 15.976562 14.253906 C 15.269531 13.332031 15.234375 12.785156 15.800781 11.289062 C 16.414062 9.667969 16.261719 8.5625 15.246094 7.257812 C 15.074219 7.035156 15.070312 7.007812 15.222656 7.09375 C 15.886719 7.480469 16.496094 8.460938 16.660156 9.398438 C 16.773438 10.054688 16.703125 10.585938 16.367188 11.566406 C 15.878906 13.003906 15.917969 13.230469 16.8125 14.375 C 17.84375 15.695312 17.855469 16.191406 16.902344 17.714844 C 16.066406 19.054688 16.0625 19.21875 16.8125 20.691406 C 17.265625 21.589844 17.535156 22.328125 17.453125 22.457031 C 17.4375 22.480469 17.441406 22.480469 17.640625 22.378906 C 18.035156 22.175781 18.167969 22.089844 18.144531 22.046875 C 18.132812 22.027344 18.105469 21.929688 18.082031 21.832031 C 18.019531 21.558594 17.894531 21.292969 17.597656 20.800781 C 16.871094 19.617188 16.796875 19.199219 17.175781 18.488281 C 17.277344 18.292969 17.292969 18.292969 17.253906 18.488281 C 17.148438 19.015625 17.316406 19.484375 17.878906 20.253906 C 18.367188 20.917969 18.535156 21.207031 18.617188 21.535156 C 18.640625 21.625 18.667969 21.703125 18.679688 21.707031 C 18.6875 21.714844 18.691406 21.726562 18.683594 21.738281 C 18.65625 21.78125 18.707031 21.757812 18.859375 21.648438 C 19.050781 21.519531 19.558594 21.140625 19.558594 21.128906 C 19.558594 21.125 19.546875 21.109375 19.527344 21.09375 C 19.511719 21.074219 19.441406 20.976562 19.367188 20.875 C 19.296875 20.773438 19.175781 20.632812 19.101562 20.566406 L 18.964844 20.441406 L 19.113281 20.25 C 19.191406 20.144531 19.273438 20.054688 19.289062 20.054688 C 19.332031 20.050781 19.683594 20.394531 19.800781 20.550781 C 19.996094 20.820312 19.933594 20.828125 20.332031 20.457031 L 20.679688 20.128906 L 20.558594 19.988281 C 20.273438 19.667969 20.050781 19.46875 19.902344 19.398438 L 19.757812 19.328125 L 19.886719 19.09375 C 19.957031 18.964844 20.019531 18.855469 20.027344 18.851562 C 20.085938 18.792969 20.570312 19.125 20.800781 19.382812 C 20.890625 19.484375 20.992188 19.59375 21.023438 19.628906 L 21.085938 19.695312 L 21.304688 19.429688 C 21.699219 18.953125 21.703125 18.945312 21.644531 18.925781 C 21.613281 18.917969 21.453125 18.777344 21.28125 18.617188 C 20.949219 18.300781 20.738281 18.171875 20.507812 18.136719 L 20.386719 18.121094 L 20.300781 18.332031 C 20.160156 18.667969 20.082031 18.71875 19.730469 18.695312 C 19.136719 18.65625 18.367188 18.292969 17.777344 17.765625 L 17.648438 17.648438 L 17.773438 17.410156 C 18.453125 16.136719 18.40625 15.679688 17.46875 14.480469 C 16.566406 13.324219 16.511719 13.035156 16.933594 11.644531 C 17.425781 10.015625 17.242188 8.945312 16.253906 7.671875 C 16.117188 7.496094 16.136719 7.480469 16.3125 7.613281 C 16.65625 7.875 17.011719 8.320312 17.253906 8.789062 C 17.742188 9.742188 17.789062 10.5625 17.421875 11.851562 C 17.085938 13.046875 17.109375 13.164062 17.917969 14.1875 C 18.59375 15.046875 18.792969 15.429688 18.792969 15.875 C 18.792969 16.074219 18.785156 16.0625 19.101562 16.289062 C 19.53125 16.597656 20.1875 16.828125 20.628906 16.828125 C 20.792969 16.828125 20.789062 16.8125 20.695312 17.144531 C 20.652344 17.304688 20.609375 17.457031 20.601562 17.484375 C 20.589844 17.527344 20.601562 17.535156 20.714844 17.550781 C 20.988281 17.585938 21.246094 17.734375 21.613281 18.0625 C 21.996094 18.40625 22.042969 18.429688 22.121094 18.3125 C 22.175781 18.226562 22.195312 18.144531 22.152344 18.167969 C 22.113281 18.191406 22.125 18.164062 22.167969 18.128906 C 22.195312 18.109375 22.203125 18.109375 22.191406 18.128906 C 22.179688 18.148438 22.183594 18.152344 22.210938 18.144531 C 22.230469 18.136719 22.246094 18.121094 22.242188 18.113281 C 22.238281 18.105469 22.261719 18.058594 22.292969 18.007812 C 22.324219 17.960938 22.339844 17.910156 22.332031 17.898438 C 22.324219 17.882812 22.335938 17.878906 22.359375 17.890625 C 22.398438 17.902344 22.398438 17.898438 22.375 17.867188 C 22.347656 17.835938 22.355469 17.808594 22.425781 17.6875 C 22.527344 17.519531 22.527344 17.515625 22.457031 17.515625 C 22.367188 17.515625 22.121094 17.386719 21.960938 17.253906 C 21.441406 16.816406 21.230469 16.710938 20.886719 16.710938 C 20.804688 16.710938 20.78125 16.703125 20.792969 16.679688 C 20.796875 16.660156 20.828125 16.503906 20.859375 16.332031 L 20.914062 16.015625 L 21.109375 16.03125 C 21.484375 16.0625 21.703125 16.160156 22.144531 16.5 C 22.546875 16.808594 22.914062 16.957031 22.933594 16.820312 C 22.9375 16.796875 22.953125 16.765625 22.964844 16.75 C 22.980469 16.738281 22.992188 16.707031 22.992188 16.6875 C 22.992188 16.65625 22.988281 16.65625 22.964844 16.6875 C 22.917969 16.75 22.957031 16.644531 23.101562 16.300781 C 23.261719 15.925781 23.265625 15.953125 23.027344 15.925781 C 22.773438 15.898438 22.550781 15.796875 22.109375 15.507812 C 21.726562 15.257812 21.46875 15.140625 21.253906 15.113281 C 21.1875 15.105469 21.097656 15.09375 21.054688 15.085938 L 20.976562 15.074219 L 20.976562 14.285156 L 21.1875 14.300781 C 21.550781 14.324219 21.800781 14.425781 22.339844 14.761719 C 22.847656 15.078125 23.011719 15.140625 23.390625 15.15625 L 23.589844 15.164062 L 23.609375 15.066406 C 23.617188 15.011719 23.625 14.957031 23.628906 14.945312 C 23.628906 14.933594 23.632812 14.917969 23.644531 14.910156 C 23.65625 14.898438 23.808594 14.292969 23.808594 14.25 C 23.808594 14.238281 23.6875 14.226562 23.542969 14.222656 C 23.023438 14.214844 22.808594 14.140625 22.070312 13.714844 C 21.628906 13.460938 21.242188 13.324219 20.960938 13.320312 L 20.863281 13.320312 L 20.832031 13.148438 C 20.816406 13.054688 20.769531 12.851562 20.734375 12.695312 C 20.695312 12.539062 20.664062 12.410156 20.667969 12.410156 C 20.671875 12.40625 20.785156 12.414062 20.917969 12.421875 C 21.351562 12.453125 21.652344 12.5625 22.332031 12.941406 C 22.925781 13.273438 23.199219 13.355469 23.675781 13.339844 L 23.964844 13.332031 L 23.960938 13.238281 C 23.957031 13.1875 23.949219 13.105469 23.941406 13.0625 C 23.929688 12.984375 23.929688 12.984375 23.949219 13.050781 C 23.972656 13.125 23.976562 13.117188 23.988281 12.988281 C 23.988281 12.945312 23.980469 12.890625 23.964844 12.871094 C 23.945312 12.847656 23.949219 12.84375 23.96875 12.855469 C 23.992188 12.871094 24 12.832031 24 12.695312 L 24 12.515625 L 23.699219 12.515625 C 23.167969 12.515625 22.894531 12.4375 22.164062 12.066406 C 21.328125 11.644531 21.082031 11.566406 20.617188 11.566406 L 20.355469 11.566406 L 20.304688 11.441406 C 20.277344 11.375 20.171875 11.152344 20.070312 10.945312 C 19.96875 10.738281 19.894531 10.566406 19.902344 10.558594 C 19.910156 10.550781 20.058594 10.539062 20.226562 10.53125 C 20.820312 10.507812 21.195312 10.605469 21.960938 10.992188 C 22.867188 11.449219 23.265625 11.566406 23.792969 11.527344 L 23.980469 11.511719 L 23.964844 11.21875 C 23.949219 10.980469 23.953125 10.925781 23.980469 10.925781 C 24.003906 10.925781 24.003906 10.921875 23.976562 10.90625 C 23.925781 10.871094 23.878906 10.402344 23.921875 10.359375 C 23.9375 10.34375 23.945312 10.320312 23.9375 10.304688 C 23.925781 10.289062 23.914062 10.292969 23.898438 10.324219 C 23.882812 10.359375 23.882812 10.355469 23.886719 10.304688 C 23.894531 10.269531 23.890625 10.238281 23.878906 10.238281 C 23.871094 10.238281 23.855469 10.171875 23.84375 10.09375 C 23.835938 10.011719 23.796875 9.785156 23.757812 9.589844 C 23.703125 9.316406 23.695312 9.230469 23.71875 9.214844 C 23.738281 9.203125 23.738281 9.199219 23.710938 9.199219 C 23.664062 9.195312 23.539062 8.714844 23.5625 8.628906 C 23.570312 8.59375 23.566406 8.578125 23.550781 8.589844 C 23.535156 8.597656 23.496094 8.515625 23.449219 8.363281 C 23.40625 8.226562 23.335938 8.011719 23.285156 7.886719 C 23.238281 7.757812 23.203125 7.617188 23.203125 7.578125 C 23.203125 7.53125 23.199219 7.515625 23.1875 7.535156 C 23.160156 7.578125 23.132812 7.503906 23.152344 7.449219 C 23.164062 7.425781 23.160156 7.417969 23.144531 7.425781 C 23.113281 7.445312 22.980469 7.148438 23 7.097656 C 23.007812 7.078125 23.003906 7.066406 22.992188 7.074219 C 22.960938 7.09375 22.914062 6.996094 22.929688 6.953125 C 22.9375 6.929688 22.933594 6.925781 22.914062 6.9375 C 22.894531 6.949219 22.894531 6.9375 22.90625 6.910156 C 22.914062 6.882812 22.914062 6.871094 22.90625 6.878906 C 22.882812 6.90625 22.722656 6.59375 22.742188 6.5625 C 22.753906 6.546875 22.75 6.542969 22.734375 6.550781 C 22.722656 6.558594 22.679688 6.5 22.644531 6.417969 C 22.605469 6.335938 22.558594 6.242188 22.53125 6.207031 C 22.46875 6.117188 22.433594 6.015625 22.46875 6.03125 C 22.488281 6.042969 22.46875 6.023438 22.433594 5.996094 C 22.398438 5.96875 22.367188 5.9375 22.367188 5.925781 C 22.367188 5.914062 22.335938 5.855469 22.296875 5.800781 C 22.257812 5.742188 22.222656 5.6875 22.222656 5.675781 C 22.222656 5.664062 22.207031 5.636719 22.183594 5.613281 C 22.164062 5.589844 22.15625 5.570312 22.171875 5.570312 C 22.1875 5.570312 22.171875 5.542969 22.136719 5.511719 C 22.105469 5.476562 22.085938 5.4375 22.09375 5.425781 C 22.105469 5.410156 22.101562 5.402344 22.089844 5.410156 C 22.0625 5.425781 21.902344 5.207031 21.902344 5.15625 C 21.902344 5.136719 21.894531 5.128906 21.882812 5.132812 C 21.871094 5.140625 21.863281 5.136719 21.863281 5.121094 C 21.863281 5.058594 21.816406 5 21.78125 5.019531 C 21.769531 5.027344 21.765625 5.015625 21.777344 4.988281 C 21.785156 4.964844 21.785156 4.949219 21.777344 4.960938 C 21.757812 4.980469 21.625 4.835938 21.625 4.792969 C 21.625 4.777344 21.613281 4.765625 21.597656 4.765625 C 21.582031 4.765625 21.578125 4.746094 21.585938 4.726562 C 21.59375 4.707031 21.589844 4.695312 21.578125 4.703125 C 21.550781 4.71875 21.523438 4.648438 21.542969 4.621094 C 21.550781 4.605469 21.523438 4.585938 21.484375 4.574219 C 21.429688 4.554688 21.414062 4.535156 21.425781 4.507812 C 21.433594 4.484375 21.429688 4.476562 21.421875 4.484375 C 21.398438 4.507812 21.308594 4.414062 21.324219 4.382812 C 21.332031 4.371094 21.332031 4.363281 21.320312 4.367188 C 21.285156 4.378906 21.183594 4.269531 21.179688 4.214844 C 21.175781 4.179688 21.160156 4.15625 21.125 4.152344 C 21.097656 4.148438 21.078125 4.132812 21.085938 4.113281 C 21.09375 4.097656 21.078125 4.070312 21.054688 4.050781 C 21.015625 4.019531 21.015625 4.019531 21.046875 4.066406 C 21.066406 4.089844 21.03125 4.0625 20.96875 3.996094 C 20.90625 3.933594 20.863281 3.871094 20.871094 3.859375 C 20.882812 3.84375 20.875 3.839844 20.859375 3.851562 C 20.839844 3.859375 20.820312 3.839844 20.796875 3.789062 C 20.761719 3.699219 20.683594 3.621094 20.625 3.613281 C 20.578125 3.605469 20.445312 3.484375 20.460938 3.460938 C 20.464844 3.449219 20.453125 3.429688 20.429688 3.410156 C 20.390625 3.378906 20.390625 3.382812 20.421875 3.425781 C 20.457031 3.472656 20.457031 3.472656 20.40625 3.425781 C 20.351562 3.382812 20.332031 3.351562 20.375 3.378906 C 20.425781 3.410156 20.398438 3.347656 20.335938 3.292969 C 20.285156 3.25 20.277344 3.246094 20.304688 3.28125 C 20.320312 3.308594 20.304688 3.296875 20.261719 3.257812 C 20.222656 3.21875 20.15625 3.164062 20.113281 3.132812 C 20.074219 3.101562 20.039062 3.066406 20.039062 3.046875 C 20.039062 3.011719 19.921875 2.90625 19.902344 2.925781 C 19.894531 2.933594 19.871094 2.917969 19.855469 2.886719 C 19.839844 2.855469 19.824219 2.847656 19.824219 2.867188 C 19.824219 2.890625 19.816406 2.886719 19.789062 2.855469 C 19.773438 2.828125 19.761719 2.800781 19.765625 2.792969 C 19.773438 2.78125 19.761719 2.78125 19.742188 2.789062 C 19.703125 2.804688 19.597656 2.710938 19.621094 2.679688 C 19.628906 2.664062 19.621094 2.660156 19.601562 2.667969 C 19.585938 2.675781 19.5625 2.65625 19.546875 2.625 C 19.535156 2.59375 19.507812 2.574219 19.480469 2.578125 C 19.453125 2.582031 19.441406 2.570312 19.441406 2.542969 C 19.4375 2.507812 19.4375 2.507812 19.414062 2.535156 C 19.394531 2.566406 19.394531 2.566406 19.390625 2.53125 C 19.390625 2.507812 19.375 2.488281 19.355469 2.488281 C 19.332031 2.488281 19.324219 2.476562 19.332031 2.464844 C 19.339844 2.453125 19.328125 2.441406 19.308594 2.441406 C 19.285156 2.441406 19.277344 2.429688 19.285156 2.417969 C 19.292969 2.40625 19.28125 2.402344 19.261719 2.410156 C 19.234375 2.417969 19.222656 2.410156 19.222656 2.378906 C 19.222656 2.355469 19.214844 2.347656 19.207031 2.363281 C 19.195312 2.398438 19.148438 2.363281 19.121094 2.292969 C 19.109375 2.265625 19.089844 2.257812 19.066406 2.269531 C 19.039062 2.277344 19.03125 2.273438 19.039062 2.257812 C 19.046875 2.246094 19.019531 2.214844 18.972656 2.195312 C 18.929688 2.175781 18.886719 2.144531 18.878906 2.128906 C 18.871094 2.105469 18.867188 2.105469 18.867188 2.128906 C 18.863281 2.152344 18.859375 2.152344 18.832031 2.128906 C 18.8125 2.113281 18.800781 2.089844 18.808594 2.078125 C 18.8125 2.070312 18.796875 2.0625 18.769531 2.0625 C 18.742188 2.0625 18.71875 2.050781 18.71875 2.035156 C 18.71875 2.019531 18.714844 2.011719 18.707031 2.019531 C 18.699219 2.027344 18.660156 2.003906 18.621094 1.964844 C 18.582031 1.925781 18.539062 1.902344 18.527344 1.910156 C 18.511719 1.917969 18.503906 1.910156 18.507812 1.890625 C 18.511719 1.875 18.5 1.863281 18.484375 1.867188 C 18.464844 1.871094 18.429688 1.855469 18.402344 1.832031 C 18.375 1.808594 18.347656 1.792969 18.339844 1.792969 C 18.332031 1.796875 18.328125 1.789062 18.328125 1.777344 C 18.332031 1.765625 18.316406 1.753906 18.289062 1.753906 C 18.265625 1.753906 18.226562 1.730469 18.207031 1.703125 C 18.183594 1.667969 18.167969 1.664062 18.160156 1.6875 C 18.152344 1.707031 18.148438 1.707031 18.144531 1.679688 C 18.144531 1.636719 18.082031 1.601562 18.019531 1.609375 C 17.996094 1.613281 17.960938 1.589844 17.941406 1.554688 C 17.914062 1.519531 17.886719 1.503906 17.855469 1.511719 C 17.828125 1.515625 17.800781 1.503906 17.78125 1.472656 C 17.761719 1.445312 17.734375 1.421875 17.71875 1.421875 C 17.703125 1.421875 17.6875 1.410156 17.6875 1.394531 C 17.6875 1.382812 17.671875 1.375 17.652344 1.382812 C 17.632812 1.390625 17.617188 1.386719 17.617188 1.375 C 17.617188 1.351562 17.480469 1.300781 17.460938 1.320312 C 17.453125 1.328125 17.449219 1.316406 17.449219 1.289062 C 17.449219 1.25 17.445312 1.25 17.425781 1.28125 C 17.40625 1.308594 17.398438 1.308594 17.398438 1.269531 C 17.398438 1.242188 17.390625 1.234375 17.382812 1.25 C 17.367188 1.289062 17.160156 1.1875 17.160156 1.140625 C 17.160156 1.105469 17.15625 1.105469 17.136719 1.136719 C 17.117188 1.167969 17.113281 1.167969 17.113281 1.132812 C 17.113281 1.109375 17.105469 1.09375 17.09375 1.09375 C 17.085938 1.097656 17.054688 1.085938 17.023438 1.074219 C 16.996094 1.058594 16.96875 1.050781 16.960938 1.058594 C 16.953125 1.066406 16.910156 1.046875 16.867188 1.015625 C 16.824219 0.984375 16.785156 0.964844 16.78125 0.96875 C 16.765625 0.988281 16.632812 0.941406 16.621094 0.910156 C 16.613281 0.890625 16.597656 0.878906 16.585938 0.890625 C 16.570312 0.898438 16.558594 0.890625 16.558594 0.878906 C 16.558594 0.863281 16.542969 0.851562 16.519531 0.851562 C 16.496094 0.851562 16.445312 0.835938 16.40625 0.816406 C 16.371094 0.796875 16.308594 0.78125 16.269531 0.78125 C 16.234375 0.78125 16.195312 0.773438 16.1875 0.757812 C 16.179688 0.746094 16.152344 0.734375 16.128906 0.734375 C 16.105469 0.734375 16.078125 0.722656 16.074219 0.707031 C 16.070312 0.691406 16.042969 0.675781 16.019531 0.671875 C 15.992188 0.667969 15.859375 0.628906 15.71875 0.582031 C 15.582031 0.535156 15.445312 0.492188 15.417969 0.488281 C 15.390625 0.484375 15.347656 0.46875 15.324219 0.457031 C 15.300781 0.445312 15.261719 0.4375 15.238281 0.445312 C 15.214844 0.449219 15.175781 0.4375 15.15625 0.417969 C 15.136719 0.398438 15.097656 0.390625 15.074219 0.394531 C 15.046875 0.402344 15.007812 0.394531 14.988281 0.378906 C 14.96875 0.363281 14.941406 0.359375 14.925781 0.367188 C 14.90625 0.378906 14.902344 0.375 14.914062 0.359375 C 14.929688 0.335938 14.808594 0.308594 14.667969 0.304688 C 14.628906 0.300781 14.597656 0.292969 14.601562 0.285156 C 14.605469 0.277344 14.585938 0.269531 14.554688 0.265625 C 14.523438 0.261719 14.46875 0.257812 14.4375 0.253906 C 14.40625 0.25 14.386719 0.242188 14.390625 0.230469 C 14.402344 0.214844 14.371094 0.210938 14.179688 0.203125 C 14.144531 0.203125 14.121094 0.195312 14.128906 0.183594 C 14.132812 0.171875 14.113281 0.167969 14.078125 0.175781 C 14.042969 0.179688 14.011719 0.175781 14.003906 0.164062 C 13.992188 0.148438 13.964844 0.140625 13.9375 0.144531 C 13.90625 0.148438 13.847656 0.144531 13.808594 0.132812 C 13.765625 0.125 13.679688 0.109375 13.613281 0.105469 C 13.414062 0.0859375 13.335938 0.078125 13.121094 0.046875 C 13.007812 0.03125 12.867188 0.0234375 12.816406 0.03125 C 12.761719 0.0351562 12.71875 0.03125 12.71875 0.0234375 C 12.71875 0 11.351562 0 11.0625 0.0234375 M 12.324219 1.445312 C 12.492188 1.832031 12.628906 2.148438 12.632812 2.152344 C 12.636719 2.152344 12.984375 2.179688 13.40625 2.207031 C 13.828125 2.238281 14.179688 2.265625 14.191406 2.277344 C 14.203125 2.285156 13.949219 2.519531 13.632812 2.796875 C 13.316406 3.074219 13.054688 3.3125 13.054688 3.328125 C 13.054688 3.339844 13.171875 3.652344 13.3125 4.019531 L 13.570312 4.6875 L 13.75 4.523438 C 14.316406 4 15.285156 3.589844 16.160156 3.496094 L 16.320312 3.480469 L 16.125 3.785156 C 15.824219 4.261719 15.261719 5.429688 15.335938 5.429688 C 15.347656 5.429688 15.363281 5.417969 15.371094 5.40625 C 15.535156 5.144531 16.703125 4.691406 17.371094 4.632812 C 17.582031 4.613281 17.585938 4.589844 17.34375 4.914062 C 16.941406 5.445312 16.652344 5.914062 16.347656 6.507812 C 16.132812 6.933594 16.140625 6.929688 15.785156 6.765625 C 13.382812 5.660156 10.636719 5.65625 8.214844 6.753906 C 7.832031 6.929688 7.851562 6.9375 7.632812 6.519531 C 7.308594 5.902344 7.007812 5.417969 6.617188 4.898438 C 6.390625 4.597656 6.390625 4.605469 6.695312 4.640625 C 7.332031 4.722656 7.988281 4.964844 8.464844 5.300781 C 8.5625 5.371094 8.644531 5.429688 8.652344 5.429688 C 8.714844 5.429688 8.121094 4.210938 7.851562 3.792969 C 7.746094 3.628906 7.671875 3.492188 7.683594 3.488281 C 7.726562 3.472656 8.097656 3.535156 8.398438 3.605469 C 9.140625 3.785156 9.8125 4.125 10.265625 4.558594 C 10.421875 4.707031 10.390625 4.75 10.65625 4.054688 C 10.777344 3.734375 10.890625 3.4375 10.910156 3.398438 L 10.9375 3.324219 L 10.351562 2.808594 C 10.027344 2.523438 9.773438 2.285156 9.785156 2.277344 C 9.796875 2.265625 10.148438 2.234375 10.570312 2.207031 C 11.109375 2.171875 11.34375 2.148438 11.355469 2.128906 C 11.367188 2.109375 11.464844 1.894531 11.570312 1.648438 C 11.929688 0.820312 11.980469 0.707031 12 0.726562 C 12.011719 0.738281 12.15625 1.0625 12.324219 1.445312 M 11.386719 4.578125 C 10.617188 5.160156 10.636719 5.132812 10.984375 5.082031 C 11.550781 4.996094 12.429688 4.996094 12.996094 5.082031 C 13.199219 5.113281 13.289062 5.101562 13.234375 5.050781 C 13.1875 5.011719 12.003906 4.125 11.996094 4.125 C 11.988281 4.125 11.714844 4.328125 11.386719 4.578125 M 2.824219 5.882812 C 3.363281 6.289062 3.828125 7.054688 3.949219 7.730469 L 3.964844 7.816406 L 4.230469 7.679688 C 5.054688 7.257812 6.023438 7.1875 6.765625 7.492188 L 6.84375 7.527344 L 6.570312 7.730469 C 5.867188 8.257812 5.25 8.878906 4.710938 9.59375 C 4.601562 9.738281 4.5 9.859375 4.488281 9.859375 C 4.476562 9.859375 4.371094 9.835938 4.257812 9.808594 C 3.660156 9.664062 3.160156 9.757812 2.171875 10.199219 C 1.246094 10.613281 0.878906 10.699219 0.445312 10.617188 C 0.28125 10.582031 0.273438 10.605469 0.566406 10.28125 C 2.027344 8.664062 2.519531 7.554688 2.519531 5.863281 C 2.519531 5.738281 2.644531 5.746094 2.824219 5.882812 M 21.421875 5.792969 C 21.464844 5.824219 21.46875 5.851562 21.460938 6.058594 C 21.417969 7.429688 22.070312 8.824219 23.457031 10.332031 C 23.691406 10.589844 23.691406 10.585938 23.429688 10.625 C 23.046875 10.679688 22.667969 10.585938 21.910156 10.246094 C 20.796875 9.746094 20.351562 9.660156 19.667969 9.816406 L 19.453125 9.867188 L 19.417969 9.8125 C 18.949219 9.109375 17.996094 8.132812 17.308594 7.65625 C 17.101562 7.511719 17.101562 7.511719 17.515625 7.40625 C 18.28125 7.210938 19.144531 7.328125 19.839844 7.71875 C 19.953125 7.78125 20.023438 7.808594 20.027344 7.792969 C 20.03125 7.777344 20.046875 7.710938 20.0625 7.644531 C 20.226562 6.929688 20.722656 6.160156 21.226562 5.835938 C 21.363281 5.75 21.359375 5.75 21.421875 5.792969 M 12.347656 6.472656 C 13.261719 6.585938 14.050781 7.148438 14.28125 7.855469 C 14.324219 7.996094 14.292969 8.007812 14.0625 7.929688 C 13.378906 7.707031 12.515625 7.96875 12.410156 8.425781 C 12.332031 8.761719 12.339844 9.234375 12.433594 9.535156 L 12.480469 9.695312 L 12.550781 9.660156 C 12.59375 9.636719 12.652344 9.5625 12.71875 9.433594 C 12.855469 9.175781 12.882812 9.164062 13.136719 9.257812 C 13.421875 9.359375 13.6875 9.355469 13.898438 9.25 C 14.59375 8.894531 14.480469 10.382812 13.726562 11.492188 C 12.773438 12.90625 11.453125 12.996094 10.410156 11.722656 C 9.519531 10.632812 9.328125 8.84375 10.144531 9.253906 C 10.363281 9.363281 10.507812 9.359375 10.972656 9.230469 L 11.132812 9.1875 L 11.328125 9.285156 C 11.433594 9.339844 11.523438 9.386719 11.53125 9.386719 C 11.597656 9.386719 11.628906 8.707031 11.570312 8.433594 C 11.484375 8 10.644531 7.714844 9.996094 7.894531 C 9.652344 7.992188 9.640625 7.988281 9.726562 7.773438 C 10.097656 6.875 11.1875 6.332031 12.347656 6.472656 M 10.5 8.238281 C 10.796875 8.3125 11.058594 8.5 11.101562 8.664062 C 11.125 8.75 11.125 8.75 10.882812 8.683594 C 10.507812 8.582031 10.078125 8.605469 9.929688 8.742188 C 9.789062 8.867188 9.632812 8.464844 9.773438 8.328125 C 9.898438 8.203125 10.214844 8.164062 10.5 8.238281 M 13.964844 8.226562 C 14.265625 8.289062 14.359375 8.5 14.1875 8.71875 L 14.144531 8.777344 L 13.976562 8.695312 C 13.773438 8.597656 13.484375 8.589844 13.175781 8.671875 C 12.972656 8.726562 12.949219 8.714844 12.96875 8.582031 C 13.003906 8.34375 13.570312 8.144531 13.964844 8.226562 M 11.613281 10.238281 C 11.332031 10.324219 11.34375 10.390625 11.652344 10.496094 C 11.949219 10.601562 12.394531 10.554688 12.5625 10.402344 C 12.648438 10.324219 12.316406 10.195312 12.152344 10.242188 C 12.058594 10.265625 11.902344 10.261719 11.734375 10.230469 C 11.703125 10.222656 11.648438 10.226562 11.613281 10.238281 M 23.984375 11.046875 C 23.984375 11.105469 23.988281 11.128906 23.992188 11.097656 C 24 11.070312 24 11.023438 23.992188 10.992188 C 23.988281 10.964844 23.984375 10.988281 23.984375 11.046875 M 11.09375 11.015625 C 11.035156 11.039062 11.066406 11.082031 11.285156 11.308594 C 11.804688 11.839844 12.21875 11.828125 12.742188 11.257812 C 12.945312 11.035156 12.945312 10.980469 12.742188 11.023438 C 12.46875 11.085938 11.363281 11.074219 11.148438 11.011719 C 11.136719 11.003906 11.109375 11.007812 11.09375 11.015625 M 23.199219 16.125 C 23.164062 16.214844 23.140625 16.296875 23.144531 16.300781 C 23.148438 16.304688 23.183594 16.234375 23.21875 16.140625 C 23.253906 16.050781 23.28125 15.96875 23.277344 15.964844 C 23.269531 15.960938 23.238281 16.03125 23.199219 16.125 M 23.019531 16.558594 C 22.980469 16.644531 22.988281 16.664062 23.03125 16.585938 C 23.050781 16.546875 23.0625 16.511719 23.058594 16.507812 C 23.050781 16.503906 23.035156 16.523438 23.019531 16.558594 M 22.453125 17.6875 C 22.40625 17.765625 22.371094 17.835938 22.378906 17.84375 C 22.382812 17.847656 22.402344 17.828125 22.417969 17.796875 C 22.433594 17.765625 22.472656 17.695312 22.503906 17.640625 C 22.539062 17.585938 22.558594 17.539062 22.550781 17.539062 C 22.542969 17.539062 22.5 17.605469 22.453125 17.6875 M 18.625 22.757812 C 18.625 22.871094 18.667969 22.898438 18.875 22.898438 L 19.054688 22.898438 L 19.054688 23.988281 L 19.296875 23.988281 L 19.296875 22.898438 L 19.507812 22.894531 L 19.714844 22.886719 L 19.714844 22.695312 L 19.171875 22.691406 L 18.625 22.683594 L 18.625 22.757812 M 19.847656 23.335938 L 19.847656 23.988281 L 20.085938 23.988281 L 20.101562 23.082031 L 20.285156 23.527344 L 20.46875 23.976562 L 20.5625 23.984375 L 20.660156 23.992188 L 20.851562 23.507812 L 21.046875 23.027344 L 21.046875 23.988281 L 21.289062 23.988281 L 21.289062 23.351562 C 21.289062 22.628906 21.304688 22.683594 21.074219 22.683594 L 20.933594 22.683594 L 20.761719 23.128906 C 20.664062 23.375 20.578125 23.585938 20.570312 23.601562 C 20.5625 23.617188 20.476562 23.425781 20.378906 23.175781 C 20.175781 22.65625 20.195312 22.683594 19.996094 22.683594 L 19.847656 22.683594 L 19.847656 23.335938 "/>
<path style=" stroke:none;fill-rule:evenodd;fill:rgb(14.117648%,45.490196%,32.941177%);fill-opacity:1;" d="M 20.457031 3.480469 C 20.558594 3.582031 20.683594 3.648438 20.613281 3.5625 C 20.597656 3.546875 20.578125 3.539062 20.570312 3.542969 C 20.546875 3.554688 20.417969 3.425781 20.425781 3.398438 C 20.433594 3.390625 20.414062 3.378906 20.390625 3.375 C 20.359375 3.371094 20.378906 3.402344 20.457031 3.480469 M 11.921875 5.019531 C 11.964844 5.023438 12.035156 5.023438 12.078125 5.019531 C 12.121094 5.011719 12.085938 5.007812 12 5.007812 C 11.914062 5.007812 11.878906 5.011719 11.921875 5.019531 M 22.152344 5.582031 C 22.152344 5.585938 22.171875 5.605469 22.199219 5.617188 C 22.238281 5.636719 22.246094 5.636719 22.234375 5.605469 C 22.21875 5.574219 22.152344 5.554688 22.152344 5.582031 M 22.367188 5.933594 C 22.367188 5.941406 22.382812 5.957031 22.402344 5.972656 C 22.433594 5.996094 22.441406 5.996094 22.441406 5.964844 C 22.441406 5.941406 22.421875 5.925781 22.402344 5.925781 C 22.382812 5.925781 22.367188 5.929688 22.367188 5.933594 M 20.949219 6.0625 L 20.867188 6.152344 L 20.957031 6.070312 C 21.042969 5.992188 21.058594 5.972656 21.039062 5.972656 C 21.035156 5.972656 20.996094 6.011719 20.949219 6.0625 M 22.464844 6.089844 C 22.464844 6.105469 22.476562 6.117188 22.488281 6.117188 C 22.503906 6.117188 22.507812 6.125 22.5 6.136719 C 22.496094 6.148438 22.503906 6.164062 22.523438 6.171875 C 22.554688 6.183594 22.554688 6.175781 22.535156 6.140625 C 22.507812 6.085938 22.464844 6.054688 22.464844 6.089844 M 22.671875 6.480469 C 22.695312 6.527344 22.722656 6.558594 22.734375 6.550781 C 22.75 6.539062 22.753906 6.550781 22.746094 6.574219 C 22.738281 6.59375 22.742188 6.613281 22.753906 6.613281 C 22.769531 6.613281 22.769531 6.625 22.761719 6.644531 C 22.75 6.664062 22.753906 6.664062 22.773438 6.648438 C 22.808594 6.613281 22.757812 6.488281 22.71875 6.511719 C 22.707031 6.519531 22.703125 6.511719 22.710938 6.492188 C 22.71875 6.472656 22.703125 6.445312 22.679688 6.429688 C 22.632812 6.402344 22.632812 6.402344 22.671875 6.480469 M 22.914062 6.910156 C 22.890625 6.9375 22.945312 7.054688 22.980469 7.054688 C 23.015625 7.054688 22.992188 6.984375 22.945312 6.957031 C 22.929688 6.949219 22.925781 6.933594 22.933594 6.917969 C 22.949219 6.894531 22.9375 6.890625 22.914062 6.910156 M 9.40625 7.105469 L 9.324219 7.195312 L 9.414062 7.113281 C 9.464844 7.066406 9.503906 7.027344 9.503906 7.023438 C 9.503906 7.003906 9.484375 7.023438 9.40625 7.105469 M 14.542969 7.046875 C 14.542969 7.050781 14.578125 7.085938 14.621094 7.125 L 14.699219 7.195312 L 14.628906 7.117188 C 14.5625 7.046875 14.542969 7.027344 14.542969 7.046875 M 23 7.136719 C 22.996094 7.160156 23.003906 7.183594 23.019531 7.183594 C 23.03125 7.183594 23.035156 7.195312 23.027344 7.210938 C 23.015625 7.226562 23.019531 7.230469 23.039062 7.21875 C 23.058594 7.207031 23.058594 7.191406 23.035156 7.164062 C 23.019531 7.144531 23.007812 7.121094 23.011719 7.117188 C 23.015625 7.113281 23.015625 7.101562 23.011719 7.097656 C 23.007812 7.09375 23 7.109375 23 7.136719 M 15.636719 7.441406 C 15.714844 7.519531 15.785156 7.585938 15.789062 7.585938 C 15.796875 7.585938 15.738281 7.519531 15.660156 7.441406 C 15.582031 7.363281 15.511719 7.300781 15.503906 7.300781 C 15.5 7.300781 15.558594 7.363281 15.636719 7.441406 M 18.046875 8.261719 C 18.09375 8.304688 18.136719 8.34375 18.140625 8.34375 C 18.148438 8.34375 18.117188 8.304688 18.070312 8.261719 C 18.027344 8.214844 17.984375 8.179688 17.980469 8.179688 C 17.972656 8.179688 18.003906 8.214844 18.046875 8.261719 M 18.574219 8.777344 C 18.632812 8.839844 18.683594 8.890625 18.6875 8.890625 C 18.707031 8.890625 18.6875 8.867188 18.582031 8.769531 L 18.46875 8.664062 L 18.574219 8.777344 M 12.34375 8.914062 C 12.34375 8.972656 12.347656 8.996094 12.351562 8.964844 C 12.359375 8.9375 12.359375 8.886719 12.351562 8.859375 C 12.347656 8.828125 12.34375 8.855469 12.34375 8.914062 M 16.15625 9.625 C 16.15625 9.667969 16.164062 9.6875 16.167969 9.664062 C 16.175781 9.640625 16.175781 9.605469 16.167969 9.582031 C 16.164062 9.558594 16.15625 9.578125 16.15625 9.625 M 23.902344 10.382812 C 23.878906 10.398438 23.875 10.40625 23.898438 10.40625 C 23.917969 10.40625 23.925781 10.414062 23.917969 10.429688 C 23.910156 10.441406 23.914062 10.457031 23.925781 10.464844 C 23.941406 10.472656 23.949219 10.453125 23.945312 10.417969 C 23.945312 10.386719 23.941406 10.359375 23.941406 10.359375 C 23.941406 10.359375 23.921875 10.371094 23.902344 10.382812 M 6.367188 10.453125 C 6.367188 10.5 6.371094 10.519531 6.375 10.496094 C 6.382812 10.472656 6.382812 10.433594 6.375 10.410156 C 6.371094 10.390625 6.367188 10.40625 6.367188 10.453125 M 23.960938 10.824219 C 23.945312 10.832031 23.9375 10.851562 23.945312 10.871094 C 23.964844 10.921875 23.996094 10.910156 23.992188 10.855469 C 23.992188 10.832031 23.988281 10.808594 23.988281 10.8125 C 23.988281 10.8125 23.976562 10.816406 23.960938 10.824219 M 23.929688 13.039062 C 23.929688 13.070312 23.9375 13.113281 23.953125 13.132812 C 23.96875 13.15625 23.972656 13.144531 23.960938 13.085938 C 23.941406 12.980469 23.929688 12.964844 23.929688 13.039062 M 20.984375 14.730469 C 20.984375 14.847656 20.988281 14.898438 20.992188 14.84375 C 21 14.789062 21 14.695312 20.992188 14.632812 C 20.988281 14.570312 20.984375 14.613281 20.984375 14.730469 M 22.414062 17.710938 C 22.394531 17.746094 22.394531 17.765625 22.414062 17.785156 C 22.4375 17.804688 22.4375 17.800781 22.425781 17.769531 C 22.414062 17.742188 22.417969 17.726562 22.429688 17.738281 C 22.445312 17.746094 22.453125 17.730469 22.453125 17.703125 C 22.453125 17.648438 22.449219 17.648438 22.414062 17.710938 M 22.203125 18.0625 C 22.207031 18.078125 22.222656 18.089844 22.230469 18.085938 C 22.257812 18.085938 22.253906 18.050781 22.222656 18.042969 C 22.207031 18.035156 22.199219 18.046875 22.203125 18.0625 M 22.152344 18.144531 C 22.132812 18.167969 22.132812 18.175781 22.15625 18.171875 C 22.191406 18.167969 22.210938 18.136719 22.195312 18.117188 C 22.1875 18.113281 22.167969 18.125 22.152344 18.144531 M 3.335938 19.265625 L 3.253906 19.355469 L 3.34375 19.273438 C 3.425781 19.195312 3.441406 19.175781 3.425781 19.175781 C 3.421875 19.175781 3.378906 19.214844 3.335938 19.265625 M 20.242188 19.648438 C 20.308594 19.714844 20.367188 19.769531 20.375 19.769531 C 20.378906 19.769531 20.332031 19.714844 20.269531 19.648438 C 20.203125 19.585938 20.144531 19.53125 20.136719 19.53125 C 20.132812 19.53125 20.179688 19.585938 20.242188 19.648438 M 19.078125 20.535156 C 19.078125 20.539062 19.113281 20.574219 19.15625 20.613281 L 19.234375 20.679688 L 19.164062 20.605469 C 19.101562 20.53125 19.078125 20.515625 19.078125 20.535156 M 9.824219 23.003906 C 9.824219 23.070312 9.828125 23.09375 9.832031 23.058594 C 9.839844 23.019531 9.839844 22.96875 9.832031 22.9375 C 9.828125 22.910156 9.824219 22.9375 9.824219 23.003906 "/>
</g>
</svg>
