<?xml version="1.0" encoding="UTF-8"?>
<svg xmlns="http://www.w3.org/2000/svg" xmlns:xlink="http://www.w3.org/1999/xlink" width="24px" height="5px" viewBox="0 0 25 5" version="1.1">
<g id="surface1">
<path style=" stroke:none;fill-rule:evenodd;fill:rgb(95.686275%,70.588237%,1.568628%);fill-opacity:1;" d="M 2.226562 0.519531 C 1.546875 0.609375 1.148438 0.992188 1.128906 1.582031 C 1.113281 2.039062 1.269531 2.328125 1.6875 2.605469 C 1.785156 2.671875 1.921875 2.742188 2.664062 3.105469 C 2.949219 3.246094 3.027344 3.402344 2.867188 3.5 L 2.828125 3.527344 L 2.375 3.53125 C 2.125 3.53125 1.761719 3.53125 1.566406 3.527344 L 1.207031 3.519531 L 1.207031 3.261719 L 1.203125 3.003906 L 0.605469 3.496094 C 0.277344 3.765625 0.00390625 3.992188 0.00390625 3.996094 C 0 4.003906 1.175781 4.976562 1.199219 4.988281 C 1.203125 4.988281 1.207031 4.875 1.207031 4.734375 L 1.207031 4.472656 L 2.050781 4.476562 C 2.9375 4.480469 3.0625 4.476562 3.222656 4.4375 C 3.792969 4.292969 4.074219 3.933594 4.078125 3.355469 C 4.078125 2.730469 3.871094 2.507812 2.84375 2.027344 C 2.40625 1.824219 2.316406 1.773438 2.277344 1.707031 C 2.238281 1.640625 2.261719 1.546875 2.328125 1.496094 C 2.359375 1.472656 3.125 1.464844 3.679688 1.484375 L 3.875 1.492188 L 3.875 0.535156 L 3.820312 0.527344 C 3.734375 0.515625 2.304688 0.511719 2.226562 0.519531 M 4.292969 2.039062 L 4.296875 3.558594 L 4.320312 3.636719 C 4.503906 4.265625 5.09375 4.605469 5.960938 4.582031 C 6.742188 4.558594 7.304688 4.207031 7.46875 3.628906 L 7.496094 3.546875 L 7.496094 2.035156 L 7.5 0.519531 L 6.34375 0.519531 L 6.34375 1.890625 C 6.34375 3.335938 6.34375 3.335938 6.292969 3.414062 C 6.167969 3.621094 5.71875 3.644531 5.550781 3.460938 C 5.46875 3.371094 5.476562 3.488281 5.472656 1.925781 L 5.46875 0.519531 L 4.292969 0.519531 L 4.292969 2.039062 M 7.863281 2.511719 L 7.863281 4.5 L 8.960938 4.496094 C 10.1875 4.492188 10.117188 4.5 10.359375 4.414062 C 10.84375 4.25 11.113281 3.847656 11.113281 3.292969 C 11.113281 2.921875 10.96875 2.644531 10.667969 2.445312 L 10.582031 2.386719 L 10.640625 2.34375 C 11.210938 1.902344 11.109375 0.996094 10.453125 0.667969 C 10.167969 0.527344 10.175781 0.527344 8.929688 0.523438 L 7.863281 0.519531 L 7.863281 2.511719 M 9.699219 1.421875 C 9.863281 1.507812 9.914062 1.804688 9.796875 1.980469 C 9.730469 2.078125 9.671875 2.09375 9.308594 2.09375 L 9.019531 2.09375 L 9.019531 1.394531 L 9.339844 1.398438 C 9.628906 1.402344 9.664062 1.402344 9.699219 1.421875 M 9.75 2.890625 C 10.003906 3.011719 9.992188 3.5 9.730469 3.589844 C 9.691406 3.601562 9.625 3.605469 9.351562 3.605469 L 9.019531 3.605469 L 9.019531 2.863281 L 9.363281 2.867188 C 9.683594 2.871094 9.707031 2.871094 9.75 2.890625 M 19.804688 4.089844 L 19.707031 4.09375 L 19.707031 4.5 L 18.550781 4.5 L 18.550781 4.136719 L 18.523438 4.136719 C 18.4375 4.136719 17.820312 4.1875 17.714844 4.203125 L 17.675781 4.210938 L 17.675781 4.488281 L 16.519531 4.488281 L 16.519531 4.441406 C 16.519531 4.417969 16.519531 4.394531 16.515625 4.394531 C 16.496094 4.394531 15.964844 4.523438 15.800781 4.566406 C 15.402344 4.671875 14.9375 4.824219 14.625 4.945312 L 14.496094 5 L 25 5 L 25 4.125 L 24.945312 4.121094 C 24.894531 4.117188 24.296875 4.105469 22.722656 4.085938 L 22.1875 4.078125 L 22.1875 4.488281 L 21.011719 4.488281 L 21.011719 4.082031 L 20.457031 4.085938 C 20.152344 4.085938 19.859375 4.089844 19.804688 4.089844 "/>
<path style=" stroke:none;fill-rule:evenodd;fill:rgb(1.568628%,54.901963%,23.529412%);fill-opacity:1;" d="M 23.792969 0.25 L 23.792969 0.5 L 23.277344 0.503906 C 22.683594 0.507812 22.621094 0.515625 22.433594 0.625 C 22.121094 0.804688 22.03125 1.039062 22.03125 1.699219 C 22.03125 2.132812 22.027344 2.160156 21.984375 2.230469 C 21.835938 2.480469 21.292969 2.460938 21.175781 2.207031 L 21.152344 2.152344 L 21.144531 0.519531 L 20 0.519531 L 20.003906 1.457031 C 20.007812 2.5 20 2.429688 20.082031 2.628906 C 20.207031 2.929688 20.519531 3.1875 20.910156 3.3125 L 21.011719 3.347656 L 21.011719 4.488281 L 22.1875 4.488281 L 22.1875 3.34375 L 22.289062 3.3125 C 22.746094 3.160156 23.054688 2.867188 23.15625 2.480469 C 23.179688 2.394531 23.179688 2.363281 23.1875 1.96875 C 23.191406 1.738281 23.195312 1.539062 23.203125 1.527344 C 23.21875 1.492188 23.246094 1.488281 23.519531 1.488281 L 23.792969 1.488281 L 23.792969 1.734375 C 23.792969 1.867188 23.792969 1.980469 23.796875 1.980469 C 23.808594 1.980469 25 0.996094 24.996094 0.988281 C 24.996094 0.980469 23.828125 0.0195312 23.804688 0.0078125 C 23.792969 0 23.792969 0.0625 23.792969 0.25 M 17.875 0.414062 C 17.171875 0.484375 16.703125 0.820312 16.554688 1.359375 L 16.527344 1.464844 L 16.519531 4.488281 L 17.675781 4.488281 L 17.675781 3.34375 L 18.550781 3.34375 L 18.550781 4.5 L 19.707031 4.5 L 19.707031 3.019531 C 19.707031 1.429688 19.710938 1.46875 19.65625 1.296875 C 19.46875 0.691406 18.730469 0.324219 17.875 0.414062 M 11.386719 2.035156 L 11.390625 3.546875 L 11.417969 3.648438 C 11.582031 4.246094 12.109375 4.570312 12.878906 4.550781 C 13.203125 4.539062 13.484375 4.453125 13.695312 4.296875 C 13.773438 4.238281 13.765625 4.242188 13.832031 4.292969 C 14.191406 4.558594 14.828125 4.628906 15.339844 4.464844 C 15.691406 4.347656 15.980469 4.074219 16.09375 3.753906 C 16.167969 3.546875 16.160156 3.707031 16.164062 2.027344 L 16.167969 0.519531 L 15.011719 0.519531 L 15.003906 3.371094 L 14.980469 3.417969 C 14.894531 3.566406 14.574219 3.605469 14.433594 3.480469 C 14.355469 3.410156 14.359375 3.53125 14.355469 1.941406 L 14.355469 0.519531 L 13.199219 0.519531 L 13.191406 3.371094 L 13.167969 3.417969 C 13.078125 3.574219 12.734375 3.605469 12.605469 3.46875 C 12.542969 3.398438 12.546875 3.5 12.542969 1.941406 L 12.542969 0.519531 L 11.386719 0.519531 L 11.386719 2.035156 M 18.261719 1.417969 C 18.515625 1.46875 18.542969 1.535156 18.550781 2.042969 L 18.554688 2.425781 L 17.675781 2.425781 L 17.679688 2.039062 C 17.683594 1.570312 17.691406 1.542969 17.828125 1.464844 C 17.914062 1.410156 18.128906 1.390625 18.261719 1.417969 "/>
</g>
</svg>
