<?xml version="1.0" encoding="UTF-8"?>
<svg xmlns="http://www.w3.org/2000/svg" xmlns:xlink="http://www.w3.org/1999/xlink" width="24px" height="24px" viewBox="0 0 24 24" version="1.1">
<g id="surface1">
<path style=" stroke:none;fill-rule:nonzero;fill:rgb(27.058825%,12.941177%,5.882353%);fill-opacity:1;" d="M 7.96875 0 C 8.082031 -0.0078125 8.191406 -0.0117188 8.304688 -0.015625 C 8.335938 -0.015625 8.367188 -0.0195312 8.402344 -0.0195312 C 8.578125 -0.0234375 8.660156 -0.0117188 8.800781 0.101562 C 8.835938 0.144531 8.871094 0.191406 8.90625 0.234375 C 8.941406 0.273438 8.976562 0.316406 9.011719 0.355469 C 9.042969 0.394531 9.074219 0.4375 9.109375 0.476562 C 9.15625 0.539062 9.15625 0.539062 9.207031 0.601562 C 9.28125 0.703125 9.28125 0.703125 9.28125 0.796875 C 9.3125 0.796875 9.34375 0.796875 9.375 0.796875 C 9.414062 0.867188 9.414062 0.867188 9.453125 0.941406 C 9.523438 1.066406 9.597656 1.171875 9.691406 1.277344 C 9.84375 1.449219 9.984375 1.628906 10.121094 1.8125 C 10.148438 1.847656 10.171875 1.878906 10.199219 1.914062 C 10.496094 2.304688 10.792969 2.699219 11.085938 3.09375 C 11.132812 3.160156 11.183594 3.222656 11.234375 3.289062 C 11.296875 3.375 11.296875 3.375 11.296875 3.46875 C 11.328125 3.46875 11.359375 3.46875 11.390625 3.46875 C 11.453125 3.542969 11.511719 3.625 11.566406 3.703125 C 11.707031 3.902344 11.847656 4.09375 12 4.285156 C 12.046875 4.359375 12.046875 4.359375 12.046875 4.453125 C 12.222656 4.285156 12.371094 4.109375 12.519531 3.917969 C 12.539062 3.890625 12.558594 3.867188 12.578125 3.839844 C 12.675781 3.710938 12.765625 3.585938 12.851562 3.449219 C 12.878906 3.410156 12.910156 3.371094 12.9375 3.328125 C 12.96875 3.328125 13 3.328125 13.03125 3.328125 C 13.039062 3.296875 13.050781 3.265625 13.058594 3.234375 C 13.152344 3.03125 13.289062 2.871094 13.429688 2.695312 C 13.488281 2.621094 13.550781 2.542969 13.609375 2.46875 C 13.636719 2.429688 13.667969 2.394531 13.699219 2.355469 C 14.042969 1.917969 14.382812 1.480469 14.695312 1.019531 C 14.75 0.945312 14.804688 0.871094 14.859375 0.796875 C 14.890625 0.796875 14.921875 0.796875 14.953125 0.796875 C 14.96875 0.746094 14.96875 0.746094 14.988281 0.695312 C 15.058594 0.539062 15.148438 0.425781 15.257812 0.292969 C 15.296875 0.246094 15.332031 0.203125 15.371094 0.15625 C 15.492188 0.0234375 15.527344 0.00390625 15.707031 -0.015625 C 16.15625 -0.0351562 16.15625 -0.0351562 16.324219 0.0585938 C 16.460938 0.199219 16.519531 0.339844 16.535156 0.535156 C 16.515625 0.796875 16.375 0.96875 16.21875 1.171875 C 16.175781 1.234375 16.132812 1.296875 16.089844 1.363281 C 16.039062 1.429688 16.039062 1.429688 15.984375 1.5 C 15.953125 1.5 15.921875 1.5 15.890625 1.5 C 15.890625 1.546875 15.890625 1.59375 15.890625 1.640625 C 15.859375 1.640625 15.828125 1.640625 15.796875 1.640625 C 15.777344 1.679688 15.777344 1.679688 15.757812 1.722656 C 15.703125 1.828125 15.640625 1.921875 15.570312 2.019531 C 15.542969 2.058594 15.515625 2.09375 15.488281 2.128906 C 15.460938 2.167969 15.433594 2.207031 15.40625 2.242188 C 15.378906 2.28125 15.355469 2.316406 15.328125 2.355469 C 15.175781 2.5625 15.023438 2.761719 14.859375 2.953125 C 14.707031 3.140625 14.566406 3.332031 14.425781 3.53125 C 14.402344 3.558594 14.382812 3.589844 14.359375 3.621094 C 14.308594 3.695312 14.253906 3.769531 14.203125 3.84375 C 14.230469 3.835938 14.261719 3.828125 14.292969 3.820312 C 14.355469 3.804688 14.417969 3.789062 14.480469 3.777344 C 14.585938 3.75 14.585938 3.75 14.703125 3.695312 C 14.738281 3.683594 14.773438 3.671875 14.8125 3.65625 C 14.84375 3.671875 14.875 3.6875 14.90625 3.703125 C 14.921875 3.65625 14.9375 3.609375 14.953125 3.5625 C 15.070312 3.511719 15.179688 3.464844 15.296875 3.425781 C 15.332031 3.414062 15.367188 3.402344 15.402344 3.386719 C 15.46875 3.363281 15.539062 3.339844 15.609375 3.316406 C 15.730469 3.269531 15.851562 3.222656 15.976562 3.175781 C 16.222656 3.085938 16.472656 3.023438 16.734375 3 C 16.765625 3.015625 16.796875 3.03125 16.828125 3.046875 C 16.84375 3.015625 16.859375 2.984375 16.875 2.953125 C 16.90625 2.953125 16.9375 2.953125 16.96875 2.953125 C 17.027344 2.945312 17.085938 2.9375 17.144531 2.929688 C 17.449219 2.894531 17.753906 2.898438 18.058594 2.898438 C 18.117188 2.898438 18.175781 2.898438 18.238281 2.898438 C 18.320312 2.898438 18.320312 2.898438 18.40625 2.898438 C 18.460938 2.898438 18.511719 2.898438 18.5625 2.898438 C 18.691406 2.90625 18.808594 2.921875 18.9375 2.953125 C 18.96875 2.960938 19.003906 2.964844 19.039062 2.972656 C 19.847656 3.144531 20.644531 3.488281 21.234375 4.078125 C 21.320312 4.148438 21.402344 4.21875 21.488281 4.289062 C 21.5625 4.359375 21.5625 4.359375 21.609375 4.5 C 21.65625 4.539062 21.707031 4.574219 21.757812 4.613281 C 21.996094 4.808594 22.125 5.074219 22.265625 5.34375 C 22.292969 5.390625 22.292969 5.390625 22.316406 5.441406 C 22.363281 5.539062 22.398438 5.636719 22.429688 5.738281 C 22.46875 5.855469 22.503906 5.964844 22.554688 6.078125 C 22.605469 6.222656 22.621094 6.363281 22.640625 6.515625 C 22.648438 6.542969 22.65625 6.570312 22.664062 6.597656 C 22.753906 7 22.761719 7.46875 22.6875 7.875 C 22.679688 7.914062 22.671875 7.953125 22.667969 7.996094 C 22.628906 8.203125 22.582031 8.386719 22.5 8.578125 C 22.492188 8.621094 22.484375 8.660156 22.476562 8.703125 C 22.453125 8.8125 22.453125 8.8125 22.359375 8.90625 C 22.347656 8.949219 22.332031 8.992188 22.320312 9.035156 C 22.261719 9.203125 22.179688 9.324219 22.078125 9.46875 C 22.046875 9.523438 22.015625 9.578125 21.988281 9.636719 C 21.898438 9.792969 21.789062 9.90625 21.65625 10.03125 C 21.617188 10.082031 21.574219 10.128906 21.535156 10.179688 C 21.429688 10.304688 21.375 10.339844 21.234375 10.40625 C 21.203125 10.441406 21.171875 10.472656 21.140625 10.507812 C 20.835938 10.832031 20.351562 11.03125 19.9375 11.179688 C 19.886719 11.199219 19.832031 11.21875 19.777344 11.238281 C 19.347656 11.378906 18.929688 11.40625 18.480469 11.402344 C 18.378906 11.402344 18.28125 11.402344 18.183594 11.402344 C 18.117188 11.402344 18.054688 11.402344 17.992188 11.402344 C 17.933594 11.402344 17.878906 11.402344 17.820312 11.402344 C 17.679688 11.390625 17.605469 11.363281 17.484375 11.296875 C 17.453125 11.3125 17.421875 11.328125 17.390625 11.34375 C 17.390625 11.3125 17.390625 11.28125 17.390625 11.25 C 17.363281 11.257812 17.339844 11.269531 17.3125 11.277344 C 17.164062 11.304688 17.078125 11.261719 16.9375 11.210938 C 16.894531 11.191406 16.847656 11.175781 16.804688 11.15625 C 16.6875 11.109375 16.6875 11.109375 16.59375 11.0625 C 16.59375 11.03125 16.59375 11 16.59375 10.96875 C 16.566406 10.976562 16.539062 10.984375 16.511719 10.996094 C 16.398438 11.015625 16.328125 11.003906 16.21875 10.96875 C 16.21875 11.046875 16.21875 11.125 16.21875 11.203125 C 16.25 11.203125 16.28125 11.203125 16.3125 11.203125 C 16.351562 11.601562 16.363281 11.992188 16.367188 12.390625 C 16.367188 12.457031 16.367188 12.457031 16.367188 12.523438 C 16.363281 12.84375 16.359375 13.164062 16.25 13.46875 C 16.195312 13.613281 16.152344 13.757812 16.117188 13.90625 C 16.050781 14.125 15.953125 14.320312 15.847656 14.523438 C 15.832031 14.550781 15.816406 14.582031 15.800781 14.613281 C 15.703125 14.789062 15.597656 14.941406 15.46875 15.09375 C 15.425781 15.152344 15.386719 15.210938 15.34375 15.273438 C 15.289062 15.347656 15.289062 15.347656 15.234375 15.421875 C 15.203125 15.421875 15.171875 15.421875 15.140625 15.421875 C 15.140625 15.453125 15.140625 15.484375 15.140625 15.515625 C 15.078125 15.59375 15.078125 15.59375 15 15.65625 C 14.96875 15.65625 14.9375 15.65625 14.90625 15.65625 C 14.890625 15.703125 14.875 15.75 14.859375 15.796875 C 14.796875 15.8125 14.734375 15.828125 14.671875 15.84375 C 14.65625 15.890625 14.640625 15.9375 14.625 15.984375 C 14.511719 16.066406 14.398438 16.140625 14.28125 16.214844 C 14.226562 16.246094 14.226562 16.246094 14.175781 16.277344 C 13.839844 16.480469 13.507812 16.613281 13.125 16.6875 C 13.015625 16.714844 12.90625 16.738281 12.796875 16.765625 C 12.703125 16.78125 12.703125 16.78125 12.609375 16.734375 C 12.609375 16.765625 12.609375 16.796875 12.609375 16.828125 C 12.574219 16.820312 12.539062 16.8125 12.5 16.800781 C 12.371094 16.769531 12.371094 16.769531 12.234375 16.828125 C 12.109375 16.832031 11.984375 16.832031 11.859375 16.828125 C 11.796875 16.828125 11.734375 16.828125 11.671875 16.828125 C 11.425781 16.804688 11.203125 16.761719 10.96875 16.6875 C 10.96875 16.65625 10.96875 16.625 10.96875 16.59375 C 10.917969 16.609375 10.917969 16.609375 10.867188 16.621094 C 10.433594 16.679688 9.902344 16.269531 9.5625 16.03125 C 9.234375 15.769531 8.929688 15.46875 8.671875 15.140625 C 8.671875 15.109375 8.671875 15.078125 8.671875 15.046875 C 8.640625 15.046875 8.609375 15.046875 8.578125 15.046875 C 8.511719 14.929688 8.441406 14.8125 8.375 14.691406 C 8.355469 14.660156 8.339844 14.625 8.320312 14.59375 C 8.140625 14.277344 8.019531 14.003906 7.96875 13.640625 C 7.9375 13.609375 7.90625 13.578125 7.875 13.546875 C 7.855469 13.4375 7.839844 13.328125 7.828125 13.21875 C 7.820312 13.1875 7.8125 13.160156 7.804688 13.128906 C 7.769531 12.984375 7.761719 12.839844 7.746094 12.695312 C 7.738281 12.605469 7.730469 12.515625 7.71875 12.425781 C 7.714844 12.378906 7.710938 12.335938 7.703125 12.289062 C 7.699219 12.230469 7.699219 12.230469 7.691406 12.167969 C 7.6875 12.039062 7.707031 11.933594 7.734375 11.8125 C 7.734375 11.773438 7.734375 11.734375 7.734375 11.695312 C 7.734375 11.570312 7.757812 11.464844 7.78125 11.34375 C 7.796875 11.203125 7.8125 11.0625 7.828125 10.921875 C 7.796875 10.90625 7.765625 10.890625 7.734375 10.875 C 7.71875 10.921875 7.703125 10.96875 7.6875 11.015625 C 7.582031 11.058594 7.582031 11.058594 7.449219 11.09375 C 7.386719 11.113281 7.386719 11.113281 7.320312 11.128906 C 7.285156 11.140625 7.253906 11.148438 7.21875 11.15625 C 7.21875 11.171875 7.21875 11.1875 7.21875 11.203125 C 7.1875 11.210938 7.15625 11.214844 7.121094 11.222656 C 7.058594 11.234375 7.058594 11.234375 6.996094 11.246094 C 6.953125 11.253906 6.914062 11.261719 6.871094 11.273438 C 6.800781 11.285156 6.734375 11.300781 6.664062 11.320312 C 6.300781 11.402344 5.9375 11.398438 5.566406 11.398438 C 5.511719 11.398438 5.457031 11.398438 5.398438 11.398438 C 5.347656 11.398438 5.292969 11.398438 5.242188 11.398438 C 5.191406 11.398438 5.144531 11.398438 5.097656 11.398438 C 4.984375 11.390625 4.890625 11.375 4.78125 11.34375 C 4.71875 11.332031 4.65625 11.316406 4.59375 11.304688 C 4.007812 11.175781 3.535156 10.941406 3.042969 10.609375 C 3.015625 10.589844 2.988281 10.570312 2.960938 10.550781 C 2.894531 10.507812 2.828125 10.457031 2.765625 10.40625 C 2.765625 10.375 2.765625 10.34375 2.765625 10.3125 C 2.71875 10.296875 2.671875 10.28125 2.625 10.265625 C 2.625 10.234375 2.625 10.203125 2.625 10.171875 C 2.59375 10.171875 2.5625 10.171875 2.53125 10.171875 C 2.53125 10.140625 2.53125 10.109375 2.53125 10.078125 C 2.484375 10.0625 2.4375 10.046875 2.390625 10.03125 C 2.160156 9.761719 1.964844 9.464844 1.828125 9.140625 C 1.851562 9.09375 1.851562 9.09375 1.875 9.046875 C 1.828125 9.03125 1.78125 9.015625 1.734375 9 C 1.539062 8.683594 1.449219 8.289062 1.40625 7.921875 C 1.429688 7.875 1.429688 7.875 1.453125 7.828125 C 1.421875 7.828125 1.390625 7.828125 1.359375 7.828125 C 1.367188 7.792969 1.375 7.757812 1.386719 7.71875 C 1.417969 7.589844 1.417969 7.589844 1.359375 7.453125 C 1.355469 7.382812 1.351562 7.316406 1.351562 7.246094 C 1.351562 7.210938 1.347656 7.171875 1.347656 7.136719 C 1.359375 7.019531 1.394531 6.945312 1.453125 6.84375 C 1.421875 6.84375 1.390625 6.84375 1.359375 6.84375 C 1.359375 6.796875 1.359375 6.75 1.359375 6.703125 C 1.390625 6.703125 1.421875 6.703125 1.453125 6.703125 C 1.441406 6.671875 1.433594 6.640625 1.421875 6.609375 C 1.398438 6.410156 1.453125 6.257812 1.515625 6.066406 C 1.523438 6.03125 1.535156 5.996094 1.546875 5.960938 C 1.671875 5.546875 1.671875 5.546875 1.828125 5.390625 C 1.859375 5.3125 1.890625 5.234375 1.921875 5.15625 C 2.3125 4.496094 3.082031 3.597656 3.851562 3.394531 C 3.894531 3.386719 3.894531 3.386719 3.9375 3.375 C 3.96875 3.351562 4 3.328125 4.03125 3.304688 C 4.132812 3.230469 4.191406 3.214844 4.3125 3.1875 C 4.378906 3.164062 4.445312 3.144531 4.507812 3.121094 C 5.085938 2.925781 5.65625 2.898438 6.265625 2.898438 C 6.347656 2.898438 6.347656 2.898438 6.429688 2.898438 C 6.714844 2.898438 6.984375 2.910156 7.265625 2.953125 C 7.265625 2.984375 7.265625 3.015625 7.265625 3.046875 C 7.300781 3.03125 7.300781 3.03125 7.339844 3.015625 C 7.503906 2.992188 7.625 3.042969 7.78125 3.09375 C 7.839844 3.109375 7.894531 3.125 7.953125 3.140625 C 8.109375 3.1875 8.109375 3.1875 8.199219 3.234375 C 8.304688 3.285156 8.410156 3.316406 8.523438 3.347656 C 8.71875 3.40625 8.90625 3.480469 9.09375 3.5625 C 9.160156 3.585938 9.230469 3.609375 9.296875 3.632812 C 9.355469 3.65625 9.410156 3.679688 9.46875 3.703125 C 9.484375 3.75 9.5 3.796875 9.515625 3.84375 C 9.542969 3.835938 9.570312 3.824219 9.597656 3.816406 C 9.722656 3.792969 9.785156 3.816406 9.902344 3.863281 C 9.933594 3.878906 9.96875 3.890625 10.003906 3.90625 C 10.039062 3.921875 10.039062 3.921875 10.078125 3.9375 C 10.039062 3.886719 10.039062 3.886719 10 3.832031 C 9.949219 3.761719 9.949219 3.761719 9.898438 3.691406 C 9.847656 3.621094 9.847656 3.621094 9.792969 3.554688 C 9.722656 3.449219 9.664062 3.347656 9.609375 3.234375 C 9.558594 3.183594 9.558594 3.183594 9.503906 3.128906 C 9.40625 3.03125 9.328125 2.941406 9.246094 2.828125 C 9.144531 2.695312 9.046875 2.5625 8.945312 2.429688 C 8.898438 2.367188 8.847656 2.300781 8.800781 2.238281 C 8.777344 2.207031 8.75 2.171875 8.726562 2.140625 C 8.703125 2.109375 8.679688 2.078125 8.652344 2.042969 C 8.632812 2.015625 8.609375 1.988281 8.589844 1.960938 C 8.53125 1.875 8.53125 1.875 8.484375 1.777344 C 8.4375 1.675781 8.4375 1.675781 8.332031 1.582031 C 8.046875 1.296875 7.695312 0.890625 7.6875 0.46875 C 7.726562 0.351562 7.773438 0.25 7.828125 0.140625 C 7.859375 0.140625 7.890625 0.140625 7.921875 0.140625 C 7.9375 0.09375 7.953125 0.046875 7.96875 0 Z M 18.25 5.183594 C 18.164062 5.277344 18.125 5.363281 18.09375 5.484375 C 18.109375 5.515625 18.125 5.546875 18.140625 5.578125 C 18.171875 5.578125 18.203125 5.578125 18.234375 5.578125 C 18.253906 5.621094 18.253906 5.621094 18.273438 5.664062 C 18.324219 5.773438 18.324219 5.773438 18.421875 5.859375 C 18.421875 5.828125 18.421875 5.796875 18.421875 5.765625 C 18.453125 5.765625 18.484375 5.765625 18.515625 5.765625 C 18.515625 5.796875 18.515625 5.828125 18.515625 5.859375 C 18.578125 5.859375 18.578125 5.859375 18.644531 5.855469 C 18.769531 5.859375 18.867188 5.863281 18.984375 5.90625 C 19 5.9375 19.015625 5.96875 19.03125 6 C 19.078125 6.03125 19.125 6.0625 19.171875 6.09375 C 19.3125 6.1875 19.3125 6.1875 19.359375 6.28125 C 19.390625 6.28125 19.421875 6.28125 19.453125 6.28125 C 19.464844 6.308594 19.480469 6.339844 19.492188 6.367188 C 19.542969 6.476562 19.542969 6.476562 19.640625 6.5625 C 19.78125 6.578125 19.878906 6.589844 20.015625 6.5625 C 20.128906 6.457031 20.183594 6.371094 20.246094 6.234375 C 20.25 6.089844 20.195312 6.019531 20.109375 5.90625 C 20.035156 5.828125 19.953125 5.746094 19.875 5.671875 C 19.828125 5.621094 19.828125 5.621094 19.777344 5.570312 C 19.617188 5.402344 19.617188 5.402344 19.40625 5.34375 C 19.390625 5.3125 19.375 5.28125 19.359375 5.25 C 19 5.074219 18.582031 4.886719 18.25 5.183594 Z M 19.6875 6.609375 C 19.6875 6.625 19.6875 6.640625 19.6875 6.65625 C 19.78125 6.65625 19.875 6.65625 19.96875 6.65625 C 19.96875 6.640625 19.96875 6.625 19.96875 6.609375 C 19.875 6.609375 19.78125 6.609375 19.6875 6.609375 Z M 16.171875 13.359375 C 16.21875 13.453125 16.21875 13.453125 16.21875 13.453125 Z M 16.171875 13.359375 "/>
<path style=" stroke:none;fill-rule:nonzero;fill:rgb(95.686275%,48.235294%,12.156863%);fill-opacity:1;" d="M 8.527344 4.816406 C 8.699219 4.886719 8.867188 4.953125 9.039062 5.023438 C 10.304688 5.53125 10.304688 5.53125 10.921875 5.8125 C 10.859375 5.984375 10.785156 6.117188 10.671875 6.261719 C 10.625 6.324219 10.625 6.324219 10.578125 6.382812 C 10.546875 6.425781 10.511719 6.46875 10.480469 6.511719 C 10.445312 6.554688 10.410156 6.601562 10.378906 6.644531 C 10.277344 6.773438 10.179688 6.902344 10.078125 7.03125 C 10.027344 7.097656 9.976562 7.160156 9.929688 7.226562 C 9.679688 7.546875 9.417969 7.855469 9.140625 8.15625 C 9.101562 8.199219 9.0625 8.246094 9.019531 8.292969 C 8.269531 9.144531 7.265625 9.917969 6.101562 10.046875 C 5.960938 10.054688 5.824219 10.054688 5.6875 10.054688 C 5.636719 10.054688 5.589844 10.054688 5.539062 10.054688 C 4.695312 10.035156 4.007812 9.703125 3.421875 9.09375 C 2.816406 8.390625 2.703125 7.648438 2.765625 6.75 C 2.890625 6.015625 3.355469 5.335938 3.953125 4.894531 C 5.363281 3.921875 7.039062 4.175781 8.527344 4.816406 Z M 8.527344 4.816406 "/>
<path style=" stroke:none;fill-rule:nonzero;fill:rgb(99.215686%,78.431374%,10.196079%);fill-opacity:1;" d="M 20.015625 4.828125 C 20.183594 4.957031 20.335938 5.097656 20.484375 5.25 C 20.519531 5.285156 20.550781 5.320312 20.585938 5.355469 C 21.140625 5.945312 21.359375 6.609375 21.351562 7.410156 C 21.324219 8.109375 21.023438 8.742188 20.53125 9.234375 C 20.484375 9.28125 20.484375 9.28125 20.4375 9.332031 C 19.886719 9.863281 19.160156 10.058594 18.410156 10.050781 C 18.355469 10.050781 18.296875 10.050781 18.238281 10.050781 C 17.832031 10.042969 17.488281 10.007812 17.109375 9.84375 C 17.054688 9.820312 17 9.796875 16.945312 9.773438 C 16.363281 9.503906 15.882812 9.109375 15.421875 8.671875 C 15.398438 8.648438 15.371094 8.625 15.347656 8.601562 C 14.96875 8.238281 14.628906 7.863281 14.316406 7.445312 C 14.222656 7.324219 14.132812 7.210938 14.039062 7.097656 C 13.824219 6.835938 13.621094 6.570312 13.421875 6.296875 C 13.394531 6.253906 13.394531 6.253906 13.363281 6.214844 C 13.273438 6.085938 13.195312 5.957031 13.125 5.8125 C 18.183594 3.6875 18.183594 3.6875 20.015625 4.828125 Z M 18.25 5.183594 C 18.164062 5.277344 18.125 5.363281 18.09375 5.484375 C 18.109375 5.515625 18.125 5.546875 18.140625 5.578125 C 18.171875 5.578125 18.203125 5.578125 18.234375 5.578125 C 18.253906 5.621094 18.253906 5.621094 18.273438 5.664062 C 18.324219 5.773438 18.324219 5.773438 18.421875 5.859375 C 18.421875 5.828125 18.421875 5.796875 18.421875 5.765625 C 18.453125 5.765625 18.484375 5.765625 18.515625 5.765625 C 18.515625 5.796875 18.515625 5.828125 18.515625 5.859375 C 18.578125 5.859375 18.578125 5.859375 18.644531 5.855469 C 18.769531 5.859375 18.867188 5.863281 18.984375 5.90625 C 19 5.9375 19.015625 5.96875 19.03125 6 C 19.078125 6.03125 19.125 6.0625 19.171875 6.09375 C 19.3125 6.1875 19.3125 6.1875 19.359375 6.28125 C 19.390625 6.28125 19.421875 6.28125 19.453125 6.28125 C 19.464844 6.308594 19.480469 6.339844 19.492188 6.367188 C 19.542969 6.476562 19.542969 6.476562 19.640625 6.5625 C 19.78125 6.578125 19.878906 6.589844 20.015625 6.5625 C 20.128906 6.457031 20.183594 6.371094 20.246094 6.234375 C 20.25 6.089844 20.195312 6.019531 20.109375 5.90625 C 20.035156 5.828125 19.953125 5.746094 19.875 5.671875 C 19.828125 5.621094 19.828125 5.621094 19.777344 5.570312 C 19.617188 5.402344 19.617188 5.402344 19.40625 5.34375 C 19.390625 5.3125 19.375 5.28125 19.359375 5.25 C 19 5.074219 18.582031 4.886719 18.25 5.183594 Z M 19.6875 6.609375 C 19.6875 6.625 19.6875 6.640625 19.6875 6.65625 C 19.78125 6.65625 19.875 6.65625 19.96875 6.65625 C 19.96875 6.640625 19.96875 6.625 19.96875 6.609375 C 19.875 6.609375 19.78125 6.609375 19.6875 6.609375 Z M 19.6875 6.609375 "/>
<path style=" stroke:none;fill-rule:nonzero;fill:rgb(92.941177%,47.450981%,12.156863%);fill-opacity:1;" d="M 8.859375 12.046875 C 10.949219 12.046875 13.035156 12.046875 15.1875 12.046875 C 15.1875 13.011719 15.1875 13.011719 15.046875 13.40625 C 14.96875 13.484375 14.878906 13.460938 14.769531 13.460938 C 14.722656 13.460938 14.671875 13.460938 14.621094 13.460938 C 14.566406 13.460938 14.511719 13.460938 14.453125 13.460938 C 14.367188 13.460938 14.367188 13.460938 14.28125 13.460938 C 14.121094 13.460938 13.964844 13.460938 13.808594 13.460938 C 13.707031 13.460938 13.609375 13.457031 13.511719 13.457031 C 12.023438 13.457031 10.535156 13.433594 9.046875 13.40625 C 9.015625 13.277344 8.984375 13.148438 8.953125 13.015625 C 8.945312 12.980469 8.933594 12.945312 8.925781 12.90625 C 8.855469 12.601562 8.859375 12.378906 8.859375 12.046875 Z M 8.859375 12.046875 "/>
<path style=" stroke:none;fill-rule:nonzero;fill:rgb(98.823529%,78.039217%,10.588235%);fill-opacity:1;" d="M 10.265625 9.386719 C 10.328125 9.386719 10.328125 9.386719 10.394531 9.386719 C 10.535156 9.382812 10.675781 9.382812 10.8125 9.382812 C 10.914062 9.382812 11.011719 9.382812 11.109375 9.378906 C 11.3125 9.378906 11.515625 9.378906 11.722656 9.378906 C 11.984375 9.378906 12.246094 9.375 12.507812 9.371094 C 12.710938 9.367188 12.914062 9.367188 13.113281 9.367188 C 13.210938 9.367188 13.308594 9.367188 13.40625 9.363281 C 14.160156 9.351562 14.160156 9.351562 14.378906 9.519531 C 14.464844 9.640625 14.523438 9.753906 14.578125 9.890625 C 14.621094 9.972656 14.660156 10.054688 14.703125 10.136719 C 14.738281 10.214844 14.773438 10.296875 14.808594 10.378906 C 14.828125 10.417969 14.847656 10.460938 14.867188 10.5 C 14.949219 10.691406 15 10.804688 15 11.015625 C 14.570312 11.015625 14.140625 11.019531 13.707031 11.019531 C 13.675781 11.019531 13.644531 11.019531 13.609375 11.019531 C 12.535156 11.019531 11.460938 11.011719 10.386719 10.992188 C 10.351562 10.992188 10.320312 10.992188 10.285156 10.992188 C 9.890625 10.984375 9.492188 10.976562 9.09375 10.96875 C 9.183594 10.527344 9.183594 10.527344 9.292969 10.320312 C 9.3125 10.28125 9.332031 10.242188 9.351562 10.203125 C 9.375 10.167969 9.394531 10.128906 9.414062 10.089844 C 9.445312 10.03125 9.445312 10.03125 9.476562 9.972656 C 9.535156 9.867188 9.59375 9.761719 9.65625 9.65625 C 9.679688 9.617188 9.703125 9.574219 9.726562 9.535156 C 9.898438 9.371094 10.035156 9.386719 10.265625 9.386719 Z M 10.265625 9.386719 "/>
<path style=" stroke:none;fill-rule:nonzero;fill:rgb(27.450982%,11.764706%,5.490196%);fill-opacity:1;" d="M 1.238281 18.78125 C 1.316406 18.894531 1.375 19.003906 1.429688 19.132812 C 1.449219 19.179688 1.46875 19.222656 1.488281 19.269531 C 1.507812 19.316406 1.527344 19.359375 1.546875 19.40625 C 1.582031 19.488281 1.617188 19.570312 1.65625 19.648438 C 1.683594 19.707031 1.707031 19.769531 1.734375 19.828125 C 1.917969 19.644531 2 19.363281 2.089844 19.125 C 2.113281 19.078125 2.132812 19.03125 2.15625 18.984375 C 2.175781 18.933594 2.195312 18.882812 2.21875 18.828125 C 2.398438 18.648438 2.554688 18.671875 2.804688 18.671875 C 2.894531 18.675781 2.894531 18.675781 2.984375 18.675781 C 3.042969 18.675781 3.101562 18.675781 3.160156 18.675781 C 3.480469 18.683594 3.480469 18.683594 3.609375 18.703125 C 3.710938 18.855469 3.714844 18.890625 3.710938 19.0625 C 3.707031 19.105469 3.707031 19.148438 3.707031 19.195312 C 3.707031 19.242188 3.703125 19.289062 3.703125 19.339844 C 3.699219 19.386719 3.699219 19.4375 3.699219 19.488281 C 3.695312 19.644531 3.691406 19.796875 3.6875 19.953125 C 3.683594 20.058594 3.679688 20.164062 3.675781 20.269531 C 3.671875 20.53125 3.664062 20.789062 3.65625 21.046875 C 3.722656 21.054688 3.789062 21.0625 3.855469 21.070312 C 3.894531 21.078125 3.933594 21.082031 3.96875 21.085938 C 4.121094 21.097656 4.222656 21.070312 4.359375 21 C 4.535156 20.789062 4.523438 20.574219 4.523438 20.3125 C 4.523438 20.246094 4.523438 20.246094 4.527344 20.179688 C 4.527344 20.042969 4.53125 19.90625 4.53125 19.765625 C 4.535156 19.671875 4.535156 19.578125 4.535156 19.484375 C 4.542969 19.253906 4.542969 19.027344 4.546875 18.796875 C 4.667969 18.734375 4.765625 18.742188 4.902344 18.742188 C 4.949219 18.742188 4.996094 18.742188 5.042969 18.742188 C 5.15625 18.75 5.15625 18.75 5.203125 18.796875 C 5.207031 18.933594 5.210938 19.070312 5.210938 19.210938 C 5.210938 19.273438 5.210938 19.273438 5.210938 19.335938 C 5.210938 19.425781 5.210938 19.515625 5.210938 19.601562 C 5.210938 19.738281 5.210938 19.875 5.214844 20.007812 C 5.214844 20.09375 5.214844 20.179688 5.214844 20.269531 C 5.214844 20.308594 5.214844 20.347656 5.214844 20.390625 C 5.214844 20.699219 5.171875 20.972656 5.007812 21.242188 C 4.992188 21.273438 4.976562 21.300781 4.960938 21.332031 C 4.765625 21.539062 4.535156 21.617188 4.257812 21.632812 C 4.171875 21.628906 4.085938 21.628906 4 21.625 C 3.957031 21.625 3.914062 21.625 3.867188 21.625 C 3.511719 21.621094 3.289062 21.542969 3 21.328125 C 2.757812 21.074219 2.761719 20.847656 2.75 20.507812 C 2.75 20.476562 2.75 20.441406 2.746094 20.410156 C 2.746094 20.304688 2.742188 20.199219 2.738281 20.09375 C 2.738281 20.023438 2.734375 19.953125 2.734375 19.882812 C 2.726562 19.707031 2.722656 19.535156 2.71875 19.359375 C 2.699219 19.40625 2.699219 19.40625 2.683594 19.453125 C 2.59375 19.679688 2.5 19.898438 2.386719 20.117188 C 2.339844 20.207031 2.296875 20.296875 2.25 20.390625 C 2.226562 20.4375 2.226562 20.4375 2.199219 20.488281 C 2.066406 20.785156 2.097656 21.101562 2.109375 21.421875 C 2.0625 21.4375 2.015625 21.453125 1.96875 21.46875 C 1.953125 21.515625 1.9375 21.5625 1.921875 21.609375 C 1.816406 21.613281 1.710938 21.617188 1.601562 21.621094 C 1.511719 21.625 1.511719 21.625 1.421875 21.628906 C 1.265625 21.609375 1.265625 21.609375 1.175781 21.539062 C 1.105469 21.375 1.105469 21.210938 1.105469 21.035156 C 1.09375 20.722656 1.058594 20.519531 0.890625 20.25 C 0.871094 20.1875 0.871094 20.1875 0.847656 20.125 C 0.785156 19.9375 0.699219 19.769531 0.609375 19.59375 C 0.328125 19.050781 0.328125 19.050781 0.328125 18.75 C 0.457031 18.738281 0.585938 18.726562 0.714844 18.714844 C 0.75 18.710938 0.789062 18.707031 0.824219 18.703125 C 1.09375 18.683594 1.09375 18.683594 1.238281 18.78125 Z M 4.5 20.859375 C 4.546875 20.953125 4.546875 20.953125 4.546875 20.953125 Z M 4.5 20.859375 "/>
<path style=" stroke:none;fill-rule:nonzero;fill:rgb(27.843139%,12.156863%,5.490196%);fill-opacity:1;" d="M 6.375 18.65625 C 6.4375 18.65625 6.5 18.65625 6.5625 18.65625 C 6.5625 18.6875 6.5625 18.71875 6.5625 18.75 C 6.59375 18.742188 6.628906 18.730469 6.664062 18.71875 C 6.796875 18.703125 6.796875 18.703125 6.933594 18.753906 C 7.113281 18.808594 7.1875 18.765625 7.359375 18.703125 C 7.40625 18.71875 7.453125 18.734375 7.5 18.75 C 7.5 18.71875 7.5 18.6875 7.5 18.65625 C 7.5625 18.65625 7.625 18.65625 7.6875 18.65625 C 7.6875 18.6875 7.6875 18.71875 7.6875 18.75 C 7.738281 18.734375 7.738281 18.734375 7.792969 18.722656 C 7.941406 18.699219 7.996094 18.71875 8.128906 18.789062 C 8.164062 18.808594 8.199219 18.824219 8.230469 18.84375 C 8.429688 19.011719 8.597656 19.21875 8.648438 19.480469 C 8.65625 19.605469 8.65625 19.734375 8.652344 19.863281 C 8.652344 19.910156 8.652344 19.953125 8.652344 20.003906 C 8.648438 20.148438 8.644531 20.292969 8.640625 20.441406 C 8.640625 20.539062 8.640625 20.640625 8.640625 20.738281 C 8.636719 20.984375 8.628906 21.226562 8.625 21.46875 C 8.59375 21.46875 8.5625 21.46875 8.53125 21.46875 C 8.515625 21.515625 8.5 21.5625 8.484375 21.609375 C 8.359375 21.609375 8.238281 21.609375 8.109375 21.609375 C 8.09375 21.5625 8.078125 21.515625 8.0625 21.46875 C 8.03125 21.46875 8 21.46875 7.96875 21.46875 C 7.96875 21.410156 7.972656 21.355469 7.972656 21.296875 C 7.976562 21.085938 7.976562 20.871094 7.980469 20.660156 C 7.980469 20.570312 7.980469 20.476562 7.984375 20.386719 C 7.984375 20.253906 7.984375 20.121094 7.988281 19.988281 C 7.988281 19.949219 7.988281 19.910156 7.988281 19.867188 C 7.988281 19.671875 7.984375 19.574219 7.878906 19.40625 C 7.832031 19.359375 7.832031 19.359375 7.78125 19.3125 C 7.75 19.28125 7.71875 19.25 7.6875 19.21875 C 7.640625 19.21875 7.59375 19.21875 7.546875 19.21875 C 7.53125 19.960938 7.515625 20.703125 7.5 21.46875 C 7.46875 21.46875 7.4375 21.46875 7.40625 21.46875 C 7.390625 21.515625 7.375 21.5625 7.359375 21.609375 C 7.234375 21.609375 7.113281 21.609375 6.984375 21.609375 C 6.96875 21.5625 6.953125 21.515625 6.9375 21.46875 C 6.90625 21.46875 6.875 21.46875 6.84375 21.46875 C 6.84375 21.410156 6.84375 21.355469 6.84375 21.296875 C 6.839844 21.085938 6.835938 20.875 6.835938 20.664062 C 6.832031 20.570312 6.832031 20.480469 6.832031 20.390625 C 6.828125 20.257812 6.828125 20.125 6.824219 19.996094 C 6.824219 19.953125 6.824219 19.914062 6.824219 19.871094 C 6.820312 19.613281 6.785156 19.460938 6.609375 19.265625 C 6.5625 19.265625 6.515625 19.265625 6.46875 19.265625 C 6.421875 19.25 6.375 19.234375 6.328125 19.21875 C 6.25 19.296875 6.273438 19.394531 6.273438 19.5 C 6.273438 19.535156 6.273438 19.570312 6.273438 19.605469 C 6.277344 19.660156 6.277344 19.660156 6.277344 19.714844 C 6.28125 20.300781 6.304688 20.882812 6.328125 21.46875 C 6.28125 21.46875 6.234375 21.46875 6.1875 21.46875 C 6.171875 21.515625 6.15625 21.5625 6.140625 21.609375 C 5.925781 21.609375 5.707031 21.609375 5.484375 21.609375 C 5.460938 21.539062 5.460938 21.539062 5.4375 21.46875 C 5.40625 21.453125 5.375 21.4375 5.34375 21.421875 C 5.375 21.421875 5.40625 21.421875 5.4375 21.421875 C 5.421875 20.539062 5.40625 19.660156 5.390625 18.75 C 5.542969 18.671875 5.714844 18.695312 5.882812 18.695312 C 5.917969 18.695312 5.957031 18.695312 5.996094 18.695312 C 6.269531 18.695312 6.269531 18.695312 6.375 18.75 C 6.375 18.71875 6.375 18.6875 6.375 18.65625 Z M 6.375 18.65625 "/>
<path style=" stroke:none;fill-rule:nonzero;fill:rgb(26.666668%,12.54902%,5.490196%);fill-opacity:1;" d="M 9.796875 18.65625 C 9.859375 18.65625 9.921875 18.65625 9.984375 18.65625 C 9.984375 18.6875 9.984375 18.71875 9.984375 18.75 C 10.019531 18.738281 10.050781 18.730469 10.085938 18.71875 C 10.253906 18.699219 10.320312 18.746094 10.453125 18.84375 C 10.488281 18.820312 10.523438 18.796875 10.558594 18.769531 C 10.6875 18.703125 10.6875 18.703125 10.796875 18.71875 C 10.820312 18.726562 10.847656 18.738281 10.875 18.75 C 10.875 18.71875 10.875 18.6875 10.875 18.65625 C 10.953125 18.65625 11.03125 18.65625 11.109375 18.65625 C 11.109375 18.6875 11.109375 18.71875 11.109375 18.75 C 11.140625 18.738281 11.171875 18.726562 11.207031 18.714844 C 11.398438 18.699219 11.519531 18.78125 11.671875 18.890625 C 11.867188 19.058594 11.984375 19.199219 12.007812 19.460938 C 12.011719 19.585938 12.011719 19.710938 12.011719 19.839844 C 12.011719 19.886719 12.011719 19.929688 12.011719 19.980469 C 12.011719 20.074219 12.011719 20.171875 12.011719 20.269531 C 12.011719 20.417969 12.011719 20.570312 12.011719 20.71875 C 12.011719 20.8125 12.011719 20.90625 12.011719 21 C 12.011719 21.046875 12.011719 21.089844 12.011719 21.136719 C 12.011719 21.199219 12.011719 21.199219 12.011719 21.261719 C 12.011719 21.300781 12.011719 21.335938 12.011719 21.375 C 12 21.46875 12 21.46875 11.90625 21.609375 C 11.816406 21.625 11.816406 21.625 11.710938 21.617188 C 11.652344 21.617188 11.59375 21.613281 11.53125 21.609375 C 11.53125 21.578125 11.53125 21.546875 11.53125 21.515625 C 11.484375 21.5 11.4375 21.484375 11.390625 21.46875 C 11.40625 20.851562 11.421875 20.230469 11.4375 19.59375 C 11.40625 19.59375 11.375 19.59375 11.34375 19.59375 C 11.339844 19.566406 11.339844 19.539062 11.335938 19.511719 C 11.28125 19.363281 11.191406 19.304688 11.0625 19.21875 C 11.03125 19.21875 11 19.21875 10.96875 19.21875 C 10.96875 19.246094 10.96875 19.273438 10.96875 19.304688 C 10.964844 19.59375 10.960938 19.882812 10.957031 20.171875 C 10.953125 20.28125 10.953125 20.386719 10.953125 20.496094 C 10.949219 20.652344 10.949219 20.808594 10.945312 20.960938 C 10.945312 21.035156 10.945312 21.035156 10.945312 21.109375 C 10.945312 21.15625 10.941406 21.199219 10.941406 21.246094 C 10.941406 21.285156 10.941406 21.324219 10.941406 21.367188 C 10.917969 21.492188 10.882812 21.535156 10.78125 21.609375 C 10.652344 21.628906 10.535156 21.617188 10.40625 21.609375 C 10.40625 21.578125 10.40625 21.546875 10.40625 21.515625 C 10.359375 21.515625 10.3125 21.515625 10.265625 21.515625 C 10.265625 21.457031 10.265625 21.402344 10.265625 21.339844 C 10.269531 21.128906 10.269531 20.914062 10.269531 20.703125 C 10.269531 20.609375 10.273438 20.519531 10.273438 20.425781 C 10.273438 20.292969 10.273438 20.160156 10.273438 20.027344 C 10.273438 19.988281 10.277344 19.945312 10.277344 19.902344 C 10.277344 19.863281 10.277344 19.824219 10.277344 19.785156 C 10.277344 19.734375 10.277344 19.734375 10.277344 19.683594 C 10.253906 19.503906 10.117188 19.382812 9.984375 19.265625 C 9.9375 19.265625 9.890625 19.265625 9.84375 19.265625 C 9.84375 19.234375 9.84375 19.203125 9.84375 19.171875 C 9.8125 19.171875 9.78125 19.171875 9.75 19.171875 C 9.75 19.929688 9.75 20.6875 9.75 21.46875 C 9.679688 21.492188 9.679688 21.492188 9.609375 21.515625 C 9.609375 21.546875 9.609375 21.578125 9.609375 21.609375 C 9.503906 21.613281 9.398438 21.613281 9.289062 21.617188 C 9.199219 21.617188 9.199219 21.617188 9.109375 21.617188 C 8.953125 21.609375 8.953125 21.609375 8.8125 21.515625 C 8.796875 21.398438 8.796875 21.398438 8.796875 21.25 C 8.796875 21.195312 8.796875 21.140625 8.796875 21.082031 C 8.796875 21.023438 8.796875 20.964844 8.796875 20.902344 C 8.800781 20.839844 8.800781 20.777344 8.800781 20.714844 C 8.800781 20.554688 8.800781 20.390625 8.804688 20.226562 C 8.804688 20.0625 8.804688 19.894531 8.804688 19.726562 C 8.808594 19.402344 8.808594 19.074219 8.8125 18.75 C 8.964844 18.671875 9.136719 18.695312 9.304688 18.695312 C 9.339844 18.695312 9.378906 18.695312 9.417969 18.695312 C 9.691406 18.695312 9.691406 18.695312 9.796875 18.75 C 9.796875 18.71875 9.796875 18.6875 9.796875 18.65625 Z M 9.65625 20.90625 C 9.65625 21.09375 9.65625 21.277344 9.65625 21.46875 C 9.671875 21.46875 9.6875 21.46875 9.703125 21.46875 C 9.703125 21.28125 9.703125 21.097656 9.703125 20.90625 C 9.6875 20.90625 9.671875 20.90625 9.65625 20.90625 Z M 9.65625 20.90625 "/>
<path style=" stroke:none;fill-rule:nonzero;fill:rgb(26.666668%,12.156863%,5.098039%);fill-opacity:1;" d="M 19.078125 18.65625 C 19.125 18.65625 19.171875 18.65625 19.21875 18.65625 C 19.21875 18.6875 19.21875 18.71875 19.21875 18.75 C 19.296875 18.75 19.375 18.75 19.453125 18.75 C 19.453125 18.71875 19.453125 18.6875 19.453125 18.65625 C 19.5 18.65625 19.546875 18.65625 19.59375 18.65625 C 19.59375 18.6875 19.59375 18.71875 19.59375 18.75 C 19.628906 18.738281 19.660156 18.730469 19.695312 18.71875 C 19.859375 18.699219 19.917969 18.734375 20.054688 18.816406 C 20.089844 18.839844 20.128906 18.863281 20.164062 18.882812 C 20.195312 18.902344 20.222656 18.917969 20.25 18.9375 C 20.25 18.96875 20.25 19 20.25 19.03125 C 20.296875 19.046875 20.34375 19.0625 20.390625 19.078125 C 20.460938 19.175781 20.460938 19.175781 20.535156 19.300781 C 20.558594 19.339844 20.582031 19.382812 20.605469 19.421875 C 20.753906 19.703125 20.777344 19.847656 20.71875 20.15625 C 20.585938 20.289062 20.449219 20.265625 20.265625 20.269531 C 20.230469 20.269531 20.195312 20.269531 20.160156 20.273438 C 20.046875 20.273438 19.933594 20.277344 19.820312 20.28125 C 19.746094 20.28125 19.667969 20.28125 19.59375 20.285156 C 19.40625 20.289062 19.21875 20.292969 19.03125 20.296875 C 19.03125 20.527344 19.03125 20.761719 19.03125 21 C 19.382812 21.082031 19.574219 21.011719 19.890625 20.847656 C 20.019531 20.769531 20.019531 20.769531 20.117188 20.664062 C 20.203125 20.578125 20.203125 20.578125 20.371094 20.574219 C 20.53125 20.625 20.53125 20.625 20.628906 20.734375 C 20.671875 20.859375 20.671875 20.859375 20.648438 20.953125 C 20.558594 21.074219 20.457031 21.179688 20.34375 21.28125 C 20.3125 21.28125 20.28125 21.28125 20.25 21.28125 C 20.25 21.3125 20.25 21.34375 20.25 21.375 C 20.183594 21.40625 20.121094 21.4375 20.054688 21.464844 C 20 21.492188 20 21.492188 19.941406 21.515625 C 19.558594 21.667969 19.128906 21.65625 18.746094 21.507812 C 18.585938 21.4375 18.453125 21.359375 18.328125 21.234375 C 18.289062 21.199219 18.253906 21.164062 18.214844 21.125 C 18.0625 20.96875 17.953125 20.847656 17.953125 20.625 C 17.921875 20.59375 17.890625 20.5625 17.859375 20.53125 C 17.847656 20.445312 17.847656 20.445312 17.847656 20.339844 C 17.847656 20.304688 17.847656 20.265625 17.847656 20.226562 C 17.847656 20.1875 17.847656 20.148438 17.847656 20.109375 C 17.847656 20.070312 17.847656 20.03125 17.847656 19.992188 C 17.847656 19.953125 17.847656 19.917969 17.847656 19.878906 C 17.847656 19.84375 17.847656 19.808594 17.847656 19.773438 C 17.859375 19.6875 17.859375 19.6875 17.953125 19.59375 C 17.972656 19.53125 17.972656 19.53125 17.992188 19.464844 C 18.113281 19.132812 18.351562 18.953125 18.65625 18.796875 C 18.769531 18.753906 18.867188 18.726562 18.984375 18.703125 C 19.015625 18.71875 19.046875 18.734375 19.078125 18.75 C 19.078125 18.71875 19.078125 18.6875 19.078125 18.65625 Z M 19.21875 19.171875 C 19.09375 19.238281 19.09375 19.238281 18.984375 19.359375 C 18.984375 19.5 18.984375 19.636719 18.984375 19.78125 C 19.339844 19.78125 19.695312 19.78125 20.0625 19.78125 C 20.0625 19.75 20.0625 19.71875 20.0625 19.6875 C 20.09375 19.671875 20.125 19.65625 20.15625 19.640625 C 19.925781 19.398438 19.746094 19.25 19.40625 19.21875 C 19.359375 19.234375 19.3125 19.25 19.265625 19.265625 C 19.25 19.234375 19.234375 19.203125 19.21875 19.171875 Z M 19.21875 19.171875 "/>
<path style=" stroke:none;fill-rule:nonzero;fill:rgb(26.666668%,12.156863%,5.490196%);fill-opacity:1;" d="M 22.03125 18.65625 C 22.09375 18.65625 22.15625 18.65625 22.21875 18.65625 C 22.21875 18.6875 22.21875 18.71875 22.21875 18.75 C 22.296875 18.75 22.375 18.75 22.453125 18.75 C 22.453125 18.71875 22.453125 18.6875 22.453125 18.65625 C 22.5 18.65625 22.546875 18.65625 22.59375 18.65625 C 22.59375 18.6875 22.59375 18.71875 22.59375 18.75 C 22.617188 18.738281 22.644531 18.730469 22.671875 18.71875 C 22.871094 18.691406 23.003906 18.796875 23.15625 18.914062 C 23.40625 19.121094 23.578125 19.3125 23.660156 19.632812 C 23.675781 19.824219 23.683594 20.011719 23.671875 20.203125 C 23.625 20.25 23.625 20.25 23.464844 20.253906 C 23.394531 20.253906 23.324219 20.253906 23.25 20.253906 C 23.214844 20.253906 23.175781 20.253906 23.136719 20.253906 C 23.019531 20.253906 22.898438 20.253906 22.777344 20.253906 C 22.695312 20.253906 22.617188 20.253906 22.535156 20.253906 C 22.335938 20.25 22.136719 20.25 21.9375 20.25 C 21.9375 20.355469 21.941406 20.464844 21.945312 20.570312 C 21.949219 20.660156 21.949219 20.660156 21.953125 20.75 C 21.96875 20.914062 21.96875 20.914062 22.09375 20.996094 C 22.269531 21.066406 22.414062 21.058594 22.59375 21 C 22.710938 20.933594 22.820312 20.859375 22.925781 20.777344 C 23.015625 20.71875 23.015625 20.71875 23.109375 20.71875 C 23.109375 20.6875 23.109375 20.65625 23.109375 20.625 C 23.234375 20.585938 23.234375 20.585938 23.390625 20.578125 C 23.527344 20.679688 23.527344 20.679688 23.625 20.8125 C 23.617188 20.964844 23.589844 21.03125 23.492188 21.148438 C 23.210938 21.390625 23 21.492188 22.640625 21.5625 C 22.59375 21.585938 22.59375 21.585938 22.546875 21.609375 C 22.0625 21.648438 21.652344 21.535156 21.273438 21.222656 C 21 20.96875 20.890625 20.707031 20.8125 20.34375 C 20.84375 20.34375 20.875 20.34375 20.90625 20.34375 C 20.871094 20.082031 20.871094 20.082031 20.8125 19.828125 C 20.84375 19.828125 20.875 19.828125 20.90625 19.828125 C 20.890625 19.78125 20.875 19.734375 20.859375 19.6875 C 20.914062 19.554688 20.914062 19.554688 21 19.40625 C 21.027344 19.359375 21.050781 19.3125 21.078125 19.265625 C 21.324219 18.949219 21.636719 18.757812 22.03125 18.703125 C 22.03125 18.6875 22.03125 18.671875 22.03125 18.65625 Z M 22.21875 19.171875 C 22.15625 19.21875 22.09375 19.265625 22.03125 19.3125 C 22 19.296875 21.96875 19.28125 21.9375 19.265625 C 21.9375 19.4375 21.9375 19.605469 21.9375 19.78125 C 22.308594 19.78125 22.679688 19.78125 23.0625 19.78125 C 23.078125 19.71875 23.09375 19.65625 23.109375 19.59375 C 23.0625 19.558594 23.015625 19.519531 22.96875 19.484375 C 22.921875 19.441406 22.875 19.402344 22.828125 19.359375 C 22.828125 19.328125 22.828125 19.296875 22.828125 19.265625 C 22.777344 19.257812 22.722656 19.253906 22.671875 19.246094 C 22.5 19.21875 22.5 19.21875 22.40625 19.171875 C 22.40625 19.203125 22.40625 19.234375 22.40625 19.265625 C 22.359375 19.265625 22.3125 19.265625 22.265625 19.265625 C 22.25 19.234375 22.234375 19.203125 22.21875 19.171875 Z M 22.21875 19.171875 "/>
<path style=" stroke:none;fill-rule:nonzero;fill:rgb(27.843139%,12.156863%,5.490196%);fill-opacity:1;" d="M 15.5625 18.703125 C 15.679688 18.683594 15.679688 18.683594 15.828125 18.683594 C 15.882812 18.683594 15.933594 18.683594 15.992188 18.683594 C 16.074219 18.683594 16.074219 18.683594 16.160156 18.6875 C 16.214844 18.683594 16.269531 18.683594 16.328125 18.683594 C 16.652344 18.683594 16.894531 18.695312 17.148438 18.921875 C 17.257812 19.140625 17.25 19.394531 17.25 19.640625 C 17.316406 19.710938 17.316406 19.710938 17.402344 19.769531 C 17.625 19.953125 17.746094 20.136719 17.78125 20.425781 C 17.789062 20.796875 17.714844 21.023438 17.46875 21.296875 C 17.109375 21.65625 16.714844 21.621094 16.234375 21.625 C 16.148438 21.625 16.148438 21.625 16.058594 21.628906 C 15.976562 21.628906 15.976562 21.628906 15.890625 21.628906 C 15.839844 21.628906 15.789062 21.628906 15.738281 21.632812 C 15.609375 21.609375 15.609375 21.609375 15.53125 21.53125 C 15.457031 21.398438 15.453125 21.316406 15.453125 21.167969 C 15.449219 21.089844 15.449219 21.089844 15.449219 21.011719 C 15.449219 20.957031 15.453125 20.902344 15.453125 20.84375 C 15.453125 20.789062 15.453125 20.730469 15.453125 20.671875 C 15.453125 20.554688 15.453125 20.433594 15.453125 20.3125 C 15.453125 20.128906 15.453125 19.945312 15.453125 19.761719 C 15.453125 19.648438 15.453125 19.53125 15.453125 19.414062 C 15.453125 19.359375 15.453125 19.304688 15.453125 19.246094 C 15.457031 19.171875 15.457031 19.171875 15.457031 19.09375 C 15.457031 19.046875 15.457031 19.003906 15.457031 18.957031 C 15.46875 18.84375 15.46875 18.84375 15.5625 18.703125 Z M 16.359375 19.171875 C 16.359375 19.28125 16.359375 19.386719 16.359375 19.5 C 16.4375 19.5 16.515625 19.5 16.59375 19.5 C 16.625 19.414062 16.625 19.414062 16.640625 19.3125 C 16.609375 19.265625 16.578125 19.21875 16.546875 19.171875 C 16.484375 19.171875 16.421875 19.171875 16.359375 19.171875 Z M 16.734375 20.015625 C 16.609375 20.03125 16.488281 20.046875 16.359375 20.0625 C 16.359375 20.226562 16.355469 20.386719 16.355469 20.550781 C 16.355469 20.597656 16.355469 20.644531 16.355469 20.691406 C 16.355469 20.738281 16.355469 20.78125 16.355469 20.828125 C 16.355469 20.867188 16.355469 20.910156 16.355469 20.953125 C 16.347656 21.046875 16.347656 21.046875 16.40625 21.09375 C 16.53125 21.101562 16.65625 21.097656 16.78125 21.09375 C 16.78125 21.0625 16.78125 21.03125 16.78125 21 C 16.816406 20.988281 16.851562 20.980469 16.890625 20.96875 C 17.046875 20.890625 17.089844 20.835938 17.15625 20.671875 C 17.15625 20.460938 17.132812 20.371094 16.996094 20.207031 C 16.886719 20.097656 16.886719 20.097656 16.78125 20.109375 C 16.765625 20.078125 16.75 20.046875 16.734375 20.015625 Z M 16.734375 20.015625 "/>
<path style=" stroke:none;fill-rule:nonzero;fill:rgb(98.431373%,77.64706%,10.196079%);fill-opacity:1;" d="M 12.046875 12.09375 C 13.082031 12.09375 14.121094 12.09375 15.1875 12.09375 C 15.1875 13.003906 15.1875 13.003906 15.046875 13.40625 C 15 13.453125 15 13.453125 14.882812 13.457031 C 14.828125 13.457031 14.777344 13.457031 14.722656 13.457031 C 14.664062 13.457031 14.605469 13.457031 14.542969 13.457031 C 14.480469 13.457031 14.414062 13.457031 14.347656 13.457031 C 14.285156 13.457031 14.21875 13.457031 14.152344 13.457031 C 13.976562 13.457031 13.800781 13.457031 13.628906 13.457031 C 13.417969 13.457031 13.210938 13.457031 13 13.457031 C 12.683594 13.453125 12.363281 13.453125 12.046875 13.453125 C 12.046875 13.003906 12.046875 12.554688 12.046875 12.09375 Z M 12.046875 12.09375 "/>
<path style=" stroke:none;fill-rule:nonzero;fill:rgb(95.686275%,48.627451%,12.54902%);fill-opacity:1;" d="M 10.34375 9.398438 C 10.417969 9.398438 10.417969 9.398438 10.492188 9.398438 C 10.648438 9.402344 10.800781 9.402344 10.957031 9.40625 C 11.0625 9.410156 11.167969 9.410156 11.273438 9.410156 C 11.53125 9.414062 11.789062 9.417969 12.046875 9.421875 C 12.046875 9.933594 12.046875 10.441406 12.046875 10.96875 C 11.074219 10.96875 10.097656 10.96875 9.09375 10.96875 C 9.199219 10.492188 9.199219 10.492188 9.292969 10.320312 C 9.3125 10.28125 9.332031 10.242188 9.351562 10.203125 C 9.375 10.167969 9.394531 10.128906 9.414062 10.089844 C 9.445312 10.03125 9.445312 10.03125 9.476562 9.972656 C 9.535156 9.867188 9.59375 9.761719 9.65625 9.65625 C 9.679688 9.613281 9.703125 9.570312 9.726562 9.527344 C 9.914062 9.359375 10.101562 9.394531 10.34375 9.398438 Z M 10.34375 9.398438 "/>
<path style=" stroke:none;fill-rule:nonzero;fill:rgb(98.823529%,78.039217%,10.196079%);fill-opacity:1;" d="M 9.703125 14.484375 C 11.265625 14.484375 12.828125 14.484375 14.4375 14.484375 C 13.902344 15.109375 13.226562 15.597656 12.378906 15.664062 C 11.488281 15.714844 10.71875 15.480469 10.035156 14.898438 C 10.003906 14.871094 9.96875 14.84375 9.9375 14.8125 C 9.910156 14.789062 9.882812 14.765625 9.855469 14.738281 C 9.789062 14.679688 9.789062 14.679688 9.703125 14.578125 C 9.703125 14.546875 9.703125 14.515625 9.703125 14.484375 Z M 9.703125 14.484375 "/>
<path style=" stroke:none;fill-rule:nonzero;fill:rgb(27.450982%,12.156863%,5.490196%);fill-opacity:1;" d="M 12.09375 18.703125 C 12.222656 18.695312 12.351562 18.691406 12.480469 18.6875 C 12.515625 18.6875 12.554688 18.683594 12.589844 18.683594 C 12.863281 18.675781 12.863281 18.675781 13.003906 18.808594 C 13.070312 18.925781 13.125 19.035156 13.167969 19.160156 C 13.257812 19.398438 13.371094 19.609375 13.5 19.828125 C 13.519531 19.792969 13.535156 19.757812 13.554688 19.722656 C 13.601562 19.621094 13.652344 19.523438 13.703125 19.421875 C 13.753906 19.324219 13.800781 19.226562 13.847656 19.128906 C 13.875 19.066406 13.875 19.066406 13.90625 19 C 13.925781 18.964844 13.941406 18.925781 13.960938 18.890625 C 14.015625 18.796875 14.015625 18.796875 14.15625 18.703125 C 14.273438 18.695312 14.273438 18.695312 14.398438 18.695312 C 14.441406 18.699219 14.484375 18.699219 14.527344 18.699219 C 14.558594 18.699219 14.59375 18.703125 14.625 18.703125 C 14.671875 18.902344 14.675781 18.996094 14.578125 19.171875 C 14.5625 19.203125 14.546875 19.238281 14.527344 19.273438 C 14.480469 19.363281 14.4375 19.457031 14.390625 19.546875 C 14.359375 19.546875 14.328125 19.546875 14.296875 19.546875 C 14.296875 19.597656 14.292969 19.648438 14.289062 19.703125 C 14.257812 19.980469 14.109375 20.203125 13.96875 20.4375 C 13.9375 20.4375 13.90625 20.4375 13.875 20.4375 C 13.890625 20.484375 13.90625 20.53125 13.921875 20.578125 C 13.90625 20.625 13.890625 20.671875 13.875 20.71875 C 13.84375 20.71875 13.8125 20.71875 13.78125 20.71875 C 13.785156 20.769531 13.792969 20.824219 13.796875 20.878906 C 13.800781 20.945312 13.808594 21.015625 13.8125 21.085938 C 13.816406 21.121094 13.820312 21.152344 13.824219 21.191406 C 13.84375 21.441406 13.84375 21.441406 13.777344 21.5625 C 13.640625 21.632812 13.515625 21.628906 13.359375 21.625 C 13.300781 21.628906 13.242188 21.628906 13.183594 21.628906 C 13.03125 21.609375 13.03125 21.609375 12.941406 21.539062 C 12.925781 21.515625 12.90625 21.492188 12.890625 21.46875 C 12.90625 21.453125 12.921875 21.4375 12.9375 21.421875 C 12.9375 21.304688 12.933594 21.195312 12.925781 21.078125 C 12.925781 21.046875 12.921875 21.015625 12.921875 20.984375 C 12.910156 20.785156 12.878906 20.679688 12.75 20.53125 C 12.714844 20.441406 12.679688 20.351562 12.648438 20.261719 C 12.59375 20.109375 12.523438 19.96875 12.453125 19.824219 C 12.441406 19.792969 12.433594 19.765625 12.421875 19.734375 C 12.4375 19.703125 12.453125 19.671875 12.46875 19.640625 C 12.421875 19.625 12.375 19.609375 12.328125 19.59375 C 12.292969 19.515625 12.257812 19.441406 12.226562 19.359375 C 12.171875 19.226562 12.097656 19.105469 12.027344 18.980469 C 12 18.890625 12 18.890625 12.042969 18.785156 C 12.058594 18.757812 12.074219 18.730469 12.09375 18.703125 Z M 12.984375 18.9375 C 13.03125 19.03125 13.03125 19.03125 13.03125 19.03125 Z M 12.1875 19.125 C 12.234375 19.21875 12.234375 19.21875 12.234375 19.21875 Z M 12.1875 19.125 "/>
<path style=" stroke:none;fill-rule:nonzero;fill:rgb(27.058825%,10.980392%,4.705882%);fill-opacity:1;" d="M 15.328125 22.6875 C 15.339844 22.835938 15.339844 22.835938 15.328125 22.96875 C 15.359375 22.960938 15.390625 22.953125 15.421875 22.945312 C 15.484375 22.933594 15.484375 22.933594 15.546875 22.917969 C 15.589844 22.910156 15.628906 22.902344 15.671875 22.890625 C 15.859375 22.867188 15.984375 22.890625 16.140625 22.996094 C 16.164062 23.015625 16.191406 23.039062 16.21875 23.0625 C 16.234375 23.039062 16.25 23.019531 16.265625 22.996094 C 16.40625 22.882812 16.558594 22.863281 16.734375 22.875 C 16.996094 23.007812 16.996094 23.007812 17.0625 23.203125 C 17.09375 23.171875 17.09375 23.171875 17.121094 23.144531 C 17.3125 22.964844 17.445312 22.871094 17.71875 22.875 C 17.867188 22.929688 17.96875 22.988281 18.089844 23.09375 C 18.167969 23.265625 18.128906 23.398438 18.09375 23.578125 C 17.921875 23.578125 17.753906 23.578125 17.578125 23.578125 C 17.578125 23.625 17.578125 23.671875 17.578125 23.71875 C 17.757812 23.730469 17.882812 23.699219 18.046875 23.625 C 18.078125 23.734375 18.078125 23.734375 18.09375 23.859375 C 18.042969 23.9375 18.042969 23.9375 17.953125 24 C 17.726562 24.039062 17.453125 24.070312 17.253906 23.941406 C 17.160156 23.828125 17.109375 23.714844 17.0625 23.578125 C 16.890625 23.59375 16.722656 23.609375 16.546875 23.625 C 16.546875 23.671875 16.546875 23.71875 16.546875 23.765625 C 16.609375 23.761719 16.667969 23.753906 16.730469 23.75 C 16.78125 23.742188 16.78125 23.742188 16.835938 23.738281 C 16.863281 23.730469 16.890625 23.726562 16.921875 23.71875 C 16.9375 23.6875 16.953125 23.65625 16.96875 23.625 C 16.992188 23.695312 16.992188 23.695312 17.015625 23.765625 C 17.046875 23.78125 17.078125 23.796875 17.109375 23.8125 C 17 23.9375 16.90625 23.996094 16.742188 24.023438 C 16.382812 24.039062 16.382812 24.039062 16.222656 23.953125 C 16.089844 23.8125 16.066406 23.675781 16.0625 23.492188 C 16.066406 23.425781 16.070312 23.359375 16.078125 23.296875 C 15.953125 23.226562 15.894531 23.203125 15.75 23.203125 C 15.75 23.464844 15.75 23.730469 15.75 24 C 15.640625 24 15.535156 24 15.421875 24 C 15.421875 23.738281 15.421875 23.472656 15.421875 23.203125 C 15.359375 23.171875 15.296875 23.140625 15.234375 23.109375 C 15.09375 23.015625 15.054688 22.992188 15 22.828125 C 14.882812 22.804688 14.882812 22.804688 14.765625 22.78125 C 14.765625 22.890625 14.765625 22.996094 14.765625 23.109375 C 14.875 23.109375 14.980469 23.109375 15.09375 23.109375 C 15.09375 23.140625 15.09375 23.171875 15.09375 23.203125 C 15.125 23.203125 15.15625 23.203125 15.1875 23.203125 C 15.1875 23.25 15.1875 23.296875 15.1875 23.34375 C 15.09375 23.4375 15.09375 23.4375 14.921875 23.445312 C 14.871094 23.441406 14.820312 23.441406 14.765625 23.4375 C 14.765625 23.609375 14.765625 23.777344 14.765625 23.953125 C 14.625 24.023438 14.496094 24.003906 14.34375 24 C 14.296875 23.953125 14.296875 23.953125 14.292969 23.835938 C 14.292969 23.785156 14.292969 23.734375 14.292969 23.683594 C 14.292969 23.601562 14.292969 23.601562 14.292969 23.515625 C 14.292969 23.457031 14.292969 23.398438 14.292969 23.339844 C 14.292969 23.28125 14.292969 23.226562 14.292969 23.164062 C 14.296875 23.023438 14.296875 22.878906 14.296875 22.734375 C 14.25 22.71875 14.203125 22.703125 14.15625 22.6875 C 14.171875 22.65625 14.1875 22.625 14.203125 22.59375 C 14.355469 22.582031 14.507812 22.570312 14.660156 22.5625 C 14.726562 22.554688 14.726562 22.554688 14.789062 22.550781 C 14.832031 22.546875 14.875 22.546875 14.917969 22.542969 C 14.957031 22.539062 14.992188 22.539062 15.035156 22.535156 C 15.171875 22.550781 15.230469 22.589844 15.328125 22.6875 Z M 16.546875 23.203125 C 16.546875 23.265625 16.546875 23.328125 16.546875 23.390625 C 16.59375 23.390625 16.640625 23.390625 16.6875 23.390625 C 16.703125 23.34375 16.71875 23.296875 16.734375 23.25 C 16.671875 23.234375 16.609375 23.21875 16.546875 23.203125 Z M 17.53125 23.203125 C 17.546875 23.265625 17.5625 23.328125 17.578125 23.390625 C 17.609375 23.390625 17.640625 23.390625 17.671875 23.390625 C 17.671875 23.328125 17.671875 23.265625 17.671875 23.203125 C 17.625 23.203125 17.578125 23.203125 17.53125 23.203125 Z M 17.53125 23.203125 "/>
<path style=" stroke:none;fill-rule:nonzero;fill:rgb(96.862745%,76.47059%,10.588235%);fill-opacity:1;" d="M 12 6.5625 C 12.160156 6.617188 12.183594 6.652344 12.28125 6.785156 C 12.304688 6.824219 12.332031 6.859375 12.359375 6.898438 C 12.402344 6.957031 12.402344 6.957031 12.445312 7.015625 C 12.503906 7.097656 12.5625 7.179688 12.621094 7.261719 C 12.652344 7.300781 12.679688 7.34375 12.710938 7.382812 C 12.832031 7.546875 12.957031 7.707031 13.082031 7.867188 C 13.101562 7.890625 13.121094 7.917969 13.140625 7.941406 C 13.21875 8.042969 13.296875 8.140625 13.378906 8.234375 C 13.546875 8.429688 13.546875 8.429688 13.546875 8.53125 C 12.5625 8.539062 11.578125 8.523438 10.59375 8.484375 C 10.652344 8.359375 10.714844 8.25 10.796875 8.140625 C 10.820312 8.113281 10.84375 8.085938 10.863281 8.054688 C 10.886719 8.023438 10.914062 7.992188 10.9375 7.960938 C 10.960938 7.925781 10.984375 7.894531 11.011719 7.863281 C 11.25 7.546875 11.492188 7.230469 11.730469 6.917969 C 11.820312 6.800781 11.910156 6.679688 12 6.5625 Z M 12 6.5625 "/>
<path style=" stroke:none;fill-rule:nonzero;fill:rgb(27.058825%,11.372549%,5.098039%);fill-opacity:1;" d="M 10.171875 22.546875 C 10.21875 22.53125 10.265625 22.515625 10.3125 22.5 C 10.496094 22.59375 10.578125 22.648438 10.65625 22.839844 C 10.667969 22.882812 10.675781 22.925781 10.6875 22.96875 C 10.894531 22.945312 10.894531 22.945312 11.109375 22.921875 C 11.132812 22.992188 11.132812 22.992188 11.15625 23.0625 C 11.1875 23.0625 11.21875 23.0625 11.25 23.0625 C 11.25 23.101562 11.25 23.140625 11.25 23.179688 C 11.246094 23.230469 11.246094 23.28125 11.246094 23.335938 C 11.246094 23.386719 11.246094 23.4375 11.246094 23.488281 C 11.242188 23.628906 11.242188 23.628906 11.296875 23.765625 C 11.359375 23.765625 11.421875 23.765625 11.484375 23.765625 C 11.484375 23.503906 11.484375 23.238281 11.484375 22.96875 C 11.59375 22.96875 11.699219 22.96875 11.8125 22.96875 C 11.8125 23.308594 11.8125 23.648438 11.8125 24 C 11.675781 24.003906 11.539062 24.007812 11.398438 24.015625 C 11.355469 24.015625 11.3125 24.019531 11.269531 24.019531 C 11.164062 24.023438 11.070312 24.019531 10.96875 24 C 10.847656 23.875 10.832031 23.792969 10.8125 23.621094 C 10.816406 23.570312 10.816406 23.519531 10.820312 23.46875 C 10.820312 23.394531 10.820312 23.394531 10.824219 23.316406 C 10.824219 23.28125 10.828125 23.242188 10.828125 23.203125 C 10.738281 23.355469 10.722656 23.460938 10.726562 23.636719 C 10.730469 23.699219 10.730469 23.699219 10.730469 23.761719 C 10.730469 23.796875 10.734375 23.828125 10.734375 23.859375 C 10.703125 23.859375 10.671875 23.859375 10.640625 23.859375 C 10.640625 23.890625 10.640625 23.921875 10.640625 23.953125 C 10.476562 24.035156 10.289062 24.011719 10.109375 24.015625 C 10.066406 24.015625 10.027344 24.015625 9.984375 24.019531 C 9.6875 24.023438 9.6875 24.023438 9.535156 23.910156 C 9.46875 23.8125 9.46875 23.8125 9.46875 23.71875 C 9.4375 23.703125 9.40625 23.6875 9.375 23.671875 C 9.375 23.640625 9.375 23.609375 9.375 23.578125 C 9.34375 23.546875 9.3125 23.515625 9.28125 23.484375 C 9.25 23.191406 9.292969 22.976562 9.46875 22.734375 C 9.699219 22.542969 9.882812 22.46875 10.171875 22.546875 Z M 9.984375 22.734375 C 9.984375 22.765625 9.984375 22.796875 9.984375 22.828125 C 9.957031 22.835938 9.929688 22.84375 9.898438 22.851562 C 9.761719 22.945312 9.722656 23.039062 9.671875 23.191406 C 9.644531 23.375 9.710938 23.511719 9.796875 23.671875 C 9.816406 23.710938 9.835938 23.75 9.855469 23.789062 C 9.984375 23.898438 10.105469 23.871094 10.265625 23.859375 C 10.265625 23.8125 10.265625 23.8125 10.269531 23.761719 C 10.285156 23.421875 10.285156 23.421875 10.417969 23.269531 C 10.542969 23.207031 10.640625 23.171875 10.78125 23.15625 C 10.691406 23.046875 10.691406 23.046875 10.539062 23.054688 C 10.472656 23.058594 10.472656 23.058594 10.40625 23.0625 C 10.421875 23 10.4375 22.9375 10.453125 22.875 C 10.421875 22.875 10.390625 22.875 10.359375 22.875 C 10.328125 22.828125 10.296875 22.78125 10.265625 22.734375 C 10.121094 22.722656 10.121094 22.722656 9.984375 22.734375 Z M 9.984375 22.734375 "/>
<path style=" stroke:none;fill-rule:nonzero;fill:rgb(94.901961%,48.235294%,12.156863%);fill-opacity:1;" d="M 9.703125 14.484375 C 10.476562 14.484375 11.25 14.484375 12.046875 14.484375 C 12.046875 14.871094 12.046875 15.257812 12.046875 15.65625 C 11.226562 15.65625 10.546875 15.363281 9.9375 14.8125 C 9.910156 14.789062 9.882812 14.765625 9.855469 14.738281 C 9.789062 14.679688 9.789062 14.679688 9.703125 14.578125 C 9.703125 14.546875 9.703125 14.515625 9.703125 14.484375 Z M 9.703125 14.484375 "/>
<path style=" stroke:none;fill-rule:nonzero;fill:rgb(27.450982%,11.764706%,5.098039%);fill-opacity:1;" d="M 6.984375 22.546875 C 7 22.578125 7.015625 22.609375 7.03125 22.640625 C 7.078125 22.65625 7.125 22.671875 7.171875 22.6875 C 7.171875 22.78125 7.171875 22.875 7.171875 22.96875 C 6.996094 23.023438 6.996094 23.023438 6.890625 22.96875 C 6.875 22.921875 6.859375 22.875 6.84375 22.828125 C 6.703125 22.804688 6.703125 22.804688 6.5625 22.78125 C 6.5625 22.921875 6.5625 23.058594 6.5625 23.203125 C 6.734375 23.203125 6.902344 23.203125 7.078125 23.203125 C 7.078125 23.234375 7.078125 23.265625 7.078125 23.296875 C 6.917969 23.375 6.738281 23.371094 6.5625 23.390625 C 6.5625 23.53125 6.5625 23.667969 6.5625 23.8125 C 6.820312 23.773438 6.820312 23.773438 7.015625 23.628906 C 7.046875 23.578125 7.046875 23.578125 7.078125 23.53125 C 7.203125 23.449219 7.203125 23.449219 7.3125 23.390625 C 7.28125 23.359375 7.25 23.328125 7.21875 23.296875 C 7.234375 23.171875 7.234375 23.171875 7.265625 23.0625 C 7.296875 23.0625 7.328125 23.0625 7.359375 23.0625 C 7.375 23.015625 7.390625 22.96875 7.40625 22.921875 C 7.453125 22.9375 7.5 22.953125 7.546875 22.96875 C 7.546875 22.9375 7.546875 22.90625 7.546875 22.875 C 7.714844 22.867188 7.828125 22.871094 7.96875 22.96875 C 8.074219 23.070312 8.148438 23.148438 8.167969 23.296875 C 8.164062 23.402344 8.15625 23.507812 8.144531 23.617188 C 8.140625 23.652344 8.136719 23.691406 8.136719 23.726562 C 8.128906 23.820312 8.117188 23.910156 8.109375 24 C 7.980469 24.003906 7.851562 24.003906 7.71875 24.007812 C 7.683594 24.007812 7.644531 24.007812 7.609375 24.007812 C 7.574219 24.007812 7.539062 24.007812 7.5 24.007812 C 7.46875 24.007812 7.433594 24.011719 7.402344 24.011719 C 7.3125 24 7.3125 24 7.171875 23.90625 C 7.125 23.9375 7.078125 23.96875 7.03125 24 C 6.933594 24.011719 6.933594 24.011719 6.824219 24.011719 C 6.765625 24.011719 6.765625 24.011719 6.703125 24.011719 C 6.664062 24.011719 6.621094 24.007812 6.578125 24.007812 C 6.539062 24.007812 6.496094 24.007812 6.453125 24.007812 C 6.148438 24.007812 6.148438 24.007812 6.09375 23.953125 C 6.089844 23.863281 6.089844 23.773438 6.089844 23.683594 C 6.089844 23.601562 6.089844 23.601562 6.089844 23.515625 C 6.089844 23.457031 6.089844 23.398438 6.089844 23.339844 C 6.089844 23.28125 6.089844 23.226562 6.089844 23.164062 C 6.09375 23.023438 6.09375 22.878906 6.09375 22.734375 C 6.03125 22.71875 5.96875 22.703125 5.90625 22.6875 C 5.921875 22.65625 5.9375 22.625 5.953125 22.59375 C 6.464844 22.570312 6.464844 22.570312 6.984375 22.546875 Z M 6.46875 22.828125 C 6.46875 22.921875 6.46875 23.015625 6.46875 23.109375 C 6.484375 23.109375 6.5 23.109375 6.515625 23.109375 C 6.515625 23.015625 6.515625 22.921875 6.515625 22.828125 C 6.5 22.828125 6.484375 22.828125 6.46875 22.828125 Z M 7.546875 23.203125 C 7.5 23.273438 7.5 23.273438 7.453125 23.34375 C 7.5 23.367188 7.5 23.367188 7.546875 23.390625 C 7.546875 23.359375 7.546875 23.328125 7.546875 23.296875 C 7.609375 23.28125 7.671875 23.265625 7.734375 23.25 C 7.671875 23.234375 7.609375 23.21875 7.546875 23.203125 Z M 6.46875 23.4375 C 6.46875 23.5625 6.46875 23.683594 6.46875 23.8125 C 6.484375 23.8125 6.5 23.8125 6.515625 23.8125 C 6.515625 23.6875 6.515625 23.566406 6.515625 23.4375 C 6.5 23.4375 6.484375 23.4375 6.46875 23.4375 Z M 7.078125 23.578125 C 7.125 23.601562 7.125 23.601562 7.171875 23.625 C 7.1875 23.671875 7.203125 23.71875 7.21875 23.765625 C 7.21875 23.703125 7.21875 23.640625 7.21875 23.578125 C 7.171875 23.578125 7.125 23.578125 7.078125 23.578125 Z M 7.640625 23.578125 C 7.589844 23.667969 7.589844 23.667969 7.546875 23.765625 C 7.5625 23.796875 7.578125 23.828125 7.59375 23.859375 C 7.625 23.859375 7.65625 23.859375 7.6875 23.859375 C 7.792969 23.726562 7.792969 23.726562 7.78125 23.578125 C 7.734375 23.578125 7.6875 23.578125 7.640625 23.578125 Z M 7.640625 23.578125 "/>
<path style=" stroke:none;fill-rule:nonzero;fill:rgb(27.058825%,10.980392%,4.705882%);fill-opacity:1;" d="M 12.046875 22.546875 C 12.109375 22.546875 12.171875 22.546875 12.234375 22.546875 C 12.265625 22.578125 12.296875 22.609375 12.328125 22.640625 C 12.34375 22.625 12.359375 22.609375 12.375 22.59375 C 12.445312 22.582031 12.515625 22.574219 12.589844 22.566406 C 12.628906 22.5625 12.667969 22.558594 12.707031 22.554688 C 12.75 22.550781 12.75 22.550781 12.796875 22.546875 C 12.929688 22.769531 12.929688 22.769531 12.984375 22.875 C 13.015625 22.835938 13.050781 22.796875 13.085938 22.753906 C 13.21875 22.640625 13.21875 22.640625 13.375 22.648438 C 13.414062 22.660156 13.457031 22.675781 13.5 22.6875 C 13.5 22.78125 13.5 22.875 13.5 22.96875 C 13.546875 22.96875 13.59375 22.96875 13.640625 22.96875 C 13.640625 23.03125 13.640625 23.09375 13.640625 23.15625 C 13.59375 23.15625 13.546875 23.15625 13.5 23.15625 C 13.523438 23.457031 13.523438 23.457031 13.546875 23.765625 C 13.625 23.78125 13.703125 23.796875 13.78125 23.8125 C 13.75 23.875 13.71875 23.9375 13.6875 24 C 13.613281 24.003906 13.539062 24.007812 13.460938 24.007812 C 13.398438 24.011719 13.398438 24.011719 13.335938 24.015625 C 13.21875 24 13.21875 24 13.136719 23.933594 C 13.078125 23.859375 13.078125 23.859375 13.03125 23.765625 C 13.027344 23.796875 13.019531 23.824219 13.015625 23.855469 C 13 23.90625 13 23.90625 12.984375 23.953125 C 12.84375 24.023438 12.714844 24.003906 12.5625 24 C 12.480469 23.917969 12.503906 23.804688 12.5 23.691406 C 12.5 23.640625 12.496094 23.585938 12.496094 23.53125 C 12.492188 23.476562 12.492188 23.421875 12.488281 23.363281 C 12.484375 23.28125 12.484375 23.28125 12.484375 23.195312 C 12.476562 23.058594 12.472656 22.917969 12.46875 22.78125 C 12.4375 22.765625 12.40625 22.75 12.375 22.734375 C 12.328125 22.902344 12.328125 22.902344 12.375 23.0625 C 12.375 23.132812 12.375 23.207031 12.371094 23.277344 C 12.367188 23.320312 12.363281 23.359375 12.363281 23.402344 C 12.359375 23.449219 12.355469 23.492188 12.355469 23.539062 C 12.351562 23.582031 12.347656 23.625 12.347656 23.671875 C 12.339844 23.78125 12.335938 23.890625 12.328125 24 C 12.21875 24.003906 12.109375 24 12 24 C 11.953125 23.953125 11.953125 23.953125 11.949219 23.871094 C 11.949219 23.835938 11.949219 23.800781 11.949219 23.765625 C 11.949219 23.726562 11.949219 23.6875 11.949219 23.648438 C 11.949219 23.609375 11.949219 23.570312 11.949219 23.527344 C 11.949219 23.488281 11.949219 23.449219 11.949219 23.40625 C 11.953125 23.308594 11.953125 23.207031 11.953125 23.109375 C 11.921875 23.109375 11.890625 23.109375 11.859375 23.109375 C 11.859375 23.0625 11.859375 23.015625 11.859375 22.96875 C 11.90625 22.953125 11.953125 22.9375 12 22.921875 C 11.984375 22.855469 11.984375 22.855469 11.96875 22.789062 C 11.964844 22.738281 11.960938 22.691406 11.953125 22.640625 C 11.984375 22.609375 12.015625 22.578125 12.046875 22.546875 Z M 13.078125 22.828125 C 13.125 22.96875 13.125 22.96875 13.125 22.96875 Z M 13.078125 22.828125 "/>
<path style=" stroke:none;fill-rule:nonzero;fill:rgb(94.509804%,48.235294%,12.156863%);fill-opacity:1;" d="M 12 6.5625 C 12.03125 6.578125 12.0625 6.59375 12.09375 6.609375 C 12.078125 7.226562 12.0625 7.847656 12.046875 8.484375 C 11.566406 8.484375 11.085938 8.484375 10.59375 8.484375 C 10.660156 8.351562 10.710938 8.257812 10.796875 8.140625 C 10.820312 8.113281 10.84375 8.085938 10.863281 8.054688 C 10.886719 8.023438 10.914062 7.992188 10.9375 7.960938 C 10.960938 7.925781 10.984375 7.894531 11.011719 7.863281 C 11.25 7.546875 11.492188 7.230469 11.730469 6.917969 C 11.820312 6.800781 11.910156 6.679688 12 6.5625 Z M 12 6.5625 "/>
<path style=" stroke:none;fill-rule:nonzero;fill:rgb(27.450982%,11.372549%,5.098039%);fill-opacity:1;" d="M 8.507812 22.632812 C 8.625 22.640625 8.625 22.640625 8.71875 22.6875 C 8.71875 22.78125 8.71875 22.875 8.71875 22.96875 C 8.765625 22.96875 8.8125 22.96875 8.859375 22.96875 C 8.859375 23.03125 8.859375 23.09375 8.859375 23.15625 C 8.8125 23.15625 8.765625 23.15625 8.71875 23.15625 C 8.734375 23.355469 8.75 23.558594 8.765625 23.765625 C 8.8125 23.78125 8.859375 23.796875 8.90625 23.8125 C 8.90625 23.875 8.90625 23.9375 8.90625 24 C 8.832031 24.003906 8.757812 24.007812 8.683594 24.011719 C 8.640625 24.015625 8.601562 24.015625 8.558594 24.019531 C 8.4375 24 8.4375 24 8.332031 23.925781 C 8.222656 23.777344 8.222656 23.667969 8.214844 23.484375 C 8.210938 23.398438 8.210938 23.398438 8.207031 23.3125 C 8.203125 23.089844 8.203125 22.933594 8.296875 22.734375 C 8.390625 22.640625 8.390625 22.640625 8.507812 22.632812 Z M 8.625 23.109375 C 8.625 23.339844 8.625 23.574219 8.625 23.8125 C 8.640625 23.8125 8.65625 23.8125 8.671875 23.8125 C 8.671875 23.582031 8.671875 23.347656 8.671875 23.109375 C 8.65625 23.109375 8.640625 23.109375 8.625 23.109375 Z M 8.625 23.109375 "/>
<path style=" stroke:none;fill-rule:nonzero;fill:rgb(27.450982%,10.588235%,4.313726%);fill-opacity:1;" d="M 9.144531 23.628906 C 9.234375 23.671875 9.234375 23.671875 9.296875 23.757812 C 9.328125 23.859375 9.328125 23.859375 9.28125 24 C 9.1875 24 9.09375 24 9 24 C 8.96875 23.921875 8.9375 23.84375 8.90625 23.765625 C 9.019531 23.625 9.019531 23.625 9.144531 23.628906 Z M 9.144531 23.628906 "/>
<path style=" stroke:none;fill-rule:nonzero;fill:rgb(32.549021%,0.392157%,0.392157%);fill-opacity:1;" d="M 14.671875 22.828125 C 14.703125 22.828125 14.734375 22.828125 14.765625 22.828125 C 14.765625 22.921875 14.765625 23.015625 14.765625 23.109375 C 14.875 23.109375 14.980469 23.109375 15.09375 23.109375 C 15.09375 23.140625 15.09375 23.171875 15.09375 23.203125 C 14.804688 23.207031 14.804688 23.207031 14.71875 23.203125 C 14.671875 23.15625 14.671875 23.15625 14.667969 22.988281 C 14.667969 22.9375 14.671875 22.882812 14.671875 22.828125 Z M 14.671875 22.828125 "/>
<path style=" stroke:none;fill-rule:nonzero;fill:rgb(29.411766%,7.450981%,1.568628%);fill-opacity:1;" d="M 21.46875 18.890625 C 21.5 18.90625 21.53125 18.921875 21.5625 18.9375 C 21.40625 19.09375 21.253906 19.246094 21.09375 19.40625 C 21.0625 19.390625 21.03125 19.375 21 19.359375 C 21.050781 19.296875 21.101562 19.238281 21.15625 19.179688 C 21.183594 19.144531 21.214844 19.109375 21.242188 19.074219 C 21.328125 18.984375 21.328125 18.984375 21.46875 18.890625 Z M 21.46875 18.890625 "/>
<path style=" stroke:none;fill-rule:nonzero;fill:rgb(33.725491%,5.490196%,0%);fill-opacity:1;" d="M 17.953125 11.390625 C 18.246094 11.390625 18.539062 11.390625 18.84375 11.390625 C 18.84375 11.40625 18.84375 11.421875 18.84375 11.4375 C 18.550781 11.4375 18.257812 11.4375 17.953125 11.4375 C 17.953125 11.421875 17.953125 11.40625 17.953125 11.390625 Z M 17.953125 11.390625 "/>
<path style=" stroke:none;fill-rule:nonzero;fill:rgb(33.725491%,5.882353%,0%);fill-opacity:1;" d="M 5.203125 11.390625 C 5.496094 11.390625 5.789062 11.390625 6.09375 11.390625 C 6.09375 11.40625 6.09375 11.421875 6.09375 11.4375 C 5.800781 11.4375 5.507812 11.4375 5.203125 11.4375 C 5.203125 11.421875 5.203125 11.40625 5.203125 11.390625 Z M 5.203125 11.390625 "/>
<path style=" stroke:none;fill-rule:nonzero;fill:rgb(43.529412%,1.960784%,0%);fill-opacity:1;" d="M 12.375 23.109375 C 12.390625 23.109375 12.40625 23.109375 12.421875 23.109375 C 12.421875 23.386719 12.421875 23.667969 12.421875 23.953125 C 12.40625 23.953125 12.390625 23.953125 12.375 23.953125 C 12.375 23.675781 12.375 23.394531 12.375 23.109375 Z M 12.375 23.109375 "/>
<path style=" stroke:none;fill-rule:nonzero;fill:rgb(30.588236%,0%,0%);fill-opacity:1;" d="M 17.578125 2.859375 C 17.839844 2.859375 18.105469 2.859375 18.375 2.859375 C 18.375 2.875 18.375 2.890625 18.375 2.90625 C 18.113281 2.90625 17.847656 2.90625 17.578125 2.90625 C 17.578125 2.890625 17.578125 2.875 17.578125 2.859375 Z M 17.578125 2.859375 "/>
<path style=" stroke:none;fill-rule:nonzero;fill:rgb(29.019609%,0%,0%);fill-opacity:1;" d="M 5.71875 2.859375 C 5.980469 2.859375 6.246094 2.859375 6.515625 2.859375 C 6.515625 2.875 6.515625 2.890625 6.515625 2.90625 C 6.253906 2.90625 5.988281 2.90625 5.71875 2.90625 C 5.71875 2.890625 5.71875 2.875 5.71875 2.859375 Z M 5.71875 2.859375 "/>
<path style=" stroke:none;fill-rule:nonzero;fill:rgb(0%,0%,0%);fill-opacity:1;" d="M 16.359375 12.046875 C 16.375 12.046875 16.390625 12.046875 16.40625 12.046875 C 16.40625 12.1875 16.40625 12.324219 16.40625 12.46875 C 16.390625 12.46875 16.375 12.46875 16.359375 12.46875 C 16.359375 12.328125 16.359375 12.191406 16.359375 12.046875 Z M 16.359375 12.046875 "/>
<path style=" stroke:none;fill-rule:nonzero;fill:rgb(32.156864%,4.313726%,0%);fill-opacity:1;" d="M 4.171875 21.609375 C 4.359375 21.65625 4.359375 21.65625 4.359375 21.65625 Z M 4.171875 21.609375 "/>
<path style=" stroke:none;fill-rule:nonzero;fill:rgb(31.37255%,10.980392%,0%);fill-opacity:1;" d="M 3.65625 21.609375 C 3.84375 21.65625 3.84375 21.65625 3.84375 21.65625 Z M 3.65625 21.609375 "/>
<path style=" stroke:none;fill-rule:nonzero;fill:rgb(13.725491%,13.725491%,0%);fill-opacity:1;" d="M 9.796875 22.5 C 9.890625 22.546875 9.890625 22.546875 9.890625 22.546875 Z M 9.796875 22.5 "/>
<path style=" stroke:none;fill-rule:nonzero;fill:rgb(41.176471%,0%,0%);fill-opacity:1;" d="M 13.171875 16.640625 C 13.265625 16.6875 13.265625 16.6875 13.265625 16.6875 Z M 13.171875 16.640625 "/>
</g>
</svg>
